<?xml version="1.0" encoding="UTF-8"?><svg id="Layer_1" xmlns="http://www.w3.org/2000/svg" viewBox="0 0 100 100"><defs><style>.cls-1{fill:#573100;}</style></defs><path class="cls-1" d="M34.5,71.31h-3.6c-1.35-3.93-5.14-6.73-9.56-6.57-5.27.19-9.37,4.7-9.37,9.98v.17h10.02l1.98,17.39-.48.5.45.52-1.3,2.32c-.12.3.1.63.42.63h10.93c.32,0,.54-.33.42-.63l-1.3-2.34.39-.54-.42-.44,2.28-20.02c.06-.51-.34-.96-.86-.96ZM22.55,71.31c-.17,0-.32.05-.45.13l.06-4.54c.1-.36.44-.61.82-.55.56.08,1.08.23,1.59.42.35.13.54.49.48.84l-2.14,3.71h-.37ZM23.91,71.31l1.81-3.14c.25-.33.72-.42,1.05-.15.47.37.9.79,1.28,1.25.23.27.21.65,0,.92l-1.91,1.12h-2.24ZM27.84,71.31l.43-.26c.35-.19.8-.08,1,.26h-1.43ZM13.64,73.23c.09-.58.24-1.14.45-1.68.16-.42.64-.61,1.04-.42l4.92,2.89h-5.96c-.31-.13-.51-.44-.46-.79ZM15.36,70.27c-.21-.26-.23-.64-.01-.92.37-.47.79-.9,1.26-1.27.31-.25.76-.2,1.02.09l2.88,5.12-5.14-3.02ZM18.32,67.65c-.07-.34.1-.7.44-.84.54-.21,1.1-.36,1.68-.46.38-.06.72.18.82.53l-.08,5.86-2.86-5.1ZM31.78,88.25c-.1.87-.84,1.53-1.72,1.53h-3.09c-.88,0-1.62-.66-1.72-1.53l-1.45-12.76h1.11l1.45,12.76-.6-12.76h7.46l-1.45,12.76Z"/><path class="cls-1" d="M78.22,71.31h-11.95c-.51,0-.92.45-.86.96l2.27,20.01-.4.1.37,1.06-1.3,2.18c-.12.3.1.63.42.63h10.93c.32,0,.54-.33.42-.63l-1.3-2.2.3-1.04-.32-.08,2.28-20.02c.06-.51-.34-.96-.86-.96ZM75.69,88.95c-.1.92-.88,1.62-1.81,1.62h-3.26c-.93,0-1.71-.7-1.81-1.62l-1.53-13.46h1.17l1.53,13.46-.63-13.46h7.87l-1.53,13.46Z"/><path class="cls-1" d="M72.54,54.17l14.12-42.19-1.76.93c-11.65,6.17-21.55,6.16-30.01,4.74V5.66c0-.8-.65-1.45-1.45-1.45h-5.96c-.8,0-1.45.65-1.45,1.45v10.07c-4.44-1.08-8.28-2.01-11.84-1.89-3.15.11-3.82,1.89-4.68,4.14-.09.23-.18.47-.28.72l-15.6,33.85,1.79-.64c7.88-2.8,14.49-.16,21.48,2.64.21.08.42.17.62.25v38.1c0,1.85,1.5,3.34,3.34,3.34h19.2c1.85,0,3.34-1.5,3.34-3.34v-35.01c2.77-.75,5.71-1.9,8.86-3.56l.28-.15ZM47.57,6.23c0-.26.21-.48.48-.48h4.98c.26,0,.48.21.48.48v12.85h-5.94V6.23ZM37.52,43.03v10.05s-.02,0-.03-.01c-1.8-.72-3.58-1.43-5.37-2.05l13.91-33.27v12.52c0,1.25-.75,2.38-1.91,2.87h0c-4,1.67-6.6,5.57-6.6,9.9ZM46.74,90.05h-6.19v-2.8h6.19v2.8ZM41.41,50.58c0-4.92,3.99-8.92,8.92-8.92s8.92,3.99,8.92,8.92-3.99,8.92-8.92,8.92-8.92-3.99-8.92-8.92ZM60.36,90.05h-6.59v-2.8h6.59v2.8ZM60.7,35.91c-1.05-1.19-2.37-2.15-3.9-2.79-1.16-.48-1.91-1.61-1.91-2.87v-10.98c3.64.6,7.54.94,11.73.67l-5.92,15.97Z"/></svg>