<?xml version="1.0" encoding="UTF-8"?><svg id="Layer_1" xmlns="http://www.w3.org/2000/svg" viewBox="0 0 100 100"><defs><style>.cls-1{fill:#ff4522;}</style></defs><path class="cls-1" d="M69.62,14.87l-.04-.04c-1.59-1.88-4.23,1.07-2.74,3.14,1.58,2.07,4.5-.96,2.78-3.1Z"/><path class="cls-1" d="M7.02,42.36h-.05c-1.03-.21-1.64.93-1.31,2.03.27,1.18,1.5,2.25,2.4,2.08,1.98-.44.72-3.85-1.04-4.11Z"/><path class="cls-1" d="M84.92,25.52l-.03-.03c-.64-.56-1.77-.28-2.36.43-.78.78-1.22,2.39-.12,2.99,1.36.82,3.9-1.76,2.51-3.39Z"/><path class="cls-1" d="M91.95,48.58c-1.15-1.51-3.77.52-3,2.46.35.77,1.52.92,2.26.38.78-.48,1.43-1.86.77-2.79l-.03-.04Z"/><path class="cls-1" d="M8.78,55.44l-.04.02c-1.44.7-.43,3.58,1.47,3.58,2.14-.27.74-4.2-1.42-3.6Z"/><path class="cls-1" d="M77.28,42.9c.82-.63,1.35-2.44.7-3.41l-.03-.04c-.32-.43-.84-.33-1.2,0-.77.63-1.3,2.42-.65,3.38.31.45.81.38,1.18.06Z"/><path class="cls-1" d="M39.71,17.81c.73-.84.84-2.76.16-3.64l-.03-.04c-.38-.47-.95-.3-1.27.17-.6.79-.78,2.48-.19,3.43.33.57.93.58,1.33.09Z"/><path class="cls-1" d="M60.76,4.4l-.03-.04c-1.39-1.23-2.68,2.63-1.51,3.64,1.39.81,2.44-2.51,1.54-3.6Z"/><path class="cls-1" d="M38.4,22.78c.21-.95-.65-2.4-1.72-2.67h-.05c-1.86-.26-1.13,2.62.34,3.24.67.33,1.32.05,1.43-.57Z"/><path class="cls-1" d="M15.58,22.5l-.05.04c-.67.51-.84,1.81-.46,2.77.34,1.09,1.58,2.25,2.41,1.3.77-.82.51-2.61-.29-3.61-.4-.55-1.12-.88-1.6-.49Z"/><path class="cls-1" d="M80.9,33.93c.69-.18.97-1.37.46-1.98l-.03-.04c-.51-.71-1.3.05-1.31.83-.04.63.46,1.29.88,1.19Z"/><path class="cls-1" d="M33.85,13.21c.52-.5.18-1.67-.57-1.95l-.04-.02c-.8-.37-1.11.67-.74,1.36.27.57,1.03.91,1.35.61Z"/><path class="cls-1" d="M21.98,27.84h-.05c-2.12.2-1.56,3.82.1,5.3.9.91,2.36,1.23,2.96.25,1.13-1.75-.71-5.55-3.02-5.55ZM23.36,31.16c-.19.32-.66.21-.95-.08-.53-.48-.72-1.64-.03-1.71h.02c.74,0,1.34,1.22.97,1.79Z"/><path class="cls-1" d="M71.81,26.62l-.04-.02c-1.9-1.11-3.92,1.62-3.8,3.93-.03,2.13,1.95,3.69,3.45,2.57,1.86-1.19,2.54-5.18.39-6.48ZM71,30.37c-.59.44-1.36-.17-1.35-1.01-.05-.91.74-1.97,1.48-1.54h.02c.84.52.57,2.08-.15,2.54Z"/><path class="cls-1" d="M89.42,55.31h-.06c-1.34-.22-3.18,1.08-4.01,2.48-.72,1.05-1,2.99.41,3.25,1.85.39,4.19-1.78,4.67-3.65.3-.97-.12-1.96-1.02-2.08ZM88.61,57.32c-.18.7-1.05,1.51-1.75,1.37-.53-.1-.42-.82-.15-1.22.31-.52,1-1.01,1.5-.93h.02c.34.05.49.42.38.78Z"/><path class="cls-1" d="M15.77,67.05c-.36-1.54-1.78-2.9-3.02-3.32l-.1-.03c-1.93-.77-3.49,1.3-2.25,3.76.57,1.12,1.53,1.97,2.54,2.37,1.63.78,3.42-.43,2.84-2.79ZM13,67.19c-.42-.17-.83-.53-1.07-1-.52-1.04.14-1.9.95-1.58h.04c.52.19,1.12.76,1.27,1.41.24.99-.51,1.5-1.19,1.17Z"/><path class="cls-1" d="M82.69,36.23c-1.24,1.78-2.11,3.86-2.82,5.96-1.18,3.6-.96,3.94-.96,7.92-.1,1.24,2.72,5.41,2.79,7.73l.8,4.4c1.22-8.79,7.16-20.9,6.85-26.11-.78-6.41-4.21-3.71-6.67.1ZM86.85,39.76c-1.37,4.52-2.57,5.06-1.87,3.01.7-2.05,1.59-5.35.45-3.47-1.14,1.88-2.32,5.97-2.3,3.57.02-2.4-2.7,4.91-2.7,4.91.16-.83,1.25-5.81,1.65-6.84,1.47-3.78,2.84-6.49,4.17-6.68,1.76-.25,2.07.7.62,5.51Z"/><path class="cls-1" d="M31.51,81.57c-2.47-2.66-4.28-5.92-5.53-9.3-.94-2.13-1.21-4.47-1.53-6.77-3.19-2.83-4.9-10.1-7.11-13.3-1.47-2.37-3.64-4.97-6.16-5.01-1.76.18-1.88,2.11-1.11,4.08,1.3,3.17,3.72,5.53,5.88,7.83,6.82,7.29,9.26,15.55,10.57,20.39l5,2.09ZM12.34,49.61c2.29.11,3.68,2.59,5.56,6.3,0,0-7.85-6.42-5.56-6.3Z"/><path class="cls-1" d="M53.43,62.27c.54-.51.99.2,1.25.64.53.89,1.01,2.16,1.44,3.13.99,2.26,2.19,4.9,2.96,7.21.53,1.6.78,2.54-1.14,3.03-1.64.42-6.13.72-7.5-.27-1.17-.85-.32-3.22-.02-4.38.68-2.61,1.48-5.64,2.39-8.17.14-.38.31-.92.61-1.19ZM55.81,68.47l-.51-1.89-.73-1.88.53,1.94.71,1.84ZM53.4,74.54l.11-9.48c-.39,2.94-.65,5.94-.31,8.9l.2.57ZM55.52,74.32c.05-1.95-.25-3.98-.86-5.83-.03-.09-.05-.31-.16-.31l1.02,6.14ZM51.57,72.32c.26-1.35.63-2.69.73-4.07l-.49,1.91-.23,1.47v.69ZM57.56,73.95c-.06-.61-.27-1.17-.42-1.76l-.75-1.87.35,1.31.82,2.31Z"/><path class="cls-1" d="M34.23,51.94c1.1-.15,2.53.53,3.55.93,3.18,1.25,6.23,2.79,9.36,4.13.23.21.73.46.54.81-.26.47-3.36.79-4.03.88-3.17.43-6.75,1.01-9.91,1.24-1.93.14-2.82-.25-2.69-2.16.09-1.26,1.21-4.81,2.35-5.54.21-.13.56-.26.81-.29ZM40,54.74c-1.31-.51-2.58-1.16-4.01-1.37l3.78,1.4.23-.03ZM36.97,54.67c-1.04-.27-2.07-.64-3.18-.55-.02.1.13.1.21.12.87.19,1.86.21,2.72.48l.25-.05ZM42.2,56.65c-2.01-.41-4.04-.86-6.1-1.03-.9-.07-1.99-.13-2.88,0-.12.02-.25-.02-.34.1l9.31.93ZM45.3,56.93c-.83-.31-1.61-.73-2.5-.89l2.27.93.23-.04ZM37.35,57.27c-1.44-.14-2.89.04-4.27.42-.09.02-.28.03-.27.13l4.54-.55ZM43.86,57.82c-2.11,0-4.23-.07-6.3.36l-.97.25,7.27-.61Z"/><path class="cls-1" d="M48.65,54.34c-.06.05.86.96.93,1.12.05.12.08.16-.05.26-.43.28-1.73-.31-2.19-.49-2.11-.85-4.24-1.93-6.33-2.85-1.03-.46-3.94-1.44-4.53-2.14-.54-.64-.36-1.13.15-1.72.93-1.05,5.34-3.73,6.76-3.83.93-.07,1.52.32,1.97,1.02l4.78,9.19c.1.19-.05.34-.27.25l-1.21-.79ZM44.71,47.34c-.13-.35-.45-.73-.76-.96.16.35.45.71.76.96ZM44.86,49.68l-1.36-1.55c-.39-.35-.79-.71-1.21-1.03-.2-.15-.45-.37-.68-.44l3.26,3.02ZM46.68,52.83c-1.55-1.51-3.23-2.94-5.1-4.13-.54-.34-1.12-.71-1.72-.94l6.83,5.08ZM43.34,51.66c-.34-.36-.85-.66-1.3-.92-1.08-.64-2.26-1.17-3.48-1.55l4.27,2.28.51.19ZM47.66,52.28c-.42-.84-.9-1.67-1.52-2.4.36.86.94,1.64,1.52,2.4ZM45.54,53.58c-.81-.53-1.77-.94-2.73-1.23.82.53,1.82.85,2.73,1.23Z"/><path class="cls-1" d="M56.37,55.79l.31-1.04c-.06-.06-.62.49-.74.54-.13.07-.29.11-.44.14-.19-.04-.13-.48-.09-.62,1.3-2.89,2.23-5.99,3.5-8.87.74-1.67,1.3-1.96,3.29-1.49,1.69.41,3.97,1.38,5.33,2.37,1.21.89,1.48,1.58.2,2.59-3.29,1.87-6.48,3.93-9.83,5.7-.19.1-1.42.76-1.52.66ZM59.2,48.6l.26-.28,1.42-2.14c-.7.71-1.3,1.53-1.68,2.42ZM62.95,46.46c-.14-.03-.18.07-.27.14-1.84,1.4-3.22,3.27-4.41,5.14-.29.46-.62.93-.83,1.43l5.51-6.71ZM65.39,47.63c-.28.08-.55.28-.79.43-.34.22-.72.48-1.05.71-1.23.9-2.44,1.97-3.52,3.01.14.03.18-.07.27-.14,1.72-1.31,3.43-2.63,5.09-4.01ZM66.39,48.88c-.51.17-1.07.47-1.45.83.51-.22,1.04-.48,1.45-.83ZM60.27,52.89c-.49.18-1.01.5-1.38.83.5-.19.97-.51,1.38-.83Z"/><path class="cls-1" d="M52.48,42.89c.98-.01,3.71.04,4.35.74.47.51.17,1.39,0,1.97-.55,1.96-1.46,4.19-2.22,6.11-.27.68-.64,1.84-1.02,2.42-.84,1.31-1.77-.24-2.19-.96-1.12-1.9-2.28-4.3-3.22-6.3-.43-.93-1.42-2.52-.29-3.29.71-.48,3.62-.68,4.59-.69ZM52.65,50.85c-.08-1.85-.09-3.7-.07-5.56l-.23-1.33c-.22,1.89-.12,3.8.07,5.69.03.24.05.5.08.74.01.1.04.41.14.45ZM53.7,47.85l.98-3.41-.36.66c-.27.75-.6,1.59-.69,2.38,0,.08-.08.36.06.37ZM51.37,49.96l-.63-3.35-.58-2.03c.05,1.72.47,3.57,1.08,5.2.03.07.02.21.13.19ZM49.56,47.58l-.3-1.06-.53-1.19.03.34.79,1.91ZM53.93,51.19l1.96-5.73-.41.82c-.48,1.52-1.27,3.15-1.59,4.7-.01.07-.1.22.04.21ZM52.2,53.17l-.83-1.7c.13.48.36,1.02.59,1.48.06.11.04.27.24.23Z"/><path class="cls-1" d="M49.74,37.19l-.09-.15,3.02-2.82c.47-.67,1.11-1.2,1.63-1.83.89-1.08,1.64-2.31,2.45-3.45-.1-.12-.25.12-.3.18-.35.4-.63.89-.97,1.3-1.44,1.72-3.12,3.23-4.81,4.7-.07.06-.11.19-.19.07.86-2.59,1.4-5.31,1.88-8.03,1.53-1.99,2.71-4.22,3.81-6.49-.1-.13-.15.06-.2.13-.53.78-.98,1.66-1.52,2.46-.42.62-.97,1.45-1.44,2.01-.06.07-.16.24-.26.21.1-1.63.35-3.23.44-4.86.18-3.26-.11-6.56-.48-9.85-.15-.05-.1.14-.11.22-.05.96.12,2.08.12,3.07,0,2.59-.26,5.19-.5,7.75-.13.15-.08.04-.14-.07-.96-1.67-1.42-3.56-2.18-5.3-.03-.08-.03-.27-.16-.24.56,2.38,1.52,4.67,2.25,7.01-.38,2.48-.87,4.93-1.49,7.35-.22-.15-.36-.52-.48-.77-1.58-3.14-2.62-6.4-3.78-9.66-.03-.08-.04-.27-.16-.24.91,4.11,2.38,8.12,4.03,12.06-.28,1.1-.52,2.22-.84,3.3-.1.35-.59,2-.74,2.16-.17.19-1.13.41-1.23-.07l-1.59-4.19-1.82-5.93c.16,1.61.54,3.26.93,4.86.36,1.45.73,2.9,1.28,4.31-.01.12-.34.07-.42.06-.74-.07-1.6-.24-2.34-.38-.35-.07-1.84-.3-1.98-.51-.27-1.05-.52-2.11-.7-3.17-.63-3.67-.84-8.04.04-11.52,1.65-6.47,6.97-10.67,11.36-15.19.2-.21.93-1.24,1.2-1.18.48.26.38.86.49,1.29,1.14,4.52,3.56,8.45,5.15,12.81,1.83,5.02,2.57,10.34,1.39,15.3-.08.36-.45,1.92-.68,2.04-.14.07-1.87-.12-2.22-.12-2.65-.02-5.2.56-7.63,1.37Z"/><path class="cls-1" d="M40.54,35.53l-.15.07-3.51-.79c-.35-.96-1.13-2-1.45-2.93-.27-.78-.36-2.43-.74-3.11-.02-.04-.08-.11-.11-.06l.19,1.94-5.14-7.62,5.04,8.78c-.13.16-.09.09-.2.01-.44-.29-.89-.56-1.34-.83l-3.06-2.14c.6.61,1.25,1.18,1.91,1.74,1.45,1.22,3.41,2.24,3.95,4.11-.16.17-3.44-.28-3.93-.36-.56-.09-2.85-.46-3.2-.7-.41-.28-.73-1.23-.92-1.71-1.37-3.63-1.74-8.02-1.92-11.76-.03-.64-.22-2.66-.12-3.13.02-.09.02-.17.11-.22.13-.11.23-.01.35.05.85.4,2.3,1.52,3.14,2.1,3.5,2.43,7.57,5.21,9.85,8.85.24,2.58.56,5.18,1.24,7.72ZM38.59,34.96c.26,0,.04-1.84,0-2.07-.06-.44-.16-.94-.25-1.38-.11-.53-.23-1.15-.46-1.65l.7,5.1ZM34.35,27.76c-.01-.53-.28-1.12-.52-1.62.07.52.29,1.12.52,1.62Z"/><path class="cls-1" d="M30.7,38.47c.02.48-.48,1.65-.68,2.11-.82,1.93-1.94,4.15-2.97,5.97-.61,1.08-1.26,2.51-2.83,1.93-1.8-.67-4.87-3.05-5.7-4.79-.71-1.48.23-1.89,1.36-2.39,1.47-.65,3.19-1.18,4.73-1.71s3.55-1.36,5.07-1.65c.49-.1.99-.18,1.03.53ZM22.15,44.53c2.5-1.33,4.75-3.06,6.78-5l-6.78,5ZM27.78,42.36c.18.1.31-.09.4-.19.28-.3.53-.71.81-1.02l.27-.54-1.48,1.75ZM20.64,42.88c1.78-.73,3.58-1.46,5.13-2.59l-.45.14-4.56,2.26-.11.19ZM25.28,46.61l1.06-1.27.78-1.33c-.57.78-1.25,1.51-1.76,2.34-.04.06-.16.18-.08.26ZM23.56,46.07c1.05-.61,1.89-1.5,2.59-2.48-.79.79-1.72,1.46-2.48,2.27-.05.06-.21.13-.11.21Z"/><path class="cls-1" d="M65.96,38.01c-3.92-.55-7.79-1.47-11.66-.93-1.88.26-3.65.86-5.39,1.51-.77-.84-2.17-1.11-3.23-1.33-5.65-1.18-11.35-1.58-17-2.67-5.34-1.03-10.6-2.4-15.86-3.91-1.28-.37-1.43-.54-1.99.71-2.13,4.78-1.23,10.16,1.34,14.9,2.84.21,5.28,3.13,6.95,5.82.7,1.01,1.36,2.38,2.02,3.9,1.51.98,3.14,1.83,4.78,2.4.28-.05.61-1.57.73-1.89,4.37-12.16,16.32-18.17,30.64-17.4l5.13-.28c.04.11-2.61.39-3.09.77l4.28,1.19c.91-.88,3.21-2.33,3.16-2.53-.24-.38-.56-.21-.82-.25ZM27.9,35.6c-3.04-.25-6.22-.55-9.21-1.41-.56-.16-1.16-.34-1.69-.58l10.91,1.99ZM21.31,36.72c.27-.12.63-.14.93-.18.89-.1,1.84-.07,2.75,0l-2.01.18-1.67-.02ZM21.86,37.94c-1.28.37-2.64.6-4,.6,1.95-.57,1.84-.59,4-.6ZM21.16,35.91c-.08.13-.19.06-.31.07-1.02.02-2.04-.01-3.07-.08l-1.23-.22c1.52-.1,3.06.02,4.6.23ZM30.14,47.46l-.98,1.9.28-.86c.39-.72.63-1.53,1.14-2.17l-.44,1.14ZM31.81,44.53l.49-2.27.3-.86c-.12,1.06-.33,2.2-.79,3.13ZM33.03,44.52c-.02.31-.05.7-.16.98-.03-.32-.03-.73,0-1.05.02-.31.05-.7.16-.98.06.35.03.71,0,1.05ZM35.72,42.95l-.35-1.78c.17.41.37,1.05.42,1.47.01.12.06.23-.07.31ZM36.15,39.46c.32.55.61,1.14.85,1.73.1.25.27.59.27.84-.46-.79-.95-1.69-1.12-2.57ZM39.65,41.19c-.51-.12-2.28-2.18-2.82-2.69-.8-.73-1.79-1.5-2.3-.2-.53,1.35-.01,4.53-.1,6.1,0,.13-.09.35-.18.44-.32,0-.42-6.07-.86-6.54-.04-.03-.16-.04-.21-.03-.48.16-1.28,1.83-1.56,2.34-1.53,2.83-3.04,5.74-4.31,8.7-.1.79.34,1.46,1.16,1.63-.21.36-.25,1.04-.6,1.3-.22.16-1.49-.11-1.83-.19-8.44-2.04-15.57-11.97-13.03-20.16.04-.13.06-.37.23-.39l2.27.69c-.46.54-.7,1.26-.83,1.96-.25,1.36.11,3.84,1.04,5.03,1.06,1.36,2.66.82,3.9.46,2.43-.71,5-1.63,7.39-2.45.77-.27,3.32-.58,3.76-1,.13-.13.18-.47.32-.5.04,0,.75.11.86.13.18.04.8.21.92.29.46.31.35.86.7,1.24.3-.25.39-1.1.71-1.21.3.07,2.39.15,2.43.38-.24.32-.12.78.14,1.12.41.53,3.29,3.14,3.26,3.36-.08.12-.33.21-.47.18ZM39.91,38.9l-1.6-1.06.89.43,1.48,1.03-.78-.39ZM41.8,38.79c.41,0,.89.21,1.26.42-.4.06-.92-.16-1.26-.42ZM45.07,38.78l-4.52-1.02.03-.24,4.52,1.02-.03.24Z"/><path class="cls-1" d="M47.1,77.5c.52.74,1.01,1.41,1.44,1.97,3.56.6,7.2.6,10.74-.04.17-.25.34-.5.5-.72.09-.34.17-.7.26-1.07-4.23.8-8.72.74-12.94-.14Z"/><path class="cls-1" d="M36.7,81.75c1.46.55,3.18,1.44,4.77,1.64,1.25.2,2.16-.37,2.6-1.22-.6-.36-1.41-.92-1.61-1.14-.67-.74-1.34-1.46-2.01-2.23-.27-.31-.71-.51-.84-.92l1.74.8c.41-.04.73-.15.37-.5-2.39-1.36-5.01-2.57-6.93-4.47l3.69,2.35c1.51.8,3.08,1.47,4.67,2.03-.35-.66-.76-1.38-1.19-2.13-2.96-1.19-5.66-2.83-7.82-4.95-5.99-5.9-6.46-14.04-1.4-20.58,8.28-10.71,26.51-11.64,37.49-3.84,8.3,5.9,10.4,16.14,3.59,23.8-2.4,2.7-5.58,4.68-9.12,5.98.16.6.41,1.07.71,1.29,1.21-.5,2.39-1.08,3.54-1.74.28-.12,2.48-1.68,2.59-1.59.15.12-.12.17-.16.2-1.53,1.13-3.27,2.15-4.96,3.09l-.14.41c.18.05.37.09.58.13.3-.09.57-.24.79-.43l.17.12c-.17,0-.35.23-.5.4,1.28.2,2.87.49,4.29.49,3.33,0,4.2-.64,6.95-6.14,1.51-3.35,2.29-7.03,2.11-10.83-.64-13.96-13.55-22.26-28.32-21.87-12.03.32-22.24,6.88-24.88,17.69-2.11,8.66.23,17.16,6.07,23.08,1.03.39,2.08.69,3.17,1.1ZM42.31,82.19c.14-.05.88.36.91.4.36.57-1.14-.21-.91-.4ZM40.94,80.6l.44.75c-.14.13-1.52-.8-.44-.75ZM37.74,79.9c.3.04.58.42.59.69-.2,0-.69-.59-.59-.69ZM40.28,79.82c-.27-.04-.38-.21-.67-.08-.64-1.16.55-.69.67.08ZM39.05,81.04c.2.12.47.44.63.61-.21.13-.84-.52-.84-.57,0-.06.08-.12.21-.04ZM38.21,77.07c.14.06.89.69.51.76-.23.04-.88-.53-.51-.76ZM38.42,79.44c-.41-.14-.93-.69-.63-1.07.48.2.62.61.63,1.07ZM37.74,76.68c-.36.07-.58-.24-.59-.53.12-.12.64.5.59.53ZM36.9,77.91c-.38-.04-.47-.43-.59-.69.39-.02.63.37.59.69ZM35.38,75.39c.28-.12.78.58.68.69-.11.11-.8-.58-.68-.69ZM34.19,75.84c-.31-.18-.54-.45-.67-.76.11-.1.8.55.67.76ZM32.08,72.33c.42.23.62.63.84.99-.14.12-.92-.8-.84-.99Z"/><path class="cls-1" d="M39.35,72.98c.35.27.81.55,1.33.82-.66-1.1-1.32-2.16-1.91-3.09-.49.69-.53,1.42.58,2.27Z"/><path class="cls-1" d="M54.67,58.94l.46.4-.66-.21c-.42-.13-.96.13-.98.49l-.04.56-.26-.49c-.17-.32-.76-.34-1.09-.05l-.52.46.26-.55c.17-.35-.21-.65-.7-.56l-.76.15.66-.35c.42-.22.44-.66.03-.81l-.64-.24.75.02c.48.01.88-.36.74-.68l-.22-.51.49.37c.31.24.91.11,1.1-.23l.3-.54v.55c0,.35.52.53.95.32l.68-.32-.49.48c-.31.3-.12.7.35.73l.75.05-.75.17c-.48.11-.7.54-.41.8Z"/><path class="cls-1" d="M92.51,64.93c-3.58,2-7.17,7.04-11.22,8.23-1.26.41-3.48.51-4.02-1.02-.22.57-.46,1.14-.74,1.68-1.32,2.24-1.99,3.72-2.28,4.73-.23.81-1.05,1.29-1.88,1.18-2.3-.3-5.13-.39-6.3-1.03-.94-.5-1.37-3.42-.68-4.82,2.86-5.83,7.77-17.03,2.51-16.68-4.01.26-5.63,14.25-7.7,22.52-.3.4-.6.85-.91,1.35-.54.79-1.09,1.56-1.93,2.11-2.02,1.4-5.57.6-7.41-1.15-1.76-1.51-8.73-12.35-9.66-14.31-.69-1.58-2.27-3.81-3.94-4.06-1.1-.23-1.48.67-1.3,1.45.15.96.99,2.2,1.73,3.48.87,1.53,7.65,11.86,7.56,13.52-.03,1.45-1.16,2.72-2.98,2.43-1.63-.2-3.4-1.12-4.9-1.68-1.6-.62-3.14-.97-4.64-1.73l-.04-.02c-1.72-.81-15.96-6.92-17.92-7.54-7.1-2.22-7.23,2.54-3.81,3.38,1.96.48,11.74-.24,19.92,11.46,2.81,4.02,6.46,5.83,11.78,6.99,8.31,1.65,19.74,1.15,26.36-3.82,1.29-.99,4.32-4.03,6.15-6.72,1.4-1.5,2.94-4.02,4.25-5.16,1.36-1.2,2.74-2.32,4.3-3.15,4.32-2.19,10.64-4.57,12.36-10.32.65-2.5-1.55-1.96-2.65-1.29ZM37.75,67.65c-2.06-2.98-1.13-3.17-.25-2.01.88,1.16,5.97,9.75,5.97,9.75l-5.72-7.74ZM9.15,74.44c1.05-1.13,4.06-.15,5.86.6,0,0-6.91.53-5.86-.6ZM40.35,88.03c-12.69-6.73-16.91-8.79-16.91-8.79,1.92.61,8.5,2.83,10.18,3.64l.04.02c1.46.76,2.96,1.11,4.52,1.73,1.46.56,3.2,1.48,4.78,1.68,1.77.29,2.76-1.43,2.58-2.77-.6-4.52,6.67,10.78-5.2,4.49ZM67.86,59.09c1.91-.12-3.57,10.17-3.57,10.17.28-1.74,1.66-10.04,3.57-10.17ZM70.88,81.98c-4.57-.13-8.49-3.4-6.43-2.55,1.61.67,4.02,1.47,7.98,1.2s.76,1.41-1.55,1.35ZM93.73,66.84c-1.7,2.76-10.14,6.41-10.14,6.41,2.59-1.86,7.62-6.49,8.27-6.97.65-.49,3.57-2.19,1.86.57Z"/><path class="cls-1" d="M74.74,55.13c-.3-.97-.87-2.07-1.43-2.92-.6-.91-1.72-2.56-3.01-2.48-.64.04-1.34.5-1.88.81-2.11,1.2-4.16,2.52-6.25,3.75-1.19.71-2.54,1.36-3.68,2.1-1.35.87-1.26,1.32.46,1.43,1.92.12,4.01.06,6.05.02.38-.53.79-.95,1.23-1.26-.77.02-1.53.05-2.3.06.94-.16,1.88-.29,2.83-.37.34-.16.69-.27,1.08-.29.11,0,.21-.01.31-.01h0c.55,0,1.01.1,1.38.26.8.04,1.59.14,2.38.31-.02.12-.39.08-.5.07-.21-.01-.4-.07-.6-.08-.25,0-.51,0-.76,0,.37.26.63.56.81.85.08.13.19.3.29.55.81.02,1.61.03,2.4-.03,1.87-.14,1.6-1.48,1.2-2.76ZM64.83,53.65c1.59-.88,3.29-1.63,5.09-2.02l-5.32,2.2c.02-.11.14-.13.23-.18ZM60.12,57.17c.03-.13.15-.13.26-.14.44-.04,1.19-.11,1.6-.07.11.01.23.01.26.14l-2.13.07ZM62.02,55.89l2.13-.96c2.42-.92,4.91-1.69,7.52-1.96l-9.65,2.91ZM68.49,55.18c.08-.13.4-.19.55-.23,1.06-.27,2.16-.35,3.25-.41l-3.8.64Z"/><path class="cls-1" d="M47.44,60.08c-3.99.31-8.5.99-12.49,1.55-1.38.19-2.87.4-2.87,2,0,1.4,2.11,4.98,3.85,5.91-.09-.15-.16-.27-.22-.36-.14-.24-.28-.48-.42-.72-.66-1.1-1.28-2.14-1.44-3.14-.17-.78,0-1.57.44-2.13.41-.52,1.02-.81,1.72-.81.18,0,.36.02.55.06.13.02.25.08.38.11,1.24-.36,2.57-.56,3.83-.79.02.1-.14.1-.22.12-1.03.3-2.07.55-3.11.82.47.2.9.5,1.3.84.21-.07.41-.16.61-.22l-.53.29c.29.26.57.53.82.83,1.05-.63,2.16-1.18,3.31-1.61-1.01.66-2.06,1.26-3.09,1.9.34.43.64.86.89,1.28.41-.48,2.26-1.93,2.43-2.08l2.04-1.24-4.43,3.39c.2.34.36.65.5.94,1.59-1.23,3.2-2.53,4.72-3.8.52-.43,2.76-2.2,2.89-2.64.19-.69-1.02-.53-1.49-.49ZM43.85,61.55l.51-.21c.84-.2,1.68-.46,2.55-.49l-3.06.71Z"/><path class="cls-1" d="M50.28,62.16c-.6.08-2.08,1.3-2.61,1.71-1.81,1.43-3.74,3.04-5.56,4.62.15.26.32.54.5.84.09-.08.17-.17.26-.24.08-.06.62-.5.68-.46-.28.28-.57.56-.85.85.2.32.41.67.64,1.03.63-.86,1.37-1.65,2.16-2.37l-2.01,2.61c.32.51.67,1.05,1.03,1.61.77-2.15,1.92-4.17,3.46-5.91l-3.38,6.03c.6.93,1.24,1.9,1.87,2.83.93-.22,1.14-.85,1.46-1.77.99-2.91,2.21-6.53,2.87-9.49.12-.55.55-2.03-.51-1.89ZM45.95,73.56l-.04-.36.49-1.33c.01.59-.37,1.11-.45,1.69ZM47,65.71l-.98.74,1.95-1.87.75-.53-1.72,1.65ZM47.67,70.67c-.15-.06,0-.46.02-.58.34-1.42.9-2.79,1.42-4.16l.5-1.04-1.95,5.77Z"/><path class="cls-1" d="M61.02,70.09l-1.14-1.95c.46.5.85,1.06,1.2,1.64.14-.68.29-1.35.43-2.01l-1.95-2.43c.71.64,1.39,1.32,2.04,2.01.1-.43.2-.86.3-1.28l-1.8-1.43c.22.04.43.21.61.32.43.27.84.58,1.24.88.11-.47.23-.92.35-1.36-1.27-.71-2.54-1.41-3.8-2.07-.46-.24-1.82-1.03-2.29-.91-.53.3-.21.93-.06,1.35.13.37.34.78.51,1.15,1.17,2.65,2.54,5.63,3.9,8.23.15-.73.3-1.45.44-2.15ZM58.02,64.89l-.76-1.44c.62.79,1.2,1.67,1.54,2.59l-.79-1.14Z"/><path class="cls-1" d="M69.32,68.1c-.63,1.6-1.44,3.44-2.46,5.56,1.05-.54,2.02-1.14,2.57-1.59,2.18-1.79,1.37-2.96-.11-3.96Z"/><path class="cls-1" d="M62.93,62.36l-2.19-1.09c.78.24,1.52.57,2.24.94.17-.54.36-1.05.55-1.53l-1.87-.31c.65.02,1.3.06,1.95.1.17-.43.35-.84.54-1.21-2.13,0-4.27.02-6.4.02-1.12.36-.36,1,.26,1.39,1.58.77,3.13,1.65,4.67,2.54.08-.29.17-.58.25-.85Z"/><path class="cls-1" d="M75.39,60.75c-.45-1.2-1.92-1.04-3.03-1.1-.3-.02-.6-.02-.9-.03,0,.26,0,.55-.03.87.43.07.86.15,1.28.25l-.25.06c-.34-.06-.69-.11-1.04-.16-.04.4-.1.84-.19,1.33.63.22,1.26.46,1.86.75.02.13-.15.06-.23.04-.56-.17-1.13-.3-1.7-.45-.06.31-.14.63-.23.97.48.14.92.46,1.4.61-.12.18-.49-.12-.66-.13l-.76-.39c-.09.33-.18.68-.29,1.05.3.2.6.41.88.64l-.94-.45c-.11.35-.23.72-.36,1.1.16.1.32.2.46.3-.17-.05-.33-.13-.5-.2-.12.36-.25.73-.4,1.11.24.12.48.26.72.37,1.51.73,2.55.6,3.44-.76.83-1.26,1.98-4.41,1.46-5.8Z"/></svg>