<?xml version="1.0" encoding="UTF-8"?><svg id="Layer_1" xmlns="http://www.w3.org/2000/svg" viewBox="0 0 100 100"><defs><style>.cls-1{fill:#ff4522;}</style></defs><path class="cls-1" d="M73.55,22.13l-30.54-.04c-.38,0-.68.31-.68.68v16.59c-1.4-5.01-2.54-10.11-2.95-16.48h.39c.13,0,.24-.09.26-.22h.17c.14,0,.26-.12.26-.26v-1.4c0-.06-.02-.11-.05-.16.03-.04.05-.1.05-.16v-1.4c0-.14-.12-.26-.26-.26h-.17v-.93c0-.55-.45-1-1-1h-6.53c-.55,0-1,.45-1,1v.93h-.17c-.14,0-.26.12-.26.26v1.4c0,.06.02.11.05.16-.03.04-.05.1-.05.16v1.4c0,.14.12.26.26.26h.17c.02.12.13.22.26.22h.39c-.8,12.49-4.4,20.08-7.26,31.68-3.01,12.2-1.9,26.38-.05,38.86.24,1.62,1.64,2.82,3.28,2.82h15.29c1.21,0,2.27-.65,2.85-1.64h24.68c1.71,0,3.1-1.39,3.1-3.1V22.77c0-.31-.22-.57-.5-.65ZM31.65,33.56h5.2c.19,2.63.43,5.09.69,7.52-.6-.21-1.25-.32-1.92-.32-2.61,0-4.83,1.69-5.67,4.05-.25.7-.8,1.26-1.51,1.6,1.22-4.29,2.39-8.3,3.2-12.84ZM39.09,90.93c-.09,1.5-.58,2.61-1.17,2.61h-8.9c-1.45,0-2.68-1.11-2.9-2.61-1.58-11.17-2.54-23.81-.18-34.84h13.23c.95,11.03.57,23.67-.07,34.84ZM72.2,33.45v50.67c0,2.06-1.79,3.73-3.98,3.73h-20.06c-.24,0-.48-.03-.71-.07,1.33-11,1.75-22.83-.81-33.23-.79-3.2-1.63-6.09-2.46-8.86v-15.11c4.67,0,4.67,1.08,9.34,1.08s4.67-1.08,9.34-1.08,4.67,1.08,9.34,1.08v1.79Z"/><path class="cls-1" d="M57.76,4.38h-.6c-.83.42-1.28,1.33-.5,2.06,1.42,1.34,3.09-1.33,1.11-2.06Z"/><path class="cls-1" d="M53.88,16.38c1.33,0,2.4-1.08,2.4-2.4s-1.08-2.4-2.4-2.4-2.4,1.08-2.4,2.4,1.08,2.4,2.4,2.4Z"/><path class="cls-1" d="M61.68,12.78c.99,0,1.8-.81,1.8-1.8s-.81-1.8-1.8-1.8-1.8.81-1.8,1.8.81,1.8,1.8,1.8Z"/><path class="cls-1" d="M59.88,40.39c1.33,0,2.4-1.07,2.4-2.4s-1.07-2.4-2.4-2.4-2.4,1.07-2.4,2.4,1.07,2.4,2.4,2.4Z"/><path class="cls-1" d="M55.08,43.39c0-.99-.81-1.8-1.8-1.8s-1.8.81-1.8,1.8.81,1.8,1.8,1.8,1.8-.81,1.8-1.8Z"/><path class="cls-1" d="M59.28,49.99c.99,0,1.8-.81,1.8-1.8s-.81-1.8-1.8-1.8-1.8.81-1.8,1.8.81,1.8,1.8,1.8Z"/><path class="cls-1" d="M62.28,43.99c0,.66.54,1.2,1.2,1.2s1.2-.54,1.2-1.2-.54-1.2-1.2-1.2-1.2.54-1.2,1.2Z"/><circle class="cls-1" cx="55.08" cy="53.59" r="1.2"/><circle class="cls-1" cx="59.88" cy="58.39" r="1.2"/><path class="cls-1" d="M57.82,63.58h-.5c-.69.35-1.06,1.11-.42,1.71,1.18,1.12,2.58-1.11.92-1.71Z"/><path class="cls-1" d="M54.58,69.58c-1.11,0-2,.9-2,2s.9,2,2,2,2-.9,2-2-.9-2-2-2Z"/><path class="cls-1" d="M62.58,69.09c0-.83-.67-1.5-1.5-1.5s-1.5.67-1.5,1.5.67,1.5,1.5,1.5,1.5-.67,1.5-1.5Z"/><circle class="cls-1" cx="59.08" cy="75.9" r="1.5"/><circle class="cls-1" cx="62.58" cy="72.4" r="1"/><circle class="cls-1" cx="55.58" cy="80.4" r="1"/><path class="cls-1" d="M59.58,83.4c-.55,0-1,.45-1,1s.45,1,1,1,1-.45,1-1-.45-1-1-1Z"/></svg>