<?xml version="1.0" encoding="UTF-8"?><svg id="Layer_1" xmlns="http://www.w3.org/2000/svg" viewBox="0 0 100 100"><defs><style>.cls-1{fill:#ff5c8f;}</style></defs><path class="cls-1" d="M86.33,18.85l-.03-.04c-1.34-1.92-4.11.63-2.88,2.73,1.32,2.1,4.34-.51,2.91-2.69Z"/><path class="cls-1" d="M7.31,56.42h-.05c-.96-.3-1.63.73-1.42,1.8.15,1.14,1.22,2.27,2.09,2.18,1.91-.24,1.03-3.58-.62-3.99Z"/><path class="cls-1" d="M90.68,29.34l-.03-.03c-.56-.59-1.65-.42-2.28.2-.81.67-1.37,2.15-.38,2.82,1.22.89,3.85-1.31,2.68-2.99Z"/><path class="cls-1" d="M90.52,54.61c-.96-1.53-3.62.16-3.06,2.06.26.76,1.36,1.01,2.11.56.78-.39,1.52-1.63.98-2.57l-.03-.04Z"/><path class="cls-1" d="M8.1,39.7h-.04c-1.43.55-.73,3.37,1.07,3.54,2.05-.06,1.08-3.91-1.02-3.54Z"/><path class="cls-1" d="M79.9,42.92c.84-.53,1.5-2.19.97-3.17l-.02-.04c-.27-.43-.76-.38-1.14-.1-.79.53-1.45,2.18-.92,3.15.25.45.73.43,1.11.17Z"/><path class="cls-1" d="M48.34,9.89c.77-.73,1.04-2.53.48-3.44l-.03-.04c-.32-.48-.87-.37-1.22.05-.64.69-.96,2.28-.48,3.23.26.57.83.63,1.25.2Z"/><path class="cls-1" d="M66.79,11.13l-.03-.04c-1.21-1.29-2.78,2.25-1.76,3.31,1.24.89,2.53-2.16,1.79-3.27Z"/><path class="cls-1" d="M50.67,14.95c.84-.39,1.45-1.87,1.04-2.84l-.02-.05c-.88-1.55-2.64.66-2.27,2.13.13.7.72,1.03,1.26.75Z"/><path class="cls-1" d="M12.26,26.9l-.04.05c-.45.67-.21,1.89.42,2.63.64.88,2.1,1.55,2.56.44.45-.97-.33-2.5-1.35-3.17-.52-.38-1.27-.45-1.6.04Z"/><path class="cls-1" d="M86.13,36.94c.67-.11,1.04-1.21.61-1.84l-.02-.04c-.42-.72-1.23-.07-1.32.67-.09.59.32,1.27.73,1.2Z"/><path class="cls-1" d="M24.98,6.94h-.04c-2.03,0-1.82,3.47-.38,5.03.77.94,2.12,1.38,2.78.5,1.23-1.56-.18-5.32-2.36-5.53ZM25.99,10.21c-.21.28-.65.14-.9-.16-.46-.5-.53-1.62.12-1.62h.01c.7.07,1.16,1.28.76,1.78Z"/><path class="cls-1" d="M75.58,36.52l-.04-.03c-1.7-1.22-3.86,1.18-3.95,3.39-.22,2.01,1.52,3.67,3.04,2.75,1.87-.96,2.87-4.68.95-6.11ZM74.47,39.99c-.59.36-1.27-.29-1.19-1.07.04-.86.88-1.8,1.54-1.32h.01c.75.57.36,2.02-.37,2.4Z"/><path class="cls-1" d="M87.52,60.76h-.05c-1.25-.33-3.11.73-4.02,1.98-.77.93-1.22,2.74.1,3.12,1.72.53,4.12-1.31,4.75-3.03.37-.89.06-1.87-.78-2.07ZM86.57,62.59c-.23.65-1.13,1.34-1.78,1.14-.49-.14-.33-.82-.04-1.17.34-.47,1.04-.87,1.51-.75h.02c.32.08.43.44.29.78Z"/><path class="cls-1" d="M16.71,65.28c-.2-1.49-1.42-2.9-2.57-3.41l-.09-.04c-1.76-.9-3.42.91-2.47,3.36.44,1.11,1.27,2,2.19,2.48,1.48.89,3.28-.1,2.94-2.39ZM14.08,65.17c-.39-.2-.74-.57-.92-1.04-.4-1.03.3-1.79,1.04-1.41l.04.02c.48.21.99.81,1.08,1.43.14.96-.61,1.37-1.23,1Z"/><path class="cls-1" d="M72.89,14.7c-1.46,1.67-2.57,3.67-3.53,5.72-1.61,3.51-1.42,3.88-1.87,7.91-.24,1.25,2.14,5.79,1.95,8.14l.31,4.55c2.23-8.76,9.62-20.35,9.9-25.66-.06-6.58-3.84-4.24-6.76-.65ZM76.71,18.75c-1.9,4.42-3.17,4.83-2.24,2.83.94-2,2.22-5.24.85-3.46-1.37,1.78-3.03,5.78-2.74,3.35.29-2.43-3.29,4.66-3.29,4.66.25-.82,1.92-5.74,2.45-6.74,1.92-3.66,3.61-6.25,4.98-6.29,1.81-.05,2.01.95,0,5.65Z"/><path class="cls-1" d="M26.62,78.85c-2.03-2.49-3.53-5.41-4.55-8.44-.83-2.06-1.02-4.29-1.26-6.48-2.95-2.78-4.37-9.75-6.38-12.85-1.33-2.3-3.32-4.83-5.72-4.94-1.68.12-1.85,1.95-1.17,3.85,1.14,3.05,3.38,5.36,5.37,7.61,6.35,7.21,8.41,15.23,9.51,19.85l4.21,1.41ZM9.74,48.48c2.17.17,3.42,2.56,5.11,6.15,0,0-7.28-6.32-5.11-6.15Z"/><path class="cls-1" d="M65.72,75.36c-.95-.65-1.56-1.93-2.31-2.84-.69-1.11-1.71-1.91-2.37-3.03,1.94,1.52,3.52,3.67,4.69,5.82v.05Z"/><path class="cls-1" d="M67.53,58.66c2.27-.59,4.94-.44,7.22,0-.35,0-7.25.03-7.26.03l.04-.03Z"/><path class="cls-1" d="M48.7,79.21c-.02-2.28.21-4.71.52-6.98.06.19.21,1.19.16,1.64-.1,1.75-.1,3.69-.66,5.34h-.02Z"/><path class="cls-1" d="M35.77,59.66c-1.6-.2-5.11-.47-6.64-.72,2.09-.37,4.56.07,6.6.71l.04.02Z"/><path class="cls-1" d="M55.18,47s.04-5.66.04-6c.42,1.76.55,4.2-.02,5.96l-.02.04Z"/><path class="cls-1" d="M38.45,53.12c-.16.07-.47-.12-.63-.19-1.23-.59-2.49-1.39-3.67-2.1,1.61.18,3.08,1.27,4.3,2.29Z"/><path class="cls-1" d="M33.69,73.5c.2-.68.94-1.11,1.97-2.19.84-.8,1.71-1.56,1.94-1.55-1.01,1.33-2.54,2.66-3.86,3.75h-.05Z"/><path class="cls-1" d="M40.05,77.07c.47-1.61,1.35-3.35,2.43-4.67-.14.3-.66,1.61-.91,2.09-.41.7-1.49,2.54-1.52,2.59v-.02Z"/><path class="cls-1" d="M67.84,45.62c-.87,1.21-1.91,2.35-3.12,3.21-.03-.03.27-.45.33-.53.28-.33.63-.74.91-1.06.43-.47,1.17-1.28,1.65-1.66.1-.08.25-.16.23.03Z"/><path class="cls-1" d="M36.63,76.29l.29-.76c.67-1.06,1.48-2.02,2.4-2.88l-2.69,3.64Z"/><path class="cls-1" d="M60.52,46.77c.1-1.27.47-2.75,1.24-3.76-.18,1.27-.69,2.6-1.24,3.76Z"/><path class="cls-1" d="M31.47,56.58c-1.33-.34-2.77-.37-4.03-.97,1.4-.07,2.79.43,4.13.81l-.1.16Z"/><path class="cls-1" d="M57.88,78.32c-.15.14-.29-.27-.33-.36-.44-.97-.84-2.34-.94-3.39.73,1.14.94,2.47,1.27,3.76Z"/><path class="cls-1" d="M43.13,44.89c.49.59.75,1.36,1.19,1.97.02.2-.15,0-.2-.06-.81-.9-1.53-1.87-2.22-2.86,0-.04.22-.05.23-.03.32.31.72.65.99.99Z"/><path class="cls-1" d="M40.74,48.3c-.12.1-.41-.16-.49-.23-.9-.74-1.7-1.6-2.61-2.33.18-.08.41.04.56.12,1.01.54,1.78,1.62,2.55,2.44Z"/><path class="cls-1" d="M45.41,79.22c-.09-1.32.35-2.67.84-3.89-.01,1.31-.37,2.67-.84,3.89Z"/><path class="cls-1" d="M76.02,62.28c-1.28-.07-2.57-.5-3.76-.98,1.28-.07,2.63.39,3.76.98Z"/><path class="cls-1" d="M27.67,64.51c1.21-.52,2.64-.88,3.95-.81-.65.23-1.34.43-2.01.57-.63.14-1.3.31-1.94.24Z"/><path class="cls-1" d="M69.13,72c-.15.09-.45-.2-.56-.29-.81-.7-1.5-1.56-2.19-2.37,1.12.63,2.06,1.59,2.75,2.66Z"/><path class="cls-1" d="M51.48,45.55c-.25-.69-.42-1.42-.55-2.14-.08-.45-.18-.96-.13-1.42.61,1.03.74,2.38.68,3.56Z"/><path class="cls-1" d="M62.36,76.85l-1-1.81-.47-1.35c.7.88,1.43,2.02,1.46,3.16Z"/><path class="cls-1" d="M33.63,53.47l-1.88-.53-1.68-.78c1.24.03,2.5.69,3.57,1.31Z"/><path class="cls-1" d="M36.72,50.1l-.82-.33-2.02-1.31c1.08-.02,2.11.91,2.84,1.64Z"/><path class="cls-1" d="M62.31,48.02l1.84-3.04c.05.15-.06.48-.11.63-.33.9-1.03,1.75-1.72,2.41Z"/><path class="cls-1" d="M58.34,45.92c-.19,0-.05-1.25-.04-1.42.02-.21.2-1.81.35-1.82.15.09.09.23.1.36.09.9-.18,2-.42,2.87Z"/><path class="cls-1" d="M30.47,70.97c-.13-.1.15-.29.23-.36.23-.2.54-.35.79-.52l1.88-.84c-.86.74-1.86,1.3-2.9,1.73Z"/><path class="cls-1" d="M26.8,61.55c1.09-.27,2.25-.41,3.36-.21,0,.13-1.36.29-1.55.31-.4.03-1.05.04-1.45,0-.14-.01-.27.05-.36-.1Z"/><path class="cls-1" d="M71.02,65.73c-1.03-.15-2.08-.62-3.04-1.04,1.06-.06,2.21.39,3.04,1.04Z"/><path class="cls-1" d="M53,79.65c-.34-.97-.34-2.02-.28-3.03.32.81.45,1.81.37,2.67-.01.14.05.27-.1.36Z"/><path class="cls-1" d="M76.06,56.01c-.92.27-1.89.28-2.83.21.26-.33,2.82-.53,2.83-.21Z"/><path class="cls-1" d="M47.72,44.84l-.16.1-1.23-2.27c.75.47,1.14,1.35,1.39,2.17Z"/><path class="cls-1" d="M72.1,69.95c-.08.11-.21-.02-.3-.07-.44-.26-1.07-.79-1.46-1.14-.11-.1-.5-.4-.43-.56.16.16.71.31.83.42l1.36,1.35Z"/><path class="cls-1" d="M42.04,78.51c-.11-.68.24-1.46.65-1.98.03.19-.04.5-.09.69-.12.44-.32.9-.56,1.29Z"/><path class="cls-1" d="M27.52,59.19c-.11,0-1.06-.13-1.06-.21.54-.38,1.21-.04,1.78.06,0,.09-.63.16-.72.15Z"/><path class="cls-1" d="M74.39,67.37c-.51-.03-1.11-.41-1.52-.72.56-.11,1.16.34,1.52.72Z"/><path class="cls-1" d="M25.36,47.9c-.32.04-1.16-1.39-.73-1.78.69.37,1.16,1.03.73,1.78Z"/><path class="cls-1" d="M24.11,47.97c-.62-.31-.79-1.28-.6-1.91.68.41.92,1.18.6,1.91Z"/><path class="cls-1" d="M21.97,45.67c0-.12.19-.6.29-.59.55.44.42,1.13.37,1.74-.45.08-.68-.84-.65-1.15Z"/><path class="cls-1" d="M26.68,46.7c-.5-.26-1.1-.81-.83-1.41.6.1,1.01.84.83,1.41Z"/><path class="cls-1" d="M55.54,37.35c-.14.35-1.36.64-1.55.43-.36-.39,1.27-.9,1.55-.43Z"/><path class="cls-1" d="M27.83,45.76c.76.4.94,1.56.13,1.11-.39-.22-.33-.74-.33-1.13.07,0,.14-.02.2.02Z"/><path class="cls-1" d="M62.27,36.54c-.17.01-.32-1.48.13-1.58.54.38.31,1.21-.13,1.58Z"/><path class="cls-1" d="M24.04,45.53c-.26-.11-.66-1.11-.44-1.27.69-.15.9.91.44,1.27Z"/><path class="cls-1" d="M20.54,45.48c.46.39.53,1.04.5,1.61-.15.16-.52-.49-.56-.59-.04-.11-.1-1.03.06-1.02Z"/><path class="cls-1" d="M63.89,36.4c.02-.44.38-.2.53.1.21.4-.04,1.39-.34.86-.04-.07-.19-.86-.18-.96Z"/><path class="cls-1" d="M29.83,46.3c-.47.63-.77-.23-.98-.59.42-.34.81.24.98.59Z"/><path class="cls-1" d="M63.41,34.13c.22.13.28,1.01.13,1.11-.46.3-.7-1.43-.13-1.11Z"/><path class="cls-1" d="M32.67,25.7c-.01-.58.54-1.08.92-1.45.1.58-.44,1.18-.92,1.45Z"/><path class="cls-1" d="M34.24,23.05c-.28-.56.43-1.13.92-1.32l-.44.83-.48.5Z"/><path class="cls-1" d="M64.64,32.5c0,.15-.02.44-.25.36-.02-.29-.64-1.04-.27-1.25.28-.17.51.69.52.89Z"/><path class="cls-1" d="M22.38,44.02c-.25-.36-.46-.91-.07-1.25.35.14.46,1.28.07,1.25Z"/><path class="cls-1" d="M65.03,35.21c-.25-.02-.68-1.12-.27-1.32.23,0,.55,1.1.27,1.32Z"/><path class="cls-1" d="M55.54,36.56l.56-.64c.9.5.11.89-.56.64Z"/><path class="cls-1" d="M27.6,44.85c-.32-.29-.63-.55-.56-1.02.55-.26.94,1.02.56,1.02Z"/><path class="cls-1" d="M52.37,36.58c.19-.55,1.56-.32,1.09.08-.17.15-1.1.1-1.09-.08Z"/><path class="cls-1" d="M20.99,42.5c-.35-.34-.32-.95.06-1.25.18,0,.31,1.16-.06,1.25Z"/><path class="cls-1" d="M28.61,42.2c.33.18.35.57.33.89-.44,0-.72-.52-.66-.92.11,0,.23-.03.33.02Z"/><path class="cls-1" d="M34.96,39.15c.2-.39,1.22-.07,1.02.29s-.87-.07-1.02-.29Z"/><path class="cls-1" d="M36.67,20.08c.01.27-.63.63-.82.82-.39-.12-.18-.38.06-.57.08-.06.75-.53.76-.25Z"/><path class="cls-1" d="M52.44,37.57c-.37.19-.83.52-1.19.14.29-.38.86-.56,1.19-.14Z"/><path class="cls-1" d="M50.26,36.72c-.24.3-.64.26-.94.11l-.02-.27c.3-.38.71-.18.96.17Z"/><path class="cls-1" d="M21.06,45.08c-.1,0-.34-.48-.35-.61-.02-.22.21-.81.41-.42.13.27.22.81-.05,1.02Z"/><path class="cls-1" d="M65.7,37.58c-.41-.04-.49-1.24-.2-1.25.22.12.46,1.22.2,1.25Z"/><path class="cls-1" d="M37.91,36.04l-.15.23c-1.22.08-.76-1.29.15-.23Z"/><path class="cls-1" d="M60.68,36.01c-.37-.27-.3-.9,0-1.19.42.33.23.8,0,1.19Z"/><path class="cls-1" d="M32.41,44.24c-.09.13-.16.11-.3.08-.93-.18-.21-1.63.3-.08Z"/><path class="cls-1" d="M37.3,29.41c.06,0,.21.06.24.13.06.45-.41.64-.79.6-.06-.31.28-.69.56-.73Z"/><path class="cls-1" d="M29.57,43.92c.21.13.48.21.51.49l-.14.33c-.44.01-.75-.53-.37-.82Z"/><path class="cls-1" d="M61.53,34.1c-.21,0-.39-.99-.07-1.12.41.27.4.79.07,1.12Z"/><path class="cls-1" d="M41.07,16.7c0,.1-1.18.48-1.19.14.34-.3.82-.55,1.19-.14Z"/><path class="cls-1" d="M62.84,32.51c-.34-.25-.55-.79-.2-1.12.32.05.4,1.14.2,1.12Z"/><path class="cls-1" d="M63.23,30.26c-.27-.4-.59-.7-.5-1.22.49.01.6.83.5,1.22Z"/><path class="cls-1" d="M37.19,18.09c-.36-.47.46-.98.85-.73l-.85.73Z"/><path class="cls-1" d="M59.61,31.8c-.24.52-.64.48-.85-.06.22-.3.64-.17.85.06Z"/><path class="cls-1" d="M25.35,43.28c.08,0,.67.68.43.89-.24.16-.89-.66-.43-.89Z"/><path class="cls-1" d="M58.8,26.92c-.24-.09-.66-.85-.27-.92.23-.04.65.74.27.92Z"/><path class="cls-1" d="M61.25,29.48l-.16.1c-.26-.25-.77-.71-.37-1.02l.53.92Z"/><path class="cls-1" d="M24.18,41.57c.13-.47.76.13.6.55-.32.15-.66-.34-.6-.55Z"/><path class="cls-1" d="M55.01,20.4c-.28.32-.69.2-.92-.13.28-.32.69-.2.92.13Z"/><path class="cls-1" d="M39.42,32.93c-.18.57-1.12.24-.63-.16.21-.17.48-.05.63.16Z"/><path class="cls-1" d="M39.44,37.29c.24-.37.78-.4.82.1-.25.25-.63.17-.82-.1Z"/><path class="cls-1" d="M26.86,42.41c-.17-.1-.61-.66-.37-.82s.78.63.37.82Z"/><path class="cls-1" d="M39.38,39.73c-.25.34-.69.33-.86-.06l.53-.24.33.31Z"/><path class="cls-1" d="M42.55,38.17c.46.01.66.63.03.51-.48-.09-.41-.52-.03-.51Z"/><path class="cls-1" d="M59.44,24.01l-.23.17-.13-.03c-.85-.7-.17-.9.36-.15Z"/><path class="cls-1" d="M44.31,17.65l-.27-.24c.53-.7,1.26,0,.27.24Z"/><path class="cls-1" d="M61.76,27.5l-.19.2c-.29-.24-.48-.5-.43-.89.14-.16.56.6.62.69Z"/><path class="cls-1" d="M46.95,17c.24-.34.54-.39.89-.17.23.31-.9.35-.89.17Z"/><path class="cls-1" d="M25.4,40.18c-.76-.41-.13-1.25.08-.57.03.1.06.58-.08.57Z"/><path class="cls-1" d="M22.99,40.98c0,.07-.09.46-.16.46-.26-.21-.47-.66-.14-.92.14.12.27.27.29.46Z"/><path class="cls-1" d="M34.15,26.52c.37.19-.1.71-.33.59-.37-.19.1-.71.33-.59Z"/><path class="cls-1" d="M32.93,32.93c.11.07.18.87-.2.72-.24-.14-.21-.83.2-.72Z"/><path class="cls-1" d="M44.32,37.1c-.73-.05-.41-1.01.22-.27.09.16-.08.28-.22.27Z"/><path class="cls-1" d="M36.42,41.52c.18-.24.46-.36.69-.1.03.48-.49.41-.69.1Z"/><path class="cls-1" d="M59.65,34.37c0,.13-.13.3-.23.4-.69-.58.22-1.13.23-.4Z"/><path class="cls-1" d="M32.96,40.72c.18.1.28.38.26.58l-.5-.19-.02-.33c.05-.08.2-.09.27-.05Z"/><path class="cls-1" d="M34.91,42.78c-.2.39-.86.04-.69-.23.14-.22.59.04.69.23Z"/><path class="cls-1" d="M30.74,39.71c.19.04.34.49.17.61-.56.07-.56-.7-.17-.61Z"/><path class="cls-1" d="M47.16,36.66l-.36.24c-.54-.09-.16-.99.36-.24Z"/><path class="cls-1" d="M60.46,31.2c.5.23.27,1.01-.1.56-.14-.18-.09-.43.1-.56Z"/><polygon class="cls-1" points="31.08 42.53 30.54 42.62 30.47 42.24 30.75 42.07 31.08 42.53"/><path class="cls-1" d="M42.33,16.23c.25-.38.52-.18.86-.07-.21.23-.63.37-.86.07Z"/><path class="cls-1" d="M34.82,36.38c-.44.73-.94-.14-.36-.24l.36.24Z"/><circle class="cls-1" cx="29.38" cy="37.36" r=".27"/><path class="cls-1" d="M56.19,35.11c-.36-.17-.41-.47-.07-.72.34.24.23.41.07.72Z"/><path class="cls-1" d="M58.68,35.5l-.17.46-.28-.17c-.1-.23.02-.41.21-.56l.24.26Z"/><circle class="cls-1" cx="42.43" cy="34.93" r=".27"/><path class="cls-1" d="M27.9,39.64l-.31-.33.24-.4c.26.19.36.5.07.72Z"/><path class="cls-1" d="M34.01,30.97l.1.56c-.18.29-.85-.29-.1-.56Z"/><path class="cls-1" d="M25.42,29.29c-.29-.29-.52-.92-.28-1.29.61-.93.66,1.28.28,1.29Z"/><path class="cls-1" d="M15.83,40.02c-.15,0-.51-1.49-.07-1.65.34.45.41,1.19.07,1.65Z"/><path class="cls-1" d="M16.86,38.89c-.02-.27.27-.76.48-.92.19-.01.31,1.44-.3,1.27-.1-.09-.18-.22-.19-.35Z"/><path class="cls-1" d="M17.34,36.65c-.23.01-.43-1.4.16-1.29.22.39.22.98-.16,1.29Z"/><path class="cls-1" d="M16.15,36.12c-.36-.17-.44-1.13-.04-1.22.45-.11.28,1.23.04,1.22Z"/><path class="cls-1" d="M16.57,33.48c-.01-.17.28-.98.42-.99.15.18.24.84.14,1.02-.18.34-.53.39-.56-.03Z"/><path class="cls-1" d="M29.34,18.72l-.86.73-.19-.19c.16-.41.61-.84,1.05-.53Z"/><path class="cls-1" d="M19.94,27.53c-.41-.43.06-.95.56-.89-.09.35-.28.66-.56.89Z"/><path class="cls-1" d="M28.42,24c.05.23-.6.63-.73.3-.16-.51.63-.72.73-.3Z"/><path class="cls-1" d="M25.99,21.44l-.15-.5c.91-.75.91-.05.15.5Z"/><path class="cls-1" d="M27.02,25.23c.25.19.15,1.09-.2.86-.28-.18-.06-1.05.2-.86Z"/><path class="cls-1" d="M22.24,24.69c-.32-.39.13-.79.56-.76,0,.37-.24.62-.56.76Z"/><path class="cls-1" d="M16.22,36.85c.18,0,.46.94-.1.82-.19-.29-.21-.61.1-.82Z"/><path class="cls-1" d="M17.88,39.94l-.25-.26.44-.73c.27.18,0,.99-.19.99Z"/><path class="cls-1" d="M16.83,40.61c-.53-.21-.56-.69-.14-1.05l.14,1.05Z"/><path class="cls-1" d="M18.53,30.9c0,.25-.43.58-.52.37-.22-.57.54-.96.52-.37Z"/><path class="cls-1" d="M25.33,23.41l-.2-.19c.17-.26.33-.51.69-.5.07.39-.18.54-.49.69Z"/><path class="cls-1" d="M18.25,34c-.34-.3-.26-.58.06-.86.3.22.17.64-.06.86Z"/><path class="cls-1" d="M18.79,36.77c.8.56-.32,1.03-.22.36.02-.14.11-.27.22-.36Z"/><path class="cls-1" d="M24.04,29.76c-.29-.09-.19-1.01.1-.82.26.22.13.62-.1.82Z"/><path class="cls-1" d="M25.15,27.05c-.15-.2-.33-.41-.14-.63.41-.49.51.4.14.63Z"/><path class="cls-1" d="M24.01,21.97c-.11.11-.52.63-.69.37-.04-.36.41-.63.69-.37Z"/><path class="cls-1" d="M74.82,75.15c.25-.76.64-1.51,1.18-2.12l-.1,1.09c-.11.47-.52,1.14-1.08,1.03Z"/><path class="cls-1" d="M72.59,78.19c.4-.75.76-1.65,1.67-1.89-.4.67-.75,1.89-1.67,1.89Z"/><path class="cls-1" d="M70.48,79.12l1.22-1.23s.36-.04.43-.17c.4.05-1.02,2.05-1.64,1.39Z"/><path class="cls-1" d="M71.86,77.07c-.09-.09.06-.33.1-.43.23-.47.67-1.11,1.24-1.13,0,.8-.67,1.26-1.35,1.55Z"/><path class="cls-1" d="M59.81,83.12c-.35.36-.78.6-1.28.64-1.08.07-.27-.49.26-.69.3-.11.77-.19,1.02.05Z"/><path class="cls-1" d="M67.12,80.26l-.1-.17c.21-.48.58-.73,1.05-.9.1-.04.27-.19.33-.02-.13.59-.74.95-1.28,1.09Z"/><path class="cls-1" d="M46.29,84.3c0,.29-1.51.38-1.65-.06,0-.25,1.52-.4,1.65.06Z"/><path class="cls-1" d="M54.93,84.2c.52-.26,1.09-.42,1.68-.43.13.67-1.64.82-1.68.43Z"/><path class="cls-1" d="M76.85,71.38c-.12-.67.33-1.27.79-1.72.08.63-.3,1.32-.79,1.72Z"/><path class="cls-1" d="M62.31,82.07l.17.22c-.86,1.33-2.03.4-.17-.22Z"/><path class="cls-1" d="M50.84,84.22c-.49.19-1.12.63-1.58.14,0-.3,1.38-.52,1.58-.14Z"/><path class="cls-1" d="M69.95,78.47c-.15-.63.43-.96.92-1.19.06.58-.38,1.05-.92,1.19Z"/><path class="cls-1" d="M52.16,84.47c.54-.23,1.08-.57,1.65-.2-.03.27-1.42.56-1.65.2Z"/><path class="cls-1" d="M48.27,84.29c-.35.36-.93.57-1.25.07,0-.14,1.13-.43,1.25-.07Z"/><path class="cls-1" d="M76.39,71.98c0,.19-.63.75-.79.93-.08-.21.11-.61.24-.77.08-.1.54-.44.55-.16Z"/><path class="cls-1" d="M76.53,72.5c-.07-.42.22-.84.59-.99.13.44-.34.71-.59.99Z"/><path class="cls-1" d="M74.95,73.83c-.24.2-.45.51-.69.7-.1.08-.23.16-.23-.03.21-.25.51-.99.92-.66Z"/><path class="cls-1" d="M65.14,80.79c-.25.32-.56.56-.99.47.22-.22.64-.74.99-.47Z"/><path class="cls-1" d="M53.39,52.1c-1.07.74-2.36,1.23-3.68,1.36-.86.24-2.12.59-2.92.82.76-1.28,2.44-2.49,4.04-2.45.78.05,1.92-.2,2.57.2v.07Z"/><path class="cls-1" d="M56.71,53.27c-.55.54-1.51.26-2.11.98-.63.54-1.49.42-2.27.33-.33-.07-.94-.15-1.1-.39.49-.79,2.63-1.42,3.36-1.63.55,0,1.97-.05,2.14.63l-.02.08Z"/><path class="cls-1" d="M59.96,52.12c-.57.36-1.51.78-2.23.68-.97-.16-1.98-.86-2.88-1.05-.36-.12-.8-.14-1.09-.41,1.16-.19,2.79-.43,3.88.09.76.35,1.72.09,2.3.65v.05Z"/><path class="cls-1" d="M69.75,62.36c-.02.16-.06.32-.09.48,1.35.31,3.07.78,3.46.8-1.03-.56-2.18-.96-3.37-1.28Z"/><path class="cls-1" d="M87.47,69.17c-.4.63-.72,1.34-1.04,2.04.46-.38.91-.74,1.37-1.05-.08-.5-.15-1.09-.32-1Z"/><path class="cls-1" d="M33.14,65.49c-.4.21-.91.38-1,.49-.18.18.93.04,1.53,0-.09-.23-.17-.45-.25-.67-.09.06-.19.12-.28.17Z"/><path class="cls-1" d="M71.1,80.48c.32-.26,1.18-.97.96-1.35-1.03.42-2.06,1.8-3.21,2.05-.55,0,1.14-.93,1.18-1.25.14-.24.09-.45-.12-.47-.48.04-.8.47-1.13.86-.38.42-.69.8-1.18.89-.39.04-.71.18-1.02.49.81.19,1.75.4,2.54.52,0,0,0,0,0,0,.62-.62,1.24-1.27,1.98-1.73Z"/><path class="cls-1" d="M52.28,82.66c.58,0,1.08-.11,1.51-.35.62-.31,1.1-.82,1.62-1.43-2.19.39-4.42.59-6.63.57.99.72,2.33,1.21,3.5,1.21Z"/><path class="cls-1" d="M31.39,67.67c.62-.11,1.76-.54,2.66-.83-.08-.16-.15-.32-.22-.47-.74.37-1.9.81-2.44,1.3Z"/><path class="cls-1" d="M86.93,45.45c-1.09-.72-2.22-2.55-2.11-3.77.22-.79-.28-2.39-1.27-2.73-1.51-.27-1.68,1.67-1.95,2.73-.39,1.24-1.56,2.51-2.69,3.48-1.43,1.25-3.24,2.09-4.95,2.87-.58.27-.99-.09-1.18-.64-.69-1.75-1.85-3.29-3.22-4.58-.59-.5-.88-1.14-.85-1.93-.03-3.91-.69-7.81-2.24-11.46-7.77-18.98-35.5-22.18-48.06-5.44-5.39,7.05-6.72,16.87-3.49,25.11.24.93,3.41,8.62,7.22,12.53.82,1.81.35,4.01.85,5.95.14,1.12.67,4.23,2.64,7.93,2.24,1.2,4.05,2.19,4.62,2.52l.05.03h.01c.23.15.48.27.71.39-.17-.25-.34-.49-.51-.74-1.29-1.28-2.57-2.63-3.09-4.44-.22-.63-.43-1.68-.29-1.52,1.02,2.94,2.91,5.05,5.46,6.73,2.29,1.5,4.82,2.64,7.49,3.41.32-.21.53-.55.58-.93,0-.15-.07-.39-.16-.68-3.75-1.1-7.13-3.02-9.68-5.9-1.79-1.87-1.9-4.54-2.99-6.8-.89-1.49-2.36-2.54-3.02-4.28-.69-1.65-.72-3.44-.31-5.19,4.42-14.44,26.67-22.16,40.05-16.44,3.71,1.55,7.8,4.58,3.5,8.25-.74.62-1.38,1.22-2.06.71-.18-.23.05-.59.43-.89.44-.37.64-.7.33-.58-.09.03-.23.1-.39.19-.31.19-.66.39-1,.52-.87.36-1.92-.06-2.87-.29-1.43-.13-2.26-.67-3.56-1.16-.54-.16-1.16.02-1.57-.32-.33-.27-.21-1.24-.32-1.25-.09.03-.17.33-.23.46-.28.88-.92.73-1.72.69-1.25.09-1.5-.3-1.59-1.54-.04-.26-.08-.7-.2-.81-.09.17-.08.48-.11.75-.03.6-.11,1.42-.68,1.5-2.24.65-1.85.33-2.72-1.58-.27-.57-.22-.16-.07.62.14.76.31,1.48-.14,1.67-1.9.69-1.99.32-2.79-1.4-.21-.45-1.3-2.21-.91-.99.47,1.44,2.17,3.56-.33,4-.35.1-.65.08-.93-.13-.52-.45-1.75-1.95-1.76-1.88.23.7,1.77,2.2,1.21,2.82-.3.29-.72.91-1.07,1.03-.21.08-.44-.05-.62-.16-.99-.84-2.22-1.82-3.39-2.38-.19-.09-.27-.1-.1.08.28.28.96.91,1.6,1.51.71.79,1.51,1.1,1.54,1.74-.42.87-1.7-.03-2.23-.2-.09,0,.03.13.22.33.39.39.78.89.5,1.43-.52,1.08-1.49,1.04-2.59.42-.74-.41-2.64-.97-.9-.02.46.26,1.07.58,1.45.87.76.58.05.97-.58.85-1.45-.35-3.1-.94-4.58-1.02-.17,0-.33-.01-.12.09.78.32,3.96,1.43,4.75,1.79.09.06.15.13.15.21-.26.95-1.72.38-2.2.51.45.48,1.72.54,1.47,1.52-.18,1.06-1.04,1.82-2.11,1.83-.62.06-3.93.18-1.61.42.13.02.4.01.71.01.26-.12.55-.18.86-.18.24,0,.48.04.73.11.64.16,1.21.52,1.72.97.86-.93.51-2.37,1.26-3.39.17.14.1.38.08.56-.09.78-.64,2.39-1.2,2.95.39.37.74.78,1.04,1.22.37.02.71.11.95.34l-.76-.05c.52.81.9,1.65,1.12,2.28.15.4.55,1.25,1.08,2.31.59-.16,1.05.05.65,1.05-.02.04-.04.08-.05.11.05.1.1.2.16.3.47-.45,1.19-1.24,1.21-1.12l.11-.03c.36-.06,1,.16,1.38.27.24.09.44.15.47.4-.12.93-.91,3.31-1.11,4.19-.01.05-.02.09-.02.12,0,.01.01.02.02.03.85-1.1.98-3.17,1.83-4.18.28-.25.75-.29,1.03-.04.42.4.18,1.05.18,1.6-.04.54.06.71.26.2.31-.88.53-1.93,1.75-1.83,1.46-.18,1.28,1.21,1.55,2.18.11.5.26,1.18.27.26.12-.71-.32-2.12.49-2.42,1.22-.15,1.26,1.59,1.61,2.47.25.8.38,1.79.73,2.42.13-1.39-.62-3.3-.75-4.64-.02-.88.95-.32,1.22.18.25.25,1.14,2.1.75.79-.23-.67-.66-2.03.47-1.94,1.38.7,2.1,2.63,3.02,3.88.04-.12.08-.25.12-.37-.36-.85-.84-1.73-1.33-2.52-.41-.58-1.11-1.6-.03-1.81.96-.13,1.63.77,2.25,1.55.05-.16.1-.31.15-.47-.2-.29-.4-.57-.57-.84-.42-.58-.38-.86.2-1.18.35-.19.79-.41,1.19-.4,1.93-5.4,3.76-8.67,6.35-8.67h0c.27-.82.99-1.15,1.88-1.26.49-.11.43-.21-.08-.25-.87.03-1.89-.3-1-1.2,1.67-.83,3.37-.8,5.28-1.25,1.36-.37-3.56-.06-4.62.13-.16.01-.3,0-.4-.03-.25-.08-.29-.34-.1-.61.36-.47,1.1-.57,1.66-.69,4.07-.71,7.72.32,8.59,4.76,1.3,6.81-3,12.73-8.39,16.75-1.84,1.43-4,2.66-6.34,3.66-.04.75.05,1.38.29,1.84,0,.01.01.02.02.03,6.83-2.82,12.61-7.71,15.47-14.37.58-1.53.22.61.09,1.13-1.24,5.94-4.68,11.27-9.34,15.13.12.01.25.02.36.02.37-.48.96-.88,1.67-1.34.89-.59,1.89-1.25,2.59-2.18.35-.51.86-.68,1.39-.75,1.28-1.76,2.36-3.67,3.21-5.73,2.86-6.91,2.5-16.44-4.22-20.79-.6-.37-.74-.78-.03-1.12,2.44-1.3,4.83-2.75,6.81-4.68.65-.62,1.29-1.39,1.81-2.05.17-.2.32-.31.47-.28.24.03.52.54.81,1.04.51.79.53,1.35.1,2.04-.69,1.14-1.25,2.47-1.54,3.74-.04,1.15-.15,2.13-.5,3.23-.27.87,0,1.27-.14,2.15-.1.68-.4,1.78-.43,2.31-.02.56.2.57.17,1.14-.03.47-.24,1.45-.34,2.09-.1.69.04.92.11,1.27.11.82-.3,2.1-.38,3.01-.07.7.1.84.12,1.42.03.56-.18,1.65-.22,2.3-.03.56.11.8.17,1.2.14.53-.13,1.7-.11,2.44.01.54.17.9.13,1.48-.04.47-.13.94-.25,1.4.8-.68,1.6-1.44,2.39-2.19.7-.67,1.39-1.32,2.08-1.92,1.17-2.43,2.51-5.58,1.44-4.87-.8.66-1.52,1.55-2.16,2.43-.3.39-.47.57-.38.34.66-1.64,2.31-2.62,3.31-3.94.32-.97.84-3.14,1.04-4.38-.07-.26-.33.01-.5.12-1.17.97-2.52,2.37-3.47,3.55-.06.06-.09.07-.08.04.86-1.47,2.2-2.83,3.53-3.92.74-.62.76-1.54.78-2.47-.03-.55.05-1.54-.25-1.93-.14-.14-.35.02-.49.1-1,.77-2.59,2.61-3.38,3.3.89-1.58,2.47-2.76,3.71-4.03.44-.81-.18-2-.24-2.92-.09-.53-.19-1.16-.77-.53-.82.66-1.86,2.38-2.59,2.89.26-.66.91-1.38,1.39-1.98.51-.73,1.39-1.21,1.51-1.98-.16-.92-.69-2.32-1.09-3.14-.11-.1-.23.04-.43.33-.42.61-.89,1.44-1.32,2.08-.24.33-.2.12.03-.36.34-.87,1.13-1.59,1.37-2.48.04-.36-.18-.82-.28-1.07-.05-.15-.05-.21,0-.17.84.9,1.26,2.55,1.93,3.62.91,1.26,2.62,2.34,3.27,3.83v.03c-.19-.11-2.93-3.59-2.64-2.02.4,1.08.41,2.46.79,3.49.93,1.48,1.79,3.1,2.13,4.86.04.2.13.63,0,.45-.49-1.18-.82-2.49-1.53-3.56-.37-.59-.57-.6-.58-.13.09,1.19-.17,2.49-.27,3.71.05,1.16.8,2.52.78,3.74,0,.2,0,.32-.03.34-.05.04-.17-.31-.28-.75-.74-3.35-.98-.6-1.44.87-.26,1.03-.96,2.32-1.02,3.35-.03.51.1,1.12.15,1.69.44-.29.87-.53,1.31-.72.31-.14,1.12-.48,2.02-.48.61,0,1.04.17,1.35.37.39-.81.7-1.68,1.16-2.4.37-.54.5-1.82.59-2.58,2.04-6.69-1.14-15.5-7.45-18.81ZM17.33,42.66c-.05-.18.14-1.56-.2-1.29-.29.25-.51,1.51-.61,1.87-.06.16-.12-.07-.21-.6-.08-.46-.18-1.17-.28-1.58-.47-1.38-.56,2.04-.38,2.53.08.82.3,1.92.33,2.64,0,.14-.02.19-.07.12-.59-1.34-.89-3.02-1.07-4.52-1.5-12.39,7.76-24.64,20.03-26.7.15.02.13.12-.01.27-.09.09-.22.21-.36.33-3.17,2.58-4.86,6.43-6.06,10.19l-.05.03c-.65.04-.36,1.3-.37,1.86-.03.34.08,1.01-.16,1.03-.13-.14-.42-.37-.61-.36-.17-.12-.01-.99-.17-1.15-.16-.27-.36-.02-.43.25-.13.63.22,1.39-.2,1.85-.32.34-.44,1.19-.42,1.55-.02.13-.08.12-.2-.02-.9-1.2-.48-.1-.32.59.02.14.02.22-.02.24-.23,0-1.32-1.06-.88.12.13.33.57.8.03.71-.17-.02-.35-.05-.34.02-.04.12.54.55.52.8,0,.21-.74.32-.71.5,0,.15.39.28.54.35.75.29.14.44-.24.7-.12.12.19.18.09.31-.04.05-.14.11-.28.18-3.1,1.33-5.45,3.86-6.66,6.97-.09.19-.23.58-.25.17ZM26.98,33.54c.23-.66.82-1.09,1.35-1.49-.01.54-.48.96-.67,1.49-.1.29-.15.62-.15.93-.57.19-.69-.48-.53-.92ZM26.78,30.51c-.05-.17-.2-.57-.03-.69.05.43.57.91.27,1.32-.1,0-.2-.51-.24-.63ZM20.26,50c-.03-.08-.04-.89.09-.89.16.46.15.98.47,1.38-.17.09-.51-.37-.56-.49ZM22.34,50.42c.3.32.66.87.67,1.32-.47-.37-.94-.65-.67-1.32ZM24.19,50.54c-.47-.34-.51-.6-.34-1.12.11.01.41.94.34,1.12ZM26.63,50.46c-.2-.17-.33-.4-.46-.62-.06-.11-.22-.38-.14-.49.3.3,1.1.62.6,1.12ZM66.95,40.49s-.07.03-.1.03c-.29-.04-.48-1.99-.7-1.93l-.04.02c-.21.12-.12,1.78-.43,1.23-.36-.74-.39-2.91-1.37-1.47-.22.24-.34-.05-.52.29-.33.65-.39.71-.43-.26-.02-.56-.12-1.1-.29-1.13-.39-.08-.44,1.57-.78,1.51-.03-.01-.09-.03-.13-.05-.36-.25-.15-1.9-.68-1.88-.14.01-.31.08-.43.15-.65.32-.78,1.31-1.19,1.32-.24-.87.31-2.13-1.27-1.21-.47.33-.82-.15-1.26.04-.24.13-.47.32-.68.49-.54.61-.99.66-1.73.63-6.13-.03-12.22,1.63-17.69,4.33-.97.44-1.97,1.2-2.98,1.54-.39.15-.65.36-1.05.73-.34.38-1.02.38-1.28.47-.18.05-.27.25-.38.44-.09.33-.68.1-.91.34-.18.21-.29.76-.65,1.08-.37.36-.75.32-1.1.3-.3-.04-.43.17-.53.42-.2.59-.85-.46-1.19-.19-.14.1.02.42.1.56.48.55.44,1.41-.11.74-.32-.63-1.01-1.57-1.29-.19-.13.65-.78-.86-1.2-.63-.16.13-.01.54.25.97.51.87.15,1.22-.46.51-.51-.44-1.54-2.34-1.96-1.46-.07.22.1.87.06,1.16-.06.25-.37-.95-.7-1.49-.52-.78-.61.19-.49.61.05.26.09.47.11.71-.08.72-.89-1.91-1.3-2.04-.29-.19-.34,1.15-.41.75-.2-1.41-.02-3.03.14-4.41.02-.44-.12-.26-.26.04-1.04,2.09-1.18,4.63-.71,6.92.04.13.12.8,0,.59-2.46-6.65,1.78-13.07,8.38-15.1,3.75-1.54,4.7-5.78,5.4-9.36.12-.61.04-.83-.49-.04-1.34,1.89.81-3.41.7-3.71-.01-.1-.06-.12-.16-.05-1.11,1.15-1.67,2.87-1.91,4.44-.11.64-.08,1.36-.19,1.92-.03.1-.07.05-.12-.15-.89-5.11,2.49-11.07,6.85-13.4,3.55-1.73,7.88-.99,11.52.14,10.36,3.38,19.01,13.64,18.04,24.75ZM40.71,58.53c.16,1.04-.31,1.94-.98,2.71-.23-.16-.05-.16.01-.29.39-.8.5-1.66.97-2.41ZM39.39,58.66c-.3-.74.23-1.62.72-2.18.11.41-.32,2.12-.72,2.18ZM39.61,63.21c0-.13,1.62-.49,1.85-.14-.55.38-1.24.23-1.85.14ZM41.32,61.49c-.08-.14.2-.48.29-.57.72-.71,1.57-.77,2.44-1.1.33-.12.67-.44,1.02-.39-.95,1.27-2.57,1.14-3.75,2.06ZM45.21,62.2c-.29.23-.67.31-1.02.37l-1.62-.22c.02-.43,2.31-.16,2.64-.14ZM40.67,65.45c.85,0,1.77.37,2.51.78-.92.22-1.74-.37-2.51-.78ZM42.65,64.39c.32-.16,2.83.11,2.84.32-.99.4-1.9.03-2.84-.32ZM47.38,67.03l-1.95-.41c.8-.2,1.87-.2,2.51.39l-.56.02ZM50.21,58.22c.59-.34,1.28-.38,1.88-.58.3-.1.59-.32.92-.43.15-.05.52-.23.63-.05-.95.97-2.07,1.57-3.43,1.07ZM52.53,60c-.45.26-.8.61-1.28.83-.1.04-.97.37-.96.1.53-.55,1.19-.89,1.94-.98.12-.01.16-.17.29.04ZM50.36,62.97c-.03.26-1.02.27-1.22.24-.27-.05-.45-.21-.66-.24-.56-.1-1.14-.09-1.68-.24,1.29-.83,2.29,0,3.56.25ZM47.09,60.2l-1.22.55c.68-1.14,2.2-1.85,3.42-1.2l-2.21.65ZM47.01,64.9c-.02-.2,2.83-.13,3.07-.11.14.01.27-.05.36.1-1.07.47-2.36.55-3.43.01ZM50.05,67.4c.01-.3,2.45-.26,2.77-.28-.81.5-1.87.54-2.77.28ZM52.22,65.87c.52-.43,1.22-.29,1.81-.48l.82-.32c-.64.82-1.67.93-2.63.8ZM52.28,64.22l1.75-.41.89-.39c-.61.83-1.68,1.26-2.63.8ZM51.88,62.11l1.35-.24c.46-.06.93.09,1.39.07.22-.01.39-.16.56-.1-.98.91-2.15.66-3.3.28ZM54.38,59.99l1.68-.18,1.48-.36c-.73.92-2.16,1.07-3.16.54ZM58.55,56.11c-.08,1.19-1.52.97-2.37,1.16-.57.12-1.17.33-1.68.61-.09-.14.2-.47.29-.56,1.08-1.1,2.6-.27,3.76-1.2ZM56.24,55.66c-.12-.28.79-.76,1.02-.43-.34.19-.62.4-1.02.43ZM55.59,66.32c.35-.47.99-.39,1.48-.58l1.02-.48c-.64.81-1.5,1.12-2.5,1.07ZM56.11,64.21l1.94-.97.95-.63c-.66,1.19-1.5,1.87-2.89,1.6ZM58.07,61.16l1.48-.86,1.28-.99c-.59,1.02-1.46,2.03-2.76,1.86ZM59.39,58.48c.15-.74.78-1.44,1.31-1.95.21,1.01-.68,1.52-1.25,2.18-.19-.12-.09-.13-.06-.23ZM61.14,60.72l1.15-1.16c.05.18-.16.54-.26.69-.35.61-.64.87-1.25,1.22l.36-.76ZM60.13,63.6c.16-.2.76-.37.89-.5.53-.53,1.05-1.06,1.58-1.59.07-.07-.03-.31.16-.03-.58,1.06-1.31,2.09-2.63,2.12ZM62.02,58.24c-.1-.07.02-.23.07-.3.32-.44.85-.65,1.18-1.09.05.77-.61,1.17-1.25,1.39ZM63.41,57.91l.59-.73c.13.41-.11.86-.59.73ZM65.58,56.6c-.34,1.03-.31,2.46-1.44,3.04h-.04c-.08-.13.12-.36.18-.56.78-1.32.77-2.93,1.48-4.33.14-.35.21-.97,0-1.21-.39-.45-1.16,1.43-1.73,1.52-.18-.75,1.26-2.36.29-2.26-.77.1-1.31.6-1.79.45-1.21-.5-2.76-.55-3.84.22-.25.21-.02.44.44.47.67.06,1.02-.56,1.56-.63.99.18,2.46.88,2.05,2.12-.25.62-.49.87-.41-.04.08-1.06-1.31-1.27-2-.69-.31.14-.76.9-1.06.62-.09-.2-.36-.57-.67-.66-.99-.38-2.19-.69-3.12,0-.35.23-.67.53-1.01.76-.28.18-.8.43-1.02.25-.03-.13.49-.46.28-.54-1.3-.1-2.91.14-3.85,1.17-.19.53-4.36,2.63-2.78,1.01.41-.31,1.03-.44,1.49-.75.39-.26.55-.65.8-.96.2-.3.71-.53.89-.78.14-.22-.04-.34-.27-.39-.92-.12-1.87.33-2.45.91-.87.98-2.18,1.68-3.01,2.7-.44.45-.51-.05-.12-.61.47-.6,1.32-.89,1.79-1.54,1.45-2.2-1.65-.27-2.22.21-.86.61-1.02,2.22-1.76,2.93-.11.07.05-.32.16-.62.25-.67-.65.01-.77-.14-.01-.11.2-.33.28-.44.57-.59.35-1.17.92-1.68.74-.63,2-1.01,2.58-1.81.13-.18.99-1.05.36-.91-.25.05-.43.09-.24-.06.3-.26.78-.49,1.16-.68,1.18-.48,2.07-1.5,3.37-1.57,1.01,0,2.09-.12,3.02-.43,1.19-.26,2.66-.28,3.91-.31.98.11,1.91.6,2.87.84.82.44,1.55,1.1,2.55,1.19.7.19,2.38-.42,1.21-.88-1.89-.37-3.7-1.46-5.61-1.8-4.88-.79-10,0-13.55,3.42-.76,1.18-2.38,1.47-3.11,2.68-.6.74-.22-.53.08-.88.44-.64,1.08-.93,1.69-1.46.63-.51,1.01-1.26,1.64-1.7.49-.35,1.12-.55,1.7-.79,1.21-.61,2.34-1.39,3.74-1.48.96-.15,1.73-.71,2.69-.62.56.05,1.17.09,1.77.02,1.27-.09,2.48.39,3.75.35.99.05,1.86.73,2.83.93,1.28.33,2.81.41,4.01.89,2.09,1.17,1.55,3.91.33,5.53ZM70.06,49.6c.41-.9.91-1.68.89-2.74.11.01.94,1.78.9,2.08-.11.35-1.48.54-1.75.89-.18-.14-.1-.1-.05-.23ZM74.33,52.32l-3.1-.19c.41-.14,1.09-.66,1.48-.64.45.02,1.23.57,1.62.82ZM75.63,48.4c-2.35,1.18-4.92,2.29-7.36,3.16l-.03-.02c4.72-2.41,10.66-3.91,13.76-8.56-1.12,2.52-3.93,4.13-6.36,5.42ZM83.56,41.37c-.38-.35-.88-.78-.7-1.35l1,1.51c-.1.13-.21-.09-.3-.16Z"/><path class="cls-1" d="M89.59,70.14c-3.57,1.58-7.42,6.03-11.36,6.79-1.23.27-1.34.43-1.71-1.06-.26.52-1.91,1.61-2.23,2.11-1.45,2-4.33,4.57-5.1,4.39-2.15-.49-4.82-.83-5.87-1.54-.84-.56-.99-3.36-.21-4.62,3.23-5.26,8.88-15.43,3.88-15.58-3.83-.11-6.61,12.99-9.31,20.64-.32.35-.64.75-.99,1.19-.58.7-1.17,1.38-2.02,1.82-2.04,1.14-5.33.07-6.92-1.76-1.54-1.59-7.16-12.48-7.86-14.42-.51-1.55-1.81-3.81-3.37-4.2-1.02-.32-1.46.5-1.36,1.26.05.92.74,2.17,1.32,3.45.69,1.53,6.18,11.92,5.95,13.49-.16,1.37-1.35,2.48-3.04,2.04-1.52-.34-3.12-1.37-4.49-2.03-1.46-.73-2.89-1.2-4.24-2.05l-.03-.02c-1.55-.92-14.49-7.99-16.3-8.74-6.53-2.74-7.08,1.76-3.91,2.86,1.81.63,11.14.83,17.84,12.64,2.3,4.06,5.6,6.1,10.53,7.67,7.72,2.31,18.6,2.86,25.31-1.25,1.31-.82,4.45-3.43,6.43-5.82,1.46-1.3,3.15-3.54,4.49-4.5,1.4-1.02,2.8-1.95,4.36-2.6,4.29-1.69,10.49-3.38,12.63-8.67.84-2.31-1.29-1.99-2.4-1.46ZM37.48,67.82c-1.69-3-.79-3.1-.06-1.92.73,1.18,4.78,9.77,4.78,9.77l-4.72-7.84ZM9.78,71.69c1.1-.97,3.86.22,5.5,1.09,0,0-6.59-.12-5.5-1.09ZM38.12,87.35c-11.42-7.51-15.23-9.84-15.23-9.84,1.76.75,7.8,3.44,9.31,4.36l.03.02c1.31.85,2.7,1.32,4.13,2.04,1.34.66,2.9,1.69,4.38,2.02,1.65.43,2.75-1.11,2.7-2.39-.16-4.33,5.35,10.8-5.33,3.79ZM66.76,62.4c1.82.05-4.29,9.31-4.29,9.31.42-1.63,2.47-9.36,4.29-9.31ZM67.58,84.36c-4.32-.53-7.74-3.98-5.86-2.99,1.46.78,3.68,1.76,7.45,1.85,3.78.09.6,1.41-1.59,1.14ZM90.57,72.07c-1.86,2.46-10.17,5.16-10.17,5.16,2.62-1.53,7.8-5.46,8.46-5.86.66-.4,3.58-1.75,1.72.7Z"/></svg>