<?xml version="1.0" encoding="UTF-8"?>
<svg id="Layer_2" data-name="Layer 2" xmlns="http://www.w3.org/2000/svg" viewBox="0 0 60 82.8">
  <defs>
    <style>
      .cls-1 {
        fill: none;
      }

      .cls-2 {
        fill: #ff4522;
      }
    </style>
  </defs>
  <g id="Design">
    <g>
      <rect class="cls-1" width="60" height="82.8"/>
      <path class="cls-2" d="M38.69,62.79h-2.89c-1.08-3.15-4.13-5.4-7.67-5.27-4.23.15-7.52,3.77-7.52,8.01v.14h8.04l1.59,13.95-.38.4.36.42-1.04,1.86c-.1.24.08.5.34.5h8.77c.26,0,.43-.26.34-.5l-1.05-1.87.32-.44-.34-.36,1.83-16.07c.05-.41-.27-.77-.69-.77ZM29.11,62.79c-.13,0-.25.04-.36.1l.05-3.65c.08-.29.35-.49.66-.44.45.07.87.18,1.28.34.28.11.43.39.39.67l-1.72,2.97h-.3ZM30.2,62.79l1.45-2.52c.2-.27.58-.33.85-.12.38.3.72.63,1.03,1.01.18.22.17.53,0,.74l-1.53.9h-1.79ZM33.36,62.79l.35-.2c.28-.16.64-.06.8.2h-1.15ZM21.96,64.34c.07-.47.2-.92.36-1.35.13-.34.52-.49.83-.33l3.95,2.32h-4.78c-.25-.1-.41-.36-.37-.64ZM23.34,61.96c-.17-.21-.19-.52,0-.74.3-.38.64-.72,1.01-1.02.25-.2.61-.16.82.07l2.31,4.11-4.13-2.42ZM25.71,59.86c-.05-.27.08-.56.36-.67.43-.17.88-.29,1.35-.37.3-.05.58.15.66.43l-.06,4.7-2.3-4.09ZM36.52,76.38c-.08.7-.67,1.23-1.38,1.23h-2.48c-.71,0-1.3-.53-1.38-1.23l-1.16-10.24h.89l1.16,10.24-.48-10.24h5.99l-1.16,10.24Z"/>
      <path class="cls-2" d="M34.79,62.79h-9.59c-.41,0-.73.36-.69.77l1.82,16.05-.32.08.3.85-1.04,1.75c-.1.24.08.5.34.5h8.77c.26,0,.43-.26.34-.5l-1.05-1.76.24-.84-.26-.06,1.83-16.07c.05-.41-.27-.77-.69-.77ZM32.76,76.95c-.08.74-.71,1.3-1.45,1.3h-2.61c-.74,0-1.37-.56-1.45-1.3l-1.23-10.8h.94l1.23,10.8-.51-10.8h6.31l-1.23,10.8Z"/>
      <path class="cls-2" d="M47.97,49.04l11.33-33.85-1.41.75c-9.35,4.95-17.29,4.94-24.08,3.8v-9.62c0-.64-.52-1.16-1.16-1.16h-4.78c-.64,0-1.16.52-1.16,1.16v8.08c-3.56-.87-6.65-1.61-9.5-1.51-2.52.09-3.07,1.52-3.76,3.32-.07.18-.14.38-.22.58L.7,47.74l1.43-.51c6.33-2.25,11.63-.13,17.23,2.11.17.07.33.13.5.2v30.57c0,1.48,1.2,2.68,2.68,2.68h15.4c1.48,0,2.68-1.2,2.68-2.68v-28.09c2.22-.6,4.59-1.52,7.11-2.86l.23-.12ZM27.93,10.57c0-.21.17-.38.38-.38h4c.21,0,.38.17.38.38v10.31h-4.77v-10.31ZM19.87,40.1v8.07s-.02,0-.02,0c-1.45-.58-2.88-1.15-4.31-1.65l11.16-26.7v10.04c0,1.01-.6,1.91-1.53,2.3h0c-3.21,1.34-5.3,4.47-5.3,7.95ZM27.27,77.83h-4.96v-2.25h4.96v2.25ZM22.99,46.16c0-3.95,3.2-7.15,7.15-7.15s7.15,3.2,7.15,7.15-3.2,7.15-7.15,7.15-7.15-3.2-7.15-7.15ZM38.19,77.83h-5.28v-2.25h5.28v2.25ZM38.47,34.39c-.84-.95-1.9-1.73-3.13-2.24-.93-.39-1.53-1.29-1.53-2.3v-8.81c2.92.48,6.05.76,9.41.53l-4.75,12.81Z"/>
    </g>
  </g>
</svg>