<?xml version="1.0" encoding="UTF-8"?>
<svg id="Layer_2" data-name="Layer 2" xmlns="http://www.w3.org/2000/svg" viewBox="0 0 44 60.72">
  <defs>
    <style>
      .cls-1 {
        fill: none;
      }

      .cls-2 {
        fill: #ff4522;
      }
    </style>
  </defs>
  <g id="Design">
    <g>
      <rect class="cls-1" width="44" height="60.72"/>
      <path class="cls-2" d="M28.38,46.05h-2.12c-.79-2.31-3.03-3.96-5.62-3.87-3.1.11-5.51,2.77-5.51,5.87v.1h5.9l1.16,10.23-.28.3.26.31-.76,1.36c-.07.18.06.37.25.37h6.43c.19,0,.32-.19.25-.37l-.77-1.37.23-.32-.25-.26,1.34-11.78c.03-.3-.2-.56-.5-.56ZM21.34,46.05c-.1,0-.19.03-.26.08l.04-2.67c.06-.21.26-.36.48-.32.33.05.64.13.94.25.21.08.32.29.28.49l-1.26,2.18h-.22ZM22.15,46.05l1.07-1.85c.14-.19.43-.24.62-.09.28.22.53.47.75.74.13.16.12.39,0,.54l-1.13.66h-1.32ZM24.46,46.05l.26-.15c.21-.11.47-.05.59.15h-.84ZM16.1,47.18c.05-.34.14-.67.27-.99.1-.25.38-.36.61-.24l2.9,1.7h-3.51c-.18-.07-.3-.26-.27-.47ZM17.11,45.44c-.12-.15-.14-.38,0-.54.22-.28.47-.53.74-.75.18-.15.45-.12.6.05l1.69,3.01-3.03-1.78ZM18.86,43.9c-.04-.2.06-.41.26-.49.31-.12.65-.21.99-.27.22-.04.42.11.48.31l-.05,3.45-1.69-3ZM26.78,56.02c-.06.51-.49.9-1.01.9h-1.82c-.52,0-.95-.39-1.01-.9l-.85-7.51h.65l.85,7.51-.35-7.51h4.39l-.85,7.51Z"/>
      <path class="cls-2" d="M25.52,46.05h-7.03c-.3,0-.54.26-.5.56l1.34,11.77-.24.06.22.63-.76,1.28c-.07.18.06.37.25.37h6.43c.19,0,.32-.19.25-.37l-.77-1.29.18-.61-.19-.05,1.34-11.78c.03-.3-.2-.56-.5-.56ZM24.02,56.43c-.06.54-.52.95-1.07.95h-1.92c-.55,0-1-.41-1.07-.95l-.9-7.92h.69l.9,7.92-.37-7.92h4.63l-.9,7.92Z"/>
      <path class="cls-2" d="M35.18,35.96l8.31-24.82-1.04.55c-6.85,3.63-12.68,3.63-17.66,2.79v-7.06c0-.47-.38-.85-.85-.85h-3.5c-.47,0-.85.38-.85.85v5.92c-2.61-.64-4.87-1.18-6.97-1.11-1.85.06-2.25,1.11-2.76,2.44-.05.14-.11.28-.16.42L.51,35.01l1.05-.37c4.64-1.65,8.53-.1,12.64,1.55.12.05.24.1.37.15v22.42c0,1.09.88,1.97,1.97,1.97h11.3c1.09,0,1.97-.88,1.97-1.97v-20.6c1.63-.44,3.36-1.12,5.21-2.1l.17-.09ZM20.48,7.75c0-.16.13-.28.28-.28h2.93c.16,0,.28.13.28.28v7.56h-3.5v-7.56ZM14.57,29.41v5.92s-.01,0-.02,0c-1.06-.43-2.11-.84-3.16-1.21l8.19-19.58v7.36c0,.74-.44,1.4-1.12,1.69h0c-2.35.98-3.89,3.28-3.89,5.83ZM20,57.07h-3.64v-1.65h3.64v1.65ZM16.86,33.85c0-2.9,2.35-5.25,5.25-5.25s5.25,2.35,5.25,5.25-2.35,5.25-5.25,5.25-5.25-2.35-5.25-5.25ZM28.01,57.07h-3.88v-1.65h3.88v1.65ZM28.21,25.22c-.62-.7-1.4-1.27-2.29-1.64-.68-.28-1.12-.95-1.12-1.69v-6.46c2.14.35,4.44.56,6.9.39l-3.48,9.4Z"/>
    </g>
  </g>
</svg>