<?xml version="1.0" encoding="UTF-8"?>
<svg id="Layer_2" data-name="Layer 2" xmlns="http://www.w3.org/2000/svg" viewBox="0 0 60 76.66">
  <defs>
    <style>
      .cls-1 {
        fill: none;
      }

      .cls-2 {
        fill: #ff4522;
      }

      .cls-3 {
        fill: #fff;
      }
    </style>
  </defs>
  <g id="Design">
    <g>
      <rect class="cls-1" x="2.22" width="55.55" height="76.66"/>
      <g>
        <path class="cls-2" d="M42.84,22.24l-.02-.03c-1.07-1.26-2.83.72-1.83,2.1,1.06,1.38,3.01-.64,1.86-2.08Z"/>
        <path class="cls-2" d="M.97,40.62h-.04c-.69-.14-1.09.62-.87,1.36.18.79,1,1.51,1.61,1.39,1.32-.29.48-2.57-.7-2.75Z"/>
        <path class="cls-2" d="M53.07,29.36l-.02-.02c-.43-.38-1.18-.19-1.58.29-.52.52-.82,1.6-.08,2,.91.55,2.61-1.17,1.68-2.27Z"/>
        <path class="cls-2" d="M57.77,44.78c-.77-1.01-2.52.35-2.01,1.64.23.52,1.02.61,1.51.25.52-.32.95-1.24.52-1.87l-.02-.03Z"/>
        <path class="cls-2" d="M2.15,49.37h-.03c-.96.48-.29,2.41.98,2.41,1.43-.18.5-2.81-.95-2.41Z"/>
        <path class="cls-2" d="M47.96,40.99c.55-.42.9-1.63.47-2.28l-.02-.03c-.22-.29-.56-.22-.8,0-.52.42-.87,1.62-.43,2.26.21.3.54.25.79.04Z"/>
        <path class="cls-2" d="M22.83,24.2c.49-.56.56-1.84.11-2.44l-.02-.03c-.25-.32-.63-.2-.85.11-.4.53-.52,1.66-.12,2.29.22.38.62.39.89.06Z"/>
        <path class="cls-2" d="M36.91,15.23l-.02-.02c-.93-.82-1.8,1.76-1.01,2.43.93.54,1.63-1.68,1.03-2.41Z"/>
        <path class="cls-2" d="M21.96,27.52c.14-.63-.43-1.6-1.15-1.78h-.04c-1.24-.17-.75,1.75.23,2.17.45.22.88.04.95-.38Z"/>
        <path class="cls-2" d="M6.7,27.34l-.04.03c-.45.34-.56,1.21-.31,1.85.23.73,1.06,1.51,1.61.87.51-.55.34-1.74-.19-2.41-.27-.37-.75-.59-1.07-.33Z"/>
        <path class="cls-2" d="M50.38,34.98c.46-.12.65-.92.31-1.33l-.02-.02c-.34-.48-.87.03-.88.56-.02.42.31.86.59.79Z"/>
        <path class="cls-2" d="M18.91,21.13c.35-.33.12-1.12-.38-1.31h-.03c-.53-.26-.74.44-.49.9.18.38.69.61.9.41Z"/>
        <path class="cls-2" d="M10.97,30.91h-.03c-1.42.13-1.04,2.55.07,3.55.6.61,1.58.82,1.98.17.76-1.17-.48-3.72-2.02-3.71ZM11.9,33.13c-.13.21-.44.14-.64-.05-.36-.32-.48-1.1-.02-1.14h.01c.5,0,.89.82.65,1.2Z"/>
        <path class="cls-2" d="M44.3,30.1l-.03-.02c-1.27-.74-2.62,1.08-2.54,2.63-.02,1.42,1.3,2.47,2.31,1.72,1.24-.8,1.7-3.47.26-4.34ZM43.76,32.6c-.39.29-.91-.12-.9-.67-.03-.61.5-1.32.99-1.03h.01c.56.35.38,1.39-.1,1.7Z"/>
        <path class="cls-2" d="M56.08,49.28h-.04c-.9-.15-2.13.72-2.68,1.66-.48.7-.67,2,.28,2.17,1.24.26,2.8-1.19,3.12-2.44.2-.65-.08-1.31-.68-1.39ZM55.53,50.63c-.12.47-.71,1.01-1.17.91-.35-.07-.28-.55-.1-.81.21-.35.67-.67,1-.62h.01c.23.03.33.28.26.52Z"/>
        <path class="cls-2" d="M6.82,57.14c-.24-1.03-1.19-1.94-2.02-2.22l-.07-.02c-1.29-.51-2.34.87-1.51,2.52.38.75,1.02,1.31,1.7,1.59,1.09.52,2.29-.29,1.9-1.86ZM4.97,57.23c-.28-.11-.55-.35-.71-.67-.35-.69.09-1.27.63-1.06h.03c.35.13.75.51.85.94.16.66-.34,1-.8.78Z"/>
        <path class="cls-2" d="M51.58,36.52c-.83,1.19-1.41,2.58-1.88,3.99-.79,2.41-.64,2.63-.64,5.3-.07.83,1.82,3.62,1.87,5.17l.54,2.94c.81-5.88,4.79-13.98,4.58-17.46-.52-4.29-2.81-2.48-4.46.07ZM54.36,38.88c-.91,3.02-1.72,3.38-1.25,2.01.47-1.37,1.06-3.58.3-2.32-.76,1.26-1.55,3.99-1.54,2.39.01-1.61-1.81,3.28-1.81,3.28.1-.56.84-3.89,1.1-4.57.99-2.53,1.9-4.34,2.79-4.47,1.18-.17,1.38.47.41,3.68Z"/>
        <path class="cls-2" d="M38.58,66.96l.11.33c-.29.37-.58.22-.98.14-.01-.41.48-.54.86-.47Z"/>
        <path class="cls-2" d="M31.3,68.6c.3-.08.6.05.65.34.03.2-.24.17-.37.31-.38-.04-.76-.53-.28-.66Z"/>
        <path class="cls-2" d="M33.88,68.64c.14-.23.55-.61.84-.37.4.33-.18.62-.57.52-.09-.02-.15-.15-.27-.15Z"/>
        <path class="cls-2" d="M29.38,68.57s-.24.16-.25.16c-.24.05-.78-.38-.33-.55.36-.14.83.11.58.39Z"/>
        <path class="cls-2" d="M37.19,67.59c-.04.34-.45.53-.81.41-.11-.54.35-.63.81-.41Z"/>
        <path class="cls-2" d="M27.52,67.26c-.47.25-1.17-.38-.51-.62.05.27.72.27.51.62Z"/>
        <path class="cls-2" d="M28.05,68.1c-.2.15-.73-.03-.79-.28.24-.38.77-.21.85.15-.02.04-.03.1-.06.13Z"/>
        <path class="cls-2" d="M24.57,65.48c.25-.08.99.28.79.53-.37.19-.82-.18-.79-.53Z"/>
        <path class="cls-2" d="M35.43,67.44c.42-.02.45.34.1.52-.42.22-.83-.48-.1-.52Z"/>
        <path class="cls-2" d="M25.13,66.8c.55,0,.95.72.18.56-.28-.06-.43-.4-.18-.56Z"/>
        <path class="cls-2" d="M38.74,65.81c.09-.02.48-.04.48.07-.15.13-.17.32-.37.4-.6.24-.56-.37-.11-.47Z"/>
        <path class="cls-2" d="M34.27,67.43c.08.46-.8.62-.69.07.05-.27.51-.18.69-.07Z"/>
        <path class="cls-2" d="M31.46,67.3c.12,0,.4.04.43.16-.1.28-.22.52-.54.28-.27-.19-.26-.43.12-.45Z"/>
        <path class="cls-2" d="M32.81,68.46c-.24.17-.67-.03-.54-.3.17-.34,1.06-.09.54.3Z"/>
        <path class="cls-2" d="M30.37,67.75c.07,0,.13-.02.19.02.24.19.22.41-.09.5-.16.01-.4-.14-.44-.29,0-.13.22-.21.34-.23Z"/>
        <path class="cls-2" d="M24.05,65.95c.38-.02.89.69.27.57-.3-.06-.41-.33-.27-.57Z"/>
        <path class="cls-2" d="M28.57,67.17c.23-.06.56.09.45.3-.21.29-.64.16-.6-.17.03-.06.08-.11.15-.13Z"/>
        <path class="cls-2" d="M37.41,66.83c-.25.19-.67-.04-.44-.34.14-.13.67-.08.6.09-.09.05-.11.21-.16.25Z"/>
        <path class="cls-2" d="M34.97,66.65c.14-.02.29.07.36.18-.32.81-.92-.11-.36-.18Z"/>
        <path class="cls-2" d="M29.92,66.85l-.07.3c-.09.06-.3.11-.37.02l.03-.35.41.04Z"/>
        <path class="cls-2" d="M33.11,66.85l-.11.28c-.47.21-.53-.55.11-.28Z"/>
        <path class="cls-2" d="M26.23,66.78s-.13.15-.18.13c-.06-.13-.24-.14-.21-.28.07-.32.58-.15.38.16Z"/>
        <path class="cls-2" d="M28.52,66.53l-.3.11c-.5-.37.3-.54.3-.11Z"/>
        <path class="cls-2" d="M36.3,66.65c.34-.01-.07.7-.33.18.01-.07.25-.18.33-.18Z"/>
        <path class="cls-2" d="M26.43,66.22c-.13,0-.49.01-.41-.18.07-.16.49,0,.41.18Z"/>
        <path class="cls-2" d="M17.35,66.85c-1.65-1.78-2.86-3.96-3.7-6.22-.63-1.43-.81-2.99-1.03-4.53-2.13-1.89-3.27-6.76-4.75-8.9-.99-1.58-2.43-3.32-4.12-3.35-1.18.12-1.26,1.41-.74,2.73.87,2.12,2.49,3.7,3.93,5.24,4.56,4.88,6.19,10.4,7.07,13.64l3.34,1.4ZM4.52,45.47c1.53.07,2.46,1.73,3.72,4.22,0,0-5.25-4.29-3.72-4.22Z"/>
        <g>
          <path class="cls-3" d="M37.32,64.84l3.36-1.17c-.11-.51-.14-1.2.06-1.61,4.41-9,3.29-10.81,2.92-11.4-.27-.43-.8-.94-1.82-.94h0c-.07,0-.14,0-.21,0-2.67.17-3.72,5.34-4.94,11.31-.29,1.44-.57,2.8-.86,4.01l1.48-.21Z"/>
          <path class="cls-3" d="M19.88,58.08c.09.16.19.32.28.48.13.23.43.71.85,1.38.42.67,1.2,1.92,1.97,3.2l5.97,1.82c-1.74-2.39-4.48-6.66-4.99-7.74-.46-1.05-1.66-2.92-3.23-3.17-.13-.03-.25-.04-.37-.04-.47,0-.88.19-1.15.54-.3.37-.41.91-.29,1.43.11.67.53,1.36.97,2.1Z"/>
        </g>
        <path class="cls-2" d="M58.15,55.72c-2.39,1.34-4.8,4.71-7.5,5.5-.84.27-2.33.34-2.69-.68-.14.38-.31.76-.5,1.13-.88,1.49-1.33,2.49-1.53,3.16-.16.54-.7.86-1.26.79-1.54-.2-3.43-.26-4.21-.69-.63-.34-.91-2.29-.45-3.22,1.91-3.9,5.2-11.39,1.68-11.16-2.68.18-3.77,9.53-5.15,15.06-.2.27-.4.57-.61.9-.36.53-.73,1.05-1.29,1.41-1.35.93-3.73.4-4.96-.77-1.18-1.01-5.84-8.26-6.46-9.57-.46-1.05-1.52-2.55-2.64-2.72-.74-.15-.99.45-.87.97.1.64.66,1.47,1.15,2.33.58,1.02,5.11,7.93,5.05,9.04-.02.97-.78,1.82-1.99,1.63-1.09-.14-2.28-.75-3.28-1.13-1.07-.41-2.1-.65-3.1-1.16h-.03c-1.15-.55-10.67-4.64-11.99-5.05-4.75-1.48-4.84,1.7-2.55,2.26,1.31.32,7.85-.16,13.32,7.67,1.88,2.69,4.32,3.9,7.88,4.67,5.56,1.1,13.2.77,17.63-2.55.87-.66,2.89-2.7,4.11-4.5.94-1.01,1.97-2.69,2.84-3.45.91-.8,1.83-1.55,2.88-2.11,2.89-1.47,7.12-3.06,8.27-6.9.44-1.67-1.03-1.31-1.77-.87ZM21.52,57.54c-1.38-1.99-.76-2.12-.17-1.34.59.78,3.99,6.52,3.99,6.52l-3.82-5.18ZM2.39,62.08c.7-.75,2.71-.1,3.92.4,0,0-4.62.35-3.92-.4ZM23.26,71.17c-8.49-4.5-11.31-5.88-11.31-5.88,1.28.41,5.69,1.89,6.81,2.43h.02c.98.52,1.98.76,3.03,1.17.98.38,2.14.99,3.2,1.13,1.18.19,1.85-.96,1.73-1.85-.4-3.02,4.46,7.21-3.48,3ZM41.66,51.81c1.28-.08-2.39,6.8-2.39,6.8.19-1.17,1.11-6.72,2.39-6.8ZM43.68,67.12c-3.06-.09-5.68-2.28-4.3-1.7,1.08.45,2.69.99,5.34.8s.51.95-1.04.9ZM58.96,57c-1.14,1.84-6.78,4.28-6.78,4.28,1.74-1.25,5.1-4.34,5.53-4.66.43-.33,2.39-1.46,1.25.38Z"/>
        <g>
          <path class="cls-2" d="M32.01,53.94c.36-.34.66.13.84.43.36.6.67,1.44.96,2.1.66,1.51,1.47,3.27,1.98,4.82.35,1.07.52,1.7-.76,2.03-1.09.28-4.1.48-5.02-.18-.78-.57-.21-2.15-.01-2.93.45-1.75.99-3.77,1.6-5.46.09-.25.21-.61.41-.8ZM33.6,58.08l-.34-1.26-.49-1.26.36,1.3.47,1.23ZM31.99,62.14l.07-6.34c-.26,1.97-.44,3.97-.21,5.95l.13.38ZM33.41,62c.03-1.3-.17-2.66-.57-3.9-.02-.06-.04-.21-.11-.21l.68,4.11ZM30.77,60.66c.17-.9.42-1.8.49-2.72l-.33,1.28-.16.98v.46ZM34.77,61.75c-.04-.4-.18-.78-.28-1.18l-.5-1.25.23.88.55,1.55Z"/>
          <path class="cls-2" d="M43.29,45.55c.86-.06,1.62,1.04,2.01,1.66.37.57.75,1.31.96,1.96.27.86.45,1.75-.8,1.84-1.32.1-2.7-.04-4.02-.05-1.86-.01-3.92.11-5.75,0-1.15-.07-1.2-.37-.3-.95.77-.49,1.67-.93,2.46-1.4,1.4-.83,2.77-1.71,4.18-2.51.36-.2.83-.51,1.26-.54ZM43.04,46.82c-1.21.26-2.34.77-3.41,1.35-.06.03-.14.05-.15.12l3.56-1.47ZM44.21,47.73c-1.75.18-3.41.69-5.03,1.31l-1.42.64,6.46-1.95ZM44.62,48.77c-.73.03-1.47.09-2.17.27-.1.03-.32.07-.37.16l2.54-.43ZM44.37,50.1c-1.77-.38-3.57-.23-5.34.07,1.53-.03,3.07-.12,4.6-.07.13,0,.26.04.4.05.07,0,.32.03.33-.05ZM37.91,50.48c-.02-.09-.1-.09-.18-.1-.28-.03-.78.02-1.07.05-.08,0-.16.01-.18.1l1.42-.05Z"/>
          <path class="cls-2" d="M19.17,47.03c.74-.1,1.69.35,2.38.62,2.13.83,4.17,1.87,6.26,2.76.16.14.49.31.36.54-.17.31-2.25.53-2.69.59-2.12.29-4.51.68-6.63.83-1.29.1-1.89-.17-1.8-1.44.06-.84.81-3.21,1.57-3.71.14-.09.37-.18.54-.2ZM23.03,48.9c-.87-.34-1.72-.78-2.68-.92l2.53.94.15-.02ZM21,48.85c-.7-.18-1.38-.43-2.13-.37-.01.06.09.07.14.08.58.13,1.24.14,1.82.32l.16-.03ZM24.5,50.18c-1.34-.27-2.7-.58-4.08-.69-.6-.05-1.33-.09-1.93,0-.08.01-.17-.01-.23.07l6.23.62ZM26.57,50.37c-.55-.21-1.08-.49-1.67-.6l1.52.62.15-.02ZM21.26,50.59c-.96-.09-1.93.02-2.86.28-.06.02-.19.02-.18.09l3.04-.37ZM25.61,50.96c-1.41,0-2.83-.05-4.21.24l-.65.17,4.86-.41Z"/>
          <path class="cls-2" d="M28.81,48.64s.58.64.62.75c.03.08.06.11-.03.17-.29.19-1.16-.2-1.47-.33-1.41-.57-2.83-1.29-4.23-1.91-.69-.3-2.63-.96-3.03-1.43-.36-.43-.24-.76.1-1.15.62-.7,3.57-2.5,4.52-2.56.62-.04,1.01.21,1.31.68l3.2,6.15c.07.13-.03.22-.18.16l-.81-.53ZM26.17,43.96c-.09-.23-.3-.49-.51-.64.1.23.3.48.51.64ZM26.28,45.52l-.91-1.03c-.26-.24-.53-.47-.81-.69-.13-.1-.3-.24-.46-.3l2.18,2.02ZM27.49,47.63c-1.04-1.01-2.16-1.97-3.41-2.76-.36-.23-.75-.48-1.15-.63l4.57,3.39ZM25.26,46.85c-.23-.24-.57-.44-.87-.61-.72-.43-1.51-.78-2.33-1.04l2.86,1.52.34.13ZM28.15,47.26c-.28-.56-.6-1.11-1.01-1.61.24.58.63,1.1,1.01,1.61ZM26.73,48.13c-.54-.36-1.19-.63-1.83-.82.55.35,1.21.57,1.83.82Z"/>
          <path class="cls-2" d="M33.97,49.61l.2-.69s-.42.32-.49.36c-.09.05-.2.07-.3.1-.12-.03-.09-.32-.06-.42.87-1.93,1.49-4.01,2.34-5.93.5-1.12.87-1.31,2.2-.99,1.13.27,2.65.92,3.57,1.59.81.59.99,1.06.13,1.73-2.2,1.25-4.33,2.63-6.58,3.81-.13.07-.95.51-1.02.44ZM35.87,44.8l.17-.19.95-1.43c-.47.47-.87,1.02-1.12,1.62ZM38.37,43.36c-.1-.02-.12.05-.18.09-1.23.94-2.15,2.19-2.95,3.44-.2.31-.41.62-.55.96l3.68-4.49ZM40.01,44.15c-.18.06-.37.19-.53.29-.23.14-.48.32-.7.48-.82.6-1.63,1.32-2.35,2.01.1.02.12-.05.18-.09,1.15-.88,2.3-1.76,3.4-2.68ZM40.67,44.98c-.34.12-.72.31-.97.55.34-.15.69-.32.97-.55ZM36.58,47.67c-.33.12-.68.33-.92.55.34-.13.65-.34.92-.55Z"/>
          <path class="cls-2" d="M31.37,40.98c.65,0,2.48.02,2.91.49.31.34.11.93,0,1.32-.37,1.31-.98,2.8-1.49,4.08-.18.46-.43,1.23-.68,1.62-.56.88-1.18-.16-1.47-.64-.75-1.27-1.53-2.88-2.15-4.21-.29-.62-.95-1.68-.19-2.2.47-.32,2.42-.46,3.07-.46ZM31.48,46.3c-.05-1.24-.06-2.48-.05-3.72l-.15-.89c-.14,1.27-.08,2.54.05,3.81.02.16.03.34.06.5,0,.07.03.28.09.3ZM32.19,44.3l.66-2.28-.24.44c-.18.5-.4,1.06-.46,1.59,0,.05-.05.24.04.24ZM30.63,45.71l-.42-2.24-.39-1.36c.03,1.15.31,2.39.72,3.48.02.05.01.14.08.13ZM29.42,44.11l-.2-.71-.35-.8.02.23.53,1.27ZM32.34,46.53l1.31-3.83-.27.55c-.32,1.02-.85,2.1-1.06,3.14,0,.05-.07.15.03.14ZM31.18,47.85l-.55-1.14c.09.32.24.69.4.99.04.08.03.18.16.15Z"/>
          <g>
            <path class="cls-2" d="M41.07,57.99c.32.27.67.53.84.89l-.9-.75c-.18.43-.37.84-.55,1.25.16.19.3.41.38.63l-.16-.14-.26-.4c-.27.6-.55,1.17-.79,1.67-.14.29-.2.68-.21,1.09,1.16-.37,2.65-1.21,3.29-1.74,2-1.64.25-2.51-1.28-3.37-.12.29-.24.58-.36.87Z"/>
            <path class="cls-2" d="M34.18,55.1c.82,1.85,1.77,3.94,2.72,5.72.08.16.17.32.27.47.1-.48.2-.98.3-1.47l-1.14-1.96c.49.53.88,1.13,1.18,1.77.1-.51.21-1.01.32-1.51l-1.71-2.13c.63.56,1.23,1.16,1.78,1.79.07-.32.14-.65.22-.96l-.11-.08-1.53-1.21c.15.03.29.14.41.22.44.28.87.58,1.27.9.08-.33.16-.65.24-.97-1-.56-2-1.12-2.99-1.63-.31-.16-1.22-.69-1.53-.61-.35.2-.14.62-.04.91.09.25.23.52.34.77ZM35.6,56.46l-.53-.76-.51-.97c.41.53.8,1.12,1.03,1.73Z"/>
          </g>
          <g>
            <g>
              <path class="cls-2" d="M29.54,37.16l-.06-.1,2.02-1.89c.32-.45.74-.8,1.09-1.22.6-.73,1.09-1.54,1.64-2.31-.06-.08-.17.08-.2.12-.23.27-.42.6-.65.87-.96,1.15-2.09,2.16-3.22,3.14-.04.04-.07.12-.13.05.58-1.73.93-3.55,1.25-5.37,1.02-1.33,1.81-2.82,2.55-4.34-.07-.08-.1.04-.13.09-.35.52-.66,1.11-1.02,1.65-.28.42-.65.97-.96,1.35-.04.05-.1.16-.17.14.07-1.09.23-2.16.29-3.25.12-2.18-.07-4.39-.32-6.59-.1-.03-.07.09-.07.15-.03.65.08,1.39.08,2.06,0,1.74-.17,3.47-.34,5.18-.09.1-.06.03-.1-.04-.65-1.12-.95-2.38-1.46-3.55-.02-.05-.02-.18-.11-.16.37,1.59,1.02,3.12,1.51,4.69-.26,1.66-.58,3.3-.99,4.91-.15-.1-.24-.35-.32-.51-1.05-2.1-1.75-4.28-2.53-6.46-.02-.05-.03-.18-.11-.16.61,2.75,1.59,5.43,2.7,8.07-.19.73-.35,1.48-.56,2.21-.07.23-.39,1.34-.49,1.45-.11.13-.76.27-.82-.05l-1.07-2.8-1.22-3.97c.11,1.08.36,2.18.63,3.25.24.97.49,1.94.86,2.88,0,.08-.22.05-.28.04-.49-.05-1.07-.16-1.56-.25-.23-.04-1.23-.2-1.32-.34-.18-.7-.35-1.41-.47-2.12-.42-2.45-.56-5.38.03-7.71,1.1-4.33,4.66-7.14,7.6-10.16.14-.14.62-.83.8-.79.32.18.25.57.33.86.76,3.02,2.38,5.65,3.45,8.57,1.22,3.36,1.72,6.91.93,10.24-.06.24-.3,1.29-.45,1.36-.09.05-1.25-.08-1.49-.08-1.77-.02-3.48.38-5.11.92Z"/>
              <path class="cls-2" d="M23.39,36.06l-.1.05-2.35-.53c-.23-.64-.75-1.34-.97-1.96-.18-.52-.24-1.63-.49-2.08-.01-.03-.05-.08-.08-.04l.12,1.3-3.44-5.09,3.37,5.87c-.09.11-.06.06-.13,0-.29-.2-.59-.37-.89-.55l-2.04-1.43c.4.41.84.79,1.28,1.16.97.82,2.28,1.5,2.64,2.75-.11.11-2.3-.19-2.63-.24-.37-.06-1.91-.31-2.14-.47-.28-.19-.49-.82-.61-1.15-.92-2.43-1.17-5.36-1.28-7.87-.02-.43-.15-1.78-.08-2.09.01-.06.02-.11.07-.15.08-.08.15,0,.23.03.57.27,1.54,1.02,2.1,1.41,2.34,1.63,5.06,3.49,6.59,5.92.16,1.72.38,3.46.83,5.16ZM22.09,35.67c.17,0,.02-1.23,0-1.39-.04-.29-.11-.63-.17-.92-.07-.36-.15-.77-.31-1.1l.47,3.41ZM19.25,30.86c0-.36-.19-.75-.35-1.08.05.35.2.75.35,1.08Z"/>
              <path class="cls-2" d="M16.8,38.02c.02.32-.32,1.1-.46,1.41-.55,1.29-1.3,2.78-1.99,3.99-.41.73-.84,1.68-1.89,1.29-1.2-.45-3.26-2.04-3.81-3.2-.47-.99.16-1.26.91-1.6.98-.43,2.13-.79,3.16-1.14s2.37-.91,3.39-1.11c.33-.06.67-.12.69.35ZM11.09,42.07c1.67-.89,3.17-2.05,4.53-3.35l-4.53,3.35ZM14.85,40.63c.12.06.2-.06.27-.13.19-.2.36-.47.54-.68l.18-.36-.99,1.17ZM10.08,40.97c1.19-.49,2.39-.98,3.43-1.73l-.3.09-3.05,1.51-.08.12ZM13.18,43.47l.71-.85.52-.89c-.38.52-.84,1.01-1.18,1.56-.03.04-.11.12-.05.17ZM12.03,43.11c.7-.41,1.27-1.01,1.73-1.66-.53.53-1.15.97-1.66,1.52-.04.04-.14.09-.08.14Z"/>
            </g>
            <path class="cls-2" d="M40.39,37.71c-2.62-.37-5.21-.98-7.8-.62-1.25.17-2.44.58-3.6,1.01-.52-.56-1.45-.74-2.16-.89-3.78-.79-7.59-1.06-11.37-1.79-3.57-.69-7.09-1.6-10.61-2.62-.86-.25-.96-.36-1.33.47-1.43,3.2-.82,6.79.9,9.97,1.9.14,3.53,2.09,4.65,3.89.47.68.91,1.59,1.35,2.61,1.01.66,2.1,1.22,3.2,1.61.18-.04.41-1.05.49-1.27,2.92-8.13,10.92-12.15,20.5-11.63l3.43-.19c.03.08-1.74.26-2.07.52l2.86.8c.61-.59,2.14-1.56,2.12-1.7-.16-.25-.37-.14-.55-.16ZM14.93,36.1c-2.03-.17-4.16-.37-6.16-.94-.37-.11-.77-.22-1.13-.39l7.29,1.33ZM10.52,36.85c.18-.08.42-.1.62-.12.6-.07,1.23-.05,1.84,0l-1.34.12h-1.12ZM10.9,37.67c-.86.25-1.76.4-2.68.4,1.3-.38,1.23-.39,2.68-.4ZM10.43,36.31c-.05.08-.13.04-.21.04-.68.01-1.37,0-2.05-.05l-.82-.15c1.02-.07,2.05.01,3.08.15ZM16.43,44.03l-.66,1.27.19-.58c.26-.48.42-1.03.76-1.45l-.29.76ZM17.55,42.07l.33-1.52.2-.58c-.08.71-.22,1.47-.53,2.09ZM18.36,42.07c-.02.21-.03.47-.11.66-.02-.22-.02-.49,0-.7.01-.21.03-.47.11-.66.04.23.02.48,0,.7ZM20.16,41.02l-.23-1.19c.12.27.25.7.28.99,0,.08.04.15-.04.21ZM20.45,38.69c.21.37.41.76.57,1.16.07.16.18.39.18.56-.31-.53-.64-1.13-.75-1.72ZM22.79,39.84c-.34-.08-1.52-1.46-1.89-1.8-.53-.49-1.2-1-1.54-.13-.35.91,0,3.03-.06,4.08,0,.08-.06.23-.12.3-.22,0-.28-4.06-.57-4.37-.03-.02-.11-.03-.14-.02-.32.11-.85,1.22-1.04,1.57-1.02,1.89-2.03,3.84-2.89,5.82-.07.53.23.98.78,1.09-.14.24-.17.7-.4.87-.15.11-1-.07-1.22-.13-5.65-1.37-10.41-8-8.72-13.48.03-.09.04-.25.15-.26l1.52.46c-.3.36-.47.84-.55,1.31-.17.91.07,2.57.7,3.37.71.91,1.78.55,2.61.3,1.62-.48,3.34-1.09,4.94-1.64.52-.18,2.22-.39,2.52-.67.09-.09.12-.32.21-.33.03,0,.5.07.57.09.12.03.53.14.62.19.31.21.24.58.47.83.2-.16.26-.73.48-.81.2.05,1.6.1,1.63.26-.16.21-.08.52.09.75.27.36,2.2,2.1,2.18,2.24-.06.08-.22.14-.32.12ZM22.96,38.31l-1.07-.71.6.28.99.69-.52-.26ZM24.23,38.24c.28,0,.6.14.84.28-.27.04-.62-.11-.84-.28ZM26.42,38.23l-3.02-.68.02-.16,3.02.68-.02.16Z"/>
            <g>
              <path class="cls-2" d="M27.77,64.13c.35.5.68.94.97,1.32,2.38.4,4.81.4,7.19-.03.11-.17.23-.33.34-.48.06-.23.11-.47.17-.71-2.83.54-5.83.49-8.66-.09Z"/>
              <path class="cls-2" d="M20.82,66.97c.97.37,2.13.96,3.19,1.09.84.13,1.44-.25,1.74-.81-.4-.24-.94-.62-1.08-.77-.45-.49-.89-.98-1.34-1.49-.18-.21-.47-.34-.56-.61l1.16.54c.27-.02.49-.1.25-.33-1.6-.91-3.35-1.72-4.63-2.99l2.47,1.57c1.01.54,2.06.98,3.13,1.36-.24-.44-.51-.92-.8-1.43-1.98-.8-3.78-1.89-5.23-3.31-4.01-3.95-4.32-9.39-.94-13.77,5.54-7.16,17.73-7.78,25.07-2.57,5.55,3.94,6.96,10.8,2.4,15.92-1.61,1.81-3.73,3.13-6.1,4,.11.4.27.72.48.86.81-.33,1.6-.72,2.37-1.16.19-.08,1.66-1.13,1.73-1.06.1.08-.08.11-.11.13-1.03.75-2.19,1.44-3.31,2.06l-.09.27c.12.03.25.06.39.09.2-.06.38-.16.53-.29l.11.08c-.11,0-.23.16-.34.27.86.14,1.92.33,2.87.33,2.23,0,2.81-.43,4.65-4.11,1.01-2.24,1.53-4.7,1.41-7.25-.43-9.34-9.06-14.89-18.94-14.63-8.04.21-14.88,4.6-16.64,11.83-1.41,5.79.15,11.48,4.06,15.43.69.26,1.39.46,2.12.74ZM24.57,67.26c.1-.04.59.24.61.27.24.38-.76-.14-.61-.27ZM23.65,66.2l.29.5c-.09.09-1.02-.53-.29-.5ZM21.52,65.73c.2.02.39.28.39.46-.13,0-.46-.39-.39-.46ZM23.21,65.68c-.18-.03-.25-.14-.45-.05-.43-.78.37-.46.45.05ZM22.39,66.49c.13.08.31.29.42.41-.14.09-.56-.35-.56-.38,0-.04.05-.08.14-.03ZM21.83,63.84c.1.04.6.46.34.51-.15.03-.59-.35-.34-.51ZM21.97,65.42c-.27-.09-.62-.46-.42-.71.32.14.42.41.42.71ZM21.52,63.58c-.24.05-.39-.16-.4-.36.08-.08.43.33.4.36ZM20.95,64.4c-.25-.03-.32-.29-.4-.46.26-.01.42.25.4.46ZM19.94,62.71c.19-.08.52.39.45.46-.07.07-.53-.39-.45-.46ZM19.14,63.02c-.21-.12-.36-.3-.45-.51.07-.07.54.37.45.51ZM17.73,60.67c.28.15.41.42.56.66-.09.08-.61-.53-.56-.66Z"/>
            </g>
          </g>
          <path class="cls-2" d="M20.71,58.95c.33.05.7-.08,1.08-.28-.35-.56-.62-.99-.73-1.19-.07-.12-.14-.24-.21-.35-.05.04-.1.09-.15.13-.06.04-.09.12-.18.09.09-.11.18-.22.28-.33-.22-.38-.43-.74-.58-1.07l-.48.26c.13-.13.28-.25.43-.36-.07-.17-.12-.32-.14-.47-.11-.47.12-1.01.78-.87.32.05.63.22.92.46.29-.12.59-.23.89-.32l-.77.42c.19.17.37.37.54.58.81-.54,1.72-.98,2.65-1.32-.81.53-1.67,1-2.49,1.53.27.37.49.77.64,1.12.06.12.16.3.28.51,1.21-.92,2.45-1.93,3.61-2.9.35-.29,1.85-1.47,1.93-1.77.13-.46-.68-.35-1-.33-2.67.21-5.68.66-8.35,1.04-.92.13-1.92.27-1.92,1.34,0,1.04,1.76,3.91,2.97,4.1ZM25.94,53.32c.56-.14,1.12-.31,1.71-.33l-2.05.47.34-.14ZM26.54,54.22l-3.04,2.32c-.1-.09,1.55-1.37,1.68-1.49l1.36-.83ZM23.55,53.6c.01.07-.09.06-.15.08-1.37.4-2.79.66-4.1,1.2,1.22-.82,2.79-1.02,4.25-1.28Z"/>
          <g>
            <path class="cls-2" d="M22.59,61.1c.23.18.54.37.89.55-.44-.73-.89-1.44-1.27-2.07-.33.46-.36.95.38,1.52Z"/>
            <path class="cls-2" d="M24.39,59.02c.19-.17.36-.36.56-.52.05-.04.42-.34.45-.3-.31.31-.62.63-.94.94.15.25.3.51.47.79.49-.76,1.11-1.45,1.77-2.06l-1.69,2.19c.51.84,1.09,1.77,1.66,2.65.12,0,.25.01.35,0,.9-.07,1.05-.52,1.29-1.24.66-1.94,1.48-4.37,1.92-6.35.08-.37.37-1.36-.34-1.26-.4.05-1.39.87-1.74,1.14-1.34,1.06-2.79,2.27-4.1,3.42.1.18.21.37.34.58ZM27.01,61.49l-.03-.24.33-.89c0,.4-.25.74-.3,1.13ZM25.85,61.21c.5-1.63,1.35-3.17,2.51-4.47l-2.51,4.47ZM29.46,55.7l-1.3,3.86c-.1-.04,0-.31.02-.39.23-.95.6-1.87.95-2.78l.34-.69ZM28.36,55.48l.5-.35-1.15,1.11-.65.49,1.3-1.25Z"/>
          </g>
          <g>
            <path class="cls-2" d="M35.06,52.87c1.19.58,2.36,1.25,3.53,1.92.06-.2.11-.4.17-.6l-1.86-.93c.66.2,1.29.5,1.89.83.06-.18.11-.36.17-.53l-.38-.16c.13.03.26.07.4.1.07-.2.13-.38.2-.57l-1.67-.28c.58.01,1.16.04,1.74.09.12-.31.25-.58.39-.84-1.58,0-3.17.02-4.75.01-.75.24-.24.67.17.93Z"/>
            <path class="cls-2" d="M42.92,52.61c.67.06,1.34.15,1.99.31l-.17.04c-.6-.11-1.21-.17-1.82-.24-.02.22-.05.45-.1.7.81.21,1.59.47,2.34.83.01.09-.1.04-.15.02-.74-.22-1.49-.42-2.24-.59-.07.35-.17.71-.28,1.09.58.3,1.12.64,1.61,1.04l-1.68-.8c-.15.49-.34,1-.53,1.51.51.28,1.02.55,1.54.8,1.01.49,1.7.4,2.3-.51.55-.84,1.32-2.95.98-3.88-.3-.8-1.28-.69-2.03-.73-.58-.03-1.17-.04-1.75-.06,0,.15,0,.31,0,.48ZM42.67,55.99c.31.08.61.27.86.46-.31-.09-.63-.25-.86-.46ZM44.21,54.94l-.73-.37c.42.03.77.34,1.16.46-.08.12-.33-.08-.44-.08Z"/>
          </g>
          <path class="cls-2" d="M32.84,51.71l.31.26-.44-.14c-.28-.09-.64.09-.66.33l-.03.37-.18-.33c-.11-.21-.51-.23-.73-.03l-.35.31.17-.37c.11-.23-.14-.44-.47-.38l-.51.1.44-.23c.28-.15.29-.44.02-.54l-.43-.16h.5c.32.02.59-.23.5-.44l-.15-.34.33.25c.21.16.61.08.74-.16l.2-.36v.37c0,.24.35.35.64.22l.46-.22-.33.32c-.21.2-.08.47.24.49l.5.03-.5.12c-.32.07-.47.36-.27.53Z"/>
        </g>
      </g>
    </g>
  </g>
</svg>