<?xml version="1.0" encoding="UTF-8"?>
<svg id="Layer_2" data-name="Layer 2" xmlns="http://www.w3.org/2000/svg" viewBox="0 0 44 56.22">
  <defs>
    <style>
      .cls-1 {
        fill: none;
      }

      .cls-2 {
        fill: #ff4522;
      }

      .cls-3 {
        fill: #fff;
      }
    </style>
  </defs>
  <g id="Design">
    <g>
      <rect class="cls-1" x="1.63" width="40.74" height="56.22"/>
      <g>
        <path class="cls-2" d="M31.41,16.31l-.02-.02c-.78-.92-2.08.52-1.34,1.54.78,1.01,2.21-.47,1.36-1.52Z"/>
        <path class="cls-2" d="M.71,29.79h-.03c-.51-.1-.8.46-.64,1,.13.58.73,1.1,1.18,1.02.97-.21.36-1.89-.51-2.02Z"/>
        <path class="cls-2" d="M38.92,21.53h-.02c-.31-.29-.87-.15-1.16.2-.38.38-.6,1.17-.06,1.47.67.4,1.91-.86,1.23-1.66Z"/>
        <path class="cls-2" d="M42.37,32.84c-.56-.74-1.85.26-1.47,1.2.17.38.75.45,1.11.18.38-.24.7-.91.38-1.37l-.02-.02Z"/>
        <path class="cls-2" d="M1.57,36.21h-.02c-.71.35-.21,1.77.72,1.77,1.05-.13.36-2.06-.7-1.77Z"/>
        <path class="cls-2" d="M35.17,30.06c.4-.31.66-1.2.34-1.67v-.02c-.17-.21-.43-.16-.6,0-.38.31-.64,1.19-.32,1.66.15.22.4.18.58.03Z"/>
        <path class="cls-2" d="M16.74,17.75c.36-.41.41-1.35.08-1.79l-.02-.02c-.19-.23-.47-.15-.62.08-.3.39-.38,1.21-.09,1.68.16.28.46.28.65.04Z"/>
        <path class="cls-2" d="M27.07,11.17v-.02c-.7-.6-1.33,1.29-.76,1.78.68.4,1.2-1.23.76-1.77Z"/>
        <path class="cls-2" d="M16.1,20.18c.1-.47-.32-1.18-.84-1.31h-.03c-.91-.13-.55,1.28.17,1.59.33.16.65.03.7-.28Z"/>
        <path class="cls-2" d="M4.91,20.05l-.03.02c-.33.25-.41.89-.23,1.36.17.53.77,1.1,1.18.64.38-.4.25-1.28-.14-1.77-.19-.27-.55-.43-.79-.24Z"/>
        <path class="cls-2" d="M36.95,25.65c.34-.09.47-.67.22-.97v-.02c-.27-.35-.65.02-.66.41-.02.31.22.63.43.58Z"/>
        <path class="cls-2" d="M13.87,15.49c.25-.24.09-.82-.28-.96h-.02c-.39-.19-.54.32-.36.66.13.28.5.44.66.3Z"/>
        <path class="cls-2" d="M8.05,22.67h-.02c-1.04.1-.76,1.87.05,2.6.44.44,1.16.6,1.45.12.56-.86-.35-2.72-1.48-2.72ZM8.72,24.3c-.1.16-.32.1-.47-.04-.26-.23-.35-.81-.02-.84h0c.36,0,.66.6.48.88Z"/>
        <path class="cls-2" d="M32.49,22.07h-.02c-.93-.56-1.92.78-1.86,1.92-.01,1.04.96,1.81,1.69,1.26.91-.58,1.25-2.54.19-3.18ZM32.09,23.91c-.29.21-.67-.09-.66-.49-.02-.44.36-.97.73-.75h0c.41.25.28,1.02-.07,1.25Z"/>
        <path class="cls-2" d="M41.13,36.14h-.03c-.66-.11-1.56.53-1.97,1.22-.35.51-.49,1.47.2,1.59.91.19,2.05-.87,2.29-1.79.15-.48-.06-.96-.5-1.02ZM40.73,37.13c-.09.34-.52.74-.86.67-.26-.05-.21-.4-.08-.6.15-.26.49-.49.74-.46h.01c.17.02.24.21.19.38Z"/>
        <path class="cls-2" d="M5,41.9c-.18-.75-.87-1.42-1.48-1.63l-.05-.02c-.95-.38-1.71.64-1.11,1.85.28.55.75.96,1.25,1.16.8.38,1.68-.21,1.39-1.37ZM3.64,41.97c-.21-.08-.41-.26-.52-.49-.26-.51.07-.93.46-.78h.02c.26.09.55.37.62.69.12.49-.25.74-.58.57Z"/>
        <path class="cls-2" d="M37.82,26.78c-.61.87-1.03,1.9-1.38,2.92-.58,1.77-.47,1.93-.47,3.88-.05.61,1.34,2.65,1.37,3.79l.39,2.16c.6-4.31,3.51-10.25,3.36-12.8-.38-3.14-2.06-1.82-3.27.05ZM39.87,28.51c-.67,2.22-1.26,2.48-.92,1.48.34-1.01.78-2.63.22-1.7-.56.92-1.14,2.93-1.13,1.75,0-1.18-1.33,2.41-1.33,2.41.08-.41.61-2.85.81-3.35.72-1.85,1.39-3.19,2.04-3.28.86-.12,1.01.35.3,2.7Z"/>
        <path class="cls-2" d="M28.29,49.1l.08.24c-.21.27-.43.16-.72.1-.01-.3.35-.39.63-.34Z"/>
        <path class="cls-2" d="M22.95,50.3c.22-.06.44.04.48.25.02.14-.18.12-.27.23-.28-.03-.56-.39-.2-.48Z"/>
        <path class="cls-2" d="M24.84,50.33c.1-.17.41-.45.62-.27.29.24-.13.46-.42.38-.07-.02-.11-.11-.2-.11Z"/>
        <path class="cls-2" d="M21.54,50.28s-.17.12-.18.12c-.17.03-.57-.28-.24-.41.26-.1.61.08.42.29Z"/>
        <path class="cls-2" d="M27.27,49.56c-.03.25-.33.39-.59.3-.08-.39.26-.46.59-.3Z"/>
        <path class="cls-2" d="M20.18,49.32c-.34.18-.86-.28-.37-.45.04.2.53.2.37.45Z"/>
        <path class="cls-2" d="M20.57,49.94c-.14.11-.53-.02-.58-.2.17-.28.57-.16.62.11-.01.03-.02.07-.05.1Z"/>
        <path class="cls-2" d="M18.02,48.02c.18-.06.73.2.58.39-.27.14-.6-.13-.58-.39Z"/>
        <path class="cls-2" d="M25.98,49.45c.31-.02.33.25.07.38-.31.16-.61-.35-.07-.38Z"/>
        <path class="cls-2" d="M18.43,48.99c.41,0,.7.53.13.41-.2-.04-.31-.29-.13-.41Z"/>
        <path class="cls-2" d="M28.41,48.26c.07-.01.35-.03.35.05-.11.1-.12.23-.27.29-.44.18-.41-.27-.08-.34Z"/>
        <path class="cls-2" d="M25.13,49.45c.06.34-.59.45-.51.05.04-.2.37-.13.51-.05Z"/>
        <path class="cls-2" d="M23.07,49.35c.09,0,.3.03.31.12-.07.2-.16.38-.4.21-.19-.14-.19-.31.08-.33Z"/>
        <path class="cls-2" d="M24.06,50.21c-.17.13-.49-.02-.39-.22.12-.25.78-.06.39.22Z"/>
        <path class="cls-2" d="M22.27,49.68s.09-.02.14.01c.18.14.16.3-.07.37-.12.01-.29-.11-.32-.21,0-.09.16-.16.25-.17Z"/>
        <path class="cls-2" d="M17.64,48.37c.28-.02.66.51.2.42-.22-.04-.3-.24-.2-.42Z"/>
        <path class="cls-2" d="M20.95,49.26c.17-.05.41.06.33.22-.15.21-.47.12-.44-.13.02-.05.06-.08.11-.1Z"/>
        <path class="cls-2" d="M27.43,49.01c-.18.14-.49-.03-.32-.25.1-.09.49-.06.44.07-.07.04-.08.15-.12.18Z"/>
        <path class="cls-2" d="M25.64,48.87c.1-.01.21.05.26.13-.23.59-.67-.08-.26-.13Z"/>
        <path class="cls-2" d="M21.94,49.03l-.05.22c-.07.04-.22.08-.27.01l.02-.26.3.03Z"/>
        <path class="cls-2" d="M24.28,49.03l-.08.21c-.34.15-.39-.4.08-.21Z"/>
        <path class="cls-2" d="M19.24,48.97s-.09.11-.13.09c-.04-.09-.17-.11-.15-.21.05-.23.42-.11.28.12Z"/>
        <path class="cls-2" d="M20.91,48.79l-.22.08c-.36-.27.22-.4.22-.08Z"/>
        <path class="cls-2" d="M26.62,48.87c.25-.01-.05.51-.24.13.01-.05.18-.13.24-.13Z"/>
        <path class="cls-2" d="M19.38,48.56c-.09,0-.36,0-.3-.13.05-.12.36,0,.3.13Z"/>
        <path class="cls-2" d="M12.72,49.02c-1.21-1.31-2.1-2.9-2.71-4.56-.46-1.05-.59-2.19-.75-3.32-1.56-1.39-2.4-4.95-3.49-6.52-.72-1.16-1.79-2.44-3.02-2.46-.86.09-.92,1.03-.54,2,.64,1.56,1.83,2.71,2.88,3.84,3.34,3.58,4.54,7.63,5.18,10l2.45,1.03ZM3.32,33.35c1.12.05,1.8,1.27,2.73,3.09,0,0-3.85-3.15-2.73-3.09Z"/>
        <g>
          <path class="cls-3" d="M27.37,47.55l2.47-.86c-.08-.37-.1-.88.04-1.18,3.24-6.6,2.41-7.93,2.14-8.36-.2-.31-.59-.69-1.33-.69h0s-.1,0-.15,0c-1.96.13-2.73,3.91-3.62,8.3-.21,1.06-.42,2.05-.63,2.94l1.09-.16Z"/>
          <path class="cls-3" d="M14.58,42.59c.07.12.14.23.21.35.1.17.32.52.62,1.01.31.49.88,1.41,1.44,2.35l4.37,1.34c-1.27-1.75-3.28-4.88-3.66-5.68-.33-.77-1.22-2.14-2.37-2.33-.09-.02-.18-.03-.27-.03-.34,0-.64.14-.85.4-.22.27-.3.66-.22,1.05.08.49.39,1,.71,1.54Z"/>
        </g>
        <path class="cls-2" d="M42.64,40.86c-1.75.98-3.52,3.45-5.5,4.04-.62.2-1.71.25-1.97-.5-.11.28-.23.56-.36.83-.65,1.1-.98,1.83-1.12,2.32-.11.4-.51.63-.92.58-1.13-.15-2.52-.19-3.09-.5-.46-.25-.67-1.68-.33-2.36,1.4-2.86,3.81-8.35,1.23-8.18-1.97.13-2.76,6.99-3.77,11.05-.15.2-.29.42-.45.66-.26.39-.53.77-.95,1.03-.99.68-2.73.3-3.64-.57-.87-.74-4.28-6.06-4.74-7.02-.34-.77-1.11-1.87-1.93-1.99-.54-.11-.73.33-.64.71.07.47.48,1.08.85,1.71.43.75,3.75,5.82,3.71,6.63-.01.71-.57,1.34-1.46,1.19-.8-.1-1.67-.55-2.41-.83-.79-.3-1.54-.48-2.27-.85h-.02c-.84-.41-7.83-3.41-8.79-3.71-3.48-1.09-3.55,1.25-1.87,1.66.96.23,5.76-.12,9.77,5.62,1.38,1.97,3.17,2.86,5.78,3.43,4.08.81,9.68.56,12.93-1.87.63-.48,2.12-1.98,3.02-3.3.69-.74,1.44-1.97,2.08-2.53.67-.59,1.34-1.14,2.11-1.55,2.12-1.08,5.22-2.24,6.06-5.06.32-1.22-.76-.96-1.3-.63ZM15.78,42.19c-1.01-1.46-.56-1.55-.12-.98.43.57,2.93,4.78,2.93,4.78l-2.8-3.8ZM1.75,45.52c.52-.55,1.99-.07,2.87.29,0,0-3.39.26-2.87-.29ZM17.06,52.19c-6.23-3.3-8.29-4.31-8.29-4.31.94.3,4.17,1.39,4.99,1.78h.02c.72.38,1.45.55,2.22.86.72.28,1.57.73,2.35.83.87.14,1.36-.7,1.27-1.36-.29-2.22,3.27,5.29-2.55,2.2ZM30.55,37.99c.94-.06-1.75,4.99-1.75,4.99.14-.86.81-4.93,1.75-4.99ZM32.03,49.22c-2.24-.06-4.17-1.67-3.16-1.25.79.33,1.97.72,3.92.59s.37.69-.76.66ZM43.24,41.8c-.84,1.35-4.97,3.14-4.97,3.14,1.27-.91,3.74-3.18,4.06-3.42.32-.24,1.75-1.07.91.28Z"/>
        <g>
          <path class="cls-2" d="M23.47,39.56c.27-.25.49.1.61.31.26.44.49,1.06.7,1.54.48,1.11,1.08,2.4,1.45,3.54.26.78.38,1.25-.56,1.49-.8.21-3.01.35-3.68-.13-.57-.42-.16-1.58,0-2.15.33-1.28.73-2.77,1.17-4.01.07-.19.15-.45.3-.59ZM24.64,42.6l-.25-.93-.36-.92.26.95.35.9ZM23.46,45.57l.05-4.65c-.19,1.44-.32,2.91-.15,4.37l.1.28ZM24.5,45.46c.02-.96-.12-1.95-.42-2.86-.01-.04-.03-.15-.08-.15l.5,3.01ZM22.56,44.48c.13-.66.31-1.32.36-2l-.24.94-.11.72v.34ZM25.5,45.28c-.03-.3-.13-.58-.21-.86l-.37-.92.17.64.4,1.13Z"/>
          <path class="cls-2" d="M31.74,33.4c.63-.04,1.18.77,1.48,1.21.27.42.55.96.7,1.43.2.63.33,1.29-.59,1.35-.97.07-1.98-.03-2.95-.04-1.36,0-2.87.08-4.22,0-.84-.05-.88-.27-.22-.7.56-.36,1.22-.68,1.81-1.03,1.02-.61,2.03-1.25,3.06-1.84.26-.15.61-.38.92-.4ZM31.57,34.34c-.89.19-1.72.56-2.5.99-.04.02-.1.04-.11.09l2.61-1.08ZM32.42,35c-1.28.13-2.5.51-3.69.96l-1.04.47,4.73-1.43ZM32.72,35.77c-.54.03-1.08.07-1.59.2-.07.02-.23.05-.27.11l1.86-.31ZM32.53,36.74c-1.29-.28-2.62-.17-3.91.05,1.12-.02,2.25-.09,3.38-.05.1,0,.19.03.29.04.05,0,.23.03.24-.04ZM27.8,37.02c-.01-.06-.07-.06-.13-.07-.2-.02-.57.01-.79.03-.06,0-.11,0-.13.07l1.04-.03Z"/>
          <path class="cls-2" d="M14.06,34.49c.54-.07,1.24.26,1.74.46,1.56.61,3.06,1.37,4.59,2.03.12.1.36.23.27.4-.13.23-1.65.39-1.97.43-1.55.21-3.31.5-4.86.61-.95.07-1.38-.12-1.32-1.06.04-.62.59-2.36,1.15-2.72.1-.07.27-.13.4-.14ZM16.89,35.86c-.64-.25-1.26-.57-1.97-.67l1.86.69.11-.02ZM15.4,35.83c-.51-.13-1.02-.31-1.56-.27,0,.05.07.05.1.06.43.1.91.1,1.34.24l.12-.02ZM17.96,36.8c-.98-.2-1.98-.42-2.99-.5-.44-.04-.98-.07-1.41,0-.06,0-.12-.01-.17.05l4.57.45ZM19.49,36.94c-.41-.15-.79-.36-1.23-.44l1.11.45.11-.02ZM15.59,37.1c-.7-.07-1.42.02-2.1.2-.04.01-.14.01-.13.06l2.23-.27ZM18.78,37.37c-1.04,0-2.08-.04-3.09.18l-.48.12,3.56-.3Z"/>
          <path class="cls-2" d="M21.13,35.67s.42.47.46.55c.02.06.04.08-.02.13-.21.14-.85-.15-1.08-.24-1.04-.42-2.08-.95-3.1-1.4-.51-.22-1.93-.71-2.22-1.05-.27-.31-.18-.56.07-.84.46-.51,2.62-1.83,3.32-1.88.45-.03.74.16.96.5l2.34,4.51c.05.09-.02.16-.13.12l-.59-.39ZM19.19,32.23c-.07-.17-.22-.36-.37-.47.08.17.22.35.37.47ZM19.27,33.38l-.67-.76c-.19-.17-.39-.35-.6-.5-.1-.07-.22-.18-.34-.22l1.6,1.48ZM20.16,34.93c-.76-.74-1.58-1.44-2.5-2.03-.26-.17-.55-.35-.85-.46l3.35,2.49ZM18.52,34.35c-.17-.18-.42-.32-.64-.45-.53-.31-1.11-.57-1.71-.76l2.1,1.12.25.09ZM20.64,34.66c-.21-.41-.44-.82-.74-1.18.18.42.46.81.74,1.18ZM19.6,35.3c-.4-.26-.87-.46-1.34-.6.4.26.89.41,1.34.6Z"/>
          <path class="cls-2" d="M24.91,36.38l.15-.51s-.31.24-.36.27c-.06.03-.14.05-.22.07-.09-.02-.06-.23-.04-.31.64-1.42,1.09-2.94,1.72-4.35.36-.82.64-.96,1.61-.73.83.2,1.95.67,2.61,1.16.6.44.73.78.1,1.27-1.61.92-3.18,1.93-4.82,2.8-.09.05-.7.37-.75.33ZM26.3,32.85l.13-.14.7-1.05c-.34.35-.64.75-.82,1.19ZM28.14,31.8c-.07-.01-.09.04-.13.07-.9.69-1.58,1.6-2.16,2.52-.14.23-.3.46-.41.7l2.7-3.29ZM29.34,32.38c-.14.04-.27.14-.39.21-.17.11-.35.23-.51.35-.6.44-1.2.96-1.73,1.48.07.01.09-.04.13-.07.84-.64,1.68-1.29,2.49-1.97ZM29.83,32.99c-.25.08-.53.23-.71.41.25-.11.51-.24.71-.41ZM26.83,34.95c-.24.09-.5.24-.68.41.25-.09.48-.25.68-.41Z"/>
          <path class="cls-2" d="M23.01,30.05c.48,0,1.82.02,2.13.36.23.25.08.68,0,.97-.27.96-.72,2.05-1.09,2.99-.13.33-.31.9-.5,1.19-.41.64-.87-.12-1.07-.47-.55-.93-1.12-2.11-1.58-3.09-.21-.46-.69-1.24-.14-1.61.35-.24,1.78-.33,2.25-.34ZM23.09,33.96c-.04-.91-.05-1.82-.04-2.73l-.11-.65c-.11.93-.06,1.86.04,2.79.01.12.03.25.04.36,0,.05.02.2.07.22ZM23.61,32.48l.48-1.67-.18.33c-.13.37-.3.78-.34,1.17,0,.04-.04.18.03.18ZM22.46,33.52l-.31-1.65-.28-1c.03.84.23,1.75.53,2.55.01.04,0,.1.06.09ZM21.57,32.35l-.15-.52-.26-.58.02.17.39.93ZM23.72,34.12l.96-2.81-.2.4c-.24.75-.62,1.54-.78,2.3,0,.03-.05.11.02.1ZM22.87,35.09l-.41-.84c.06.24.18.5.29.72.03.06.02.13.12.11Z"/>
          <g>
            <path class="cls-2" d="M30.12,42.53c.23.2.49.39.62.65l-.66-.55c-.13.31-.27.62-.4.91.12.14.22.3.28.46l-.12-.1-.19-.29c-.2.44-.4.86-.58,1.22-.1.21-.15.5-.15.8.85-.27,1.94-.89,2.41-1.27,1.46-1.2.18-1.84-.94-2.47-.09.21-.17.43-.26.64Z"/>
            <path class="cls-2" d="M25.07,40.41c.6,1.35,1.3,2.89,1.99,4.2.06.12.12.23.2.34.07-.36.15-.72.22-1.08l-.84-1.44c.36.39.65.83.87,1.3.08-.37.15-.74.23-1.11l-1.25-1.56c.46.41.9.85,1.3,1.31.05-.24.11-.47.16-.71l-.08-.06-1.12-.89c.11.02.21.1.3.16.32.2.63.42.93.66.06-.24.12-.48.18-.71-.73-.41-1.47-.82-2.19-1.2-.22-.12-.89-.51-1.12-.45-.26.15-.1.45-.03.66.06.18.17.38.25.56ZM26.11,41.4l-.39-.56-.37-.71c.3.39.59.82.76,1.27Z"/>
          </g>
          <g>
            <g>
              <path class="cls-2" d="M21.66,27.25l-.04-.07,1.48-1.38c.23-.33.54-.59.8-.9.44-.53.8-1.13,1.2-1.69-.05-.06-.12.06-.15.09-.17.2-.31.44-.48.64-.7.84-1.53,1.58-2.36,2.3-.03.03-.05.09-.1.04.42-1.27.68-2.61.92-3.94.75-.98,1.33-2.07,1.87-3.18-.05-.06-.08.03-.1.06-.26.38-.48.82-.75,1.21-.21.31-.47.71-.7.99-.03.03-.08.12-.13.1.05-.8.17-1.58.21-2.38.09-1.6-.05-3.22-.24-4.83-.07-.02-.05.07-.05.11-.02.47.06,1.02.06,1.51,0,1.27-.13,2.55-.25,3.8-.06.07-.04.02-.07-.03-.47-.82-.7-1.75-1.07-2.6-.02-.04-.02-.13-.08-.12.27,1.17.75,2.29,1.11,3.44-.19,1.22-.43,2.42-.73,3.6-.11-.07-.18-.26-.24-.38-.77-1.54-1.28-3.14-1.86-4.74-.01-.04-.02-.13-.08-.12.45,2.02,1.17,3.99,1.98,5.92-.14.54-.25,1.09-.41,1.62-.05.17-.29.98-.36,1.06-.08.09-.56.2-.6-.03l-.78-2.05-.89-2.91c.08.79.26,1.6.46,2.38.18.71.36,1.42.63,2.11,0,.06-.16.03-.21.03-.36-.04-.78-.12-1.15-.19-.17-.03-.9-.15-.97-.25-.13-.52-.25-1.03-.34-1.56-.31-1.8-.41-3.94.02-5.65.81-3.17,3.42-5.23,5.57-7.45.1-.1.46-.61.59-.58.23.13.19.42.24.63.56,2.22,1.75,4.15,2.53,6.29.9,2.46,1.26,5.07.68,7.51-.04.17-.22.94-.33,1-.07.04-.92-.06-1.09-.06-1.3-.01-2.55.28-3.74.67Z"/>
              <path class="cls-2" d="M17.15,26.44l-.07.04-1.72-.39c-.17-.47-.55-.98-.71-1.43-.13-.38-.18-1.19-.36-1.53-.01-.02-.04-.06-.06-.03l.09.95-2.52-3.74,2.47,4.3c-.06.08-.04.04-.1,0-.21-.14-.44-.27-.66-.41l-1.5-1.05c.3.3.61.58.94.85.71.6,1.67,1.1,1.94,2.01-.08.08-1.69-.14-1.93-.18-.27-.04-1.4-.23-1.57-.34-.2-.14-.36-.6-.45-.84-.67-1.78-.85-3.93-.94-5.77-.01-.31-.11-1.31-.06-1.54,0-.04.01-.08.05-.11.06-.06.11,0,.17.02.41.2,1.13.74,1.54,1.03,1.72,1.19,3.71,2.56,4.83,4.34.12,1.26.28,2.54.61,3.78ZM16.2,26.16c.13,0,.02-.9,0-1.02-.03-.21-.08-.46-.12-.68-.05-.26-.11-.56-.22-.81l.34,2.5ZM14.12,22.63c0-.26-.14-.55-.25-.8.04.25.14.55.25.8Z"/>
              <path class="cls-2" d="M12.32,27.88c.01.24-.24.81-.34,1.04-.4.95-.95,2.04-1.46,2.93-.3.53-.62,1.23-1.39.95-.88-.33-2.39-1.49-2.8-2.35-.35-.72.11-.93.67-1.17.72-.32,1.56-.58,2.32-.84s1.74-.67,2.49-.81c.24-.05.49-.09.5.26ZM8.13,30.85c1.22-.65,2.33-1.5,3.32-2.45l-3.32,2.45ZM10.89,29.79c.09.05.15-.04.2-.09.14-.15.26-.35.4-.5l.13-.26-.73.86ZM7.39,30.05c.87-.36,1.75-.72,2.52-1.27l-.22.07-2.24,1.11-.06.09ZM9.67,31.88l.52-.62.38-.65c-.28.38-.62.74-.86,1.15-.02.03-.08.09-.04.13ZM8.82,31.61c.51-.3.93-.74,1.27-1.22-.39.39-.84.71-1.22,1.11-.03.03-.1.06-.06.1Z"/>
            </g>
            <path class="cls-2" d="M29.62,27.66c-1.92-.27-3.82-.72-5.72-.46-.92.13-1.79.42-2.64.74-.38-.41-1.07-.55-1.58-.65-2.77-.58-5.57-.77-8.34-1.31-2.62-.51-5.2-1.18-7.78-1.92-.63-.18-.7-.26-.98.35-1.05,2.34-.6,4.98.66,7.31,1.39.11,2.59,1.53,3.41,2.85.34.5.67,1.17.99,1.91.74.48,1.54.9,2.35,1.18.14-.03.3-.77.36-.93,2.14-5.96,8-8.91,15.03-8.53l2.51-.14c.02.06-1.28.19-1.52.38l2.1.59c.44-.43,1.57-1.15,1.55-1.24-.12-.18-.27-.1-.4-.12ZM10.95,26.47c-1.49-.12-3.05-.27-4.52-.69-.27-.08-.57-.16-.83-.28l5.35.98ZM7.72,27.02c.13-.06.31-.07.46-.09.44-.05.9-.04,1.35,0l-.98.09h-.82ZM7.99,27.62c-.63.18-1.29.29-1.96.3.96-.28.9-.29,1.96-.3ZM7.65,26.63c-.04.06-.09.03-.15.03-.5.01-1,0-1.5-.04l-.6-.11c.75-.05,1.5,0,2.26.11ZM12.05,32.29l-.48.93.14-.42c.19-.35.31-.75.56-1.06l-.21.56ZM12.87,30.85l.24-1.11.15-.42c-.06.52-.16,1.08-.39,1.53ZM13.47,30.85c-.01.15-.02.34-.08.48-.02-.16-.01-.36,0-.52.01-.15.02-.34.08-.48.03.17.02.35,0,.52ZM14.79,30.08l-.17-.87c.09.2.18.52.2.72,0,.06.03.11-.03.15ZM15,28.37c.16.27.3.56.42.85.05.12.13.29.13.41-.23-.39-.47-.83-.55-1.26ZM16.72,29.22c-.25-.06-1.12-1.07-1.38-1.32-.39-.36-.88-.73-1.13-.1-.26.66,0,2.22-.05,2.99,0,.06-.04.17-.09.22-.16,0-.21-2.98-.42-3.21-.02-.02-.08-.02-.1-.01-.24.08-.63.9-.76,1.15-.75,1.39-1.49,2.82-2.12,4.27-.05.39.17.72.57.8-.11.17-.12.51-.29.64-.11.08-.73-.05-.9-.09-4.14-1-7.64-5.87-6.39-9.89.02-.07.03-.18.11-.19l1.11.34c-.22.27-.34.62-.41.96-.12.67.05,1.88.51,2.47.52.67,1.3.4,1.91.22,1.19-.35,2.45-.8,3.63-1.2.38-.13,1.63-.28,1.84-.49.07-.06.09-.23.16-.24.02,0,.37.05.42.07.09.02.39.1.45.14.22.15.17.42.34.61.14-.12.19-.54.35-.59.15.03,1.17.08,1.19.19-.12.16-.06.38.07.55.2.26,1.62,1.54,1.6,1.65-.04.06-.16.1-.23.09ZM16.84,28.09l-.78-.52.44.21.73.51-.38-.19ZM17.77,28.04c.2,0,.44.1.62.21-.2.03-.45-.08-.62-.21ZM19.37,28.03l-2.22-.5.02-.12,2.22.5-.02.12Z"/>
            <g>
              <path class="cls-2" d="M20.37,47.03c.26.36.5.69.71.97,1.75.29,3.53.29,5.27-.02.08-.12.17-.24.25-.35.04-.17.08-.34.13-.52-2.08.39-4.28.36-6.35-.07Z"/>
              <path class="cls-2" d="M15.27,49.11c.71.27,1.56.71,2.34.8.61.1,1.06-.18,1.27-.6-.3-.18-.69-.45-.79-.56-.33-.36-.66-.72-.98-1.1-.13-.15-.35-.25-.41-.45l.85.39c.2-.02.36-.08.18-.24-1.17-.67-2.45-1.26-3.4-2.19l1.81,1.15c.74.39,1.51.72,2.29.99-.17-.32-.37-.68-.59-1.05-1.45-.58-2.77-1.39-3.83-2.43-2.94-2.9-3.17-6.88-.69-10.1,4.06-5.25,13-5.71,18.39-1.88,4.07,2.89,5.1,7.92,1.76,11.67-1.18,1.33-2.74,2.3-4.47,2.93.08.29.2.53.35.63.59-.24,1.17-.53,1.74-.85.14-.06,1.21-.83,1.27-.78.07.06-.06.08-.08.1-.75.55-1.6,1.06-2.43,1.51l-.07.2c.09.02.18.05.28.07.15-.04.28-.12.39-.21l.08.06c-.08,0-.17.12-.25.2.63.1,1.41.24,2.1.24,1.64,0,2.06-.31,3.41-3.01.74-1.64,1.12-3.45,1.04-5.31-.32-6.85-6.65-10.92-13.89-10.73-5.9.15-10.91,3.37-12.2,8.68-1.04,4.25.11,8.42,2.98,11.32.51.19,1.02.34,1.55.54ZM18.02,49.32c.07-.03.43.17.45.19.18.28-.56-.1-.45-.19ZM17.35,48.54l.21.37c-.07.07-.75-.39-.21-.37ZM15.78,48.2c.15.02.29.21.29.34-.1,0-.34-.29-.29-.34ZM17.02,48.16c-.13-.02-.19-.1-.33-.04-.31-.57.27-.34.33.04ZM16.42,48.76c.1.06.23.21.31.3-.11.07-.41-.26-.41-.28,0-.03.04-.06.1-.02ZM16.01,46.81c.07.03.44.34.25.37-.11.02-.43-.26-.25-.37ZM16.11,47.98c-.2-.07-.46-.34-.31-.52.24.1.3.3.31.52ZM15.78,46.63c-.18.04-.28-.12-.29-.26.06-.06.31.25.29.26ZM15.36,47.23c-.19-.02-.23-.21-.29-.34.19-.01.31.18.29.34ZM14.62,45.99c.14-.06.38.28.33.34-.05.05-.39-.29-.33-.34ZM14.04,46.21c-.15-.09-.26-.22-.33-.37.05-.05.39.27.33.37ZM13,44.49c.2.11.3.31.41.49-.07.06-.45-.39-.41-.49Z"/>
            </g>
          </g>
          <path class="cls-2" d="M15.18,43.23c.24.04.52-.06.79-.21-.26-.41-.46-.73-.54-.87-.05-.09-.1-.17-.15-.26-.04.03-.07.06-.11.09-.04.03-.06.08-.13.07.06-.08.13-.16.2-.24-.16-.28-.32-.54-.43-.79l-.35.19c.1-.1.21-.18.32-.26-.05-.12-.09-.24-.1-.34-.08-.35.09-.74.57-.64.23.04.46.16.67.34.21-.09.43-.17.65-.23l-.56.31c.14.12.27.27.39.42.6-.4,1.26-.72,1.94-.97-.6.39-1.23.73-1.82,1.12.2.27.36.57.47.82.04.09.11.22.2.38.89-.68,1.8-1.41,2.65-2.12.25-.21,1.35-1.08,1.42-1.3.09-.34-.5-.26-.73-.24-1.96.15-4.17.49-6.12.76-.68.09-1.41.2-1.41.98,0,.76,1.29,2.87,2.18,3.01ZM19.02,39.1c.41-.1.82-.22,1.25-.24l-1.5.35.25-.11ZM19.47,39.76l-2.23,1.7c-.08-.07,1.13-1.01,1.23-1.1l1-.61ZM17.27,39.31c0,.05-.07.05-.11.06-1,.29-2.04.49-3.01.88.89-.6,2.05-.75,3.12-.94Z"/>
          <g>
            <path class="cls-2" d="M16.57,44.81c.17.13.4.27.65.4-.33-.54-.65-1.06-.93-1.52-.24.34-.26.7.28,1.11Z"/>
            <path class="cls-2" d="M17.89,43.28c.14-.12.27-.26.41-.38.04-.03.3-.25.33-.22-.23.23-.46.46-.69.69.11.18.22.37.34.58.36-.56.81-1.06,1.3-1.51l-1.24,1.61c.37.61.8,1.3,1.22,1.94.09,0,.18.01.26,0,.66-.05.77-.38.95-.91.48-1.43,1.09-3.2,1.41-4.65.06-.27.27-1-.25-.93-.29.04-1.02.64-1.28.84-.98.78-2.04,1.66-3.01,2.51.07.13.16.27.25.43ZM19.8,45.09l-.02-.17.24-.65c0,.29-.18.54-.22.83ZM18.96,44.88c.37-1.2.99-2.33,1.84-3.28l-1.84,3.28ZM21.61,40.84l-.96,2.83c-.08-.03,0-.22.01-.28.17-.7.44-1.37.7-2.04l.25-.51ZM20.8,40.69l.37-.26-.84.81-.48.36.96-.92Z"/>
          </g>
          <g>
            <path class="cls-2" d="M25.71,38.77c.87.43,1.73.92,2.59,1.41.04-.15.08-.29.13-.44l-1.37-.68c.49.15.95.36,1.39.61.04-.13.08-.27.12-.39l-.28-.11c.1.02.19.05.29.07.05-.14.1-.28.15-.41l-1.23-.2c.43.01.85.03,1.28.07.09-.22.18-.43.28-.61-1.16,0-2.32.01-3.48.01-.55.18-.18.49.13.68Z"/>
            <path class="cls-2" d="M31.47,38.58c.49.04.98.11,1.46.23l-.12.03c-.44-.08-.89-.13-1.34-.18-.01.16-.04.33-.07.51.59.15,1.17.35,1.72.61,0,.06-.08.03-.11.02-.54-.16-1.09-.3-1.64-.44-.05.25-.13.52-.21.8.42.22.82.47,1.18.76l-1.23-.59c-.11.36-.25.73-.39,1.1.37.2.75.4,1.13.59.74.36,1.25.29,1.69-.37.41-.62.97-2.16.72-2.84-.22-.59-.94-.51-1.49-.54-.43-.02-.86-.03-1.28-.04,0,.11,0,.23,0,.35ZM31.29,41.06c.23.06.45.2.63.34-.23-.07-.46-.18-.63-.34ZM32.42,40.29l-.53-.27c.31.02.57.25.85.34-.06.09-.24-.06-.32-.06Z"/>
          </g>
          <path class="cls-2" d="M24.08,37.92l.23.19-.33-.1c-.21-.07-.47.06-.48.24l-.02.27-.13-.24c-.08-.15-.37-.17-.54-.02l-.26.23.13-.27c.08-.17-.1-.32-.34-.28l-.37.07.32-.17c.21-.11.22-.32.01-.4l-.31-.12h.37c.24.01.43-.17.36-.33l-.11-.25.24.18c.15.12.45.06.54-.11l.15-.27v.27c0,.17.25.26.47.16l.33-.16-.24.23c-.15.15-.06.34.17.36l.37.02-.37.09c-.24.05-.35.27-.2.39Z"/>
        </g>
      </g>
    </g>
  </g>
</svg>