<?xml version="1.0" encoding="UTF-8"?>
<svg id="Layer_2" data-name="Layer 2" xmlns="http://www.w3.org/2000/svg" viewBox="0 0 50 63.88">
  <defs>
    <style>
      .cls-1 {
        fill: none;
      }

      .cls-2 {
        fill: #ff4522;
      }

      .cls-3 {
        fill: #fff;
      }
    </style>
  </defs>
  <g id="Design">
    <g>
      <rect class="cls-1" x="1.85" width="46.29" height="63.88"/>
      <g>
        <path class="cls-2" d="M35.7,18.53l-.02-.02c-.89-1.05-2.36.6-1.53,1.75.88,1.15,2.51-.54,1.55-1.73Z"/>
        <path class="cls-2" d="M.81,33.85h-.03c-.57-.12-.91.52-.73,1.13.15.66.83,1.25,1.34,1.16,1.1-.24.4-2.15-.58-2.29Z"/>
        <path class="cls-2" d="M44.22,24.47l-.02-.02c-.36-.31-.99-.16-1.32.24-.43.44-.68,1.33-.07,1.67.76.45,2.17-.98,1.4-1.89Z"/>
        <path class="cls-2" d="M48.14,37.32c-.64-.84-2.1.29-1.67,1.37.19.43.85.51,1.26.21.43-.27.8-1.03.43-1.55l-.02-.02Z"/>
        <path class="cls-2" d="M1.79,41.14h-.02c-.8.4-.24,2.01.82,2.01,1.19-.15.41-2.34-.79-2.01Z"/>
        <path class="cls-2" d="M39.97,34.16c.46-.35.75-1.36.39-1.9l-.02-.02c-.18-.24-.47-.18-.67,0-.43.35-.73,1.35-.36,1.89.17.25.45.21.66.04Z"/>
        <path class="cls-2" d="M19.03,20.17c.41-.47.47-1.54.09-2.03l-.02-.02c-.21-.26-.53-.17-.71.09-.34.44-.43,1.38-.1,1.91.19.32.52.32.74.05Z"/>
        <path class="cls-2" d="M30.76,12.69l-.02-.02c-.78-.68-1.5,1.47-.84,2.03.77.45,1.36-1.4.86-2.01Z"/>
        <path class="cls-2" d="M18.3,22.94c.12-.53-.36-1.34-.96-1.49h-.03c-1.03-.14-.63,1.46.19,1.81.37.19.74.03.8-.32Z"/>
        <path class="cls-2" d="M5.58,22.78l-.03.02c-.37.29-.47,1.01-.26,1.54.19.61.88,1.25,1.34.72.43-.46.28-1.45-.16-2.01-.22-.31-.62-.49-.89-.28Z"/>
        <path class="cls-2" d="M41.99,29.15c.39-.1.54-.76.25-1.11l-.02-.02c-.29-.4-.72.03-.73.46-.02.35.26.72.49.66Z"/>
        <path class="cls-2" d="M15.76,17.6c.29-.28.1-.93-.32-1.09h-.02c-.44-.22-.62.36-.41.75.15.32.57.51.75.34Z"/>
        <path class="cls-2" d="M9.14,25.76h-.03c-1.18.11-.87,2.13.06,2.96.5.51,1.31.69,1.65.14.63-.98-.4-3.1-1.68-3.09ZM9.91,27.61c-.11.18-.37.12-.53-.04-.3-.27-.4-.92-.02-.95h0c.41,0,.75.68.54,1Z"/>
        <path class="cls-2" d="M36.92,25.08h-.02c-1.06-.63-2.19.89-2.12,2.18-.01,1.19,1.09,2.06,1.92,1.43,1.03-.66,1.42-2.89.22-3.61ZM36.46,27.17c-.33.24-.76-.1-.75-.56-.03-.5.41-1.1.83-.86h0c.47.29.32,1.16-.08,1.42Z"/>
        <path class="cls-2" d="M46.73,41.07h-.03c-.75-.12-1.77.6-2.23,1.38-.4.58-.56,1.67.23,1.81,1.03.22,2.33-.99,2.6-2.03.17-.54-.07-1.09-.57-1.16ZM46.28,42.19c-.1.39-.59.84-.98.76-.3-.05-.24-.46-.09-.68.17-.29.56-.56.84-.52h.01c.19.03.28.23.21.44Z"/>
        <path class="cls-2" d="M5.68,47.62c-.2-.86-.99-1.61-1.69-1.85l-.06-.02c-1.08-.43-1.95.72-1.26,2.1.32.62.85,1.1,1.42,1.32.91.44,1.91-.24,1.58-1.55ZM4.14,47.69c-.24-.1-.46-.29-.59-.56-.29-.58.08-1.06.53-.88h.02c.29.11.62.43.71.79.14.55-.28.84-.66.65Z"/>
        <path class="cls-2" d="M42.98,30.43c-.69.99-1.17,2.15-1.57,3.32-.66,2.01-.54,2.2-.53,4.41-.06.69,1.52,3.02,1.55,4.31l.45,2.45c.68-4.9,3.99-11.65,3.82-14.55-.44-3.57-2.34-2.07-3.72.06ZM45.3,32.4c-.76,2.52-1.43,2.82-1.04,1.68.39-1.14.89-2.98.25-1.93-.64,1.05-1.29,3.33-1.28,1.99,0-1.34-1.51,2.74-1.51,2.74.09-.46.7-3.24.92-3.81.82-2.11,1.58-3.62,2.32-3.72.98-.14,1.15.39.34,3.07Z"/>
        <path class="cls-2" d="M32.15,55.8l.1.27c-.24.3-.48.19-.82.11-.01-.35.4-.45.72-.39Z"/>
        <path class="cls-2" d="M26.08,57.16c.25-.07.5.04.54.29.02.16-.2.14-.31.26-.31-.03-.63-.44-.23-.55Z"/>
        <path class="cls-2" d="M28.23,57.2c.11-.19.46-.51.7-.31.33.28-.15.52-.47.43-.07-.02-.13-.13-.23-.12Z"/>
        <path class="cls-2" d="M24.48,57.14s-.2.13-.21.13c-.2.04-.65-.32-.27-.46.3-.11.7.09.48.33Z"/>
        <path class="cls-2" d="M30.99,56.32c-.03.29-.37.44-.67.35-.09-.45.3-.52.67-.35Z"/>
        <path class="cls-2" d="M22.94,56.05c-.39.21-.97-.32-.43-.52.05.23.6.23.43.52Z"/>
        <path class="cls-2" d="M23.37,56.75c-.16.13-.6-.02-.66-.23.2-.31.64-.18.71.12-.01.04-.02.08-.05.11Z"/>
        <path class="cls-2" d="M20.48,54.57c.21-.06.83.23.66.44-.31.16-.69-.15-.66-.44Z"/>
        <path class="cls-2" d="M29.53,56.2c.35-.02.38.28.08.43-.35.18-.69-.4-.08-.43Z"/>
        <path class="cls-2" d="M20.94,55.67c.46,0,.79.6.15.47-.23-.05-.36-.34-.15-.47Z"/>
        <path class="cls-2" d="M32.29,54.84c.08-.02.4-.03.4.06-.12.11-.14.26-.31.33-.5.2-.47-.31-.09-.39Z"/>
        <path class="cls-2" d="M28.56,56.19c.07.39-.67.51-.58.06.04-.23.42-.15.58-.06Z"/>
        <path class="cls-2" d="M26.22,56.08c.1,0,.34.03.36.14-.08.23-.18.43-.45.24-.22-.16-.21-.36.1-.37Z"/>
        <path class="cls-2" d="M27.34,57.05c-.2.14-.56-.02-.45-.25.14-.28.88-.07.45.25Z"/>
        <path class="cls-2" d="M25.31,56.46c.05,0,.11-.02.16.01.2.15.18.34-.07.42-.14.01-.33-.12-.36-.24,0-.1.18-.18.28-.19Z"/>
        <path class="cls-2" d="M20.04,54.96c.32-.02.75.58.23.47-.25-.05-.34-.27-.23-.47Z"/>
        <path class="cls-2" d="M23.81,55.98c.19-.05.47.07.38.25-.17.24-.53.14-.5-.14.02-.05.07-.09.12-.11Z"/>
        <path class="cls-2" d="M31.17,55.69c-.21.16-.56-.04-.36-.28.12-.1.56-.06.5.08-.08.04-.09.18-.14.21Z"/>
        <path class="cls-2" d="M29.14,55.54c.12-.02.24.06.3.15-.27.67-.76-.09-.3-.15Z"/>
        <path class="cls-2" d="M24.93,55.71l-.06.25c-.07.05-.25.09-.31.01l.02-.29.34.03Z"/>
        <path class="cls-2" d="M27.59,55.71l-.09.24c-.39.18-.44-.46.09-.24Z"/>
        <path class="cls-2" d="M21.86,55.65s-.11.13-.15.1c-.05-.11-.2-.12-.17-.24.06-.27.48-.13.32.13Z"/>
        <path class="cls-2" d="M23.76,55.44l-.25.09c-.41-.31.25-.45.25-.09Z"/>
        <path class="cls-2" d="M30.25,55.54c.28-.01-.06.58-.27.15.01-.06.21-.15.27-.15Z"/>
        <path class="cls-2" d="M22.03,55.18c-.1,0-.41,0-.34-.15.06-.13.41,0,.34.15Z"/>
        <path class="cls-2" d="M14.46,55.71c-1.38-1.48-2.38-3.3-3.08-5.18-.52-1.19-.68-2.49-.85-3.77-1.78-1.58-2.73-5.63-3.96-7.41-.82-1.32-2.03-2.77-3.44-2.79-.98.1-1.05,1.17-.62,2.27.72,1.77,2.07,3.08,3.28,4.37,3.8,4.06,5.16,8.67,5.89,11.37l2.78,1.17ZM3.77,37.89c1.28.06,2.05,1.44,3.1,3.51,0,0-4.37-3.58-3.1-3.51Z"/>
        <g>
          <path class="cls-3" d="M31.1,54.04l2.8-.97c-.09-.42-.12-1,.05-1.34,3.68-7.5,2.74-9.01,2.43-9.5-.22-.36-.67-.78-1.51-.78h0c-.06,0-.11,0-.17,0-2.23.15-3.1,4.45-4.11,9.43-.24,1.2-.48,2.33-.72,3.34l1.23-.18Z"/>
          <path class="cls-3" d="M16.57,48.4c.08.13.16.27.24.4.11.19.36.59.71,1.15.35.56,1,1.6,1.64,2.67l4.97,1.52c-1.45-1.99-3.73-5.55-4.16-6.45-.38-.87-1.38-2.43-2.69-2.64-.1-.02-.21-.03-.31-.03-.39,0-.73.16-.96.45-.25.31-.34.75-.24,1.19.09.56.44,1.14.8,1.75Z"/>
        </g>
        <path class="cls-2" d="M48.46,46.43c-1.99,1.12-4,3.93-6.25,4.59-.7.23-1.94.29-2.24-.57-.12.32-.26.63-.41.94-.74,1.25-1.11,2.07-1.27,2.63-.13.45-.58.72-1.05.66-1.28-.17-2.86-.22-3.51-.57-.52-.28-.76-1.91-.38-2.69,1.59-3.25,4.33-9.49,1.4-9.3-2.24.15-3.14,7.94-4.29,12.55-.17.22-.33.47-.51.75-.3.44-.61.87-1.08,1.17-1.13.78-3.11.34-4.13-.64-.98-.84-4.87-6.89-5.38-7.98-.38-.88-1.27-2.12-2.2-2.26-.61-.13-.83.37-.72.81.08.54.55,1.23.96,1.94.49.85,4.26,6.61,4.21,7.54-.02.81-.65,1.52-1.66,1.36-.91-.11-1.9-.63-2.73-.94-.89-.34-1.75-.54-2.58-.96h-.02c-.96-.46-8.89-3.87-9.99-4.21-3.96-1.24-4.03,1.42-2.12,1.88,1.09.27,6.55-.13,11.1,6.39,1.57,2.24,3.6,3.25,6.57,3.89,4.63.92,11,.64,14.69-2.13.72-.55,2.41-2.25,3.43-3.75.78-.84,1.64-2.24,2.37-2.87.76-.67,1.53-1.29,2.4-1.76,2.41-1.22,5.93-2.55,6.89-5.75.36-1.39-.86-1.09-1.48-.72ZM17.93,47.95c-1.15-1.66-.63-1.76-.14-1.12.49.65,3.33,5.43,3.33,5.43l-3.19-4.31ZM1.99,51.73c.59-.63,2.26-.08,3.27.34,0,0-3.85.29-3.27-.34ZM19.39,59.31c-7.07-3.75-9.42-4.9-9.42-4.9,1.07.34,4.74,1.58,5.67,2.03h.02c.81.43,1.65.63,2.52.98.82.31,1.78.82,2.67.94.99.16,1.54-.8,1.44-1.55-.33-2.52,3.72,6.01-2.9,2.5ZM34.72,43.18c1.06-.07-1.99,5.67-1.99,5.67.15-.97.93-5.6,1.99-5.67ZM36.4,55.94c-2.55-.07-4.73-1.9-3.59-1.42.9.37,2.24.82,4.45.67s.42.79-.86.75ZM49.13,47.5c-.95,1.54-5.65,3.57-5.65,3.57,1.45-1.04,4.25-3.62,4.61-3.89.36-.27,1.99-1.22,1.04.32Z"/>
        <g>
          <path class="cls-2" d="M26.67,44.95c.3-.28.55.11.7.36.3.5.56,1.2.8,1.75.55,1.26,1.22,2.73,1.65,4.02.3.89.44,1.42-.63,1.69-.91.23-3.41.4-4.18-.15-.65-.47-.18-1.79,0-2.44.38-1.46.83-3.14,1.33-4.55.08-.21.18-.51.34-.67ZM28,48.4l-.28-1.05-.41-1.05.3,1.08.39,1.02ZM26.66,51.79l.06-5.28c-.22,1.64-.36,3.31-.17,4.96l.11.32ZM27.84,51.66c.03-1.09-.14-2.22-.48-3.25-.02-.05-.03-.17-.09-.17l.57,3.42ZM25.64,50.55c.14-.75.35-1.5.41-2.27l-.27,1.07-.13.82v.39ZM28.98,51.46c-.03-.34-.15-.65-.23-.98l-.42-1.04.19.73.46,1.29Z"/>
          <path class="cls-2" d="M36.07,37.96c.72-.05,1.35.87,1.68,1.38.31.48.63,1.09.8,1.63.23.71.38,1.46-.67,1.54-1.1.08-2.25-.04-3.35-.04-1.55,0-3.26.09-4.79,0-.96-.06-1-.31-.25-.79.64-.41,1.39-.78,2.05-1.17,1.16-.69,2.31-1.42,3.48-2.09.3-.17.69-.43,1.05-.45ZM35.87,39.02c-1.01.22-1.95.64-2.84,1.13-.05.03-.12.04-.13.1l2.97-1.23ZM36.84,39.77c-1.46.15-2.85.58-4.19,1.09l-1.19.53,5.38-1.62ZM37.18,40.64c-.61.03-1.22.08-1.81.23-.08.02-.26.06-.31.13l2.12-.36ZM36.97,41.75c-1.47-.31-2.98-.2-4.45.06,1.27-.03,2.56-.1,3.84-.06.11,0,.22.04.34.04.06,0,.26.03.28-.04ZM31.59,42.07c-.02-.07-.08-.07-.15-.08-.23-.02-.65.01-.89.04-.06,0-.13,0-.15.08l1.19-.04Z"/>
          <path class="cls-2" d="M15.97,39.19c.61-.08,1.41.29,1.98.52,1.77.7,3.47,1.55,5.22,2.3.13.12.41.26.3.45-.14.26-1.87.44-2.24.49-1.77.24-3.76.56-5.52.69-1.08.08-1.57-.14-1.5-1.2.05-.7.68-2.68,1.31-3.09.11-.07.31-.15.45-.16ZM19.19,40.75c-.73-.29-1.44-.65-2.24-.76l2.11.78.13-.02ZM17.5,40.71c-.58-.15-1.15-.36-1.77-.31,0,.05.07.06.12.06.49.11,1.03.12,1.52.27l.14-.03ZM20.41,41.82c-1.12-.23-2.25-.48-3.4-.57-.5-.04-1.11-.07-1.6,0-.07.01-.14-.01-.19.06l5.19.52ZM22.14,41.97c-.46-.17-.9-.41-1.39-.5l1.26.52.13-.02ZM17.71,42.16c-.8-.08-1.61.02-2.38.23-.05.01-.16.01-.15.07l2.53-.3ZM21.34,42.47c-1.18,0-2.36-.04-3.51.2l-.54.14,4.05-.34Z"/>
          <path class="cls-2" d="M24.01,40.53s.48.54.52.62c.03.06.05.09-.03.14-.24.16-.96-.17-1.22-.28-1.18-.48-2.36-1.08-3.53-1.59-.58-.25-2.19-.8-2.53-1.2-.3-.36-.2-.63.08-.96.52-.59,2.97-2.08,3.77-2.14.52-.04.84.18,1.1.57l2.66,5.12c.06.11-.03.19-.15.14l-.67-.44ZM21.81,36.63c-.07-.19-.25-.41-.42-.54.09.19.25.4.42.54ZM21.9,37.93l-.76-.86c-.22-.2-.44-.4-.68-.57-.11-.08-.25-.2-.38-.25l1.82,1.68ZM22.91,39.69c-.87-.84-1.8-1.64-2.84-2.3-.3-.19-.62-.4-.96-.53l3.8,2.83ZM21.05,39.04c-.19-.2-.48-.37-.72-.51-.6-.36-1.26-.65-1.94-.86l2.38,1.27.28.11ZM23.46,39.38c-.23-.47-.5-.93-.84-1.34.2.48.52.92.84,1.34ZM22.28,40.11c-.45-.3-.99-.52-1.52-.69.46.3,1.01.47,1.52.69Z"/>
          <path class="cls-2" d="M28.31,41.34l.17-.58s-.35.27-.41.3c-.07.04-.16.06-.25.08-.1-.02-.07-.27-.05-.35.72-1.61,1.24-3.34,1.95-4.94.41-.93.72-1.09,1.83-.83.94.23,2.21.77,2.97,1.32.68.49.83.88.11,1.44-1.83,1.04-3.61,2.19-5.48,3.18-.11.06-.79.42-.85.37ZM29.89,37.33l.14-.16.79-1.19c-.39.39-.73.85-.94,1.35ZM31.98,36.14c-.08-.02-.1.04-.15.08-1.03.78-1.79,1.82-2.46,2.87-.16.26-.34.52-.46.8l3.07-3.74ZM33.34,36.79c-.15.05-.31.15-.44.24-.19.12-.4.26-.58.4-.69.5-1.36,1.1-1.96,1.68.08.02.1-.04.15-.08.96-.73,1.91-1.47,2.83-2.24ZM33.9,37.48c-.29.1-.6.26-.81.46.28-.12.58-.27.81-.46ZM30.49,39.72c-.27.1-.56.28-.77.46.28-.1.54-.28.77-.46Z"/>
          <path class="cls-2" d="M26.14,34.15c.55,0,2.07.02,2.42.41.26.29.1.77,0,1.1-.31,1.09-.81,2.33-1.24,3.4-.15.38-.36,1.02-.57,1.35-.47.73-.99-.13-1.22-.53-.62-1.06-1.27-2.4-1.79-3.51-.24-.52-.79-1.4-.16-1.83.39-.27,2.02-.38,2.56-.39ZM26.24,38.59c-.04-1.03-.05-2.06-.04-3.1l-.13-.74c-.12,1.06-.07,2.12.04,3.17.01.14.03.28.05.41,0,.06.02.23.08.25ZM26.83,36.91l.55-1.9-.2.37c-.15.42-.34.89-.38,1.33,0,.05-.04.2.04.2ZM25.52,38.09l-.35-1.87-.32-1.13c.03.96.26,1.99.6,2.9.02.04,0,.12.07.11ZM24.51,36.76l-.17-.59-.29-.66.02.19.44,1.06ZM26.95,38.78l1.09-3.19-.23.46c-.27.85-.71,1.75-.89,2.62,0,.04-.06.12.02.12ZM25.99,39.88l-.46-.95c.07.27.2.57.33.82.03.06.02.15.13.13Z"/>
          <g>
            <path class="cls-2" d="M34.23,48.33c.26.23.56.44.7.74l-.75-.62c-.15.35-.31.7-.46,1.04.14.16.25.34.32.52l-.13-.11-.22-.33c-.23.5-.45.97-.66,1.39-.12.24-.17.57-.18.91.97-.31,2.21-1.01,2.74-1.45,1.66-1.37.21-2.09-1.07-2.8-.1.24-.2.49-.3.72Z"/>
            <path class="cls-2" d="M28.49,45.92c.68,1.54,1.48,3.28,2.27,4.77.07.13.14.26.22.39.08-.4.17-.81.25-1.23l-.95-1.63c.41.44.74.94.98,1.48.09-.42.17-.84.26-1.26l-1.42-1.77c.52.47,1.03.96,1.48,1.49.06-.27.12-.54.18-.8l-.09-.07-1.27-1.01c.12.02.24.12.34.18.37.23.72.48,1.06.75.07-.28.13-.55.2-.81-.83-.47-1.67-.93-2.49-1.36-.25-.13-1.02-.58-1.27-.51-.29.17-.12.52-.03.75.07.21.19.44.28.64ZM29.67,47.05l-.44-.64-.42-.81c.34.44.67.93.86,1.44Z"/>
          </g>
          <g>
            <g>
              <path class="cls-2" d="M24.62,30.97l-.05-.08,1.68-1.57c.26-.37.62-.67.91-1.02.5-.6.91-1.29,1.37-1.92-.05-.07-.14.06-.17.1-.2.23-.35.5-.54.73-.8.96-1.74,1.8-2.68,2.62-.04.03-.06.1-.11.04.48-1.44.78-2.96,1.05-4.48.85-1.11,1.51-2.35,2.12-3.62-.05-.07-.09.03-.11.07-.3.44-.55.93-.85,1.37-.24.35-.54.81-.8,1.12-.03.04-.09.13-.14.12.06-.91.19-1.8.24-2.71.1-1.82-.06-3.66-.27-5.49-.08-.03-.06.08-.06.12-.03.54.07,1.16.07,1.71,0,1.45-.14,2.89-.28,4.32-.07.08-.05.02-.08-.04-.54-.93-.79-1.98-1.21-2.96-.02-.04-.02-.15-.09-.13.31,1.32.85,2.6,1.26,3.91-.21,1.38-.48,2.75-.83,4.09-.12-.08-.2-.29-.27-.43-.88-1.75-1.46-3.57-2.11-5.39-.02-.04-.02-.15-.09-.13.51,2.29,1.32,4.53,2.25,6.72-.16.61-.29,1.24-.47,1.84-.06.19-.33,1.11-.41,1.2-.1.1-.63.23-.68-.04l-.89-2.33-1.01-3.31c.09.9.3,1.82.52,2.71.2.81.41,1.62.72,2.4,0,.07-.19.04-.24.03-.41-.04-.89-.13-1.3-.21-.19-.04-1.03-.17-1.1-.29-.15-.59-.29-1.18-.39-1.77-.35-2.05-.47-4.48.02-6.42.92-3.61,3.89-5.95,6.33-8.47.11-.12.52-.69.67-.66.26.15.21.48.27.72.63,2.52,1.99,4.71,2.87,7.14,1.02,2.8,1.43,5.76.77,8.53-.05.2-.25,1.07-.38,1.14-.08.04-1.04-.06-1.24-.07-1.48-.01-2.9.31-4.25.76Z"/>
              <path class="cls-2" d="M19.49,30.05l-.08.04-1.96-.44c-.19-.53-.63-1.12-.81-1.63-.15-.44-.2-1.35-.41-1.73-.01-.02-.05-.06-.06-.04l.1,1.08-2.86-4.25,2.81,4.89c-.07.09-.05.05-.11,0-.24-.16-.5-.31-.75-.46l-1.7-1.19c.34.34.7.66,1.06.97.81.68,1.9,1.25,2.2,2.29-.09.09-1.92-.16-2.19-.2-.31-.05-1.59-.26-1.79-.39-.23-.16-.41-.68-.51-.95-.76-2.03-.97-4.47-1.07-6.55-.02-.36-.12-1.49-.07-1.74.01-.05.01-.09.06-.12.07-.06.13,0,.19.03.47.22,1.28.85,1.75,1.17,1.95,1.36,4.22,2.9,5.49,4.93.14,1.44.31,2.88.69,4.3ZM18.4,29.73c.14,0,.02-1.02,0-1.15-.03-.24-.09-.52-.14-.77-.06-.3-.13-.64-.25-.92l.39,2.84ZM16.04,25.72c0-.3-.16-.63-.29-.9.04.29.16.63.29.9Z"/>
              <path class="cls-2" d="M14,31.69c.01.27-.27.92-.38,1.18-.46,1.08-1.08,2.31-1.66,3.33-.34.6-.7,1.4-1.58,1.07-1-.37-2.71-1.7-3.18-2.67-.39-.82.13-1.05.76-1.33.82-.36,1.78-.66,2.63-.95s1.98-.76,2.82-.92c.27-.05.55-.1.57.29ZM9.24,35.06c1.39-.74,2.64-1.71,3.78-2.79l-3.78,2.79ZM12.38,33.85c.1.05.17-.05.22-.11.15-.17.3-.39.45-.57l.15-.3-.83.97ZM8.4,34.14c.99-.4,1.99-.82,2.86-1.44l-.25.08-2.54,1.26-.06.1ZM10.98,36.22l.59-.71.43-.74c-.32.43-.7.84-.98,1.3-.02.04-.09.1-.04.15ZM10.03,35.92c.58-.34,1.06-.84,1.45-1.38-.44.44-.96.81-1.38,1.26-.03.03-.12.07-.06.12Z"/>
            </g>
            <path class="cls-2" d="M33.66,31.43c-2.19-.31-4.34-.82-6.5-.52-1.05.14-2.03.48-3,.84-.43-.47-1.21-.62-1.8-.74-3.15-.66-6.33-.88-9.48-1.49-2.97-.58-5.91-1.34-8.84-2.18-.71-.2-.8-.3-1.11.39-1.19,2.66-.68,5.66.75,8.31,1.58.12,2.94,1.74,3.87,3.24.39.57.76,1.33,1.12,2.17.84.55,1.75,1.02,2.66,1.34.15-.03.34-.87.41-1.06,2.43-6.78,9.1-10.13,17.08-9.7l2.86-.16c.02.06-1.45.22-1.72.43l2.39.67c.51-.49,1.79-1.3,1.76-1.41-.13-.21-.31-.12-.46-.14ZM12.44,30.08c-1.69-.14-3.46-.31-5.13-.79-.31-.09-.65-.19-.94-.32l6.08,1.11ZM8.77,30.71c.15-.07.35-.08.52-.1.5-.06,1.02-.04,1.53,0l-1.12.1h-.93ZM9.08,31.39c-.71.21-1.47.33-2.23.34,1.09-.32,1.03-.33,2.23-.34ZM8.69,30.26c-.04.07-.11.04-.17.04-.57.01-1.14,0-1.71-.04l-.68-.12c.85-.06,1.71.01,2.56.13ZM13.69,36.7l-.55,1.06.15-.48c.22-.4.35-.85.64-1.21l-.24.63ZM14.62,35.06l.27-1.26.17-.48c-.07.59-.18,1.23-.44,1.74ZM15.3,35.06c-.01.17-.03.39-.09.55-.02-.18-.02-.41,0-.59.01-.17.03-.39.09-.55.03.19.02.4,0,.59ZM16.8,34.18l-.2-.99c.1.23.21.59.23.82,0,.07.03.13-.04.17ZM17.05,32.24c.18.31.34.64.47.96.06.14.15.33.15.47-.26-.44-.53-.94-.62-1.43ZM18.99,33.2c-.29-.07-1.27-1.22-1.57-1.5-.44-.41-1-.83-1.28-.11-.3.75,0,2.52-.05,3.4,0,.07-.05.19-.1.25-.18,0-.23-3.38-.48-3.65-.02-.02-.09-.02-.12-.01-.27.09-.71,1.02-.87,1.31-.85,1.58-1.69,3.2-2.4,4.85-.06.44.19.82.65.91-.12.2-.14.58-.33.72-.12.09-.83-.06-1.02-.11-4.7-1.14-8.68-6.67-7.26-11.23.02-.07.03-.21.13-.22l1.26.38c-.25.3-.39.7-.46,1.09-.14.76.06,2.14.58,2.81.59.76,1.48.46,2.17.25,1.35-.4,2.79-.91,4.12-1.37.43-.15,1.85-.32,2.1-.56.07-.07.1-.26.18-.28.02,0,.42.06.48.07.1.02.44.11.51.16.26.17.2.48.39.69.16-.14.21-.61.4-.67.17.04,1.33.09,1.35.21-.14.18-.07.44.08.62.23.3,1.84,1.75,1.82,1.87-.05.06-.18.12-.26.1ZM19.14,31.92l-.89-.59.5.24.83.57-.43-.22ZM20.19,31.86c.23,0,.5.12.7.23-.22.04-.51-.09-.7-.23ZM22.01,31.85l-2.52-.57.02-.14,2.52.57-.02.14Z"/>
            <g>
              <path class="cls-2" d="M23.15,53.44c.29.41.56.78.8,1.1,1.99.33,4.01.33,5.99-.02.09-.14.19-.28.28-.4.05-.19.1-.39.14-.59-2.36.45-4.86.41-7.21-.08Z"/>
              <path class="cls-2" d="M17.35,55.81c.81.3,1.77.8,2.66.91.7.11,1.2-.21,1.45-.68-.34-.2-.79-.51-.9-.64-.37-.41-.75-.82-1.12-1.25-.15-.18-.39-.28-.47-.51l.97.45c.23-.02.41-.09.21-.28-1.33-.76-2.79-1.43-3.86-2.49l2.06,1.31c.84.45,1.72.82,2.61,1.13-.2-.37-.42-.77-.67-1.19-1.65-.66-3.15-1.58-4.36-2.76-3.34-3.29-3.6-7.82-.78-11.47,4.62-5.97,14.78-6.49,20.89-2.14,4.62,3.29,5.8,9,2,13.26-1.34,1.51-3.11,2.61-5.08,3.33.09.33.23.6.4.72.67-.28,1.33-.6,1.97-.97.16-.07,1.38-.94,1.44-.89.08.07-.07.09-.09.11-.85.63-1.82,1.2-2.76,1.72l-.08.23c.1.03.21.05.32.08.16-.05.32-.14.44-.24l.09.06c-.09,0-.2.13-.28.22.71.11,1.6.27,2.39.27,1.86,0,2.34-.36,3.87-3.42.84-1.87,1.28-3.92,1.18-6.04-.36-7.78-7.55-12.4-15.79-12.19-6.7.18-12.4,3.83-13.87,9.86-1.18,4.83.13,9.57,3.38,12.86.57.22,1.16.38,1.77.62ZM20.47,56.05c.08-.03.49.2.51.22.2.32-.63-.12-.51-.22ZM19.71,55.16l.24.42c-.08.07-.85-.45-.24-.42ZM17.93,54.77c.17.02.33.24.33.38-.11,0-.38-.33-.33-.38ZM19.34,54.73c-.15-.02-.21-.11-.38-.04-.36-.65.31-.39.38.04ZM18.66,55.41c.11.07.26.24.35.34-.12.07-.47-.29-.47-.32,0-.04.04-.06.12-.02ZM18.19,53.2c.08.03.5.39.28.43-.13.02-.49-.29-.28-.43ZM18.31,54.52c-.23-.08-.52-.38-.35-.6.27.11.35.34.35.6ZM17.93,52.98c-.2.04-.32-.13-.33-.3.07-.07.36.28.33.3ZM17.46,53.67c-.21-.02-.26-.24-.33-.38.22-.01.35.21.33.38ZM16.61,52.26c.16-.06.44.32.38.38-.06.06-.44-.33-.38-.38ZM15.95,52.52c-.18-.1-.3-.25-.38-.43.06-.06.45.31.38.43ZM14.78,50.56c.23.13.34.35.47.55-.08.07-.51-.44-.47-.55Z"/>
            </g>
          </g>
          <path class="cls-2" d="M17.25,49.13c.27.04.59-.07.9-.24-.29-.47-.52-.83-.61-.99-.06-.1-.12-.2-.17-.29-.04.03-.08.07-.13.11-.05.04-.07.1-.15.08.07-.1.15-.18.23-.27-.19-.31-.36-.62-.48-.89l-.4.22c.11-.11.24-.2.36-.3-.06-.14-.1-.27-.12-.39-.09-.39.1-.85.65-.73.27.04.52.19.77.38.24-.1.49-.19.74-.27l-.64.35c.16.14.31.31.45.48.68-.45,1.43-.81,2.21-1.1-.68.44-1.39.83-2.07,1.27.22.31.41.64.54.93.05.1.13.25.23.43,1.01-.77,2.04-1.61,3.01-2.41.29-.24,1.54-1.23,1.61-1.47.11-.38-.57-.29-.83-.27-2.22.17-4.74.55-6.96.86-.77.11-1.6.22-1.6,1.12,0,.87,1.46,3.26,2.48,3.42ZM21.62,44.43c.47-.11.94-.26,1.42-.27l-1.7.39.28-.12ZM22.12,45.18l-2.54,1.94c-.09-.08,1.29-1.15,1.4-1.25l1.14-.69ZM19.63,44.67c.01.06-.08.05-.12.07-1.14.33-2.32.55-3.42,1,1.01-.69,2.33-.85,3.54-1.07Z"/>
          <g>
            <path class="cls-2" d="M18.83,50.92c.19.15.45.31.74.46-.37-.61-.74-1.2-1.06-1.72-.28.39-.3.79.32,1.26Z"/>
            <path class="cls-2" d="M20.33,49.18c.16-.14.3-.3.46-.44.04-.04.35-.28.38-.25-.26.26-.52.53-.78.79.12.21.25.42.39.66.41-.63.92-1.21,1.48-1.72l-1.41,1.83c.42.7.91,1.47,1.39,2.21.1,0,.2.01.3,0,.75-.06.87-.44,1.08-1.03.55-1.62,1.23-3.64,1.6-5.29.07-.31.31-1.13-.28-1.05-.33.04-1.16.72-1.45.95-1.11.88-2.32,1.89-3.42,2.85.08.15.18.31.28.49ZM22.5,51.24l-.02-.2.27-.74c0,.33-.21.62-.25.94ZM21.55,51c.42-1.36,1.12-2.64,2.09-3.73l-2.09,3.73ZM24.55,46.41l-1.09,3.22c-.09-.03,0-.25.01-.32.19-.79.5-1.55.79-2.32l.28-.58ZM23.63,46.24l.42-.29-.96.92-.54.41,1.09-1.04Z"/>
          </g>
          <g>
            <path class="cls-2" d="M29.22,44.06c.99.49,1.97,1.04,2.94,1.6.05-.17.09-.34.14-.5l-1.55-.78c.55.17,1.08.41,1.58.69.05-.15.09-.3.14-.45l-.32-.13c.11.03.22.06.33.08.06-.16.11-.32.17-.47l-1.39-.23c.48.01.97.04,1.45.08.1-.26.21-.49.32-.7-1.32,0-2.64.01-3.96.01-.62.2-.2.56.14.78Z"/>
            <path class="cls-2" d="M35.76,43.84c.56.05,1.11.13,1.66.26l-.14.03c-.5-.09-1.01-.14-1.52-.2-.02.18-.04.38-.08.58.67.17,1.33.39,1.95.69,0,.07-.09.03-.13.02-.62-.18-1.24-.35-1.87-.5-.06.29-.14.59-.24.91.48.25.94.53,1.34.86l-1.4-.67c-.13.41-.28.83-.44,1.25.43.23.85.46,1.28.67.84.41,1.42.33,1.92-.42.46-.7,1.1-2.46.81-3.23-.25-.67-1.07-.58-1.69-.61-.49-.02-.97-.04-1.46-.05,0,.13,0,.26,0,.4ZM35.56,46.66c.26.07.51.23.72.38-.26-.07-.53-.21-.72-.38ZM36.84,45.79l-.6-.31c.35.02.64.28.97.38-.06.1-.28-.07-.37-.07Z"/>
          </g>
          <path class="cls-2" d="M27.37,43.09l.26.22-.37-.12c-.24-.07-.53.07-.55.27l-.02.31-.15-.28c-.09-.18-.42-.19-.61-.03l-.29.26.15-.31c.09-.2-.12-.36-.39-.31l-.42.08.37-.19c.24-.12.24-.37.02-.45l-.36-.13h.42c.27.02.49-.19.41-.37l-.12-.28.27.21c.18.13.51.06.62-.13l.17-.3v.31c0,.2.29.3.53.18l.38-.18-.27.26c-.18.17-.07.39.2.41l.42.03-.42.1c-.27.06-.39.3-.23.44Z"/>
        </g>
      </g>
    </g>
  </g>
</svg>