<?xml version="1.0" encoding="UTF-8"?>
<svg id="Layer_2" data-name="Layer 2" xmlns="http://www.w3.org/2000/svg" viewBox="0 0 60 82.8">
  <defs>
    <style>
      .cls-1 {
        fill: none;
      }

      .cls-2 {
        fill: #ff4522;
      }
    </style>
  </defs>
  <g id="Design">
    <g>
      <rect class="cls-1" width="60" height="82.8"/>
      <g>
        <g>
          <path class="cls-2" d="M50.84,21.04l-25.45-.03c-.31,0-.57.25-.57.57v57.27c0,1.43,1.16,2.58,2.58,2.58h21.27c1.43,0,2.58-1.16,2.58-2.58V21.57c0-.26-.18-.47-.42-.54ZM49.71,30.47v42.23c0,1.72-1.49,3.11-3.32,3.11h-16.72c-1.83,0-3.31-1.39-3.31-3.11V28.08c3.89,0,3.89.9,7.78.9s3.89-.9,7.78-.9,3.89.9,7.78.9v1.49Z"/>
          <g>
            <path class="cls-2" d="M37.68,6.25c1.65.6.26,2.83-.92,1.71-.64-.61-.27-1.37.42-1.71h.5Z"/>
            <circle class="cls-2" cx="34.45" cy="14.25" r="2"/>
            <circle class="cls-2" cx="40.95" cy="11.75" r="1.5"/>
            <circle class="cls-2" cx="39.45" cy="34.26" r="2"/>
            <circle class="cls-2" cx="33.94" cy="38.76" r="1.5"/>
            <circle class="cls-2" cx="38.94" cy="42.76" r="1.5"/>
            <circle class="cls-2" cx="42.45" cy="39.26" r="1"/>
            <circle class="cls-2" cx="35.45" cy="47.26" r="1"/>
            <circle class="cls-2" cx="39.45" cy="51.26" r="1"/>
          </g>
          <g>
            <path class="cls-2" d="M37.73,55.58c1.38.5.22,2.36-.77,1.43-.54-.51-.22-1.14.35-1.43h.42Z"/>
            <circle class="cls-2" cx="35.03" cy="62.25" r="1.67"/>
            <circle class="cls-2" cx="40.45" cy="60.17" r="1.25"/>
            <circle class="cls-2" cx="38.78" cy="65.85" r="1.25"/>
            <circle class="cls-2" cx="41.7" cy="62.93" r=".83"/>
            <circle class="cls-2" cx="35.86" cy="69.6" r=".83"/>
            <circle class="cls-2" cx="39.2" cy="72.93" r=".83"/>
          </g>
        </g>
        <path class="cls-2" d="M28.41,48.06c-2.38-9.66-5.38-15.99-6.05-26.4h.33c.11,0,.2-.08.21-.18h.14c.12,0,.22-.1.22-.22v-1.17s-.02-.09-.04-.13c.03-.04.04-.08.04-.13v-1.17c0-.12-.1-.22-.22-.22h-.14v-.78c0-.46-.37-.83-.83-.83h-5.44c-.46,0-.83.37-.83.83v.78h-.14c-.12,0-.22.1-.22.22v1.17s.02.09.04.13c-.03.04-.04.08-.04.13v1.17c0,.12.1.22.22.22h.14c.02.1.11.18.21.18h.33c-.67,10.41-3.67,16.74-6.05,26.4-2.51,10.17-1.59,21.98-.05,32.38.2,1.35,1.36,2.35,2.73,2.35h12.74c1.37,0,2.53-1,2.73-2.35,1.54-10.4,2.46-22.21-.05-32.38ZM17.48,30.56h2.78c.16,2.19.36,4.24.58,6.27-.5-.17-1.04-.27-1.6-.27-2.17,0-4.02,1.41-4.72,3.37-.21.58-.67,1.05-1.25,1.33,1.02-3.57,1.99-6.92,2.66-10.7h1.56ZM13.73,80.55c-1.21,0-2.24-.92-2.41-2.18-1.32-9.31-2.11-19.84-.15-29.03h11.03c.79,9.19.47,19.72-.06,29.03-.07,1.25-.49,2.18-.98,2.18h-7.42Z"/>
      </g>
    </g>
  </g>
</svg>