<?xml version="1.0" encoding="UTF-8"?>
<svg id="Layer_2" data-name="Layer 2" xmlns="http://www.w3.org/2000/svg" viewBox="0 0 50 69">
  <defs>
    <style>
      .cls-1 {
        fill: none;
      }

      .cls-2 {
        fill: #ff4522;
      }
    </style>
  </defs>
  <g id="Design">
    <g>
      <rect class="cls-1" width="50" height="69"/>
      <g>
        <g>
          <path class="cls-2" d="M42.36,17.53l-21.21-.02c-.26,0-.47.21-.47.47v47.73c0,1.19.96,2.15,2.15,2.15h17.72c1.19,0,2.15-.96,2.15-2.15V17.98c0-.22-.15-.39-.35-.45ZM41.43,25.39v35.19c0,1.43-1.24,2.59-2.76,2.59h-13.93c-1.52,0-2.76-1.16-2.76-2.59V23.4c3.24,0,3.24.75,6.48.75s3.24-.75,6.49-.75,3.24.75,6.49.75v1.24Z"/>
          <g>
            <path class="cls-2" d="M31.4,5.21c1.38.5.22,2.36-.77,1.43-.54-.51-.22-1.14.35-1.43h.42Z"/>
            <circle class="cls-2" cx="28.71" cy="11.88" r="1.67"/>
            <circle class="cls-2" cx="34.12" cy="9.79" r="1.25"/>
            <circle class="cls-2" cx="32.88" cy="28.55" r="1.67"/>
            <circle class="cls-2" cx="28.29" cy="32.3" r="1.25"/>
            <circle class="cls-2" cx="32.45" cy="35.63" r="1.25"/>
            <circle class="cls-2" cx="35.37" cy="32.72" r=".83"/>
            <circle class="cls-2" cx="29.54" cy="39.38" r=".83"/>
            <circle class="cls-2" cx="32.87" cy="42.72" r=".83"/>
          </g>
          <g>
            <path class="cls-2" d="M31.44,46.32c1.15.42.18,1.96-.64,1.19-.45-.42-.19-.95.29-1.19h.35Z"/>
            <circle class="cls-2" cx="29.19" cy="51.88" r="1.39"/>
            <circle class="cls-2" cx="33.7" cy="50.14" r="1.04"/>
            <circle class="cls-2" cx="32.32" cy="54.87" r="1.04"/>
            <circle class="cls-2" cx="34.75" cy="52.44" r=".69"/>
            <circle class="cls-2" cx="29.89" cy="58" r=".69"/>
            <circle class="cls-2" cx="32.66" cy="60.78" r=".69"/>
          </g>
        </g>
        <path class="cls-2" d="M23.68,40.05c-1.98-8.05-4.48-13.32-5.04-22h.27c.09,0,.16-.06.18-.15h.12c.1,0,.18-.08.18-.18v-.97s-.01-.08-.04-.11c.02-.03.04-.07.04-.11v-.97c0-.1-.08-.18-.18-.18h-.12v-.65c0-.38-.31-.69-.69-.69h-4.54c-.38,0-.69.31-.69.69v.65h-.12c-.1,0-.18.08-.18.18v.97s.01.08.04.11c-.02.03-.04.07-.04.11v.97c0,.1.08.18.18.18h.12c.01.09.09.15.18.15h.27c-.56,8.67-3.06,13.95-5.04,22-2.09,8.47-1.32,18.32-.04,26.99.17,1.13,1.14,1.96,2.28,1.96h10.62c1.14,0,2.11-.83,2.28-1.96,1.29-8.67,2.05-18.51-.04-26.99ZM14.57,25.47h2.32c.13,1.83.3,3.53.48,5.22-.42-.14-.87-.22-1.33-.22-1.81,0-3.35,1.17-3.93,2.81-.17.49-.56.87-1.05,1.11.85-2.98,1.66-5.76,2.22-8.92h1.3ZM11.44,67.12c-1.01,0-1.86-.77-2.01-1.81-1.1-7.76-1.76-16.53-.13-24.19h9.19c.66,7.66.39,16.43-.05,24.19-.06,1.04-.41,1.81-.81,1.81h-6.18Z"/>
      </g>
    </g>
  </g>
</svg>