<?xml version="1.0" encoding="UTF-8"?>
<svg id="Layer_2" data-name="Layer 2" xmlns="http://www.w3.org/2000/svg" viewBox="0 0 47.16 54.79">
  <defs>
    <style>
      .cls-1 {
        fill: none;
      }

      .cls-2 {
        fill: #ff4522;
      }

      .cls-3 {
        fill: #fff;
      }
    </style>
  </defs>
  <g id="Design">
    <g>
      <g>
        <path class="cls-2" d="M32.71,16.07l-.02-.02c-.76-.89-2.01.51-1.3,1.5.75.98,2.14-.46,1.32-1.48Z"/>
        <path class="cls-2" d="M2.93,29.15h-.03c-.49-.1-.78.44-.62.97.13.56.71,1.07,1.14.99.94-.21.34-1.83-.5-1.96Z"/>
        <path class="cls-2" d="M40,21.14h-.02c-.3-.28-.84-.15-1.12.19-.37.37-.58,1.14-.06,1.42.65.39,1.85-.84,1.2-1.61Z"/>
        <path class="cls-2" d="M43.34,32.11c-.55-.72-1.79.25-1.43,1.17.17.37.73.44,1.08.18.37-.23.68-.88.37-1.33v-.02Z"/>
        <path class="cls-2" d="M3.76,35.38h-.02c-.69.34-.2,1.71.7,1.71,1.02-.13.35-2-.68-1.71Z"/>
        <path class="cls-2" d="M36.36,29.41c.39-.3.64-1.16.33-1.62v-.02c-.17-.2-.41-.16-.58,0-.37.3-.62,1.15-.31,1.61.15.21.38.18.56.03Z"/>
        <path class="cls-2" d="M18.48,17.47c.35-.4.4-1.31.07-1.73l-.02-.02c-.18-.22-.45-.14-.6.08-.29.38-.37,1.18-.09,1.63.16.27.44.28.63.04Z"/>
        <path class="cls-2" d="M28.5,11.08v-.02c-.68-.58-1.29,1.25-.74,1.73.66.39,1.16-1.19.74-1.71Z"/>
        <path class="cls-2" d="M17.86,19.83c.1-.45-.31-1.14-.82-1.27h-.02c-.88-.12-.54,1.25.16,1.54.32.16.63.03.68-.27Z"/>
        <path class="cls-2" d="M7,19.7l-.03.02c-.32.24-.4.86-.22,1.32.16.52.75,1.07,1.15.62.37-.39.24-1.24-.14-1.72-.19-.26-.53-.42-.76-.23Z"/>
        <path class="cls-2" d="M38.08,25.14c.33-.09.46-.65.22-.94v-.02c-.26-.34-.63.02-.64.4-.02.3.22.62.42.57Z"/>
        <path class="cls-2" d="M15.69,15.28c.25-.24.09-.79-.27-.93h-.02c-.38-.19-.53.31-.35.64.13.27.49.43.64.29Z"/>
        <path class="cls-2" d="M10.04,22.24h-.02c-1.01.09-.74,1.82.05,2.52.43.43,1.12.59,1.41.12.54-.83-.34-2.64-1.44-2.64ZM10.7,23.82c-.09.15-.32.1-.45-.04-.25-.23-.34-.78-.02-.81h0c.35,0,.64.58.46.85Z"/>
        <path class="cls-2" d="M33.76,21.66h-.02c-.9-.54-1.87.76-1.81,1.86-.01,1.01.93,1.76,1.64,1.23.88-.57,1.21-2.47.18-3.09ZM33.37,23.44c-.28.21-.65-.08-.64-.48-.02-.43.35-.94.71-.73h0c.4.25.27.99-.07,1.21Z"/>
        <path class="cls-2" d="M42.14,35.31h-.03c-.64-.1-1.51.51-1.91,1.18-.34.5-.48,1.42.2,1.55.88.19,1.99-.85,2.22-1.73.14-.46-.06-.93-.48-.99ZM41.75,36.27c-.09.33-.5.72-.83.65-.25-.05-.2-.39-.07-.58.15-.25.48-.48.71-.44h.01c.16.02.23.2.18.37Z"/>
        <path class="cls-2" d="M7.09,40.9c-.17-.73-.85-1.38-1.44-1.58l-.05-.02c-.92-.36-1.66.62-1.07,1.79.27.53.73.94,1.21,1.13.78.37,1.63-.2,1.35-1.33ZM5.77,40.97c-.2-.08-.39-.25-.51-.47-.25-.49.06-.91.45-.75h.02c.25.09.53.36.6.67.12.47-.24.71-.57.56Z"/>
        <path class="cls-2" d="M38.93,26.23c-.59.85-1,1.84-1.34,2.84-.56,1.71-.46,1.87-.46,3.77-.05.59,1.3,2.58,1.33,3.68l.38,2.09c.58-4.18,3.41-9.95,3.26-12.42-.37-3.05-2-1.77-3.17.05ZM40.92,27.91c-.65,2.15-1.22,2.41-.89,1.43.33-.98.76-2.55.21-1.65-.54.9-1.1,2.84-1.1,1.7,0-1.14-1.29,2.34-1.29,2.34.07-.4.59-2.77.79-3.25.7-1.8,1.35-3.09,1.98-3.18.84-.12.98.34.29,2.62Z"/>
        <path class="cls-2" d="M29.68,47.89l.08.23c-.21.26-.41.16-.7.1-.01-.29.34-.38.61-.33Z"/>
        <path class="cls-2" d="M24.51,49.06c.22-.06.43.03.46.24.02.14-.17.12-.26.22-.27-.02-.54-.38-.2-.47Z"/>
        <path class="cls-2" d="M26.34,49.08c.1-.16.39-.44.6-.26.28.24-.13.44-.41.37-.06-.02-.11-.11-.19-.1Z"/>
        <path class="cls-2" d="M23.14,49.04s-.17.11-.18.12c-.17.03-.55-.27-.23-.39.26-.1.59.08.41.28Z"/>
        <path class="cls-2" d="M28.7,48.34c-.03.24-.32.38-.57.29-.08-.38.25-.45.57-.29Z"/>
        <path class="cls-2" d="M21.82,48.1c-.33.18-.83-.27-.36-.44.04.19.51.19.36.44Z"/>
        <path class="cls-2" d="M22.19,48.7c-.14.11-.52-.02-.56-.2.17-.27.55-.15.61.1-.01.03-.02.07-.05.09Z"/>
        <path class="cls-2" d="M19.72,46.84c.18-.05.71.2.56.38-.26.13-.59-.13-.56-.38Z"/>
        <path class="cls-2" d="M27.45,48.23c.3-.02.32.24.07.37-.3.16-.59-.34-.07-.37Z"/>
        <path class="cls-2" d="M20.12,47.78c.39,0,.68.51.13.4-.2-.04-.3-.29-.13-.4Z"/>
        <path class="cls-2" d="M29.8,47.07c.07-.01.34-.03.34.05-.1.09-.12.22-.26.28-.42.17-.4-.26-.08-.33Z"/>
        <path class="cls-2" d="M26.62,48.23c.06.33-.57.44-.49.05.04-.19.36-.13.49-.05Z"/>
        <path class="cls-2" d="M24.62,48.13c.09,0,.29.03.31.12-.07.2-.15.37-.39.2-.19-.14-.18-.31.08-.32Z"/>
        <path class="cls-2" d="M25.58,48.96c-.17.12-.48-.02-.38-.21.12-.24.75-.06.38.21Z"/>
        <path class="cls-2" d="M23.85,48.45s.09-.02.13.01c.17.13.16.29-.06.36-.12.01-.28-.1-.31-.21,0-.09.16-.15.24-.16Z"/>
        <path class="cls-2" d="M19.35,47.18c.27-.02.64.49.19.4-.22-.04-.29-.23-.19-.4Z"/>
        <path class="cls-2" d="M22.56,48.04c.16-.04.4.06.32.22-.15.21-.45.12-.43-.12.02-.04.06-.08.11-.09Z"/>
        <path class="cls-2" d="M28.85,47.8c-.18.13-.48-.03-.31-.24.1-.09.48-.05.43.06-.07.03-.08.15-.12.18Z"/>
        <path class="cls-2" d="M27.11,47.67c.1-.01.21.05.25.13-.23.58-.65-.08-.25-.13Z"/>
        <path class="cls-2" d="M23.52,47.82l-.05.21c-.06.04-.21.08-.26.01l.02-.25.29.02Z"/>
        <path class="cls-2" d="M25.8,47.82l-.08.2c-.33.15-.38-.39.08-.2Z"/>
        <path class="cls-2" d="M20.9,47.76s-.09.11-.13.09c-.04-.09-.17-.1-.15-.2.05-.23.41-.11.27.11Z"/>
        <path class="cls-2" d="M22.53,47.58l-.21.08c-.35-.27.22-.39.21-.08Z"/>
        <path class="cls-2" d="M28.06,47.67c.24-.01-.05.5-.23.13,0-.05.18-.13.23-.13Z"/>
        <path class="cls-2" d="M21.04,47.36c-.09,0-.35,0-.29-.13.05-.11.35,0,.29.13Z"/>
        <path class="cls-2" d="M14.58,47.81c-1.17-1.27-2.04-2.82-2.63-4.43-.45-1.02-.58-2.13-.73-3.22-1.52-1.35-2.33-4.81-3.38-6.33-.7-1.13-1.73-2.36-2.93-2.39-.84.09-.89,1-.53,1.94.62,1.51,1.77,2.63,2.8,3.73,3.25,3.47,4.41,7.4,5.03,9.7l2.38.99ZM5.45,32.6c1.09.05,1.75,1.23,2.65,3,0,0-3.73-3.05-2.65-3Z"/>
        <g>
          <path class="cls-3" d="M28.79,46.39l2.39-.83c-.08-.36-.1-.86.04-1.15,3.14-6.41,2.34-7.69,2.08-8.11-.19-.31-.57-.67-1.29-.67h0s-.1,0-.15,0c-1.9.12-2.65,3.8-3.51,8.05-.21,1.02-.41,1.99-.61,2.85l1.05-.15Z"/>
          <path class="cls-3" d="M16.38,41.58c.07.11.14.23.2.34.09.16.31.51.61.98.3.48.85,1.36,1.4,2.28l4.24,1.3c-1.24-1.7-3.18-4.74-3.55-5.51-.32-.75-1.18-2.08-2.3-2.26-.09-.02-.18-.03-.26-.03-.33,0-.62.14-.82.38-.21.27-.29.64-.21,1.01.08.47.37.97.69,1.49Z"/>
        </g>
        <path class="cls-2" d="M43.61,39.89c-1.7.95-3.41,3.35-5.34,3.92-.6.19-1.66.24-1.91-.48-.1.27-.22.54-.35.8-.63,1.06-.95,1.77-1.09,2.25-.11.38-.5.62-.89.56-1.09-.14-2.44-.18-3-.49-.45-.24-.65-1.63-.32-2.29,1.36-2.77,3.7-8.1,1.2-7.94-1.91.12-2.68,6.78-3.66,10.72-.14.19-.28.4-.44.64-.26.38-.52.74-.92,1-.96.66-2.65.29-3.53-.55-.84-.72-4.15-5.88-4.6-6.81-.33-.75-1.08-1.81-1.88-1.93-.52-.11-.7.32-.62.69.07.46.47,1.05.82,1.66.42.73,3.64,5.64,3.6,6.44-.01.69-.55,1.3-1.42,1.16-.77-.1-1.62-.53-2.33-.8-.76-.29-1.49-.46-2.21-.82h-.02c-.82-.39-7.59-3.3-8.53-3.6-3.38-1.05-3.44,1.21-1.81,1.61.93.23,5.59-.11,9.48,5.46,1.34,1.91,3.07,2.77,5.61,3.33,3.95.78,9.4.55,12.54-1.82.62-.47,2.05-1.92,2.93-3.2.67-.72,1.4-1.91,2.02-2.45.65-.57,1.3-1.1,2.05-1.5,2.06-1.04,5.06-2.18,5.88-4.91.31-1.19-.74-.93-1.26-.62ZM17.55,41.19c-.98-1.42-.54-1.51-.12-.95.42.55,2.84,4.64,2.84,4.64l-2.72-3.68ZM3.94,44.42c.5-.54,1.93-.07,2.79.29,0,0-3.29.25-2.79-.29ZM18.79,50.89c-6.04-3.2-8.05-4.18-8.05-4.18.91.29,4.05,1.35,4.84,1.73h.02c.69.37,1.41.54,2.15.83.7.27,1.52.7,2.28.8.84.14,1.31-.68,1.23-1.32-.29-2.15,3.17,5.13-2.47,2.14ZM31.88,37.11c.91-.06-1.7,4.84-1.7,4.84.13-.83.79-4.78,1.7-4.84ZM33.32,48.01c-2.17-.06-4.04-1.62-3.06-1.21.77.32,1.91.7,3.8.57s.36.67-.74.64ZM44.19,40.8c-.81,1.31-4.82,3.05-4.82,3.05,1.23-.89,3.63-3.09,3.94-3.32.31-.23,1.7-1.04.89.27Z"/>
        <g>
          <path class="cls-2" d="M25.01,38.63c.26-.24.47.1.6.3.25.43.48,1.03.68,1.49.47,1.07,1.04,2.33,1.41,3.43.25.76.37,1.21-.54,1.44-.78.2-2.92.34-3.57-.13-.56-.4-.15-1.53,0-2.09.32-1.24.71-2.68,1.14-3.89.06-.18.15-.44.29-.57ZM26.14,41.58l-.24-.9-.35-.9.25.92.34.87ZM25,44.47l.05-4.51c-.19,1.4-.31,2.83-.15,4.24l.1.27ZM26,44.36c.02-.93-.12-1.89-.41-2.78-.01-.04-.03-.15-.08-.15l.49,2.92ZM24.13,43.41c.12-.64.3-1.28.35-1.94l-.23.91-.11.7v.33ZM26.98,44.18c-.03-.29-.13-.56-.2-.84l-.36-.89.16.63.39,1.1Z"/>
          <path class="cls-2" d="M33.04,32.66c.61-.04,1.15.74,1.43,1.18.27.41.54.93.68,1.39.19.61.32,1.25-.57,1.31-.94.07-1.92-.03-2.86-.04-1.32,0-2.79.08-4.09,0-.82-.05-.86-.27-.22-.68.55-.35,1.19-.66,1.75-1,.99-.59,1.97-1.22,2.97-1.79.26-.15.59-.36.89-.38ZM32.86,33.56c-.86.19-1.67.54-2.42.96-.04.02-.1.03-.11.08l2.53-1.05ZM33.69,34.21c-1.24.13-2.43.49-3.58.93l-1.01.46,4.59-1.39ZM33.98,34.95c-.52.02-1.04.06-1.55.19-.07.02-.22.05-.26.11l1.81-.3ZM33.8,35.9c-1.26-.27-2.54-.17-3.8.05,1.09-.02,2.18-.09,3.28-.05.09,0,.18.03.29.04.05,0,.23.02.24-.04ZM29.21,36.17c-.01-.06-.07-.06-.13-.07-.2-.02-.56.01-.76.03-.05,0-.11,0-.13.07l1.01-.03Z"/>
          <path class="cls-2" d="M15.87,33.71c.52-.07,1.2.25,1.69.44,1.51.59,2.97,1.33,4.46,1.97.11.1.35.22.26.39-.12.22-1.6.37-1.92.42-1.51.21-3.21.48-4.71.59-.92.07-1.34-.12-1.28-1.03.04-.6.58-2.29,1.12-2.64.1-.06.27-.12.39-.14ZM18.62,35.04c-.62-.25-1.23-.55-1.91-.65l1.8.67.11-.02ZM17.18,35.01c-.5-.13-.99-.3-1.51-.26,0,.05.06.05.1.06.41.09.88.1,1.3.23l.12-.02ZM19.67,35.95c-.95-.19-1.92-.41-2.9-.49-.43-.03-.95-.06-1.37,0-.06,0-.12-.01-.16.05l4.43.44ZM21.14,36.08c-.39-.15-.77-.35-1.19-.42l1.08.44.11-.02ZM17.36,36.25c-.68-.06-1.38.02-2.03.2-.04.01-.13.01-.13.06l2.16-.26ZM20.46,36.51c-1,0-2.01-.03-3,.17l-.46.12,3.46-.29Z"/>
          <path class="cls-2" d="M22.74,34.85s.41.46.44.53c.02.06.04.08-.02.12-.2.13-.82-.15-1.04-.24-1-.41-2.02-.92-3.01-1.36-.49-.22-1.87-.69-2.16-1.02-.26-.31-.17-.54.07-.82.44-.5,2.54-1.78,3.22-1.82.44-.03.72.15.94.48l2.28,4.38c.05.09-.02.16-.13.12l-.58-.38ZM20.86,31.52c-.06-.16-.21-.35-.36-.46.07.17.21.34.36.46ZM20.93,32.63l-.65-.74c-.19-.17-.38-.34-.58-.49-.09-.07-.21-.17-.33-.21l1.55,1.44ZM21.8,34.13c-.74-.72-1.54-1.4-2.43-1.97-.26-.16-.53-.34-.82-.45l3.25,2.42ZM20.21,33.58c-.16-.17-.41-.31-.62-.44-.52-.3-1.08-.55-1.66-.74l2.03,1.08.24.09ZM22.27,33.87c-.2-.4-.43-.79-.72-1.14.17.41.45.78.72,1.14ZM21.26,34.49c-.39-.25-.84-.45-1.3-.59.39.25.86.4,1.3.59Z"/>
          <path class="cls-2" d="M26.41,35.54l.15-.49s-.3.23-.35.26c-.06.03-.14.05-.21.07-.09-.02-.06-.23-.04-.3.62-1.37,1.06-2.85,1.67-4.22.35-.8.62-.93,1.56-.71.81.19,1.89.65,2.54,1.13.58.42.71.75.09,1.23-1.56.89-3.08,1.87-4.68,2.71-.09.05-.67.36-.72.32ZM27.76,32.12l.12-.13.68-1.02c-.33.34-.62.73-.8,1.15ZM29.54,31.1c-.07-.01-.09.03-.13.07-.88.67-1.53,1.56-2.1,2.45-.14.22-.29.44-.39.68l2.62-3.19ZM30.7,31.66c-.13.04-.26.13-.38.2-.16.1-.34.23-.5.34-.59.43-1.16.94-1.67,1.43.07.01.09-.03.13-.07.82-.63,1.63-1.25,2.42-1.91ZM31.18,32.25c-.24.08-.51.22-.69.39.24-.11.49-.23.69-.39ZM28.26,34.16c-.23.08-.48.24-.66.39.24-.09.46-.24.66-.39Z"/>
          <path class="cls-2" d="M24.56,29.41c.47,0,1.77.02,2.07.35.22.24.08.66,0,.94-.26.93-.69,1.99-1.06,2.91-.13.32-.3.87-.48,1.15-.4.62-.84-.11-1.04-.45-.53-.9-1.09-2.05-1.53-3-.21-.44-.67-1.2-.14-1.56.34-.23,1.72-.32,2.18-.33ZM24.64,33.19c-.04-.88-.04-1.76-.03-2.65l-.11-.63c-.1.9-.06,1.81.04,2.71.01.12.02.24.04.35,0,.05.02.2.07.21ZM25.14,31.77l.47-1.62-.17.32c-.13.36-.29.76-.33,1.13,0,.04-.04.17.03.17ZM24.03,32.77l-.3-1.6-.28-.97c.02.82.22,1.7.51,2.47.01.03,0,.1.06.09ZM23.17,31.64l-.14-.5-.25-.57.02.16.38.91ZM25.25,33.36l.93-2.73-.2.39c-.23.72-.61,1.5-.76,2.24,0,.03-.05.11.02.1ZM24.42,34.3l-.39-.81c.06.23.17.49.28.7.03.05.02.13.11.11Z"/>
          <g>
            <path class="cls-2" d="M31.46,41.51c.23.19.48.38.6.63l-.64-.53c-.13.3-.26.6-.39.89.12.14.21.29.27.45l-.11-.1-.19-.28c-.2.43-.39.83-.56,1.19-.1.21-.14.48-.15.77.82-.26,1.89-.86,2.34-1.24,1.42-1.17.18-1.78-.91-2.39-.08.21-.17.41-.25.62Z"/>
            <path class="cls-2" d="M26.56,39.45c.58,1.31,1.26,2.8,1.93,4.07.06.11.12.23.19.33.07-.34.14-.69.21-1.05l-.81-1.39c.35.38.63.81.84,1.26.07-.36.15-.72.23-1.08l-1.21-1.51c.45.4.88.82,1.27,1.27.05-.23.1-.46.16-.68l-.08-.06-1.09-.86c.1.02.2.1.29.15.31.2.62.41.9.64.06-.24.11-.47.17-.69-.71-.4-1.43-.8-2.13-1.16-.22-.11-.87-.49-1.09-.43-.25.14-.1.44-.03.64.06.18.16.37.24.55ZM27.57,40.42l-.37-.54-.36-.69c.29.38.57.8.73,1.23Z"/>
          </g>
          <g>
            <g>
              <path class="cls-2" d="M23.25,26.69l-.04-.07,1.44-1.34c.23-.32.53-.57.77-.87.43-.52.78-1.1,1.17-1.64-.05-.06-.12.06-.14.09-.17.19-.3.42-.46.62-.68.82-1.49,1.54-2.29,2.24-.03.03-.05.09-.09.03.41-1.23.66-2.53.89-3.82.73-.95,1.29-2.01,1.81-3.09-.05-.06-.07.03-.09.06-.25.37-.47.79-.72,1.17-.2.3-.46.69-.68.96-.03.03-.07.11-.12.1.05-.77.16-1.54.21-2.31.09-1.55-.05-3.12-.23-4.69-.07-.02-.05.07-.05.1-.02.46.06.99.06,1.46,0,1.23-.12,2.47-.24,3.69-.06.07-.04.02-.07-.03-.46-.8-.68-1.69-1.04-2.52-.02-.04-.01-.13-.08-.11.27,1.13.72,2.22,1.07,3.34-.18,1.18-.41,2.35-.71,3.5-.1-.07-.17-.25-.23-.37-.75-1.5-1.25-3.05-1.8-4.6-.01-.04-.02-.13-.08-.11.43,1.96,1.13,3.87,1.92,5.74-.13.52-.25,1.06-.4,1.57-.05.17-.28.95-.35,1.03-.08.09-.54.19-.58-.03l-.76-1.99-.87-2.82c.08.77.26,1.55.44,2.31.17.69.35,1.38.61,2.05,0,.06-.16.03-.2.03-.35-.04-.76-.11-1.11-.18-.17-.03-.88-.14-.94-.24-.13-.5-.25-1-.33-1.51-.3-1.75-.4-3.83.02-5.48.78-3.08,3.32-5.08,5.41-7.23.1-.1.44-.59.57-.56.23.13.18.41.23.61.54,2.15,1.69,4.02,2.45,6.1.87,2.39,1.22,4.92.66,7.28-.04.17-.22.92-.32.97-.07.03-.89-.06-1.06-.06-1.26-.01-2.47.27-3.63.65Z"/>
              <path class="cls-2" d="M18.88,25.9l-.07.03-1.67-.38c-.17-.46-.54-.95-.69-1.39-.13-.37-.17-1.16-.35-1.48-.01-.02-.04-.05-.05-.03l.09.92-2.44-3.62,2.4,4.18c-.06.08-.04.04-.09,0-.21-.14-.42-.27-.64-.39l-1.46-1.02c.29.29.6.56.91.83.69.58,1.62,1.06,1.88,1.95-.08.08-1.64-.13-1.87-.17-.27-.04-1.36-.22-1.52-.33-.2-.13-.35-.58-.44-.81-.65-1.73-.83-3.82-.91-5.6-.01-.31-.1-1.27-.06-1.49,0-.04.01-.08.05-.11.06-.05.11,0,.17.02.4.19,1.09.72,1.5,1,1.67,1.16,3.6,2.48,4.69,4.21.12,1.23.27,2.46.59,3.67ZM17.95,25.63c.12,0,.02-.87,0-.99-.03-.21-.08-.45-.12-.66-.05-.25-.11-.55-.22-.78l.33,2.43ZM15.93,22.21c0-.25-.13-.53-.25-.77.03.25.14.53.25.77Z"/>
              <path class="cls-2" d="M14.19,27.3c.01.23-.23.78-.33,1.01-.39.92-.92,1.98-1.41,2.84-.29.52-.6,1.19-1.35.92-.86-.32-2.32-1.45-2.71-2.28-.34-.7.11-.9.65-1.14.7-.31,1.52-.56,2.25-.81s1.69-.65,2.41-.79c.23-.05.47-.08.49.25ZM10.12,30.18c1.19-.63,2.26-1.46,3.23-2.38l-3.23,2.38ZM12.8,29.15c.08.05.15-.04.19-.09.13-.14.25-.34.38-.48l.13-.26-.71.83ZM9.4,29.4c.85-.35,1.7-.7,2.44-1.23l-.22.07-2.17,1.08-.05.09ZM11.61,31.18l.51-.6.37-.63c-.27.37-.6.72-.84,1.11-.02.03-.08.09-.04.12ZM10.8,30.92c.5-.29.9-.72,1.23-1.18-.38.38-.82.69-1.18,1.08-.03.03-.1.06-.05.1Z"/>
            </g>
            <path class="cls-2" d="M30.97,27.08c-1.87-.26-3.71-.7-5.55-.44-.89.12-1.74.41-2.56.72-.37-.4-1.03-.53-1.54-.63-2.69-.56-5.4-.75-8.09-1.27-2.54-.49-5.04-1.14-7.55-1.86-.61-.17-.68-.26-.95.34-1.01,2.27-.58,4.83.64,7.09,1.35.1,2.51,1.49,3.31,2.77.33.48.65,1.13.96,1.85.72.47,1.49.87,2.28,1.14.13-.03.29-.75.35-.9,2.08-5.79,7.77-8.65,14.58-8.28l2.44-.13c.02.05-1.24.19-1.47.37l2.04.57c.43-.42,1.53-1.11,1.51-1.21-.11-.18-.26-.1-.39-.12ZM12.86,25.93c-1.44-.12-2.96-.26-4.38-.67-.27-.08-.55-.16-.81-.28l5.19.95ZM9.72,26.47c.13-.06.3-.07.44-.08.43-.05.87-.03,1.31,0l-.95.09h-.8ZM9.99,27.05c-.61.18-1.26.28-1.9.29.93-.27.88-.28,1.9-.29ZM9.65,26.08c-.04.06-.09.03-.15.03-.48,0-.97,0-1.46-.04l-.58-.1c.72-.05,1.46,0,2.19.11ZM13.93,31.58l-.47.9.13-.41c.18-.34.3-.73.54-1.03l-.21.54ZM14.72,30.18l.23-1.08.14-.41c-.06.51-.16,1.05-.38,1.49ZM15.3,30.18c-.01.15-.02.33-.08.47-.02-.15-.01-.35,0-.5.01-.15.02-.33.08-.47.03.16.02.34,0,.5ZM16.58,29.44l-.17-.85c.08.19.18.5.2.7,0,.06.03.11-.03.15ZM16.79,27.77c.15.26.29.54.41.82.05.12.13.28.13.4-.22-.38-.45-.81-.53-1.22ZM18.45,28.6c-.24-.06-1.08-1.04-1.34-1.28-.38-.35-.85-.71-1.09-.09-.25.64,0,2.15-.05,2.9,0,.06-.04.17-.08.21-.15,0-.2-2.89-.41-3.11-.02-.02-.08-.02-.1-.01-.23.08-.61.87-.74,1.11-.73,1.35-1.45,2.73-2.05,4.14-.05.37.16.7.55.78-.1.17-.12.5-.28.62-.1.08-.71-.05-.87-.09-4.02-.97-7.41-5.69-6.2-9.59.02-.06.03-.18.11-.19l1.08.33c-.22.26-.33.6-.39.93-.12.65.05,1.83.5,2.4.51.65,1.27.39,1.86.22,1.16-.34,2.38-.77,3.52-1.17.37-.13,1.58-.27,1.79-.48.06-.06.09-.23.15-.24.02,0,.36.05.41.06.09.02.38.1.44.14.22.15.17.41.33.59.14-.12.18-.52.34-.58.14.03,1.14.07,1.16.18-.12.15-.06.37.07.53.19.25,1.57,1.49,1.55,1.6-.04.05-.16.1-.22.08ZM18.57,27.5l-.76-.51.43.2.71.49-.37-.19ZM19.48,27.45c.2,0,.42.1.6.2-.19.03-.44-.08-.6-.2ZM21.03,27.45l-2.15-.49v-.12s2.16.49,2.16.49v.12Z"/>
            <g>
              <path class="cls-2" d="M22,45.88c.25.35.48.67.69.94,1.7.28,3.43.28,5.11-.02.08-.12.16-.24.24-.34.04-.16.08-.33.12-.51-2.01.38-4.15.35-6.16-.07Z"/>
              <path class="cls-2" d="M17.05,47.9c.69.26,1.52.68,2.27.78.6.1,1.03-.18,1.24-.58-.29-.17-.67-.44-.77-.54-.32-.35-.64-.7-.95-1.06-.13-.15-.34-.24-.4-.44l.83.38c.19-.02.35-.07.18-.24-1.14-.65-2.38-1.22-3.3-2.13l1.76,1.12c.72.38,1.46.7,2.22.97-.17-.31-.36-.66-.57-1.01-1.41-.57-2.69-1.35-3.72-2.36-2.85-2.81-3.08-6.68-.67-9.8,3.94-5.1,12.62-5.54,17.84-1.83,3.95,2.81,4.95,7.68,1.71,11.33-1.14,1.29-2.65,2.23-4.34,2.85.07.28.19.51.34.61.57-.24,1.14-.51,1.68-.83.13-.06,1.18-.8,1.23-.76.07.06-.06.08-.08.09-.73.54-1.56,1.02-2.36,1.47l-.07.19c.09.02.18.04.28.06.14-.04.27-.12.37-.2l.08.05c-.08,0-.17.11-.24.19.61.1,1.37.23,2.04.23,1.59,0,2-.3,3.31-2.92.72-1.6,1.09-3.34,1.01-5.16-.31-6.64-6.45-10.59-13.48-10.41-5.72.15-10.59,3.27-11.84,8.42-1,4.12.11,8.17,2.89,10.98.49.19.99.33,1.51.53ZM19.72,48.11c.07-.03.42.17.43.19.17.27-.54-.1-.43-.19ZM19.07,47.35l.21.36c-.07.06-.72-.38-.21-.36ZM17.55,47.01c.14.02.28.2.28.33-.1,0-.33-.28-.28-.33ZM18.75,46.98c-.13-.02-.18-.1-.32-.04-.3-.55.26-.33.32.04ZM18.17,47.56c.1.06.22.21.3.29-.1.06-.4-.25-.4-.27,0-.03.04-.05.1-.02ZM17.77,45.67c.07.03.43.33.24.36-.11.02-.42-.25-.24-.36ZM17.87,46.8c-.2-.07-.44-.33-.3-.51.23.1.3.29.3.51ZM17.55,45.49c-.17.03-.27-.11-.28-.25.06-.06.3.24.28.25ZM17.14,46.07c-.18-.02-.23-.2-.28-.33.19,0,.3.18.28.33ZM16.42,44.87c.13-.06.37.28.32.33-.05.05-.38-.28-.32-.33ZM15.86,45.09c-.15-.09-.26-.22-.32-.36.05-.05.38.26.32.36ZM14.85,43.41c.2.11.29.3.4.47-.07.06-.44-.38-.4-.47Z"/>
            </g>
          </g>
          <path class="cls-2" d="M16.97,42.19c.23.04.5-.06.77-.2-.25-.4-.44-.71-.52-.84-.05-.08-.1-.17-.15-.25-.04.03-.07.06-.11.09-.04.03-.06.08-.13.07.06-.08.13-.16.2-.23-.16-.27-.31-.53-.41-.76l-.34.19c.09-.09.2-.17.31-.26-.05-.12-.08-.23-.1-.33-.08-.34.08-.72.56-.62.23.03.45.16.65.33.21-.08.42-.16.63-.23l-.55.3c.14.12.26.26.38.41.58-.39,1.22-.69,1.88-.94-.58.38-1.19.71-1.77,1.09.19.27.35.55.46.79.04.08.11.21.2.37.86-.66,1.74-1.37,2.57-2.06.25-.21,1.31-1.05,1.37-1.26.09-.33-.49-.25-.71-.23-1.9.15-4.04.47-5.94.74-.66.09-1.37.19-1.36.95,0,.74,1.25,2.78,2.11,2.92ZM20.69,38.18c.4-.1.8-.22,1.21-.23l-1.46.34.24-.1ZM21.12,38.83l-2.17,1.65c-.07-.07,1.1-.98,1.19-1.06l.97-.59ZM18.99,38.39s-.06.05-.1.06c-.97.28-1.98.47-2.92.85.86-.59,1.99-.73,3.02-.91Z"/>
          <g>
            <path class="cls-2" d="M18.31,43.72c.17.13.39.26.63.39-.32-.52-.63-1.03-.91-1.47-.23.33-.25.68.27,1.08Z"/>
            <path class="cls-2" d="M19.59,42.24c.14-.12.26-.26.4-.37.04-.03.3-.24.32-.22-.22.22-.44.45-.67.67.1.18.21.36.33.56.35-.54.79-1.03,1.26-1.47l-1.2,1.56c.36.59.78,1.26,1.18,1.89.09,0,.17.01.25,0,.64-.05.75-.37.92-.88.47-1.38,1.05-3.11,1.36-4.51.06-.26.26-.97-.24-.9-.28.04-.99.62-1.24.81-.95.75-1.98,1.61-2.92,2.44.07.13.15.27.24.42ZM21.45,44l-.02-.17.23-.63c0,.28-.18.53-.21.8ZM20.63,43.8c.36-1.16.96-2.26,1.78-3.18l-1.78,3.18ZM23.2,39.88l-.93,2.75c-.07-.03,0-.22.01-.27.16-.68.43-1.33.68-1.98l.24-.49ZM22.41,39.73l.36-.25-.82.79-.46.35.93-.89Z"/>
          </g>
          <g>
            <path class="cls-2" d="M27.18,37.87c.85.42,1.68.89,2.51,1.37.04-.14.08-.29.12-.42l-1.33-.66c.47.15.92.35,1.35.59.04-.13.08-.26.12-.38l-.27-.11c.09.02.19.05.28.07.05-.14.1-.27.15-.4l-1.19-.2c.41,0,.83.03,1.24.07.09-.22.18-.42.27-.59-1.13,0-2.25.01-3.38.01-.53.17-.17.47.12.66Z"/>
            <path class="cls-2" d="M32.77,37.68c.48.04.95.11,1.41.22l-.12.03c-.43-.08-.86-.12-1.3-.17-.01.16-.04.32-.07.5.57.15,1.13.34,1.66.59,0,.06-.07.03-.11.02-.53-.16-1.06-.3-1.59-.42-.05.25-.12.51-.2.78.41.21.8.45,1.15.74l-1.2-.57c-.11.35-.24.71-.38,1.07.36.2.73.39,1.09.57.72.35,1.21.29,1.64-.36.39-.6.94-2.1.7-2.76-.21-.57-.91-.49-1.44-.52-.41-.02-.83-.03-1.25-.04,0,.11,0,.22,0,.34ZM32.6,40.09c.22.06.44.19.61.33-.22-.06-.45-.18-.61-.33ZM33.69,39.34l-.52-.27c.3.02.55.24.83.33-.05.09-.24-.06-.31-.06Z"/>
          </g>
          <path class="cls-2" d="M25.6,37.04l.22.19-.32-.1c-.2-.06-.45.06-.47.23l-.02.27-.12-.23c-.08-.15-.36-.16-.52-.02l-.25.22.12-.26c.08-.17-.1-.31-.33-.27l-.36.07.32-.16c.2-.11.21-.31.01-.39l-.31-.11h.36c.23.01.42-.16.35-.32l-.11-.24.23.18c.15.11.43.05.53-.11l.14-.26v.26c0,.17.25.25.45.15l.32-.15-.23.23c-.15.14-.06.33.17.35l.35.02-.36.08c-.23.05-.33.26-.19.38Z"/>
        </g>
      </g>
      <rect class="cls-1" width="47.16" height="54.79"/>
    </g>
  </g>
</svg>