<?xml version="1.0" encoding="UTF-8"?><svg id="Layer_1" xmlns="http://www.w3.org/2000/svg" viewBox="0 0 100 100"><defs><style>.cls-1{fill:#573100;}</style></defs><path class="cls-1" d="M46.25,24.88c-.2,0-.33-.16-.49-.3-.31-.3-.6-.62-.9-.97-1.25-1.32-1.76-2.84-2.55-4.37-.86-1.52-1.78-3.02-2.94-4.39-.65-.85-1.27-1.65-2.11-2.38-1.23-1.21.11-.72.9-.31,1.02.5,1.94,1.11,2.8,1.8,1.28,1.08,2.7,2.17,3.82,3.37,1.05,1.02,1-.04.8-.77-.19-.96-.3-1.99-.72-2.89-.41-1.12-.89-2.21-1.37-3.3-.21-.59-.46-1.17-.81-1.71-.44-.68-.78-1.54-1.14-2.21-.22-.49-.9-1.07-.84-1.59.3-.24,1.05.45,1.34.62.94.55,1.61,1.29,2.33,2.01.46.43.97.86,1.37,1.31.4.46.84.94,1.21,1.42.2.26.86,1.12,1.06.44.14-.6.18-1.24.34-1.84.16-.63.11-1.32.25-1.97.16-.71.29-1.42.42-2.13.03-.33.92-2.46,1.08-1.41.16,1.21.34,2.42.8,3.57.35,1.35.86,2.64,1.34,3.94.57,2.18,1.54.06,2.27-.72.8-1.21,2-2.21,3.19-3.14.28-.23,1.97-1.58,1.86-.81-.24.6-.75,1.1-1.09,1.67-.74,1.42-1.47,2.87-2.04,4.36-.51,1.43-1,2.93-1.35,4.4-.18,1.22.59.78,1.18.12,1.02-.87,1.75-1.96,2.89-2.73.93-.58,1.76-1.23,2.7-1.76.38-.27,3.98-2.08,2.64-.67-2.2,2.03-4.02,4.34-5.51,6.79-.64.9-1,1.91-1.58,2.83-.69,1.3-1.61,2.52-2.56,3.68-.36.43-.69.86-.94,1.35-.4.77-.74,2.68-2.17,2.06-.38-.28-.44-.78-.56-1.18-.1-.44-.31-.87-.55-1.25-.85-1.34-1.96-2.61-3.38-3.57-.91-.58-.85,0-.81.62-.03.54.17,1.7-.19,2.02h0Z"/><path class="cls-1" d="M47.68,25.06c.39-.05,1.09.78,1.3,1.03.92,1.14,1.6,2.44,1.99,3.77.17.65-.16,1.16-.62,1.67-.35.44-.65.88-.93,1.35-.26.43-.41.94-.58,1.4-.09.22-.19.45-.42.55-.55.16-1.09-.46-1.43-.76-.65-.58-1.04-1.14-1.39-1.84-.59-1.14-1.32-2.19-2.1-3.25-.41-.62-.89-1.17-1.37-1.76-.51-.6-1.11-1.15-1.67-1.72-1.14-1.11-2.4-2.2-3.83-3.03-.83-.55-1.66-1.06-2.62-1.45-.39-.23-1-.42-1.15-.78-.14-.34.98-.15,1.2-.14.96.09,2.04.36,2.88.69.96.34,1.81.81,2.69,1.34.55.31,1.09.59,1.6.95.83.5,1.61,1.04,2.36,1.64,1.02.78,1.89,1.77,2.98,2.48.84.46.86-.64.9-1.11.04-.29-.09-.87.21-1.02h0Z"/><path class="cls-1" d="M66.84,21.23c.04.28-1.01.66-1.3.89-.91.56-1.72,1.18-2.45,1.89-.59.53-1.17.95-1.62,1.55-.15.21-.31.42-.5.61-1.41,1.52-2.59,3.16-4.03,4.67-.48.5-.9,1.04-1.45,1.48-.82.67-1.95,1.21-2.63,2.02-.33.36-.47.79-.7,1.2-.18.29-.32.6-.43.91-.31.7-.2,1.56-.77,2.16-.32.32-.87.21-1.09-.14-.71-.96-.65-2.49-.41-3.59.17-.48.46-1.07.78-1.54.69-.92,1.73-1.66,2.74-2.32.84-.76,1.28-1.73,1.65-2.7.93-2.23,3.75-4.36,6.1-5.55,1.33-.64,2.72-1.08,4.19-1.38.51-.06.93-.15,1.4-.21.27-.03.46-.03.5.03h0Z"/><path class="cls-1" d="M56.28,40.18c-.86-.43.49-1.85-.49-1.31-.51.3-.99.75-1.51.97-.61.25-1.45.33-2.03-.01-.44-.36.09-.84.34-1.22.19-.28.28-.6.32-.93.08-.48.12-.98.29-1.44.42-.98,1.18-1.84,2.12-2.53.61-.47,1.2-.93,1.85-1.35.5-.28,1.03-.6,1.51-.87,1.23-.69,2.49-1.36,3.98-1.57.87-.19,1.73-.41,2.61-.14.3.07.59.15.86.24.1.03.2.07.19.15-.04.07-.11.1-.2.13-.13.04-.34.08-.49.12-1.02.26-2.04.51-2.97.98-.89.42-1.69,1-2.38,1.66-.95.82-1.87,1.57-2.4,2.65-.08.22-.36.58-.14.75.43.17,1.15-.3,1.62-.38.6-.14,1.19-.1,1.86-.1.55,0,1.53.1,1.7.56.07.38-.79.45-1.11.54-.38.07-.71.21-1.11.36-.72.22-1.39.51-1.94.91-.29.21-.61.47-.76.77-.1.32.35.44.65.55.22.08,1.07.35.61.56-.5.12-1.22.08-1.89.11-.35,0-.75,0-1.06-.14h-.01Z"/><path class="cls-1" d="M51.24,40.16c.45.08.89.22,1.33.33.77.16,1.44.23,2.16.38.75.19,2.09.09,2.77.42.59.38-.04.85-.64.98-.37.09-.87.08-1.3.08-3.37-.12-7.01.5-10.28-.01-.4-.07-.82-.22-1.17-.36-.15-.06-.38-.18-.41-.27-.1-.24.67-.34.93-.41,1.12-.23,2.1-.62,3.22-.9,1.04-.27,2.29-.42,3.35-.23h.02Z"/><path class="cls-1" d="M44,34.5c2.46.15,4.79,1.39,5.28,3.55.09.42.17.88-.13,1.22-.64.65-1.54.08-1.93-.5-.5-.63-1.08-1.29-1.8-1.74-.52-.33-1.07-.63-1.63-.91-1.21-.48-2.6-.61-3.93-.55-.43,0-1.03.17-1.35.04-.11-.06-.08-.15,0-.27.28-.35.76-.56,1.2-.72.34-.13.84-.18,1.31-.2.95-.02,2-.01,2.95.09h.02Z"/><path class="cls-1" d="M38.21,28.56c1.33.24,2.53.72,3.63,1.41.68.43,1.21.99,1.82,1.46.77.53,1.29,1.17,1.58,1.97.33.76-.59.44-1.09.29-.4-.12-.86-.24-1.23-.44-.52-.27-.97-.62-1.42-.96-1.45-1.02-2.94-2.01-4.72-2.57-.54-.19-1.11-.37-1.63-.58-.64-.28-.36-.55.16-.63.83-.12,1.99-.09,2.88.05h.02Z"/><path class="cls-1" d="M43.22,37.36c.97.22,1.86.65,2.54,1.29.34.34.73.73.71,1.19-.01.5-.68.63-1.14.46-.82-.27-1.49-1.02-2.29-1.45-.65-.42-1.4-.58-2.19-.74-.23-.04-.46-.1-.66-.2-.64-.35.75-.54,1.04-.57.63-.07,1.39-.09,1.97.02h.02Z"/><path class="cls-1" d="M75.11,31.85l-.03-.03c-1.22-1.44-3.23.82-2.09,2.4,1.21,1.58,3.43-.74,2.12-2.37Z"/><path class="cls-1" d="M19.14,53.3h-.04c-.79-.16-1.25.71-1,1.55.2.9,1.14,1.72,1.83,1.59,1.51-.33.55-2.94-.79-3.14Z"/><path class="cls-1" d="M79.38,39.9l-.02-.02c-.49-.43-1.35-.21-1.8.33-.59.6-.93,1.82-.09,2.28,1.04.62,2.98-1.34,1.92-2.59Z"/><path class="cls-1" d="M81.16,60.11c-.88-1.15-2.88.4-2.29,1.88.27.59,1.16.7,1.73.29.59-.37,1.09-1.42.59-2.13l-.02-.03Z"/><path class="cls-1" d="M14.53,61.19h-.03c-1.1.55-.33,2.75,1.12,2.75,1.64-.2.57-3.21-1.09-2.75Z"/><path class="cls-1" d="M71.79,51.57c.63-.48,1.03-1.87.53-2.61l-.02-.03c-.25-.33-.64-.25-.92,0-.59.48-.99,1.85-.5,2.58.23.34.62.29.9.05Z"/><path class="cls-1" d="M39.96,40.81c.56-.64.64-2.1.12-2.78l-.02-.03c-.29-.36-.72-.23-.97.13-.46.6-.59,1.89-.14,2.62.25.44.71.44,1.02.07Z"/><path class="cls-1" d="M29.67,52.66l-.02-.03c-1.06-.94-2.05,2.01-1.16,2.78,1.06.62,1.86-1.92,1.18-2.75Z"/><path class="cls-1" d="M35.17,37.53c.64-.37,1.02-1.6.61-2.34l-.02-.04c-.82-1.17-2.06.72-1.65,1.87.16.55.65.77,1.06.51Z"/><path class="cls-1" d="M16.52,43.88l-.03.04c-.31.57-.02,1.53.53,2.07.58.65,1.8,1.08,2.08.16.28-.81-.45-1.98-1.32-2.43-.45-.26-1.05-.26-1.27.15Z"/><path class="cls-1" d="M76.31,46.32c.53-.14.74-1.05.35-1.51l-.02-.03c-.39-.55-.99.04-1,.64-.03.48.35.99.67.91Z"/><path class="cls-1" d="M23.77,43.39h-.04c-1.62.15-1.19,2.91.08,4.05.69.69,1.8.94,2.26.19.86-1.34-.54-4.24-2.31-4.24ZM24.83,45.93c-.15.24-.51.16-.73-.06-.41-.37-.55-1.26-.03-1.3h.01c.57,0,1.02.93.74,1.36Z"/><path class="cls-1" d="M81.58,72.59c-2.73,1.53-5.48,5.38-8.57,6.28-.96.31-2.66.39-3.07-.78-.16.44-.35.87-.57,1.29-1.01,1.71-1.52,2.84-1.74,3.61-.18.62-.8.99-1.43.9-1.75-.23-3.92-.3-4.81-.79-.72-.38-1.04-2.61-.52-3.68,2.18-4.45,5.93-13,1.92-12.74-3.07.2-4.3,10.88-5.88,17.2-.23.31-.46.65-.7,1.03-.41.6-.83,1.19-1.48,1.61-1.55,1.07-4.25.46-5.66-.88-1.35-1.15-6.67-9.43-7.37-10.93-.52-1.2-1.73-2.91-3.01-3.1-.84-.18-1.13.51-.99,1.11.11.73.75,1.68,1.32,2.66.67,1.17,5.84,9.06,5.77,10.33-.02,1.11-.89,2.08-2.28,1.86-1.24-.16-2.6-.86-3.74-1.29-1.22-.47-2.4-.74-3.54-1.32h-.03c-1.31-.63-12.18-5.3-13.68-5.77-5.43-1.69-5.52,1.94-2.91,2.58,1.49.36,8.97-.18,15.21,8.75,2.14,3.07,4.93,4.45,9,5.34,6.35,1.26,15.08.88,20.13-2.91.99-.76,3.3-3.08,4.7-5.13,1.07-1.15,2.25-3.07,3.25-3.94,1.04-.92,2.09-1.77,3.28-2.41,3.3-1.68,8.13-3.49,9.44-7.88.5-1.91-1.18-1.5-2.03-.99ZM39.77,74.67c-1.58-2.27-.86-2.42-.19-1.53.67.89,4.56,7.44,4.56,7.44l-4.37-5.91ZM17.93,79.85c.8-.86,3.1-.11,4.48.46,0,0-5.28.4-4.48-.46ZM41.75,90.23c-9.69-5.14-12.91-6.71-12.91-6.71,1.46.47,6.49,2.16,7.77,2.78h.03c1.11.6,2.26.86,3.45,1.34,1.12.43,2.44,1.13,3.65,1.29,1.35.22,2.11-1.09,1.97-2.12-.46-3.45,5.09,8.23-3.97,3.43ZM62.76,68.13c1.46-.1-2.73,7.76-2.73,7.76.21-1.33,1.27-7.67,2.73-7.76ZM65.07,85.62c-3.49-.1-6.48-2.6-4.91-1.94,1.23.51,3.07,1.13,6.1.92s.58,1.08-1.18,1.03ZM82.51,74.05c-1.3,2.11-7.74,4.89-7.74,4.89,1.98-1.42,5.82-4.95,6.32-5.33.5-.37,2.72-1.67,1.42.43Z"/><path class="cls-1" d="M67.77,38.99l-.03-.02c-1.45-.85-3,1.24-2.9,3-.02,1.62,1.49,2.82,2.64,1.97,1.42-.91,1.94-3.96.3-4.95ZM67.14,41.84c-.45.33-1.04-.13-1.03-.77-.04-.69.57-1.5,1.13-1.17h.01c.64.4.44,1.59-.12,1.94Z"/><path class="cls-1" d="M79.22,65.25h-.04c-1.02-.17-2.43.82-3.06,1.89-.55.8-.77,2.28.32,2.48,1.42.3,3.2-1.36,3.57-2.78.23-.74-.09-1.5-.78-1.59ZM78.6,66.79c-.14.53-.81,1.15-1.34,1.04-.4-.07-.32-.63-.12-.93.24-.4.76-.77,1.15-.71h.02c.26.04.38.32.29.6Z"/><path class="cls-1" d="M22.98,74.22c-.28-1.17-1.36-2.21-2.31-2.53l-.08-.03c-1.47-.58-2.67.99-1.72,2.87.43.85,1.17,1.5,1.94,1.81,1.25.6,2.61-.33,2.17-2.13ZM20.87,74.32c-.32-.13-.63-.4-.82-.76-.4-.79.1-1.45.72-1.21h.03c.4.15.85.58.97,1.08.19.76-.39,1.14-.91.89Z"/><path class="cls-1" d="M76.23,49.29c-1.28,1.23-2.3,2.77-3.21,4.34-1.52,2.7-1.4,3.01-2.03,6.2-.28.98,1.33,4.78,1.01,6.64l-.06,3.66c2.37-6.86,9.06-15.63,9.64-19.86.39-5.27-2.78-3.65-5.37-.98ZM79.01,52.79c-1.81,3.41-2.86,3.65-1.98,2.12.88-1.53,2.13-4.04.91-2.71-1.22,1.33-2.81,4.42-2.41,2.5.39-1.92-2.95,3.51-2.95,3.51.26-.64,1.93-4.46,2.41-5.23,1.78-2.8,3.31-4.76,4.4-4.7,1.45.08,1.55.89-.38,4.52Z"/><path class="cls-1" d="M30.95,73.69c.15.63.27,1.26.39,1.92.29,1.55.59,3.16,1.33,4.64.77,1.81,1.72,3.41,2.8,4.81,1.07.5,2.16.77,3.29,1.21,1.15.43,2.5,1.13,3.74,1.29,1.14.18,1.93-.45,2.18-1.3-.07.1-.15.19-.21.28-.32.42-.77.88-1.29.95-.74.13-1.37-.4-1.81-.96-.53-.66-.73-1.33-.78-2.25-.01-.77-.04-1.62.21-2.34.21-.53.68-.9,1.18-.69h.02c.49.22.83.64,1.21,1.03-.78-1.38-1.74-2.93-2.54-4.23-.11-.08-.23-.18-.35-.3-.36-.36-.7-.78-1.04-1.16-.67-.86-1.84-1.43-1.61-2.59.05-.22.14-.41.25-.6-.11-.24-.19-.48-.22-.69-.14-.6.15-1.28.99-1.11.2.03.39.1.58.2.13-.13.26-.25.41-.36.6-.45,1.03-.86,1.75-.9h.02c.8.05,1.39,1.08,2.02,1.63.34.33.69.67,1.03.98.99.84,1.38,1.54.36,2.58-.53.53-1.13.99-1.71,1.47.18.29.37.59.56.9.36-.3.74-.56,1.1-.82.91-.63,1.75-1.33,2.92-1.11h.02c1.18.21,3.35,2.02,3.73,3.13.28.9-.66,1.44-1.24,1.98-.74.66-1.52,1.32-2.34,1.91-.21.14-.4.23-.6.28.37.51.71.97,1.01,1.34.1-.46.46-.83.84-1.18.79-.7,1.63-1.34,2.51-1.95.64-.42,1.27-.96,1.96-.63h.02c.52.24.89.81,1.35,1.18.5.41,1.12.71,1.3,1.2.28.9-.7,1.57-1.27,2.12-.56.48-1.18,1-1.74,1.47.53-.06,1.02-.22,1.44-.51.64-.41,1.06-1.01,1.48-1.61.24-.38.47-.72.7-1.03.12-.48.24-.99.36-1.52-.14-.02-.28-.05-.42-.11-.71-.45-1.3-1.15-1.87-1.75-.79-.84.21-1.77.83-2.35.64-.61,1.41-1.23,2.03-1.85.3-.29.58-.64.9-.9.23-1.06.48-2.09.74-3.06-.23-.02-.48-.13-.73-.33-.82-.53-1.53-1.11-2.27-1.77-.49-.42-1.33-.91-1.01-1.66.25-.6.71-1.11,1.17-1.58.43-.46,1.11-.66,1.7-.55h.02c.87.17,1.55.83,2.25,1.32.15.11.32.22.48.32.17-.29.35-.54.54-.74-.37-.27-.74-.56-1.11-.8-1.04-.68-1.7-1.43-.82-2.59.27-.35.58-.68.87-1.01.33-.34.75-.8,1.27-.58h.02c.38.17.79.52,1.12.8.41.36.82.64,1.17,1.03.36.4.75.78.71,1.34,0,.63-.41,1.11-.76,1.61.63.69.57,2.11.15,3.83.5.39.88.95,1.25,1.44.9,1.34-.04,2.46-.99,3.44-.74.7-1.33.87-2.04.16-.17.4-.34.79-.52,1.17.5,1.08-.45,1.83-1.24,2.64-.44.92-1.05,2.63-1.01,2.64.15-.15.29-.31.42-.46.54-.54,2.07-2.86,2.89-2.25h.01c.24.19.36.65.4.98.05.41.11.82.05,1.23-.09.62-.44,1.07-.84,1.5,1.3.23,3.12.3,4.44.57.19-.28.37-.56.54-.85.19-.76.69-1.94,1.79-3.81.1-.19.17-.39.26-.59.39-1.12.66-2.28.9-3.47.64-2.24.58-4.85.53-7.16,0-.36-.02-.71-.02-1.05-.05-.82-.2-1.54-.35-2.24-.07-.31-.13-.62-.19-.94-.26-1.52-.54-3.01-1.13-4.35l-.05-.15c-.36-1.11-.77-2.36-1.36-3.45-.77-1.88-1.72-3.64-2.84-5.22-1.25-1.93-2.96-3.65-4.93-4.96-.66-.49-1.42-.88-2.15-1.26l-.21-.11c-.86-.49-1.82-.96-2.88-1.04-.15-.01-.28-.02-.41-.02-.59,0-1.15.11-1.65.33-.17.07-.36.17-.54.27-.2.1-.46.25-.58.26h-.05c-.07,0-.26-.13-.38-.22-.14-.1-.29-.21-.47-.3l-.04-.02-.05-.02c-.66-.23-1.39-.26-1.96-.26-.25,0-.51,0-.76.01-.23,0-.45.01-.66.01-.1,0-.2,0-.3,0-1.47.02-2.81.39-4.28,1.14l-.04.02-.04.03c-.23.16-.46.3-.68.45-.48.31-.99.64-1.5,1.07-.75.62-1.41,1.38-2.05,2.12-.2.23-.39.46-.59.67-1.55,1.81-2.89,3.91-4.11,6.45-.2.42-.37.85-.53,1.27-.12.32-.24.64-.38.94-.29.62-.6,1.27-.83,2.13-.34,1.4-.65,2.77-.84,4.22-.05.37-.14.74-.23,1.14l-.07.28c-.22.85-.23,1.89-.24,2.89,0,.19,0,.38,0,.56.01.47,0,.91,0,1.36-.01,1.15-.02,2.35.23,3.5ZM32.95,74.43c-.03-.84-.05-1.7.27-2.39.18-.35.42-.79.82-.59h.01c.38.23.55.69.81,1.1.08.14.16.27.22.41.33.76.36,1.65.13,2.45-.14.43-.35.75-.57,1.13-.33.56-.66.74-1.01.05-.2-.42-.45-.82-.57-1.27-.08-.28-.11-.59-.13-.88ZM33.34,79.92s-.02-.06-.04-.09c.01.03.02.06.04.09.33.78.71,1.55,1.14,2.29-.42-.74-.8-1.51-1.14-2.29ZM38.78,85.65c-.35-.22-.69-.53-.96-.85-.18-.26-2.03-2.35-1.53-2.39h.01c.49.07,1.12.67,1.57,1.02.48.44.84,1.01,1.12,1.55.14.27.35,1.01-.2.66ZM38.16,76.92c.36.37.8.74,1.18,1.1.53.53.99,1,.93,1.69-.02.36-.1.68-.23,1.03-.26.66-.5,1.32-.85,1.91-.59.9-1.19-.24-1.68-.69-.49-.54-1.05-1.21-1.52-1.69-.3-.32-.56-.63-.67-1.07-.19-.85-.17-1.9.29-2.68.31-.51.88-.86,1.43-.59h.02c.38.18.76.64,1.11,1ZM39.6,70.25c-.43.48-.97.82-1.41,1.26-.24.25-.48.51-.74.74-.63.63-1.33.56-1.92-.08-1.21-1.48-1.12-3.13.15-4.54.58-.69,1.7-1.85,2.63-1.44h.02c1.04.49,1.88,1.89,1.9,3.02-.03.41-.35.74-.63,1.03ZM42.2,48.74c.68-.42,1.55-1.27,2.36-1.1h.02c.61.2,1.07.94,1.46,1.44.61.82.16,1.51-.57,2.02-.44.37-.93.68-1.41,1.01-.53.43-1.2.24-1.6-.3-.34-.44-.63-.91-.85-1.41-.37-.67.01-1.24.6-1.66ZM54.32,56.42c.83.63.54,1.27-.21,1.81-.6.47-1.13,1.16-1.81,1.49-.81.39-1.64-.23-2.33-.65-1-.71-2.65-2.03-1.05-3.05,1.18-.71,2.17-1.22,3.58-.79h.02c.65.27,1.23.75,1.79,1.18ZM52.96,53.25c.34-.55.91-.97,1.4-1.38.43-.35.89-.58,1.4-.43h.02c.59.2,1.2.73,1.69,1.21.91.97.13,1.85-.62,2.59-.69.7-1.14.9-2.03.28-.6-.44-2.35-1.35-1.87-2.26ZM49.75,62.42c-.81.53-1.84.88-2.74.38-.44-.24-.77-.56-1.19-.89-.65-.63-2.02-1.44-1.42-2.49.2-.35.62-.6,1-.82.43-.24.88-.36,1.34-.3h.02c.76.11,1.33.61,1.97,1.04.42.29.88.6,1.29.94,1,.79.78,1.57-.28,2.14ZM49.48,54.59c-.67.5-1.31.95-2.08,1.24-1.11.36-2.55-.78-3.08-1.71-.43-.81.52-1.45,1.11-1.9.69-.48,1.48-.98,2.36-.78h.02c.76.21,1.46.89,2.01,1.47.58.57.28,1.23-.34,1.68ZM42.97,54.72h.02c.69.31,1.28,1.01,1.88,1.53.89.77.55,1.42-.34,1.98-.58.46-1.39.81-2.05.29-.36-.25-.69-.59-.97-.93-.37-.42-.65-.89-.62-1.44,0-.98,1.16-1.8,2.07-1.43ZM41.46,59.03c.29.73,0,1.25-.53,1.71-.59.57-1.46,1.32-2.07,1.91-.51.5-1.02.79-1.5.12-.28-.43-.56-.94-.78-1.42-.32-.65-.45-1.43.03-2.04.23-.32.55-.59.86-.84.74-.6,1.61-1.19,2.59-.95h.02c.69.2,1.14.87,1.38,1.52ZM40.59,67.36c-1.25-1.47-2.82-2.86-.58-4.32.45-.34.89-.72,1.33-1.07.53-.5,1.22-1.06,1.91-.8h.02c.42.18.77.57,1.09.89.33.33.7.63,1.03.97.46.51,1.18.99.97,1.72-.3.66-1,1.02-1.58,1.45-.59.42-1.25.86-1.81,1.29-.86.69-1.58.72-2.37-.13ZM47.77,73.28c-.69.52-1.45,0-1.98-.5-.48-.4-1.07-.84-1.54-1.24-.58-.43-1.08-1.13-1.2-1.79-.16-1.03,1.05-1.77,1.75-2.32,1.27-.8,2.47-2.26,4.12-1.55h.02c.41.16.76.41,1.08.7.34.31.71.56,1.06.85.64.53,1.89,1.15,1.31,2.14-.21.37-.69.66-1.05.96-.42.35-.89.62-1.3.98-.41.38-.89.68-1.32,1.06-.29.26-.63.5-.95.7ZM55.68,70.95c.84.56,1.65,1.19,2.28,1.97.85.92.01,1.39-.6,2.06-.4.44-.8.91-1.25,1.33-.51.48-1.11.88-1.59,1.3-1.03.99-1.55,1.06-2.72.23-.75-.47-1.56-.81-2.23-1.42-.45-.43-.95-1.05-.98-1.62-.01-1.19,1.47-1.89,2.28-2.52.25-.17.51-.33.75-.51.8-.58,1.57-1.46,2.62-1.47h.02c.54,0,.97.37,1.41.65ZM55.49,66.87c-.24.26-.49.56-.78.77-.8.65-1.49.17-2.19-.37-.61-.49-1.21-.97-1.84-1.44-1.24-.81-1.67-1.65-.5-2.81.55-.47,1.17-1.14,1.96-.97h.02c.75.2,1.3.84,1.99,1.24.35.23.66.5,1,.71.49.33,1.08.71,1.21,1.31.09.61-.47,1.13-.87,1.57ZM58.48,63.61c-.51.6-.97.76-1.61.32-1.07-.77-2.66-1.52-3.18-2.79-.28-.76-.06-1.64.55-2.16.55-.44,1.27-.94,1.98-.78h.02c.44.1.82.43,1.19.67.59.43,1.2.83,1.78,1.29,1.79,1.32.28,2.31-.74,3.45ZM61.01,59.95c-.81-.05-1.46-.73-2.05-1.25-.61-.59-1.48-1.26-1.52-2.16.03-1.08,1.18-2.23,2.29-1.85h.02c.38.11.71.33,1.01.58.6.46,1.23.95,1.71,1.53.27.34.43.8.38,1.23-.06.38-.31.72-.61,1.08-.31.38-.74.83-1.24.83ZM64.76,63.29c-.88-.73-2.53-1.76-2.11-3.07.27-.7.66-1.75,1.57-1.7h.02c.54.06.93.5,1.38.9.76.64,1.04,1.56.88,2.53-.07.99-.79,2.04-1.73,1.34ZM65.08,70.25c-.55-.86-.7-2.06-.1-2.93.32-.55.97-1.02,1.62-.78h.02c.94.35,1.33,1.43,1.66,2.31.26.62.26,1.24-.02,1.87-.93,2.02-2.33.89-3.18-.47ZM68.74,72.07h.01c.41.3.38,1.25.29,1.75-.06.36-.19,1.77-.73,1.47-.32-.25-.39-.64-.44-1.07-.08-.57.05-1.16.28-1.65.13-.23.3-.54.59-.5ZM64.42,79.7c-.22-1.17-.15-2.54.74-3.44.36-.4.99-1.34,1.6-.99h.01c.45.35.46,1.05.5,1.59.01.45-.04.9-.16,1.33-.15.56-.52,1.04-.85,1.56-.74,1.18-1.53,1.73-1.85-.06ZM70.36,70.81c.02-1.27-.03-2.54-.04-3.69.02,1.15.07,2.41.04,3.69ZM69.47,76.75c-.28,1.16-.63,2.31-1.17,3.37-.56,1.32-1.2,2.62-2.04,3.79.84-1.16,1.48-2.47,2.04-3.79.55-1.06.89-2.21,1.17-3.37ZM67.8,62.63c.25.18.4.54.53.82.34.69.55,1.36.55,2.15,0,.36.01.79-.04,1.13-.03.17-.08.27-.15.31h-.01c-.06.03-.14.01-.23-.04-.25-.17-.5-.41-.71-.65-.61-.74-1.13-1.66-.93-2.64.09-.51.43-1.44.99-1.09ZM64.6,56.38c.12-.35.4-1.2.86-1.11h.01c.44.19.64.67.88,1.1.3.51.43,1.08.56,1.65.68,2.58-1.82-.09-2.22-.77-.14-.26-.17-.58-.09-.87ZM62.09,50.58h.02c.61.2.93.8,1.33,1.25.59.72,1.18,1.52,1.02,2.51-.17,1.33-.96,2.12-2.12,1.09-.68-.59-1.98-1.49-2.1-2.43-.03-.37.07-.67.24-1.03.26-.61.81-1.62,1.6-1.39ZM58.6,47.18h.02c.45.09.81.43,1.21.65,1.5.9.69,2.66-.11,3.77-.31.47-.76.89-1.32.62-.44-.23-.89-.57-1.31-.9-.81-.65-.78-1.27-.2-2.01.31-.42.56-.92.78-1.38.18-.4.51-.84.93-.75ZM54.55,44.13c.11,0,.22,0,.33.01-.12,0-.24-.01-.36-.01.01,0,.02,0,.03,0ZM55.36,45.24h.02c.64.15,1.43.79,1.57,1.43.05.35-.08.58-.29.97-.61,1.17-1.5,1.93-2.68.9-.53-.47-1.27-1.01-1.26-1.75.14-1.14,1.56-1.87,2.63-1.55ZM51.58,47.92h.02c.6.12,1.18.73,1.67,1.12,1.27,1.19.73,2.09-.51,3-.9.7-1.44.87-2.39.17-.82-.59-1.93-1.59-1.08-2.63.29-.38.64-.73.99-1.03.43-.36.77-.73,1.3-.63ZM47.22,45.54c.69-.27,1.59-.53,2.28-.25h.02c.63.28,1.02,1,.75,1.63-.23.51-.78,1.03-1.19,1.44-.99,1-1.98.81-2.8-.25-.84-1.14-.3-2.09.93-2.56ZM46.04,44.28c-1.01.15-1.95.5-2.87.97.92-.48,1.86-.82,2.87-.97ZM38.35,52.35c.08-.71,1.16-2.01,1.97-1.84h.02c.67.18.94.93,1.22,1.5.16.33.33.67.34,1.03-.01.58-.7,1.25-1.12,1.61-.82.64-1.73.25-2.11-.64-.22-.54-.39-1.09-.32-1.67ZM35.33,57.46c.04-.56.21-1.08.4-1.59.14-.41.38-.77.59-1.22.19-.39.53-1.09,1.05-.88h.02c.33.19.6.71.77,1.08.38.67.19,1.51-.39,2.03-.36.39-.87.73-1.37.97-.33.16-.65.49-.97.32-.18-.16-.1-.46-.1-.7ZM33.48,62.97c.34-.67.83-2.03,1.77-1.87h.02c1.17.44,1.2,2.52,1,3.57-.21.82-.69,1.44-1.2,2.08-.23.29-.41.6-.66.86-.26.3-.56.48-.83.09-.24-.4-.37-1.03-.5-1.51-.17-1.07.03-2.2.39-3.22ZM33.16,58.88c-.13.33-.25.66-.36,1.05.1-.39.22-.72.36-1.05ZM31.67,73.53c.32,1.33.5,2.72.84,4.06-.34-1.34-.52-2.73-.84-4.06ZM31.67,65.55c.06-.25.12-.49.18-.74-.06.25-.12.5-.18.74-.06.23-.1.49-.13.76.03-.27.07-.52.13-.76Z"/><path class="cls-1" d="M34.63,84.86c-1.69-1.95-2.96-4.26-3.85-6.66-.72-1.63-.93-3.41-1.17-5.17-2.44-2.16-3.74-7.71-5.43-10.16-1.13-1.81-2.78-3.79-4.71-3.83-1.35.14-1.43,1.61-.85,3.11.99,2.42,2.84,4.22,4.49,5.98,5.26,5.63,7.11,12.01,8.11,15.7l3.41,1.03ZM20.36,60.9c1.75.08,2.81,1.97,4.24,4.81,0,0-5.99-4.9-4.24-4.81Z"/></svg>