<?xml version="1.0" encoding="UTF-8"?>
<svg id="Layer_2" data-name="Layer 2" xmlns="http://www.w3.org/2000/svg" viewBox="0 0 50 69">
  <defs>
    <style>
      .cls-1 {
        fill: none;
      }

      .cls-2 {
        fill: #573100;
      }
    </style>
  </defs>
  <g id="Design">
    <g>
      <rect class="cls-1" width="50" height="69"/>
      <g>
        <path class="cls-2" d="M15.09,52.33h-2.41c-.9-2.63-3.44-4.5-6.39-4.4C2.77,48.06.03,51.07.03,54.6v.11h6.7l1.32,11.63-.32.34.3.35-.87,1.55c-.08.2.06.42.28.42h7.31c.22,0,.36-.22.28-.42l-.87-1.56.26-.36-.28-.3,1.52-13.39c.04-.34-.23-.64-.57-.64ZM7.1,52.33c-.11,0-.21.03-.3.09l.04-3.04c.06-.24.29-.41.55-.37.37.06.72.15,1.06.28.23.09.36.33.32.56l-1.43,2.48h-.25ZM8.02,52.33l1.21-2.1c.16-.22.48-.28.7-.1.31.25.6.53.85.84.15.18.14.44,0,.62l-1.28.75h-1.49ZM10.64,52.33l.29-.17c.24-.13.53-.05.67.17h-.96ZM1.15,53.61c.06-.39.16-.77.3-1.12.11-.28.43-.41.7-.28l3.29,1.93H1.45c-.2-.09-.34-.3-.31-.53ZM2.3,51.64c-.14-.18-.16-.43,0-.62.25-.31.53-.6.84-.85.21-.17.51-.13.68.06l1.92,3.42-3.44-2.02ZM4.28,49.88c-.04-.23.07-.47.3-.56.36-.14.73-.24,1.12-.31.25-.04.48.12.55.36l-.05,3.92-1.92-3.41ZM13.28,63.65c-.07.58-.56,1.02-1.15,1.02h-2.06c-.59,0-1.08-.44-1.15-1.02l-.97-8.53h.74l.97,8.53-.4-8.53h4.99l-.97,8.53Z"/>
        <path class="cls-2" d="M44.33,52.33h-7.99c-.34,0-.61.3-.57.64l1.52,13.38-.27.07.25.71-.87,1.46c-.08.2.06.42.28.42h7.31c.22,0,.36-.22.28-.42l-.87-1.47.2-.7-.22-.05,1.52-13.39c.04-.34-.23-.64-.57-.64ZM42.64,64.12c-.07.62-.59,1.08-1.21,1.08h-2.18c-.62,0-1.14-.47-1.21-1.08l-1.02-9h.78l1.02,9-.42-9h5.26l-1.02,9Z"/>
        <path class="cls-2" d="M40.53,40.87l9.44-28.21-1.18.62c-7.79,4.13-14.41,4.12-20.07,3.17v-8.02c0-.54-.43-.97-.97-.97h-3.98c-.54,0-.97.43-.97.97v6.73c-2.97-.72-5.54-1.34-7.92-1.26-2.1.07-2.56,1.26-3.13,2.77-.06.15-.12.31-.19.48L1.14,39.78l1.19-.43c5.27-1.88,9.69-.11,14.36,1.76.14.06.28.11.42.17v25.47c0,1.23,1,2.23,2.23,2.23h12.84c1.23,0,2.24-1,2.24-2.23v-23.41c1.85-.5,3.82-1.27,5.93-2.38l.19-.1ZM23.83,8.81c0-.18.14-.32.32-.32h3.33c.18,0,.32.14.32.32v8.59h-3.97v-8.59ZM17.11,33.42v6.72s-.01,0-.02,0c-1.21-.48-2.4-.96-3.59-1.37l9.3-22.25v8.37c0,.84-.5,1.59-1.28,1.92h0c-2.67,1.11-4.41,3.73-4.41,6.62ZM23.28,64.86h-4.14v-1.87h4.14v1.87ZM19.72,38.47c0-3.29,2.67-5.96,5.96-5.96s5.96,2.67,5.96,5.96-2.67,5.96-5.96,5.96-5.96-2.67-5.96-5.96ZM32.39,64.86h-4.4v-1.87h4.4v1.87ZM32.61,28.66c-.7-.79-1.59-1.44-2.61-1.86-.77-.32-1.28-1.08-1.28-1.92v-7.34c2.43.4,5.04.63,7.84.45l-3.96,10.68Z"/>
      </g>
    </g>
  </g>
</svg>