<?xml version="1.0" encoding="UTF-8"?>
<svg id="Layer_2" data-name="Layer 2" xmlns="http://www.w3.org/2000/svg" viewBox="0 0 72 99.36">
  <defs>
    <style>
      .cls-1 {
        fill: none;
      }

      .cls-2 {
        fill: #573100;
      }
    </style>
  </defs>
  <g id="Design">
    <g>
      <rect class="cls-1" width="72" height="99.36"/>
      <g>
        <path class="cls-2" d="M21.73,75.35h-3.47c-1.3-3.78-4.95-6.48-9.2-6.33C3.98,69.2.04,73.54.04,78.63v.17h9.65l1.9,16.74-.46.48.43.5-1.25,2.23c-.12.29.09.6.4.6h10.53c.31,0,.52-.32.4-.6l-1.26-2.25.38-.52-.4-.43,2.19-19.28c.06-.49-.33-.92-.83-.92ZM10.23,75.35c-.16,0-.3.05-.43.12l.06-4.37c.09-.34.42-.59.79-.53.54.08,1.04.22,1.53.41.34.13.52.47.46.8l-2.06,3.57h-.36ZM11.54,75.35l1.75-3.02c.24-.32.7-.4,1.01-.15.45.36.86.76,1.23,1.21.22.26.2.63,0,.89l-1.84,1.08h-2.15ZM15.33,75.35l.42-.25c.34-.19.77-.08.96.25h-1.38ZM1.65,77.2c.09-.56.23-1.1.43-1.62.16-.41.62-.59,1-.4l4.74,2.78H2.09c-.29-.12-.49-.43-.44-.76ZM3.31,74.36c-.2-.25-.22-.62-.01-.89.36-.45.76-.86,1.21-1.23.3-.25.73-.19.98.09l2.77,4.93-4.95-2.91ZM6.16,71.83c-.06-.33.1-.68.43-.8.52-.2,1.06-.35,1.62-.44.36-.06.69.18.79.51l-.08,5.65-2.76-4.91ZM19.12,91.66c-.1.84-.81,1.48-1.65,1.48h-2.97c-.85,0-1.56-.64-1.65-1.48l-1.4-12.29h1.07l1.4,12.29-.58-12.29h7.18l-1.4,12.29Z"/>
        <path class="cls-2" d="M63.84,75.35h-11.5c-.5,0-.88.43-.83.92l2.19,19.26-.39.1.36,1.02-1.25,2.1c-.12.29.09.6.4.6h10.53c.31,0,.52-.32.4-.6l-1.26-2.11.29-1.01-.31-.08,2.19-19.28c.06-.49-.33-.92-.83-.92ZM61.4,92.34c-.1.89-.85,1.56-1.74,1.56h-3.14c-.89,0-1.64-.67-1.74-1.56l-1.47-12.96h1.13l1.47,12.96-.61-12.96h7.58l-1.47,12.96Z"/>
        <path class="cls-2" d="M58.37,58.85l13.59-40.62-1.7.9c-11.22,5.94-20.75,5.93-28.9,4.56v-11.55c0-.77-.63-1.4-1.4-1.4h-5.73c-.77,0-1.4.63-1.4,1.4v9.69c-4.27-1.04-7.98-1.93-11.4-1.82-3.03.11-3.68,1.82-4.51,3.99-.08.22-.17.45-.27.69L1.64,57.29l1.72-.61c7.59-2.7,13.95-.16,20.68,2.54.2.08.4.16.6.24v36.68c0,1.78,1.44,3.22,3.22,3.22h18.49c1.78,0,3.22-1.44,3.22-3.22v-33.71c2.67-.72,5.5-1.83,8.53-3.43l.27-.14ZM34.32,12.69c0-.26.21-.46.46-.46h4.8c.25,0,.46.21.46.46v12.37h-5.72v-12.37ZM24.64,48.12v9.68s-.02,0-.03-.01c-1.74-.7-3.45-1.38-5.17-1.97l13.4-32.04v12.05c0,1.21-.73,2.29-1.84,2.76h0c-3.85,1.6-6.36,5.36-6.36,9.53ZM33.52,93.39h-5.96v-2.69h5.96v2.69ZM28.39,55.39c0-4.74,3.84-8.59,8.59-8.59s8.59,3.84,8.59,8.59-3.84,8.59-8.59,8.59-8.59-3.84-8.59-8.59ZM46.64,93.39h-6.34v-2.69h6.34v2.69ZM46.96,41.27c-1.01-1.14-2.29-2.07-3.75-2.68-1.11-.46-1.84-1.55-1.84-2.76v-10.58c3.5.58,7.26.91,11.29.64l-5.7,15.38Z"/>
      </g>
    </g>
  </g>
</svg>