<?xml version="1.0" encoding="UTF-8"?>
<svg id="Layer_2" data-name="Layer 2" xmlns="http://www.w3.org/2000/svg" viewBox="0 0 72 99.36">
  <defs>
    <style>
      .cls-1 {
        fill: none;
      }

      .cls-2 {
        fill: #573100;
      }
    </style>
  </defs>
  <g id="Design">
    <g>
      <rect class="cls-1" width="72" height="99.36"/>
      <g>
        <g>
          <path class="cls-2" d="M33.52,30.72c-.2,0-.32-.16-.47-.28-.3-.29-.57-.59-.86-.93-1.2-1.26-1.69-2.72-2.44-4.19-.82-1.45-1.71-2.9-2.82-4.21-.62-.82-1.21-1.58-2.02-2.28-1.18-1.16.1-.69.86-.3.98.48,1.86,1.07,2.68,1.72,1.23,1.04,2.59,2.08,3.66,3.23,1,.98.96-.04.76-.74-.18-.92-.28-1.91-.69-2.77-.39-1.07-.85-2.11-1.31-3.17-.21-.57-.44-1.12-.77-1.64-.42-.65-.75-1.48-1.09-2.12-.21-.47-.87-1.02-.81-1.53.29-.23,1,.43,1.28.59.9.53,1.55,1.23,2.23,1.92.44.41.93.82,1.31,1.26.38.44.81.9,1.16,1.36.2.25.82,1.08,1.02.42.13-.57.17-1.19.33-1.76.15-.6.1-1.26.24-1.89.16-.68.28-1.36.41-2.04.03-.32.88-2.36,1.03-1.35.15,1.16.33,2.32.77,3.43.33,1.3.82,2.53,1.29,3.78.55,2.09,1.48.06,2.18-.69.77-1.16,1.92-2.11,3.06-3.01.27-.22,1.89-1.52,1.79-.78-.23.57-.72,1.06-1.04,1.6-.71,1.36-1.4,2.75-1.96,4.18-.49,1.37-.96,2.81-1.3,4.22-.17,1.17.57.75,1.13.12.98-.83,1.67-1.88,2.77-2.62.89-.56,1.69-1.18,2.58-1.68.36-.26,3.81-2,2.53-.65-2.11,1.95-3.85,4.16-5.28,6.5-.61.86-.96,1.83-1.51,2.72-.66,1.25-1.54,2.41-2.45,3.53-.35.41-.66.83-.9,1.29-.39.74-.71,2.57-2.08,1.97-.36-.27-.42-.74-.54-1.13-.1-.42-.29-.83-.53-1.2-.82-1.28-1.88-2.5-3.24-3.43-.87-.56-.82,0-.77.59-.03.52.16,1.63-.18,1.94h0Z"/>
          <path class="cls-2" d="M34.89,30.9c.37-.05,1.04.75,1.24.99.88,1.09,1.54,2.34,1.91,3.62.17.62-.16,1.12-.6,1.6-.34.42-.62.85-.89,1.3-.25.41-.4.9-.55,1.34-.08.21-.18.43-.41.53-.52.16-1.04-.44-1.37-.73-.62-.56-1-1.1-1.33-1.77-.56-1.1-1.26-2.1-2.02-3.12-.39-.6-.85-1.12-1.31-1.69-.49-.57-1.06-1.1-1.6-1.65-1.09-1.07-2.3-2.11-3.67-2.91-.79-.53-1.59-1.02-2.51-1.39-.38-.22-.96-.4-1.11-.75-.13-.32.94-.14,1.15-.13.92.09,1.96.35,2.76.67.92.33,1.73.77,2.58,1.28.53.29,1.04.57,1.53.91.8.48,1.54,1,2.26,1.57.97.75,1.81,1.7,2.85,2.38.8.44.82-.61.86-1.07.04-.28-.09-.83.2-.98h0Z"/>
          <path class="cls-2" d="M53.26,27.22c.04.27-.97.63-1.25.85-.87.53-1.64,1.13-2.34,1.81-.57.5-1.12.91-1.55,1.49-.15.2-.3.4-.48.58-1.35,1.46-2.48,3.03-3.87,4.47-.46.48-.86.99-1.39,1.42-.79.64-1.86,1.16-2.52,1.93-.32.35-.45.76-.67,1.15-.17.28-.3.58-.41.88-.3.67-.2,1.5-.74,2.07-.3.31-.84.21-1.04-.13-.68-.92-.62-2.38-.39-3.44.16-.46.44-1.03.75-1.48.66-.88,1.66-1.59,2.63-2.22.81-.72,1.23-1.66,1.58-2.59.89-2.14,3.59-4.18,5.85-5.31,1.27-.61,2.61-1.04,4.02-1.32.49-.06.89-.14,1.35-.2.26-.03.44-.02.48.03h0Z"/>
          <path class="cls-2" d="M43.14,45.38c-.83-.41.47-1.77-.47-1.26-.49.29-.95.72-1.45.93-.58.24-1.39.32-1.94-.01-.42-.34.09-.81.33-1.17.18-.27.27-.57.31-.89.07-.46.11-.94.28-1.38.41-.94,1.13-1.76,2.03-2.42.58-.45,1.15-.89,1.77-1.29.48-.27.99-.57,1.44-.83,1.18-.66,2.38-1.31,3.81-1.51.83-.18,1.65-.39,2.5-.13.29.07.56.14.82.23.09.03.2.07.18.15-.03.07-.1.09-.19.12-.13.04-.32.08-.47.12-.97.24-1.96.49-2.85.94-.86.4-1.62.96-2.28,1.59-.91.78-1.79,1.5-2.3,2.54-.07.21-.34.56-.14.72.41.16,1.1-.29,1.55-.37.58-.13,1.14-.1,1.78-.1.53,0,1.47.09,1.63.54.07.37-.76.43-1.06.51-.36.07-.68.2-1.07.35-.69.21-1.33.49-1.86.87-.27.2-.59.45-.72.73-.1.3.34.42.62.53.21.07,1.03.33.58.53-.48.12-1.17.08-1.81.1-.34,0-.72,0-1.02-.13h-.01Z"/>
          <path class="cls-2" d="M38.3,45.36c.43.08.85.21,1.28.31.74.15,1.38.22,2.07.37.72.18,2,.08,2.66.4.56.37-.04.81-.61.94-.36.09-.84.08-1.24.08-3.23-.11-6.72.47-9.85-.01-.39-.07-.79-.21-1.12-.35-.14-.06-.36-.18-.39-.26-.1-.23.64-.33.89-.4,1.08-.22,2.02-.59,3.09-.86.99-.26,2.2-.4,3.21-.22h.02Z"/>
          <path class="cls-2" d="M31.36,39.94c2.36.15,4.59,1.34,5.06,3.4.09.4.16.84-.12,1.17-.61.62-1.48.08-1.85-.48-.48-.6-1.04-1.24-1.72-1.67-.5-.32-1.03-.6-1.56-.87-1.16-.46-2.49-.59-3.77-.53-.42,0-.98.16-1.3.04-.11-.06-.08-.14,0-.26.27-.33.73-.54,1.15-.69.32-.13.81-.18,1.25-.19.91-.02,1.92-.01,2.83.09h.02Z"/>
          <path class="cls-2" d="M25.81,34.24c1.27.23,2.43.69,3.48,1.35.65.41,1.16.95,1.75,1.4.73.51,1.24,1.12,1.51,1.89.32.73-.56.43-1.05.28-.38-.12-.82-.23-1.18-.43-.5-.26-.93-.6-1.36-.92-1.39-.98-2.82-1.93-4.52-2.46-.52-.19-1.07-.35-1.57-.56-.61-.27-.34-.52.15-.6.79-.12,1.91-.09,2.76.05h.02Z"/>
          <path class="cls-2" d="M30.62,42.68c.93.21,1.78.63,2.44,1.23.33.33.7.7.68,1.14-.01.48-.65.61-1.09.44-.79-.26-1.43-.98-2.2-1.39-.63-.4-1.34-.55-2.1-.71-.22-.04-.44-.09-.63-.19-.61-.33.72-.52,1-.55.61-.07,1.33-.08,1.89.02h.02Z"/>
        </g>
        <path class="cls-2" d="M61.17,37.39l-.03-.03c-1.17-1.38-3.1.78-2.01,2.3,1.16,1.51,3.29-.71,2.03-2.27Z"/>
        <path class="cls-2" d="M7.54,57.95h-.04c-.75-.15-1.2.68-.96,1.49.2.86,1.1,1.65,1.76,1.52,1.45-.32.53-2.82-.76-3.01Z"/>
        <path class="cls-2" d="M65.27,45.12l-.02-.02c-.47-.41-1.3-.2-1.73.31-.57.57-.89,1.75-.09,2.19,1,.6,2.85-1.29,1.84-2.48Z"/>
        <path class="cls-2" d="M66.97,64.48c-.84-1.1-2.76.38-2.2,1.8.26.57,1.12.67,1.65.28.57-.35,1.04-1.36.57-2.04l-.02-.03Z"/>
        <path class="cls-2" d="M3.12,65.52h-.03c-1.05.52-.31,2.64,1.07,2.63,1.57-.2.54-3.07-1.04-2.63Z"/>
        <path class="cls-2" d="M57.99,56.3c.6-.46.99-1.79.51-2.5l-.02-.03c-.24-.31-.61-.24-.88,0-.57.46-.95,1.77-.48,2.48.22.33.59.28.86.05Z"/>
        <path class="cls-2" d="M27.5,45.99c.54-.62.61-2.02.11-2.67l-.02-.03c-.28-.35-.69-.22-.93.12-.44.58-.57,1.81-.14,2.51.24.42.68.42.97.06Z"/>
        <path class="cls-2" d="M17.64,57.34l-.02-.03c-1.02-.9-1.96,1.93-1.11,2.66,1.01.59,1.78-1.84,1.13-2.64Z"/>
        <path class="cls-2" d="M22.9,42.84c.61-.36.97-1.54.59-2.25l-.02-.03c-.79-1.12-1.98.69-1.58,1.8.15.53.62.74,1.02.49Z"/>
        <path class="cls-2" d="M5.03,48.93l-.02.04c-.3.54-.02,1.46.51,1.99.55.63,1.72,1.04,2,.15.27-.77-.43-1.89-1.26-2.33-.43-.25-1.01-.25-1.22.15Z"/>
        <path class="cls-2" d="M62.33,51.27c.51-.13.71-1,.33-1.45l-.02-.03c-.38-.52-.95.04-.96.61-.03.46.34.95.65.87Z"/>
        <path class="cls-2" d="M11.98,48.46h-.03c-1.55.14-1.14,2.79.08,3.88.66.66,1.72.9,2.17.18.83-1.28-.52-4.06-2.21-4.06ZM12.99,50.89c-.14.23-.48.15-.7-.06-.39-.35-.52-1.2-.02-1.25h.01c.54,0,.98.89.71,1.31Z"/>
        <path class="cls-2" d="M67.38,76.44c-2.62,1.47-5.25,5.15-8.21,6.02-.92.3-2.55.38-2.94-.74-.16.42-.34.83-.54,1.23-.97,1.64-1.46,2.72-1.67,3.46-.17.59-.77.95-1.37.87-1.68-.22-3.75-.28-4.61-.75-.69-.37-1-2.5-.5-3.53,2.09-4.26,5.69-12.46,1.84-12.21-2.94.19-4.12,10.43-5.63,16.48-.22.29-.44.62-.67.98-.39.58-.8,1.14-1.41,1.54-1.48,1.02-4.08.44-5.43-.84-1.29-1.1-6.39-9.04-7.07-10.47-.5-1.15-1.66-2.79-2.89-2.97-.81-.17-1.08.49-.95,1.06.11.7.72,1.61,1.26,2.55.64,1.12,5.6,8.68,5.53,9.9-.02,1.06-.85,1.99-2.18,1.78-1.19-.15-2.49-.82-3.59-1.23-1.17-.45-2.3-.71-3.39-1.27h-.03c-1.26-.61-11.68-5.08-13.11-5.53-5.2-1.62-5.29,1.86-2.79,2.47,1.43.35,8.59-.17,14.58,8.39,2.05,2.94,4.73,4.27,8.62,5.11,6.08,1.21,14.45.84,19.29-2.79.95-.72,3.16-2.95,4.5-4.92,1.03-1.1,2.15-2.94,3.11-3.77,1-.88,2.01-1.7,3.15-2.31,3.16-1.61,7.79-3.34,9.04-7.55.48-1.83-1.13-1.43-1.94-.95ZM27.31,78.44c-1.51-2.18-.83-2.32-.19-1.47.64.85,4.37,7.13,4.37,7.13l-4.18-5.67ZM6.38,83.4c.77-.82,2.97-.11,4.29.44,0,0-5.06.39-4.29-.44ZM29.21,93.35c-9.29-4.92-12.37-6.43-12.37-6.43,1.4.45,6.22,2.07,7.45,2.66h.03c1.07.57,2.17.83,3.31,1.28,1.07.41,2.34,1.08,3.5,1.23,1.3.21,2.02-1.05,1.89-2.03-.44-3.31,4.88,7.89-3.8,3.28ZM49.34,72.17c1.4-.09-2.61,7.44-2.61,7.44.2-1.28,1.21-7.35,2.61-7.44ZM51.56,88.92c-3.34-.1-6.21-2.49-4.71-1.86,1.18.49,2.94,1.08,5.84.88s.56,1.03-1.13.99ZM68.27,77.84c-1.25,2.02-7.42,4.69-7.42,4.69,1.9-1.36,5.58-4.75,6.05-5.1.47-.36,2.61-1.6,1.36.42Z"/>
        <path class="cls-2" d="M54.14,44.24l-.03-.02c-1.39-.81-2.87,1.18-2.78,2.88-.02,1.56,1.43,2.7,2.53,1.88,1.36-.87,1.86-3.79.28-4.74ZM53.54,46.98c-.43.32-.99-.13-.99-.74-.04-.66.54-1.44,1.09-1.12h.01c.62.38.42,1.52-.11,1.86Z"/>
        <path class="cls-2" d="M65.12,69.4h-.04c-.98-.16-2.33.79-2.93,1.81-.52.77-.73,2.19.3,2.38,1.36.28,3.06-1.3,3.42-2.67.22-.71-.09-1.44-.75-1.53ZM64.52,70.88c-.13.51-.77,1.11-1.28,1-.39-.07-.31-.6-.11-.89.23-.38.73-.74,1.1-.68h.02c.25.04.36.31.28.57Z"/>
        <path class="cls-2" d="M11.22,78c-.26-1.12-1.3-2.12-2.21-2.43l-.07-.02c-1.41-.56-2.56.95-1.65,2.75.41.82,1.12,1.44,1.86,1.74,1.2.57,2.5-.31,2.08-2.04ZM9.2,78.1c-.31-.13-.61-.39-.78-.73-.38-.76.1-1.39.69-1.16h.03c.38.14.82.56.93,1.03.18.73-.37,1.1-.87.86Z"/>
        <path class="cls-2" d="M62.25,54.12c-1.22,1.18-2.21,2.65-3.07,4.15-1.46,2.59-1.34,2.88-1.94,5.94-.27.94,1.27,4.58.97,6.37l-.05,3.5c2.27-6.57,8.68-14.98,9.24-19.03.37-5.05-2.67-3.49-5.14-.94ZM64.92,57.47c-1.74,3.27-2.74,3.5-1.9,2.03.85-1.47,2.04-3.87.87-2.6-1.17,1.27-2.69,4.23-2.31,2.39.38-1.84-2.83,3.36-2.83,3.36.25-.61,1.84-4.28,2.31-5.01,1.71-2.68,3.17-4.56,4.22-4.5,1.39.08,1.48.86-.36,4.33Z"/>
        <path class="cls-2" d="M18.86,77.5c.15.6.26,1.21.38,1.84.28,1.49.57,3.03,1.28,4.45.74,1.73,1.65,3.27,2.69,4.61,1.02.48,2.07.74,3.16,1.16,1.1.41,2.4,1.08,3.59,1.23,1.1.18,1.85-.43,2.09-1.25-.07.09-.14.18-.21.27-.3.41-.74.84-1.24.91-.71.13-1.31-.38-1.73-.92-.51-.64-.7-1.27-.75-2.16-.01-.73-.04-1.56.2-2.24.2-.51.65-.86,1.13-.66h.02c.46.21.8.61,1.16.99-.75-1.32-1.66-2.81-2.44-4.05-.11-.08-.22-.17-.33-.29-.34-.35-.67-.75-1-1.11-.64-.83-1.76-1.37-1.55-2.48.04-.21.13-.4.24-.58-.1-.23-.18-.46-.21-.66-.13-.57.14-1.23.95-1.06.19.03.37.1.56.19.12-.12.25-.24.39-.34.57-.43.99-.82,1.68-.86h.02c.77.05,1.33,1.04,1.94,1.56.32.32.66.64.99.94.95.8,1.32,1.47.35,2.47-.51.51-1.08.95-1.64,1.41.17.27.35.56.54.86.34-.28.71-.54,1.06-.78.87-.6,1.68-1.27,2.8-1.06h.02c1.13.2,3.21,1.94,3.58,3,.27.86-.63,1.38-1.19,1.9-.71.63-1.45,1.26-2.25,1.83-.2.14-.39.22-.57.27.36.49.68.93.96,1.28.09-.44.44-.8.8-1.13.76-.67,1.56-1.29,2.41-1.87.61-.4,1.21-.92,1.88-.6h.02c.49.23.85.78,1.29,1.13.48.39,1.07.68,1.25,1.15.27.86-.67,1.5-1.22,2.04-.54.46-1.13.96-1.67,1.41.51-.06.98-.21,1.38-.48.62-.4,1.02-.96,1.41-1.54.23-.36.45-.69.67-.98.12-.46.23-.95.34-1.46-.13-.02-.27-.05-.41-.11-.69-.43-1.25-1.11-1.79-1.68-.76-.8.2-1.69.8-2.26.61-.59,1.35-1.18,1.94-1.77.29-.28.56-.61.86-.87.22-1.02.46-2.01.71-2.93-.22-.02-.46-.12-.7-.31-.79-.51-1.46-1.07-2.18-1.7-.47-.4-1.28-.88-.97-1.59.24-.58.68-1.07,1.12-1.51.42-.44,1.06-.64,1.63-.53h.02c.83.16,1.48.8,2.16,1.27.15.11.3.21.46.31.17-.28.34-.52.52-.71-.35-.26-.7-.54-1.07-.77-1-.65-1.63-1.37-.78-2.49.26-.33.56-.65.84-.97.32-.33.72-.77,1.21-.55h.02c.36.16.76.49,1.07.77.39.34.79.61,1.12.99.35.38.71.75.68,1.28,0,.6-.39,1.07-.73,1.54.6.66.54,2.02.14,3.67.48.38.84.91,1.2,1.38.86,1.28-.04,2.35-.95,3.3-.71.67-1.27.83-1.95.15-.16.38-.33.76-.5,1.13.48,1.03-.43,1.76-1.19,2.53-.42.88-1,2.52-.97,2.53.14-.15.28-.29.41-.44.51-.52,1.99-2.74,2.77-2.15h.01c.23.19.34.62.38.94.05.39.11.79.05,1.18-.08.59-.42,1.02-.81,1.44,1.25.22,2.99.29,4.26.54.18-.27.35-.54.52-.81.18-.73.66-1.86,1.72-3.65.09-.18.17-.38.25-.57.37-1.07.63-2.19.86-3.32.62-2.15.56-4.65.51-6.86,0-.34-.02-.68-.02-1-.05-.79-.19-1.48-.34-2.15-.06-.29-.13-.59-.18-.91-.25-1.46-.52-2.88-1.08-4.17l-.05-.14c-.34-1.06-.73-2.26-1.31-3.3-.74-1.8-1.65-3.48-2.72-5-1.2-1.85-2.84-3.5-4.73-4.75-.64-.47-1.36-.84-2.06-1.21l-.2-.1c-.82-.47-1.75-.92-2.76-1-.14-.01-.27-.02-.39-.02-.57,0-1.1.11-1.58.32-.16.07-.34.16-.52.26-.19.1-.44.24-.55.25h-.05c-.07,0-.25-.12-.37-.21-.13-.09-.28-.2-.45-.29l-.04-.02-.04-.02c-.63-.23-1.33-.25-1.88-.25-.24,0-.49,0-.73.01-.22,0-.43.01-.63.01-.1,0-.2,0-.29,0-1.41.02-2.7.37-4.1,1.09l-.04.02-.04.03c-.22.15-.44.29-.65.43-.46.3-.94.61-1.44,1.02-.72.6-1.35,1.32-1.96,2.03-.19.22-.38.44-.56.64-1.48,1.73-2.77,3.75-3.94,6.18-.19.4-.35.82-.51,1.22-.12.31-.23.61-.36.9-.28.59-.58,1.22-.8,2.04-.32,1.34-.62,2.65-.8,4.04-.05.36-.13.71-.22,1.09l-.06.27c-.21.81-.22,1.81-.23,2.77,0,.18,0,.36,0,.54.01.45,0,.88,0,1.3-.01,1.1-.02,2.25.22,3.36ZM20.78,78.2c-.03-.81-.05-1.63.26-2.29.17-.34.41-.75.79-.57h.01c.36.22.53.66.78,1.05.08.13.15.26.21.4.32.73.35,1.58.13,2.35-.13.41-.34.72-.55,1.08-.31.54-.63.71-.96.05-.2-.4-.43-.79-.55-1.22-.07-.27-.1-.56-.12-.84ZM21.15,83.47s-.02-.06-.04-.08c.01.03.02.06.04.08.32.75.68,1.48,1.09,2.19-.41-.71-.77-1.45-1.09-2.19ZM26.36,88.96c-.34-.21-.66-.51-.92-.81-.17-.25-1.94-2.25-1.47-2.29h.01c.47.06,1.07.65,1.5.98.46.42.81.96,1.07,1.49.13.25.34.97-.2.64ZM25.77,80.59c.34.35.76.71,1.13,1.06.5.51.95.96.89,1.62-.02.34-.1.65-.22.98-.24.63-.48,1.26-.82,1.83-.57.86-1.14-.23-1.61-.67-.47-.51-1.01-1.16-1.46-1.62-.29-.31-.53-.6-.64-1.03-.18-.81-.17-1.83.28-2.57.3-.48.84-.82,1.37-.57h.02c.37.18.73.61,1.07.96ZM27.15,74.2c-.41.46-.93.79-1.35,1.21-.23.24-.46.49-.71.71-.61.6-1.28.54-1.84-.08-1.16-1.42-1.08-3,.15-4.35.56-.66,1.63-1.78,2.52-1.38h.02c1,.47,1.8,1.81,1.82,2.9-.03.39-.33.71-.6.99ZM29.64,53.58c.65-.4,1.48-1.22,2.26-1.06h.02c.59.19,1.02.9,1.4,1.38.59.79.15,1.45-.55,1.94-.42.36-.89.65-1.35.97-.51.42-1.15.23-1.54-.29-.33-.43-.6-.87-.81-1.35-.35-.65.01-1.18.57-1.59ZM41.25,60.94c.79.6.52,1.21-.21,1.74-.57.45-1.08,1.11-1.73,1.43-.78.38-1.57-.22-2.23-.62-.95-.68-2.54-1.94-1-2.92,1.13-.68,2.08-1.17,3.43-.75h.02c.62.25,1.18.71,1.72,1.13ZM39.95,57.9c.33-.53.88-.93,1.34-1.33.42-.34.85-.55,1.34-.42h.02c.57.19,1.15.7,1.62,1.16.87.93.12,1.77-.59,2.48-.66.67-1.1.86-1.94.27-.58-.42-2.25-1.3-1.79-2.17ZM36.88,66.69c-.77.51-1.76.84-2.63.37-.42-.23-.73-.54-1.14-.85-.62-.6-1.94-1.38-1.36-2.39.19-.33.6-.58.96-.79.41-.23.84-.34,1.29-.29h.02c.73.11,1.27.59,1.89,1,.4.28.84.57,1.24.91.96.76.75,1.5-.27,2.05ZM36.62,59.19c-.64.48-1.26.91-1.99,1.19-1.07.34-2.45-.75-2.96-1.64-.41-.77.5-1.39,1.06-1.82.66-.46,1.42-.94,2.26-.75h.02c.73.2,1.4.85,1.92,1.41.56.55.26,1.18-.32,1.61ZM30.38,59.32h.02c.66.3,1.23.97,1.8,1.46.85.73.52,1.36-.32,1.9-.56.44-1.34.78-1.96.28-.35-.23-.66-.57-.93-.89-.36-.41-.63-.85-.59-1.38,0-.94,1.11-1.73,1.99-1.37ZM28.93,63.44c.28.7,0,1.2-.5,1.63-.57.55-1.4,1.27-1.98,1.83-.49.48-.98.76-1.44.11-.27-.41-.54-.9-.75-1.36-.31-.63-.43-1.37.03-1.96.22-.31.53-.57.82-.81.71-.58,1.54-1.14,2.49-.91h.02c.66.19,1.09.84,1.32,1.46ZM28.1,71.43c-1.19-1.41-2.71-2.74-.55-4.14.43-.32.85-.69,1.27-1.03.5-.47,1.17-1.02,1.83-.76h.02c.4.18.73.55,1.05.85.32.32.67.61.98.93.44.49,1.13.95.93,1.65-.29.63-.96.98-1.51,1.39-.57.4-1.19.82-1.74,1.24-.82.66-1.51.69-2.27-.12ZM34.98,77.1c-.66.49-1.39,0-1.9-.48-.46-.39-1.02-.8-1.47-1.18-.55-.41-1.04-1.09-1.15-1.72-.15-.99,1-1.69,1.67-2.22,1.21-.77,2.37-2.17,3.95-1.49h.02c.39.15.73.39,1.03.67.32.3.68.53,1.01.82.62.5,1.81,1.1,1.25,2.05-.21.35-.66.63-1.01.92-.4.34-.85.59-1.24.94-.4.37-.85.65-1.26,1.02-.28.25-.6.48-.91.67ZM42.56,74.87c.81.54,1.58,1.14,2.19,1.89.81.88.01,1.33-.58,1.98-.38.42-.76.88-1.2,1.27-.49.46-1.06.84-1.53,1.25-.98.94-1.48,1.02-2.61.22-.72-.45-1.5-.78-2.14-1.36-.43-.41-.91-1-.94-1.55-.01-1.14,1.4-1.81,2.19-2.41.24-.17.49-.32.72-.48.77-.55,1.51-1.4,2.51-1.41h.02c.52,0,.93.35,1.36.62ZM42.38,70.96c-.23.25-.47.53-.74.74-.77.62-1.43.17-2.1-.36-.58-.47-1.16-.93-1.76-1.38-1.19-.77-1.6-1.58-.48-2.69.53-.45,1.12-1.09,1.87-.93h.02c.72.19,1.24.81,1.91,1.19.34.22.64.48.96.68.47.31,1.04.68,1.16,1.26.09.58-.45,1.08-.83,1.51ZM45.24,67.83c-.49.58-.93.73-1.54.3-1.02-.74-2.55-1.45-3.04-2.67-.27-.73-.05-1.57.53-2.07.53-.42,1.21-.9,1.9-.75h.02c.42.1.78.41,1.14.65.56.42,1.15.8,1.7,1.23,1.72,1.27.26,2.21-.71,3.31ZM47.67,64.33c-.78-.05-1.4-.7-1.96-1.19-.59-.57-1.42-1.2-1.46-2.07.03-1.04,1.13-2.13,2.19-1.78h.02c.36.11.68.32.97.56.58.44,1.18.91,1.64,1.47.26.33.41.76.37,1.18-.05.36-.3.69-.59,1.04-.3.36-.71.79-1.19.79ZM51.26,67.52c-.85-.7-2.43-1.68-2.02-2.94.26-.67.64-1.68,1.5-1.63h.02c.52.06.9.48,1.32.87.72.61.99,1.5.84,2.42-.07.95-.76,1.95-1.66,1.28ZM51.56,74.19c-.53-.82-.68-1.98-.09-2.81.3-.53.93-.98,1.55-.75h.02c.9.34,1.27,1.37,1.59,2.21.24.6.25,1.19-.02,1.79-.89,1.93-2.23.86-3.05-.45ZM55.07,75.94h.01c.39.29.36,1.2.28,1.68-.06.35-.18,1.7-.7,1.41-.3-.24-.37-.61-.42-1.03-.08-.54.05-1.11.27-1.58.12-.22.28-.52.56-.48ZM50.93,83.26c-.21-1.12-.15-2.43.71-3.29.34-.39.95-1.28,1.53-.94h.01c.43.33.44,1.01.48,1.52.01.43-.04.86-.15,1.27-.15.54-.5,1-.81,1.5-.71,1.13-1.47,1.65-1.78-.05ZM56.63,74.74c.02-1.22-.03-2.43-.04-3.53.02,1.1.06,2.31.04,3.53ZM55.78,80.43c-.27,1.11-.6,2.21-1.12,3.23-.53,1.26-1.15,2.51-1.95,3.63.8-1.12,1.42-2.36,1.95-3.63.52-1.02.86-2.12,1.12-3.23ZM54.17,66.9c.24.17.39.51.51.79.32.66.52,1.3.52,2.06,0,.35.01.76-.04,1.08-.03.16-.07.26-.14.3h-.01c-.06.03-.14.01-.22-.04-.24-.16-.48-.4-.68-.62-.58-.71-1.08-1.59-.89-2.53.09-.49.41-1.38.95-1.04ZM51.11,60.9c.11-.33.38-1.15.82-1.06h.01c.42.18.61.64.84,1.06.28.49.41,1.04.53,1.58.65,2.47-1.74-.09-2.13-.74-.14-.25-.16-.56-.08-.84ZM48.7,55.34h.02c.58.19.89.77,1.28,1.2.57.69,1.13,1.45.98,2.4-.17,1.28-.92,2.03-2.03,1.04-.65-.57-1.9-1.43-2.02-2.33-.03-.36.07-.64.23-.99.25-.58.77-1.55,1.53-1.33ZM45.36,52.09h.02c.43.08.78.41,1.16.62,1.44.87.66,2.54-.11,3.62-.3.45-.73.86-1.26.59-.42-.22-.86-.55-1.26-.86-.77-.62-.75-1.22-.2-1.93.3-.4.54-.88.75-1.32.18-.38.49-.81.9-.72ZM41.48,49.17c.1,0,.21,0,.31.01-.11,0-.23-.01-.34-.01.01,0,.02,0,.03,0ZM42.25,50.23h.02c.61.15,1.37.76,1.51,1.37.05.33-.07.55-.28.93-.58,1.12-1.43,1.85-2.57.87-.5-.45-1.22-.97-1.21-1.68.14-1.09,1.49-1.79,2.52-1.49ZM38.63,52.8h.02c.57.11,1.13.7,1.6,1.08,1.22,1.14.7,2-.49,2.87-.86.67-1.38.83-2.29.16-.79-.57-1.85-1.52-1.04-2.52.28-.36.61-.7.95-.98.41-.35.74-.7,1.25-.6ZM34.46,50.52c.66-.26,1.52-.51,2.19-.24h.02c.6.27.98.95.72,1.56-.22.49-.74.99-1.14,1.38-.94.95-1.9.78-2.68-.24-.81-1.09-.29-2.01.89-2.46ZM33.32,49.31c-.97.15-1.87.48-2.75.93.88-.46,1.78-.79,2.75-.93ZM25.95,57.04c.08-.69,1.12-1.93,1.88-1.76h.02c.64.17.9.9,1.17,1.44.15.31.32.64.33.99-.01.55-.67,1.2-1.08,1.54-.78.61-1.66.24-2.02-.61-.21-.52-.37-1.04-.31-1.6ZM23.06,61.95c.04-.53.21-1.03.38-1.52.13-.39.36-.74.57-1.17.18-.38.51-1.04,1.01-.85h.01c.31.18.57.68.74,1.03.37.65.18,1.44-.37,1.94-.35.37-.83.7-1.31.93-.31.15-.63.47-.93.31-.17-.15-.1-.44-.09-.67ZM21.29,67.22c.33-.64.8-1.94,1.7-1.79h.02c1.12.43,1.15,2.42.96,3.42-.2.78-.66,1.38-1.15,1.99-.22.28-.4.57-.63.82-.25.29-.53.46-.79.09-.23-.38-.36-.99-.48-1.45-.16-1.03.03-2.11.38-3.09ZM20.98,63.31c-.13.31-.24.64-.34,1,.1-.37.21-.69.34-1ZM19.55,77.34c.31,1.27.48,2.6.8,3.89-.32-1.28-.5-2.62-.8-3.89ZM19.55,69.69c.06-.24.12-.47.17-.71-.05.24-.11.48-.17.71-.06.22-.1.47-.13.73.03-.26.07-.5.13-.73Z"/>
        <path class="cls-2" d="M22.39,88.2c-1.62-1.87-2.84-4.08-3.69-6.38-.69-1.56-.89-3.27-1.12-4.96-2.33-2.07-3.58-7.39-5.2-9.73-1.08-1.73-2.66-3.63-4.51-3.67-1.29.13-1.37,1.54-.81,2.98.95,2.32,2.72,4.05,4.3,5.73,5.04,5.4,6.81,11.51,7.77,15.04l3.27.98ZM8.71,65.23c1.67.08,2.69,1.89,4.07,4.61,0,0-5.74-4.69-4.07-4.61Z"/>
      </g>
    </g>
  </g>
</svg>