<?xml version="1.0" encoding="UTF-8"?>
<svg id="Layer_2" data-name="Layer 2" xmlns="http://www.w3.org/2000/svg" viewBox="0 0 60 82.8">
  <defs>
    <style>
      .cls-1 {
        fill: none;
      }

      .cls-2 {
        fill: #573100;
      }
    </style>
  </defs>
  <g id="Design">
    <g>
      <rect class="cls-1" width="60" height="82.8"/>
      <g>
        <g>
          <path class="cls-2" d="M27.94,25.6c-.16,0-.26-.13-.39-.24-.25-.24-.48-.49-.72-.77-1-1.05-1.41-2.26-2.03-3.49-.69-1.21-1.42-2.41-2.35-3.51-.52-.68-1.01-1.32-1.69-1.9-.98-.97.08-.58.72-.25.82.4,1.55.89,2.23,1.44,1.02.86,2.16,1.74,3.05,2.69.84.81.8-.03.64-.62-.15-.77-.24-1.59-.58-2.31-.33-.89-.71-1.76-1.09-2.64-.17-.47-.37-.94-.64-1.37-.35-.54-.62-1.23-.91-1.76-.18-.39-.72-.85-.67-1.27.24-.19.84.36,1.07.5.75.44,1.29,1.03,1.86,1.6.37.34.77.69,1.09,1.05.32.37.67.75.97,1.13.16.21.68.9.85.35.11-.48.14-.99.27-1.47.12-.5.09-1.05.2-1.57.13-.56.23-1.14.34-1.7.02-.27.74-1.96.86-1.12.13.97.27,1.93.64,2.85.28,1.08.68,2.11,1.07,3.15.46,1.74,1.23.05,1.82-.57.64-.97,1.6-1.76,2.55-2.51.22-.19,1.57-1.26,1.49-.65-.19.48-.6.88-.87,1.33-.59,1.14-1.17,2.3-1.63,3.48-.41,1.14-.8,2.34-1.08,3.52-.15.98.47.62.94.1.82-.69,1.39-1.57,2.31-2.18.74-.46,1.41-.98,2.15-1.4.3-.22,3.18-1.66,2.11-.54-1.76,1.62-3.21,3.47-4.4,5.42-.51.72-.8,1.53-1.26,2.26-.55,1.04-1.28,2.01-2.04,2.94-.29.34-.55.69-.75,1.08-.32.61-.59,2.14-1.73,1.64-.3-.23-.35-.62-.45-.94-.08-.35-.24-.69-.44-1-.68-1.07-1.56-2.08-2.7-2.85-.73-.46-.68,0-.64.49-.03.43.14,1.36-.15,1.61h0Z"/>
          <path class="cls-2" d="M29.07,25.75c.31-.04.87.62,1.04.83.74.91,1.28,1.95,1.59,3.01.14.52-.13.93-.5,1.33-.28.35-.52.71-.74,1.08-.21.34-.33.75-.46,1.12-.07.17-.15.36-.34.44-.44.13-.87-.37-1.14-.61-.52-.47-.83-.91-1.11-1.47-.47-.91-1.05-1.75-1.68-2.6-.33-.5-.71-.93-1.09-1.41-.41-.48-.89-.91-1.34-1.37-.91-.89-1.91-1.76-3.06-2.42-.66-.44-1.33-.85-2.09-1.16-.31-.19-.8-.33-.92-.63-.11-.27.78-.12.96-.11.77.07,1.63.29,2.3.55.77.27,1.44.64,2.15,1.07.44.25.87.47,1.28.76.66.4,1.29.83,1.89,1.31.81.62,1.51,1.41,2.38,1.98.67.37.69-.51.72-.89.03-.23-.07-.69.17-.82h0Z"/>
          <path class="cls-2" d="M44.38,22.68c.03.23-.81.53-1.04.71-.72.45-1.37.94-1.95,1.51-.47.42-.93.76-1.29,1.24-.12.17-.25.33-.4.48-1.13,1.21-2.07,2.52-3.22,3.73-.38.4-.72.83-1.16,1.18-.66.53-1.55.97-2.1,1.61-.27.29-.37.63-.56.96-.14.23-.25.48-.35.73-.25.56-.16,1.25-.62,1.73-.25.26-.7.17-.87-.11-.57-.77-.52-1.99-.32-2.86.13-.38.37-.86.62-1.23.55-.74,1.38-1.32,2.19-1.85.67-.6,1.02-1.38,1.32-2.16.74-1.78,2.99-3.48,4.87-4.43,1.06-.51,2.17-.86,3.35-1.1.41-.05.74-.12,1.12-.17.22-.02.36-.02.4.02h0Z"/>
          <path class="cls-2" d="M35.95,37.82c-.69-.34.39-1.47-.39-1.05-.41.24-.79.6-1.21.77-.49.2-1.16.27-1.62-.01-.35-.28.07-.67.27-.98.15-.23.22-.48.26-.74.06-.39.09-.78.23-1.15.34-.78.94-1.47,1.69-2.02.49-.37.96-.74,1.48-1.07.4-.23.82-.48,1.2-.69.98-.55,1.99-1.09,3.18-1.26.69-.15,1.38-.33,2.08-.11.24.06.47.12.68.19.08.02.16.06.15.12-.03.06-.09.08-.16.1-.11.03-.27.07-.39.1-.81.2-1.63.41-2.37.78-.71.33-1.35.8-1.9,1.33-.76.65-1.49,1.25-1.91,2.12-.06.17-.28.46-.11.6.34.13.91-.24,1.29-.31.48-.11.95-.08,1.48-.08.44,0,1.23.08,1.36.45.06.31-.63.36-.89.43-.3.06-.57.17-.89.29-.58.18-1.11.41-1.55.72-.23.17-.49.38-.6.61-.08.25.28.35.52.44.18.06.86.28.48.44-.4.1-.97.06-1.51.08-.28,0-.6,0-.85-.11h-.01Z"/>
          <path class="cls-2" d="M31.92,37.8c.36.07.71.18,1.06.26.61.13,1.15.19,1.72.31.6.15,1.67.07,2.21.33.47.31-.03.68-.51.78-.3.07-.7.07-1.03.06-2.69-.1-5.6.4-8.21-.01-.32-.06-.66-.17-.93-.29-.12-.05-.3-.15-.33-.21-.08-.19.53-.27.74-.33.9-.18,1.68-.49,2.57-.72.83-.22,1.83-.34,2.68-.19h.02Z"/>
          <path class="cls-2" d="M26.13,33.28c1.97.12,3.83,1.11,4.22,2.83.07.33.13.7-.1.97-.51.52-1.23.06-1.54-.4-.4-.5-.86-1.03-1.43-1.39-.42-.26-.86-.5-1.3-.73-.97-.39-2.08-.49-3.14-.44-.35,0-.82.13-1.08.03-.09-.05-.07-.12,0-.22.22-.28.61-.45.96-.58.27-.11.67-.15,1.04-.16.76-.02,1.6-.01,2.36.07h.02Z"/>
          <path class="cls-2" d="M21.51,28.54c1.06.19,2.02.58,2.9,1.13.54.34.96.79,1.46,1.16.61.43,1.03.94,1.26,1.58.26.6-.47.35-.87.23-.32-.1-.68-.19-.98-.36-.42-.21-.77-.5-1.14-.77-1.16-.82-2.35-1.61-3.77-2.05-.43-.15-.89-.29-1.3-.47-.51-.23-.29-.44.13-.5.66-.1,1.59-.07,2.3.04h.02Z"/>
          <path class="cls-2" d="M25.52,35.57c.77.18,1.49.52,2.03,1.03.27.27.58.59.56.95,0,.4-.54.5-.91.37-.65-.22-1.19-.82-1.83-1.16-.52-.34-1.12-.46-1.75-.59-.18-.04-.37-.08-.53-.16-.51-.28.6-.43.83-.45.51-.06,1.11-.07,1.57.02h.02Z"/>
        </g>
        <path class="cls-2" d="M50.98,31.16l-.02-.03c-.97-1.15-2.58.65-1.67,1.92.97,1.26,2.74-.59,1.69-1.89Z"/>
        <path class="cls-2" d="M6.29,48.29h-.03c-.63-.13-1,.57-.8,1.24.16.72.91,1.37,1.46,1.27,1.21-.27.44-2.35-.63-2.51Z"/>
        <path class="cls-2" d="M54.39,37.6l-.02-.02c-.39-.34-1.08-.17-1.44.26-.47.48-.74,1.46-.07,1.82.83.5,2.38-1.07,1.53-2.07Z"/>
        <path class="cls-2" d="M55.81,53.73c-.7-.92-2.3.32-1.83,1.5.21.47.93.56,1.38.23.47-.29.87-1.13.47-1.7l-.02-.03Z"/>
        <path class="cls-2" d="M2.6,54.6h-.03c-.88.44-.26,2.2.89,2.19,1.31-.16.45-2.56-.87-2.19Z"/>
        <path class="cls-2" d="M48.33,46.91c.5-.39.82-1.49.42-2.08l-.02-.02c-.2-.26-.51-.2-.73,0-.47.38-.79,1.48-.4,2.06.19.27.49.23.72.04Z"/>
        <path class="cls-2" d="M22.91,38.32c.45-.51.51-1.68.1-2.22l-.02-.02c-.23-.29-.58-.18-.77.1-.37.48-.47,1.51-.11,2.09.2.35.57.35.81.05Z"/>
        <path class="cls-2" d="M14.7,47.78l-.02-.02c-.85-.75-1.64,1.61-.92,2.22.85.49,1.49-1.53.94-2.2Z"/>
        <path class="cls-2" d="M19.08,35.7c.51-.3.81-1.28.49-1.87l-.02-.03c-.66-.93-1.65.58-1.32,1.5.13.44.52.61.85.4Z"/>
        <path class="cls-2" d="M4.19,40.77l-.02.04c-.25.45-.02,1.22.43,1.66.46.52,1.44.86,1.66.13.23-.65-.36-1.58-1.05-1.94-.36-.21-.84-.21-1.02.12Z"/>
        <path class="cls-2" d="M51.94,42.72c.42-.11.59-.84.28-1.21l-.02-.02c-.31-.44-.79.03-.8.51-.02.38.28.79.54.72Z"/>
        <path class="cls-2" d="M9.98,40.38h-.03c-1.29.12-.95,2.33.06,3.23.55.55,1.44.75,1.81.15.69-1.07-.43-3.39-1.84-3.39ZM10.83,42.41c-.12.19-.4.13-.58-.05-.33-.29-.44-1-.02-1.04h0c.45,0,.82.75.59,1.09Z"/>
        <path class="cls-2" d="M56.15,63.7c-2.18,1.22-4.37,4.3-6.84,5.02-.77.25-2.12.31-2.45-.62-.13.35-.28.69-.45,1.03-.81,1.36-1.22,2.27-1.39,2.88-.14.49-.64.79-1.15.72-1.4-.19-3.13-.24-3.84-.63-.57-.31-.83-2.09-.41-2.94,1.74-3.55,4.74-10.38,1.53-10.17-2.45.16-3.43,8.69-4.69,13.74-.18.24-.36.52-.56.82-.33.48-.66.95-1.18,1.28-1.23.85-3.4.37-4.52-.7-1.08-.92-5.32-7.53-5.89-8.73-.42-.96-1.38-2.32-2.4-2.48-.67-.14-.9.41-.79.88.09.59.6,1.34,1.05,2.12.53.93,4.66,7.23,4.61,8.25-.02.88-.71,1.66-1.82,1.48-.99-.12-2.08-.68-2.99-1.03-.98-.38-1.91-.59-2.83-1.06h-.02c-1.05-.51-9.73-4.23-10.93-4.61-4.33-1.35-4.41,1.55-2.32,2.06,1.19.29,7.16-.14,12.15,6.99,1.71,2.45,3.94,3.56,7.18,4.26,5.07,1.01,12.04.7,16.07-2.33.79-.6,2.63-2.46,3.75-4.1.85-.92,1.79-2.45,2.59-3.14.83-.73,1.67-1.41,2.62-1.92,2.64-1.34,6.49-2.79,7.54-6.29.4-1.52-.94-1.19-1.62-.79ZM22.76,65.36c-1.26-1.81-.69-1.93-.16-1.22.54.71,3.64,5.94,3.64,5.94l-3.49-4.72ZM5.31,69.5c.64-.69,2.47-.09,3.57.37,0,0-4.22.32-3.57-.37ZM24.34,77.79c-7.74-4.1-10.31-5.36-10.31-5.36,1.17.37,5.18,1.72,6.21,2.22h.02c.89.48,1.8.69,2.76,1.07.89.34,1.95.9,2.92,1.03,1.08.18,1.68-.87,1.58-1.69-.37-2.76,4.07,6.57-3.17,2.74ZM41.12,60.14c1.16-.08-2.18,6.2-2.18,6.2.17-1.06,1.01-6.12,2.18-6.2ZM42.96,74.1c-2.79-.08-5.18-2.08-3.92-1.55.98.41,2.45.9,4.87.73s.46.86-.95.82ZM56.89,64.87c-1.04,1.68-6.18,3.91-6.18,3.91,1.58-1.14,4.65-3.96,5.04-4.25.4-.3,2.18-1.34,1.14.35Z"/>
        <path class="cls-2" d="M45.12,36.87l-.03-.02c-1.16-.68-2.39.99-2.32,2.4-.02,1.3,1.19,2.25,2.11,1.57,1.13-.73,1.55-3.16.24-3.95ZM44.62,39.15c-.36.27-.83-.11-.82-.61-.03-.55.45-1.2.91-.94h0c.51.32.35,1.27-.09,1.55Z"/>
        <path class="cls-2" d="M54.27,57.84h-.03c-.82-.13-1.94.66-2.44,1.51-.44.64-.61,1.82.25,1.98,1.13.24,2.55-1.08,2.85-2.22.18-.59-.07-1.2-.62-1.27ZM53.77,59.07c-.11.43-.64.92-1.07.83-.32-.06-.26-.5-.09-.74.19-.32.61-.62.92-.57h.01c.21.03.3.26.23.48Z"/>
        <path class="cls-2" d="M9.35,65c-.22-.94-1.08-1.77-1.84-2.02l-.06-.02c-1.18-.47-2.13.79-1.37,2.3.35.68.93,1.2,1.55,1.45,1,.48,2.08-.26,1.73-1.7ZM7.66,65.08c-.26-.1-.51-.32-.65-.61-.32-.63.08-1.16.58-.96h.03c.32.12.68.47.78.86.15.6-.31.91-.73.71Z"/>
        <path class="cls-2" d="M51.88,45.1c-1.02.99-1.84,2.21-2.56,3.46-1.21,2.16-1.12,2.4-1.62,4.95-.22.78,1.06,3.81.81,5.31l-.04,2.92c1.89-5.48,7.24-12.48,7.7-15.86.31-4.21-2.22-2.91-4.29-.78ZM54.1,47.89c-1.45,2.72-2.29,2.92-1.58,1.69.71-1.23,1.7-3.23.73-2.17-.97,1.06-2.24,3.53-1.93,1.99.31-1.54-2.35,2.8-2.35,2.8.2-.51,1.54-3.56,1.92-4.17,1.42-2.23,2.64-3.8,3.52-3.75,1.16.06,1.23.71-.3,3.61Z"/>
        <path class="cls-2" d="M15.72,64.58c.12.5.22,1,.32,1.53.23,1.24.47,2.52,1.07,3.71.61,1.44,1.37,2.72,2.24,3.84.85.4,1.72.62,2.63.97.91.34,2,.9,2.99,1.03.91.15,1.54-.36,1.74-1.04-.06.08-.12.15-.17.22-.25.34-.62.7-1.03.76-.59.1-1.09-.32-1.44-.77-.43-.53-.58-1.06-.62-1.8-.01-.61-.04-1.3.17-1.87.17-.43.54-.72.94-.55h.02c.39.18.66.51.97.82-.63-1.1-1.39-2.34-2.03-3.38-.09-.07-.18-.14-.28-.24-.29-.29-.56-.62-.83-.93-.54-.69-1.47-1.14-1.29-2.07.04-.18.11-.33.2-.48-.08-.19-.15-.38-.18-.55-.11-.48.12-1.02.79-.88.16.02.31.08.46.16.1-.1.21-.2.33-.29.48-.36.82-.69,1.4-.72h.01c.64.04,1.11.86,1.61,1.3.27.27.55.53.83.78.79.67,1.1,1.23.29,2.06-.42.43-.9.79-1.36,1.17.14.23.29.47.45.72.28-.24.59-.45.88-.65.72-.5,1.4-1.06,2.33-.88h.02c.94.17,2.67,1.61,2.98,2.5.22.72-.53,1.15-.99,1.58-.59.53-1.21,1.05-1.87,1.52-.17.11-.32.18-.48.22.3.41.57.77.8,1.07.08-.36.37-.67.67-.94.63-.56,1.3-1.07,2.01-1.56.51-.33,1.01-.77,1.56-.5h.02c.41.19.71.65,1.08.94.4.32.89.56,1.04.96.22.72-.56,1.25-1.02,1.7-.45.38-.95.8-1.39,1.17.42-.05.82-.18,1.15-.4.51-.33.85-.8,1.18-1.28.19-.3.38-.58.56-.82.1-.39.19-.79.28-1.21-.11-.02-.22-.04-.34-.09-.57-.36-1.04-.92-1.49-1.4-.63-.67.17-1.41.66-1.88.51-.49,1.13-.98,1.62-1.48.24-.23.46-.51.72-.72.19-.85.38-1.67.59-2.44-.19-.02-.38-.1-.58-.26-.66-.42-1.22-.89-1.82-1.41-.39-.34-1.07-.73-.81-1.33.2-.48.57-.89.93-1.26.35-.36.88-.53,1.36-.44h.02c.69.13,1.24.66,1.8,1.06.12.09.25.17.38.26.14-.23.28-.43.43-.59-.3-.21-.59-.45-.89-.64-.83-.54-1.36-1.14-.65-2.07.22-.28.46-.55.7-.81.27-.27.6-.64,1.01-.46h.02c.3.14.63.41.89.64.33.29.66.51.94.82.29.32.6.62.57,1.07,0,.5-.33.89-.6,1.28.5.55.45,1.69.12,3.06.4.31.7.76,1,1.15.72,1.07-.03,1.96-.79,2.75-.59.56-1.06.69-1.63.13-.14.32-.28.63-.41.94.4.86-.36,1.46-.99,2.11-.35.73-.84,2.1-.81,2.11.12-.12.23-.25.34-.37.43-.43,1.65-2.29,2.3-1.79h.01c.19.15.29.52.32.79.04.32.09.65.04.98-.07.49-.35.85-.67,1.2,1.04.19,2.49.24,3.55.45.15-.22.3-.45.43-.68.15-.61.55-1.55,1.43-3.04.08-.15.14-.31.21-.47.31-.89.52-1.82.72-2.77.51-1.79.47-3.88.42-5.72,0-.29-.01-.56-.02-.84-.04-.66-.16-1.23-.28-1.79-.05-.25-.11-.49-.15-.75-.21-1.22-.43-2.4-.9-3.47l-.04-.12c-.29-.88-.61-1.88-1.09-2.75-.61-1.5-1.38-2.9-2.27-4.17-1-1.54-2.37-2.92-3.94-3.96-.53-.39-1.13-.7-1.72-1.01l-.17-.09c-.69-.39-1.46-.76-2.3-.83-.12,0-.22-.01-.33-.01-.47,0-.92.09-1.32.27-.14.06-.29.14-.43.21-.16.08-.37.2-.46.21h-.04c-.06,0-.21-.1-.31-.17-.11-.08-.23-.17-.38-.24l-.03-.02h-.04c-.52-.2-1.11-.22-1.57-.22-.2,0-.41,0-.6.01-.18,0-.36,0-.53,0-.08,0-.16,0-.24,0-1.17.02-2.25.31-3.42.91l-.03.02-.03.02c-.18.13-.36.24-.54.36-.39.25-.79.51-1.2.85-.6.5-1.13,1.1-1.64,1.69-.16.18-.31.36-.47.53-1.24,1.44-2.31,3.12-3.28,5.15-.16.33-.29.68-.42,1.02-.1.25-.19.51-.3.75-.23.49-.48,1.01-.67,1.7-.27,1.12-.52,2.21-.67,3.37-.04.3-.11.59-.19.91l-.05.23c-.17.68-.18,1.51-.19,2.31,0,.15,0,.3,0,.45,0,.38,0,.73,0,1.08,0,.92-.02,1.87.19,2.8ZM17.31,65.17c-.03-.67-.04-1.36.22-1.91.14-.28.34-.63.66-.47h.01c.3.18.44.55.65.87.06.11.12.22.18.33.27.61.29,1.32.11,1.95-.11.35-.28.6-.45.9-.26.45-.53.59-.8.04-.16-.34-.36-.66-.46-1.02-.06-.22-.09-.47-.1-.7ZM17.62,69.56s-.02-.05-.03-.07c.01.02.02.05.03.07.27.62.57,1.24.91,1.83-.34-.59-.64-1.2-.91-1.83ZM21.97,74.13c-.28-.17-.55-.42-.76-.68-.14-.21-1.62-1.87-1.23-1.91h0c.39.05.89.54,1.25.82.39.35.67.8.89,1.24.11.21.28.81-.16.53ZM21.48,67.16c.28.29.64.59.94.88.42.42.79.8.74,1.35-.01.29-.08.54-.19.82-.2.53-.4,1.05-.68,1.52-.47.72-.95-.19-1.34-.56-.39-.43-.84-.97-1.22-1.35-.24-.25-.44-.5-.53-.85-.15-.68-.14-1.52.23-2.14.25-.4.7-.69,1.14-.47h.02c.31.15.61.51.89.8ZM22.63,61.83c-.34.39-.77.66-1.13,1.01-.2.2-.38.41-.59.59-.51.5-1.06.45-1.53-.07-.97-1.18-.9-2.5.12-3.63.46-.55,1.36-1.48,2.1-1.15h.02c.83.4,1.5,1.51,1.51,2.42-.03.33-.28.59-.5.83ZM24.7,44.65c.54-.34,1.24-1.01,1.88-.88h.02c.49.16.85.75,1.17,1.15.49.66.12,1.21-.46,1.61-.35.3-.74.55-1.13.81-.43.35-.96.19-1.28-.24-.28-.36-.5-.73-.68-1.13-.29-.54.01-.99.48-1.32ZM34.38,50.79c.66.5.43,1.01-.17,1.45-.48.37-.9.92-1.44,1.19-.65.31-1.31-.18-1.86-.52-.79-.56-2.11-1.62-.83-2.43.94-.57,1.73-.97,2.86-.63h.02c.52.21.98.6,1.43.94ZM33.3,48.25c.27-.44.73-.77,1.12-1.11.35-.28.71-.46,1.12-.35h.02c.47.16.96.58,1.35.96.73.77.1,1.47-.49,2.07-.55.56-.91.72-1.62.23-.48-.35-1.87-1.08-1.49-1.8ZM30.73,55.58c-.64.42-1.47.7-2.19.3-.35-.19-.61-.45-.95-.71-.52-.5-1.62-1.15-1.13-1.99.16-.28.5-.48.8-.66.34-.2.7-.29,1.07-.24h.02c.61.09,1.06.49,1.57.83.33.23.7.48,1.03.75.8.63.63,1.25-.23,1.71ZM30.52,49.33c-.53.4-1.05.75-1.66.99-.89.29-2.04-.62-2.46-1.36-.34-.65.41-1.16.89-1.52.55-.38,1.18-.78,1.88-.62h.02c.61.17,1.17.71,1.6,1.17.46.46.22.98-.27,1.34ZM25.32,49.43h.02c.55.25,1.02.81,1.5,1.22.71.61.44,1.13-.27,1.58-.47.37-1.11.65-1.63.23-.29-.2-.55-.47-.78-.75-.3-.34-.52-.71-.49-1.15,0-.78.92-1.44,1.65-1.14ZM24.11,52.87c.23.59,0,1-.42,1.36-.47.46-1.16,1.06-1.65,1.53-.41.4-.82.63-1.2.09-.23-.34-.45-.75-.63-1.13-.26-.52-.36-1.14.03-1.63.18-.26.44-.47.68-.67.59-.48,1.28-.95,2.07-.76h.02c.55.16.91.7,1.1,1.22ZM23.42,59.52c-.99-1.17-2.26-2.28-.46-3.45.36-.27.71-.57,1.06-.86.42-.4.98-.85,1.52-.64h.02c.34.15.61.46.87.71.26.27.56.51.82.77.36.41.95.79.77,1.37-.24.53-.8.82-1.26,1.16-.47.33-1,.68-1.45,1.03-.69.55-1.26.57-1.89-.1ZM29.15,64.25c-.55.41-1.16,0-1.58-.4-.38-.32-.85-.67-1.23-.99-.46-.34-.86-.91-.96-1.43-.13-.82.83-1.41,1.39-1.85,1.01-.64,1.97-1.81,3.29-1.24h.02c.33.13.6.32.86.56.27.25.57.45.84.68.51.42,1.51.92,1.04,1.71-.17.29-.55.53-.84.77-.33.28-.71.49-1.03.79-.33.31-.71.55-1.05.85-.23.21-.5.4-.76.56ZM35.47,62.39c.67.45,1.31.95,1.82,1.57.68.73.01,1.11-.48,1.65-.32.35-.64.73-1,1.06-.41.39-.89.7-1.27,1.04-.82.79-1.24.85-2.18.18-.6-.37-1.25-.65-1.78-1.13-.36-.34-.76-.84-.78-1.29,0-.95,1.17-1.51,1.82-2.01.2-.14.4-.26.6-.4.64-.46,1.26-1.17,2.1-1.17h.02c.44,0,.78.29,1.13.52ZM35.31,59.13c-.19.21-.39.45-.62.61-.64.52-1.19.14-1.75-.3-.48-.39-.97-.78-1.47-1.15-.99-.64-1.33-1.32-.4-2.24.44-.38.94-.91,1.56-.78h.02c.6.16,1.04.67,1.59.99.28.18.53.4.8.57.39.26.87.57.96,1.05.07.49-.38.9-.69,1.26ZM37.7,56.53c-.41.48-.78.61-1.29.25-.85-.62-2.13-1.21-2.54-2.23-.22-.61-.05-1.31.44-1.72.44-.35,1.01-.75,1.58-.62h.02c.35.08.65.34.95.54.47.35.96.67,1.42,1.03,1.43,1.06.22,1.84-.59,2.76ZM39.72,53.61c-.65-.04-1.17-.59-1.64-1-.49-.47-1.18-1-1.21-1.72.03-.87.94-1.78,1.83-1.48h.02c.3.09.57.26.81.46.48.37.98.76,1.36,1.22.22.28.34.64.31.98-.05.3-.25.57-.49.87-.25.3-.59.66-.99.66ZM42.72,56.27c-.71-.58-2.02-1.4-1.68-2.45.22-.56.53-1.4,1.25-1.36h.02c.43.05.75.4,1.1.72.6.51.83,1.25.7,2.02-.06.79-.63,1.63-1.39,1.07ZM42.97,61.83c-.44-.68-.56-1.65-.08-2.34.25-.44.78-.81,1.29-.62h.02c.75.28,1.06,1.14,1.33,1.84.2.5.2.99-.01,1.49-.74,1.61-1.86.71-2.54-.37ZM45.89,63.28h0c.33.24.3,1,.23,1.4-.05.29-.15,1.41-.59,1.17-.25-.2-.31-.51-.35-.86-.06-.45.04-.93.23-1.32.1-.18.24-.43.47-.4ZM42.44,69.38c-.17-.93-.12-2.03.59-2.75.29-.32.79-1.07,1.28-.79h.01c.36.28.37.84.4,1.27.01.36-.03.72-.13,1.06-.12.45-.42.83-.68,1.25-.59.94-1.22,1.38-1.48-.05ZM47.19,62.28c.02-1.02-.02-2.03-.04-2.94.01.92.05,1.93.04,2.94ZM46.48,67.02c-.22.93-.5,1.84-.94,2.69-.45,1.05-.96,2.09-1.63,3.02.67-.93,1.18-1.97,1.63-3.02.44-.85.71-1.76.94-2.69ZM45.14,55.75c.2.15.32.43.42.66.27.55.44,1.09.44,1.71,0,.29,0,.63-.03.9-.02.13-.06.22-.12.25h0c-.05.03-.11.01-.19-.03-.2-.13-.4-.33-.57-.52-.48-.59-.9-1.32-.74-2.1.07-.41.34-1.15.79-.87ZM42.59,50.75c.1-.28.32-.96.68-.89h.01c.35.15.51.54.7.88.24.41.34.87.44,1.32.54,2.06-1.45-.07-1.77-.62-.11-.21-.14-.47-.07-.7ZM40.58,46.12h.02c.48.16.74.64,1.06,1,.47.57.94,1.21.82,2-.14,1.07-.77,1.69-1.69.87-.54-.47-1.58-1.19-1.68-1.94-.02-.3.06-.53.19-.82.21-.49.64-1.29,1.28-1.11ZM37.8,43.41h.01c.36.07.65.34.97.52,1.2.72.55,2.12-.09,3.01-.25.38-.6.71-1.05.49-.35-.18-.71-.46-1.05-.72-.64-.52-.62-1.02-.16-1.61.25-.33.45-.73.62-1.1.15-.32.41-.67.75-.6ZM34.57,40.97c.09,0,.17,0,.26.01-.1,0-.19,0-.29,0,0,0,.02,0,.03,0ZM35.21,41.86h.02c.51.12,1.14.63,1.26,1.14.04.28-.06.46-.23.77-.48.94-1.19,1.54-2.14.72-.42-.38-1.02-.81-1-1.4.11-.91,1.24-1.49,2.1-1.24ZM32.19,44h.02c.48.09.94.58,1.33.9,1.02.95.59,1.67-.4,2.39-.72.56-1.15.69-1.91.13-.66-.47-1.54-1.27-.86-2.1.23-.3.51-.58.79-.82.34-.29.62-.58,1.04-.5ZM28.71,42.1c.55-.22,1.27-.42,1.82-.2h.02c.5.23.82.8.6,1.3-.18.41-.62.83-.95,1.15-.79.8-1.58.65-2.23-.2-.67-.91-.24-1.67.74-2.05ZM27.77,41.09c-.81.12-1.56.4-2.29.78.74-.38,1.48-.66,2.29-.78ZM21.63,47.54c.07-.57.93-1.61,1.57-1.47h.02c.54.14.75.75.98,1.2.13.26.26.54.27.83,0,.46-.56,1-.9,1.28-.65.51-1.38.2-1.69-.51-.17-.43-.31-.87-.25-1.33ZM19.22,51.62c.03-.45.17-.86.32-1.27.11-.33.3-.62.47-.98.15-.31.42-.87.84-.7h.01c.26.15.48.57.61.86.3.54.15,1.2-.31,1.62-.29.31-.69.58-1.09.77-.26.13-.52.39-.78.26-.14-.12-.08-.36-.08-.56ZM17.74,56.02c.27-.53.66-1.62,1.41-1.49h.02c.94.35.96,2.01.8,2.85-.17.65-.55,1.15-.96,1.66-.18.23-.33.48-.53.69-.21.24-.44.38-.66.08-.19-.32-.3-.82-.4-1.21-.13-.86.03-1.76.31-2.57ZM17.48,52.75c-.11.26-.2.53-.28.84.08-.31.18-.58.28-.84ZM16.29,64.45c.26,1.06.4,2.17.67,3.24-.27-1.07-.41-2.18-.67-3.24ZM16.29,58.08c.05-.2.1-.39.14-.59-.04.2-.09.4-.14.59-.05.19-.08.39-.11.61.02-.21.06-.42.11-.61Z"/>
        <path class="cls-2" d="M18.66,73.5c-1.35-1.56-2.37-3.4-3.08-5.32-.57-1.3-.74-2.73-.93-4.13-1.94-1.73-2.99-6.16-4.33-8.11-.9-1.45-2.22-3.03-3.76-3.06-1.07.11-1.15,1.28-.68,2.49.79,1.94,2.27,3.37,3.58,4.78,4.2,4.5,5.68,9.59,6.47,12.53l2.72.82ZM7.26,54.36c1.4.07,2.24,1.58,3.39,3.84,0,0-4.79-3.91-3.39-3.84Z"/>
      </g>
    </g>
  </g>
</svg>