<?xml version="1.0" encoding="UTF-8"?>
<svg id="Layer_2" data-name="Layer 2" xmlns="http://www.w3.org/2000/svg" viewBox="0 0 50 69">
  <defs>
    <style>
      .cls-1 {
        fill: none;
      }

      .cls-2 {
        fill: #573100;
      }
    </style>
  </defs>
  <g id="Design">
    <g>
      <rect class="cls-1" width="50" height="69"/>
      <g>
        <g>
          <path class="cls-2" d="M23.28,21.33c-.14,0-.22-.11-.32-.2-.21-.2-.4-.41-.6-.64-.83-.88-1.17-1.89-1.69-2.91-.57-1.01-1.19-2.01-1.96-2.92-.43-.57-.84-1.1-1.41-1.58-.82-.81.07-.48.6-.21.68.34,1.29.74,1.86,1.2.85.72,1.8,1.45,2.54,2.24.7.68.66-.03.53-.51-.13-.64-.2-1.32-.48-1.92-.27-.74-.59-1.47-.91-2.2-.14-.39-.3-.78-.54-1.14-.3-.45-.52-1.03-.76-1.47-.15-.33-.6-.71-.56-1.06.2-.16.7.3.89.41.62.37,1.07.86,1.55,1.34.31.29.64.57.91.87.26.31.56.63.81.94.14.17.57.75.71.29.09-.4.12-.82.23-1.22.1-.42.07-.88.16-1.31.11-.47.19-.95.28-1.42.02-.22.61-1.64.72-.94.11.81.23,1.61.53,2.38.23.9.57,1.75.89,2.62.38,1.45,1.02.04,1.51-.48.53-.8,1.33-1.47,2.12-2.09.18-.15,1.31-1.05,1.24-.54-.16.4-.5.73-.72,1.11-.49.95-.98,1.91-1.36,2.9-.34.95-.67,1.95-.9,2.93-.12.81.39.52.78.08.68-.58,1.16-1.31,1.92-1.82.62-.39,1.17-.82,1.79-1.17.25-.18,2.65-1.39,1.76-.45-1.47,1.35-2.68,2.89-3.67,4.52-.42.6-.67,1.27-1.05,1.89-.46.87-1.07,1.68-1.7,2.45-.24.29-.46.57-.62.9-.27.51-.5,1.79-1.44,1.37-.25-.19-.29-.52-.38-.78-.07-.29-.2-.58-.37-.83-.57-.89-1.3-1.73-2.25-2.38-.6-.39-.57,0-.54.41-.02.36.11,1.13-.13,1.34h0Z"/>
          <path class="cls-2" d="M24.23,21.46c.26-.03.72.52.86.69.61.76,1.07,1.62,1.32,2.51.12.43-.11.77-.41,1.11-.24.3-.43.59-.62.9-.17.29-.28.62-.39.93-.06.15-.13.3-.28.37-.36.11-.72-.31-.95-.5-.43-.39-.69-.76-.92-1.23-.39-.76-.88-1.46-1.4-2.16-.27-.41-.59-.78-.91-1.17-.34-.4-.74-.76-1.11-1.14-.76-.74-1.6-1.46-2.55-2.02-.55-.37-1.1-.71-1.74-.97-.26-.16-.67-.28-.77-.52-.09-.22.65-.1.8-.09.64.06,1.36.24,1.92.46.64.23,1.2.54,1.79.89.37.2.72.39,1.06.63.55.34,1.07.69,1.57,1.09.68.52,1.26,1.18,1.98,1.65.56.3.57-.43.6-.74.03-.19-.06-.58.14-.68h0Z"/>
          <path class="cls-2" d="M36.98,18.9c.03.19-.67.44-.86.59-.6.37-1.14.78-1.63,1.26-.4.35-.78.63-1.08,1.03-.1.14-.21.28-.33.4-.94,1.01-1.73,2.1-2.69,3.11-.32.33-.6.69-.97.99-.55.45-1.29.81-1.75,1.34-.22.24-.31.53-.46.8-.12.2-.21.4-.29.61-.21.46-.14,1.04-.51,1.44-.21.21-.58.14-.72-.09-.47-.64-.43-1.65-.27-2.39.11-.32.31-.71.52-1.03.46-.61,1.15-1.1,1.83-1.54.56-.5.85-1.15,1.1-1.8.62-1.48,2.49-2.9,4.06-3.69.88-.42,1.81-.72,2.79-.92.34-.04.62-.1.93-.14.18-.02.3-.02.33.02h0Z"/>
          <path class="cls-2" d="M29.96,31.51c-.58-.29.32-1.23-.32-.87-.34.2-.66.5-1.01.64-.4.16-.97.22-1.35,0-.29-.24.06-.56.23-.81.13-.19.19-.4.21-.62.05-.32.08-.65.19-.96.28-.65.79-1.22,1.41-1.68.41-.31.8-.62,1.23-.9.33-.19.69-.4,1-.58.82-.46,1.65-.91,2.65-1.05.58-.13,1.15-.27,1.73-.09.2.05.39.1.57.16.06.02.14.05.13.1-.02.05-.07.06-.13.08-.09.03-.23.06-.33.08-.68.17-1.36.34-1.98.65-.59.28-1.13.67-1.58,1.11-.63.55-1.24,1.04-1.6,1.77-.05.14-.24.39-.09.5.28.11.76-.2,1.08-.25.4-.09.79-.07,1.24-.07.37,0,1.02.06,1.13.37.05.25-.52.3-.74.36-.25.05-.48.14-.74.24-.48.15-.92.34-1.29.6-.19.14-.41.31-.5.51-.07.21.23.29.43.37.15.05.71.23.4.37-.34.08-.81.05-1.26.07-.24,0-.5,0-.71-.09h0Z"/>
          <path class="cls-2" d="M26.6,31.5c.3.06.59.15.89.22.51.11.96.16,1.44.26.5.12,1.39.06,1.84.28.39.25-.03.57-.43.65-.25.06-.58.05-.86.05-2.24-.08-4.66.33-6.84,0-.27-.05-.55-.14-.78-.24-.1-.04-.25-.12-.27-.18-.07-.16.45-.23.62-.28.75-.15,1.4-.41,2.14-.6.69-.18,1.53-.28,2.23-.15h.02Z"/>
          <path class="cls-2" d="M21.78,27.74c1.64.1,3.19.93,3.51,2.36.06.28.11.59-.08.81-.43.43-1.02.05-1.28-.33-.33-.42-.72-.86-1.2-1.16-.35-.22-.71-.42-1.08-.61-.81-.32-1.73-.41-2.62-.37-.29,0-.68.11-.9.03-.08-.04-.05-.1,0-.18.19-.23.5-.37.8-.48.22-.09.56-.12.87-.13.63-.01,1.33,0,1.96.06h.01Z"/>
          <path class="cls-2" d="M17.93,23.78c.89.16,1.69.48,2.42.94.45.28.8.66,1.21.97.51.36.86.78,1.05,1.31.22.5-.39.3-.73.2-.26-.08-.57-.16-.82-.3-.35-.18-.64-.41-.95-.64-.96-.68-1.96-1.34-3.14-1.71-.36-.13-.74-.25-1.09-.39-.42-.19-.24-.36.11-.42.55-.08,1.32-.06,1.92.03h.02Z"/>
          <path class="cls-2" d="M21.26,29.64c.64.15,1.24.43,1.69.86.23.23.49.49.47.79,0,.33-.45.42-.76.31-.55-.18-.99-.68-1.53-.96-.44-.28-.93-.39-1.46-.49-.15-.03-.31-.06-.44-.13-.42-.23.5-.36.69-.38.42-.05.93-.06,1.31.01h.01Z"/>
        </g>
        <path class="cls-2" d="M42.48,25.97l-.02-.02c-.81-.96-2.15.54-1.39,1.6.81,1.05,2.28-.49,1.41-1.58Z"/>
        <path class="cls-2" d="M5.24,40.24h-.03c-.52-.11-.83.47-.66,1.03.14.6.76,1.14,1.22,1.06,1.01-.22.37-1.96-.53-2.09Z"/>
        <path class="cls-2" d="M45.32,31.33h-.02c-.33-.3-.9-.16-1.2.2-.4.4-.62,1.21-.06,1.52.69.41,1.98-.89,1.28-1.72Z"/>
        <path class="cls-2" d="M46.51,44.78c-.59-.77-1.92.27-1.53,1.25.18.39.77.47,1.15.19.4-.25.73-.94.39-1.42l-.02-.02Z"/>
        <path class="cls-2" d="M2.17,45.5h-.02c-.73.36-.22,1.83.75,1.83,1.09-.14.38-2.13-.72-1.83Z"/>
        <path class="cls-2" d="M40.27,39.1c.42-.32.69-1.24.35-1.73v-.02c-.18-.22-.44-.17-.62,0-.39.32-.66,1.23-.33,1.72.16.23.41.19.6.03Z"/>
        <path class="cls-2" d="M19.09,31.94c.37-.43.43-1.4.08-1.85l-.02-.02c-.19-.24-.48-.15-.65.09-.31.4-.4,1.26-.09,1.74.17.29.47.3.68.04Z"/>
        <path class="cls-2" d="M12.25,39.82l-.02-.02c-.71-.62-1.36,1.34-.77,1.85.7.41,1.24-1.28.79-1.83Z"/>
        <path class="cls-2" d="M15.9,29.75c.43-.25.68-1.07.41-1.56v-.02c-.56-.78-1.39.48-1.11,1.25.1.37.43.51.71.34Z"/>
        <path class="cls-2" d="M3.5,33.98l-.02.03c-.21.38-.02,1.01.35,1.38.38.43,1.2.72,1.39.11.19-.54-.3-1.32-.88-1.62-.3-.17-.7-.18-.85.1Z"/>
        <path class="cls-2" d="M43.28,35.6c.35-.09.49-.7.23-1.01v-.02c-.28-.36-.67.02-.68.42-.02.32.23.66.45.6Z"/>
        <path class="cls-2" d="M8.32,33.65h-.02c-1.08.1-.79,1.94.05,2.7.46.46,1.2.63,1.51.13.58-.89-.36-2.82-1.53-2.82ZM9.02,35.34c-.1.16-.34.11-.48-.04-.27-.24-.36-.84-.02-.87h0c.38,0,.68.62.49.91Z"/>
        <path class="cls-2" d="M46.79,53.09c-1.82,1.02-3.65,3.58-5.7,4.18-.64.21-1.77.26-2.04-.52-.11.29-.23.58-.38.86-.67,1.14-1.01,1.89-1.16,2.4-.12.41-.53.66-.95.6-1.17-.15-2.61-.2-3.2-.52-.48-.25-.69-1.74-.35-2.45,1.45-2.96,3.95-8.65,1.28-8.48-2.04.13-2.86,7.24-3.91,11.45-.15.2-.3.43-.46.68-.27.4-.55.79-.98,1.07-1.03.71-2.83.31-3.77-.59-.9-.77-4.44-6.28-4.91-7.27-.35-.8-1.15-1.94-2-2.06-.56-.12-.75.34-.66.74.07.49.5,1.12.88,1.77.44.78,3.89,6.03,3.84,6.87-.01.74-.59,1.38-1.51,1.24-.83-.1-1.73-.57-2.49-.86-.81-.31-1.6-.49-2.36-.88h-.02c-.87-.42-8.11-3.53-9.11-3.84-3.61-1.13-3.68,1.29-1.94,1.72.99.24,5.97-.12,10.12,5.83,1.43,2.04,3.28,2.96,5.99,3.55,4.22.84,10.03.58,13.39-1.94.66-.5,2.19-2.05,3.13-3.42.71-.76,1.5-2.04,2.16-2.62.69-.61,1.39-1.18,2.19-1.6,2.2-1.12,5.41-2.32,6.28-5.24.33-1.27-.79-1-1.35-.66ZM18.96,54.47c-1.05-1.51-.58-1.61-.13-1.02.45.59,3.03,4.95,3.03,4.95l-2.91-3.93ZM4.43,57.92c.53-.57,2.06-.08,2.98.31,0,0-3.51.27-2.98-.31ZM20.29,64.82c-6.45-3.42-8.59-4.47-8.59-4.47.97.31,4.32,1.44,5.17,1.85h.02c.74.4,1.5.57,2.3.89.74.29,1.62.75,2.43.86.9.15,1.4-.73,1.31-1.41-.31-2.3,3.39,5.48-2.64,2.28ZM34.26,50.12c.97-.06-1.81,5.17-1.81,5.17.14-.89.84-5.1,1.81-5.17ZM35.8,61.75c-2.32-.07-4.32-1.73-3.27-1.29.82.34,2.04.75,4.06.61s.39.72-.79.68ZM47.41,54.06c-.87,1.4-5.15,3.26-5.15,3.26,1.32-.95,3.87-3.3,4.2-3.54.33-.25,1.81-1.11.95.29Z"/>
        <path class="cls-2" d="M37.6,30.72h-.02c-.96-.58-1.99.81-1.93,1.99-.01,1.08.99,1.88,1.75,1.31.94-.61,1.29-2.63.2-3.29ZM37.18,32.62c-.3.22-.69-.09-.69-.51-.02-.46.38-1,.75-.78h0c.43.26.29,1.06-.08,1.29Z"/>
        <path class="cls-2" d="M45.22,48.2h-.03c-.68-.11-1.61.55-2.04,1.26-.36.53-.51,1.52.21,1.65.94.2,2.13-.9,2.37-1.85.15-.49-.06-1-.52-1.06ZM44.81,49.22c-.09.36-.54.77-.89.69-.27-.05-.22-.42-.08-.62.16-.27.51-.51.76-.47h.01c.17.02.25.21.19.4Z"/>
        <path class="cls-2" d="M7.79,54.17c-.18-.78-.9-1.47-1.54-1.69l-.05-.02c-.98-.39-1.77.66-1.15,1.91.29.57.78,1,1.29,1.21.83.4,1.74-.22,1.44-1.42ZM6.39,54.24c-.22-.09-.42-.27-.54-.51-.26-.53.07-.97.48-.8h.02c.27.1.57.39.65.72.12.5-.26.76-.61.6Z"/>
        <path class="cls-2" d="M43.23,37.58c-.85.82-1.53,1.84-2.13,2.89-1.01,1.8-.93,2-1.35,4.13-.19.65.88,3.18.67,4.42l-.04,2.43c1.58-4.56,6.03-10.4,6.42-13.21.26-3.5-1.85-2.43-3.57-.65ZM45.08,39.91c-1.21,2.27-1.91,2.43-1.32,1.41.59-1.02,1.41-2.69.61-1.81-.81.88-1.87,2.94-1.61,1.66.26-1.28-1.96,2.34-1.96,2.34.17-.43,1.28-2.97,1.6-3.48,1.19-1.86,2.2-3.17,2.93-3.13.96.05,1.03.59-.25,3.01Z"/>
        <path class="cls-2" d="M13.1,53.82c.1.42.18.84.26,1.28.19,1.03.39,2.1.89,3.09.51,1.2,1.14,2.27,1.87,3.2.71.33,1.44.51,2.19.81.76.29,1.67.75,2.49.86.76.12,1.28-.3,1.45-.87-.05.06-.1.13-.14.19-.21.28-.51.58-.86.64-.49.09-.91-.27-1.2-.64-.36-.44-.48-.88-.52-1.5,0-.51-.03-1.08.14-1.56.14-.36.45-.6.78-.46h.01c.32.15.55.42.81.69-.52-.92-1.16-1.95-1.69-2.81-.07-.05-.15-.12-.23-.2-.24-.24-.47-.52-.69-.77-.45-.58-1.22-.95-1.07-1.72.03-.15.09-.28.16-.4-.07-.16-.13-.32-.15-.46-.09-.4.1-.85.66-.74.13.02.26.07.39.13.09-.08.18-.17.27-.24.4-.3.69-.57,1.17-.6h.01c.53.04.93.72,1.34,1.09.22.22.46.44.69.65.66.56.92,1.02.24,1.71-.35.35-.75.66-1.14.98.12.19.24.39.37.6.24-.2.49-.37.73-.54.6-.42,1.17-.88,1.94-.74h.02c.78.14,2.23,1.34,2.49,2.09.18.6-.44.96-.82,1.32-.49.44-1.01.88-1.56,1.27-.14.09-.27.15-.4.19.25.34.47.65.67.89.06-.3.31-.56.56-.79.53-.47,1.08-.89,1.67-1.3.43-.28.84-.64,1.3-.42h.01c.34.16.59.54.9.79.33.27.74.47.87.8.19.6-.47,1.04-.85,1.41-.37.32-.79.67-1.16.98.35-.04.68-.15.96-.34.43-.28.71-.67.98-1.07.16-.25.31-.48.46-.68.08-.32.16-.66.24-1.01-.09-.01-.19-.03-.28-.08-.48-.3-.87-.77-1.24-1.17-.53-.56.14-1.17.55-1.57.43-.41.94-.82,1.35-1.23.2-.19.39-.42.6-.6.16-.71.32-1.39.49-2.03-.16-.02-.32-.08-.49-.22-.55-.35-1.02-.74-1.51-1.18-.33-.28-.89-.61-.68-1.11.16-.4.47-.74.78-1.05.29-.3.74-.44,1.13-.36h.02c.58.11,1.03.55,1.5.88.1.08.21.14.32.21.12-.19.24-.36.36-.5-.25-.18-.49-.37-.74-.54-.69-.45-1.13-.95-.54-1.73.18-.23.39-.45.58-.68.22-.23.5-.54.84-.38h.01c.25.11.53.34.75.53.27.24.55.42.78.69.24.27.5.52.47.89,0,.42-.27.74-.5,1.07.42.46.38,1.4.1,2.55.33.26.59.64.83.96.6.89-.03,1.64-.66,2.29-.49.47-.88.58-1.36.11-.11.27-.23.53-.34.78.33.72-.3,1.22-.82,1.76-.29.61-.7,1.75-.67,1.76.1-.1.19-.2.28-.31.36-.36,1.38-1.91,1.92-1.5h0c.16.13.24.43.26.65.03.27.08.55.03.82-.06.41-.29.71-.56,1,.87.16,2.07.2,2.96.38.13-.19.25-.38.36-.56.12-.51.46-1.29,1.19-2.53.07-.13.11-.26.17-.39.26-.74.44-1.52.6-2.31.43-1.49.39-3.23.35-4.77,0-.24-.01-.47-.01-.7-.03-.55-.13-1.03-.23-1.49-.04-.2-.09-.41-.13-.63-.17-1.01-.36-2-.75-2.89l-.03-.1c-.24-.74-.51-1.57-.91-2.29-.51-1.25-1.15-2.42-1.89-3.47-.83-1.29-1.97-2.43-3.28-3.3-.44-.32-.95-.58-1.43-.84l-.14-.07c-.57-.32-1.21-.64-1.91-.69-.1,0-.19-.01-.27-.01-.39,0-.76.07-1.1.22-.11.05-.24.11-.36.18-.13.07-.31.16-.38.17h-.04s-.17-.08-.25-.14c-.09-.07-.19-.14-.31-.2h-.03s-.03-.03-.03-.03c-.44-.16-.93-.18-1.31-.18-.17,0-.34,0-.5,0-.15,0-.3,0-.44,0-.07,0-.14,0-.2,0-.98.01-1.87.26-2.85.76h-.03s-.03.03-.03.03c-.15.11-.3.2-.45.3-.32.21-.66.42-1,.71-.5.41-.94.92-1.36,1.41-.13.15-.26.3-.39.45-1.03,1.2-1.92,2.6-2.73,4.29-.14.28-.24.57-.35.85-.08.21-.16.42-.25.63-.19.41-.4.84-.55,1.42-.22.93-.43,1.84-.56,2.81-.03.25-.09.5-.16.76l-.04.19c-.14.57-.15,1.26-.16,1.92,0,.13,0,.25,0,.37,0,.31,0,.61,0,.9,0,.77-.02,1.56.16,2.33ZM14.43,54.31c-.02-.56-.03-1.13.18-1.59.12-.23.28-.52.55-.4h0c.25.15.37.46.54.73.05.09.1.18.15.28.22.5.24,1.1.09,1.63-.09.29-.24.5-.38.75-.22.37-.44.49-.67.04-.14-.28-.3-.55-.38-.85-.05-.19-.07-.39-.09-.59ZM14.68,57.96s-.02-.04-.03-.06c0,.02.02.04.03.06.22.52.47,1.03.76,1.52-.28-.49-.54-1-.76-1.52ZM18.31,61.78c-.23-.14-.46-.35-.64-.56-.12-.17-1.35-1.56-1.02-1.59h0c.32.04.75.45,1.04.68.32.29.56.67.74,1.03.09.18.24.67-.14.44ZM17.9,55.96c.24.25.53.49.78.73.35.35.66.67.62,1.12-.01.24-.07.45-.15.68-.17.44-.33.88-.57,1.27-.39.6-.79-.16-1.12-.46-.33-.36-.7-.81-1.01-1.12-.2-.21-.37-.42-.45-.71-.13-.56-.12-1.27.19-1.78.21-.34.58-.57.95-.39h.01c.25.12.51.43.74.66ZM18.85,51.52c-.29.32-.64.55-.94.84-.16.17-.32.34-.49.49-.42.42-.89.37-1.28-.06-.81-.98-.75-2.08.1-3.02.39-.46,1.13-1.23,1.75-.96h.01c.69.33,1.25,1.26,1.26,2.01-.02.27-.23.5-.42.69ZM20.58,37.21c.45-.28,1.03-.85,1.57-.74h.01c.41.13.71.63.97.96.41.55.1,1.01-.38,1.34-.29.25-.62.45-.94.67-.36.29-.8.16-1.07-.2-.23-.3-.42-.6-.56-.94-.25-.45,0-.82.4-1.1ZM28.65,42.32c.55.42.36.84-.14,1.21-.4.31-.75.77-1.2.99-.54.26-1.09-.15-1.55-.43-.66-.47-1.76-1.35-.7-2.03.79-.47,1.44-.81,2.38-.52h.01c.43.18.82.5,1.19.78ZM27.75,40.21c.23-.37.61-.64.93-.92.29-.23.59-.38.93-.29h.01c.39.13.8.48,1.12.8.61.64.08,1.23-.41,1.72-.46.47-.76.6-1.35.19-.4-.29-1.56-.9-1.24-1.5ZM25.61,46.31c-.54.35-1.22.59-1.82.25-.29-.16-.51-.38-.79-.59-.43-.42-1.35-.96-.94-1.66.13-.23.41-.4.67-.55.28-.16.59-.24.89-.2h.02c.51.07.88.41,1.31.69.28.19.59.4.86.63.67.52.52,1.04-.19,1.42ZM25.43,41.11c-.44.33-.87.63-1.38.82-.74.24-1.7-.52-2.05-1.14-.28-.54.34-.96.74-1.26.46-.32.99-.65,1.57-.52h.02c.51.14.97.59,1.33.98.39.38.18.82-.22,1.12ZM21.1,41.19h.01c.46.21.85.67,1.25,1.02.59.51.36.94-.23,1.32-.39.31-.93.54-1.36.2-.24-.16-.46-.39-.65-.62-.25-.28-.44-.59-.41-.96,0-.65.77-1.2,1.38-.95ZM20.09,44.06c.19.49,0,.83-.35,1.13-.39.38-.97.88-1.38,1.27-.34.33-.68.53-1,.08-.19-.29-.37-.63-.52-.94-.21-.43-.3-.95.02-1.36.15-.22.37-.39.57-.56.49-.4,1.07-.79,1.73-.63h.01c.46.13.76.58.92,1.01ZM19.51,49.6c-.83-.98-1.88-1.9-.39-2.88.3-.22.59-.48.88-.72.35-.33.81-.71,1.27-.53h.01c.28.12.51.38.73.59.22.22.46.42.68.64.3.34.79.66.64,1.14-.2.44-.67.68-1.05.97-.4.28-.83.57-1.21.86-.57.46-1.05.48-1.58-.08ZM24.29,53.54c-.46.34-.96,0-1.32-.34-.32-.27-.71-.56-1.02-.82-.38-.28-.72-.75-.8-1.19-.11-.69.7-1.17,1.16-1.54.84-.53,1.64-1.51,2.74-1.03h.02c.27.1.5.27.72.46.22.21.47.37.7.57.43.35,1.26.76.87,1.42-.14.25-.46.44-.7.64-.28.23-.59.41-.86.66-.28.26-.59.45-.88.71-.2.17-.42.33-.63.47ZM29.56,51.99c.56.37,1.1.79,1.52,1.31.56.61,0,.92-.4,1.37-.27.29-.53.61-.83.88-.34.32-.74.58-1.06.87-.68.66-1.03.71-1.81.15-.5-.31-1.04-.54-1.48-.95-.3-.29-.63-.7-.65-1.08,0-.79.98-1.26,1.52-1.67.17-.12.34-.22.5-.34.53-.38,1.05-.97,1.75-.98h.01c.36,0,.65.25.94.43ZM29.43,49.28c-.16.17-.33.37-.52.51-.53.43-.99.12-1.46-.25-.4-.33-.81-.65-1.22-.96-.83-.54-1.11-1.1-.33-1.87.37-.31.78-.76,1.3-.65h.01c.5.13.86.56,1.32.82.23.15.44.33.67.47.33.22.72.47.8.87.06.41-.31.75-.58,1.05ZM31.42,47.11c-.34.4-.65.51-1.07.21-.71-.51-1.77-1.01-2.11-1.86-.19-.5-.04-1.09.37-1.44.37-.29.84-.63,1.32-.52h.01c.29.07.54.28.79.45.39.29.8.55,1.18.86,1.19.88.18,1.54-.49,2.3ZM33.1,44.67c-.54-.03-.97-.49-1.36-.83-.41-.39-.98-.84-1.01-1.43.02-.72.78-1.48,1.52-1.23h.02c.25.07.48.22.68.39.4.31.82.64,1.14,1.02.18.23.29.53.26.82-.04.25-.21.48-.41.72-.21.25-.49.55-.82.55ZM35.6,46.89c-.59-.48-1.69-1.17-1.4-2.04.18-.47.44-1.16,1.04-1.13h.01c.36.04.62.33.92.6.5.42.69,1.04.58,1.68-.05.66-.53,1.36-1.15.89ZM35.81,51.52c-.37-.57-.47-1.37-.07-1.95.21-.37.65-.68,1.08-.52h.01c.63.23.88.95,1.1,1.54.17.41.17.82-.01,1.25-.62,1.34-1.55.6-2.12-.31ZM38.24,52.74h0c.27.2.25.83.19,1.17-.04.24-.12,1.18-.49.98-.21-.16-.26-.43-.29-.71-.05-.38.03-.77.19-1.1.08-.15.2-.36.39-.33ZM35.37,57.82c-.14-.78-.1-1.69.49-2.29.24-.27.66-.89,1.06-.66h0c.3.23.31.7.33,1.06,0,.3-.03.6-.1.88-.1.37-.35.69-.56,1.04-.49.78-1.02,1.15-1.23-.04ZM39.33,51.9c.01-.85-.02-1.69-.03-2.45.01.76.04,1.61.03,2.45ZM38.73,55.85c-.19.77-.42,1.54-.78,2.24-.37.88-.8,1.74-1.36,2.52.56-.77.99-1.64,1.36-2.52.36-.71.59-1.47.78-2.24ZM37.62,46.46c.17.12.27.36.35.55.22.46.36.91.36,1.43,0,.24,0,.53-.03.75-.02.11-.05.18-.1.21h0s-.09,0-.15-.03c-.17-.11-.33-.28-.47-.43-.4-.5-.75-1.1-.62-1.75.06-.34.29-.96.66-.72ZM35.49,42.29c.08-.23.27-.8.57-.74h0c.29.13.42.45.58.73.2.34.28.72.37,1.1.45,1.72-1.21-.06-1.48-.51-.09-.18-.11-.39-.06-.58ZM33.82,38.43h.01c.4.13.62.53.89.83.39.48.79,1.01.68,1.67-.12.89-.64,1.41-1.41.72-.45-.39-1.32-.99-1.4-1.61-.02-.25.05-.45.16-.68.17-.4.54-1.08,1.07-.93ZM31.5,36.18h.01c.3.06.54.29.81.43,1,.6.46,1.77-.07,2.51-.21.31-.5.59-.88.41-.29-.15-.59-.38-.87-.6-.54-.43-.52-.85-.14-1.34.21-.28.37-.61.52-.92.12-.27.34-.56.62-.5ZM28.8,34.14c.07,0,.15,0,.22,0-.08,0-.16,0-.24,0,0,0,.01,0,.02,0ZM29.34,34.88h.02c.43.1.95.53,1.05.95.03.23-.05.38-.19.64-.4.78-.99,1.28-1.78.6-.35-.31-.85-.67-.84-1.17.09-.76,1.04-1.24,1.75-1.03ZM26.82,36.66h.01c.4.08.78.49,1.11.75.85.79.49,1.39-.34,2-.6.47-.96.58-1.59.11-.55-.4-1.28-1.06-.72-1.75.19-.25.42-.48.66-.68.29-.24.51-.49.87-.42ZM23.93,35.08c.46-.18,1.06-.35,1.52-.17h.01c.42.19.68.66.5,1.08-.15.34-.52.69-.79.96-.66.66-1.32.54-1.86-.17-.56-.76-.2-1.39.62-1.71ZM23.14,34.24c-.67.1-1.3.33-1.91.65.61-.32,1.24-.55,1.91-.65ZM18.02,39.61c.05-.48.77-1.34,1.31-1.23h.01c.45.12.63.62.81,1,.1.22.22.45.23.69,0,.38-.46.83-.75,1.07-.54.43-1.15.17-1.4-.42-.14-.36-.26-.72-.21-1.11ZM16.01,43.02c.03-.37.14-.72.26-1.06.09-.27.25-.51.39-.81.13-.26.35-.72.7-.59h.01c.22.12.4.47.51.72.25.45.13,1-.26,1.35-.24.26-.58.48-.91.64-.22.11-.44.33-.65.21-.12-.1-.07-.3-.06-.46ZM14.78,46.68c.23-.44.55-1.35,1.18-1.24h.01c.78.3.8,1.68.67,2.37-.14.54-.46.96-.8,1.38-.15.19-.27.4-.44.57-.17.2-.37.32-.55.06-.16-.27-.25-.69-.33-1.01-.11-.72.02-1.47.26-2.14ZM14.57,43.96c-.09.22-.17.44-.24.7.07-.26.15-.48.24-.7ZM13.57,53.71c.21.88.34,1.81.56,2.7-.22-.89-.35-1.82-.56-2.7ZM13.58,48.4c.04-.16.08-.33.12-.49-.04.17-.08.33-.12.49-.04.16-.07.33-.09.5.02-.18.05-.35.09-.5Z"/>
        <path class="cls-2" d="M15.55,61.25c-1.12-1.3-1.97-2.83-2.56-4.43-.48-1.08-.62-2.27-.78-3.44-1.62-1.44-2.49-5.13-3.61-6.76-.75-1.2-1.85-2.52-3.13-2.55-.9.09-.95,1.07-.56,2.07.66,1.61,1.89,2.81,2.99,3.98,3.5,3.75,4.73,8,5.39,10.45l2.27.68ZM6.05,45.3c1.16.06,1.87,1.31,2.82,3.2,0,0-3.99-3.26-2.82-3.2Z"/>
      </g>
    </g>
  </g>
</svg>