<?xml version="1.0" encoding="UTF-8"?>
<svg id="Layer_2" data-name="Layer 2" xmlns="http://www.w3.org/2000/svg" viewBox="0 0 72 99.36">
  <defs>
    <style>
      .cls-1 {
        fill: none;
      }

      .cls-2 {
        fill: #573100;
      }

      .cls-3 {
        fill: #fff;
      }
    </style>
  </defs>
  <g id="Design">
    <g>
      <rect class="cls-1" width="72" height="99.36"/>
      <g>
        <g>
          <path class="cls-2" d="M61,25.25l-30.53-.03c-.38,0-.69.3-.69.68v68.73c0,1.71,1.39,3.1,3.1,3.1h25.53c1.71,0,3.1-1.39,3.1-3.1V25.9c0-.32-.22-.57-.51-.65ZM59.65,87.25c0,2.06-1.78,3.73-3.98,3.73h-20.06c-.24,0-.48-.02-.71-.07,1.34-11,1.76-22.83-.8-33.23-.79-3.2-1.63-6.09-2.46-8.87v-15.11c4.67,0,4.67,1.08,9.34,1.08s4.67-1.08,9.34-1.08,4.66,1.08,9.33,1.08v52.47ZM49.74,47.12c0,.66.54,1.2,1.2,1.2s1.19-.54,1.19-1.2-.53-1.2-1.19-1.2-1.2.54-1.2,1.2ZM50.04,74.52c-.55,0-1,.45-1,1s.45,1,1,1,1-.45,1-1-.45-1-1-1ZM47.34,43.52c1.33,0,2.4-1.08,2.4-2.4s-1.07-2.4-2.4-2.4-2.4,1.07-2.4,2.4,1.08,2.4,2.4,2.4ZM50.04,72.21c0-.83-.68-1.5-1.5-1.5s-1.51.67-1.51,1.5.68,1.5,1.51,1.5,1.5-.67,1.5-1.5ZM46.14,61.52c0,.66.54,1.19,1.2,1.19s1.19-.53,1.19-1.19-.53-1.2-1.19-1.2-1.2.54-1.2,1.2ZM47.04,86.53c-.55,0-1,.45-1,1s.45.99,1,.99.99-.44.99-.99-.44-1-.99-1ZM46.73,53.12c1,0,1.8-.81,1.8-1.8s-.8-1.8-1.8-1.8-1.8.8-1.8,1.8.81,1.8,1.8,1.8ZM46.53,77.52c-.82,0-1.5.67-1.5,1.5s.68,1.5,1.5,1.5,1.51-.67,1.51-1.5-.68-1.5-1.51-1.5ZM45.27,66.71h-.5c-.69.35-1.06,1.11-.42,1.71,1.18,1.12,2.58-1.11.92-1.71ZM42.04,72.71c-1.11,0-2.01.9-2.01,2s.9,2,2.01,2,2-.89,2-2-.9-2-2-2ZM43.04,82.53c-.55,0-1,.44-1,.99s.45,1,1,1,.99-.45.99-1-.44-.99-.99-.99ZM41.34,56.72c0,.66.54,1.19,1.2,1.19s1.19-.53,1.19-1.19-.53-1.2-1.19-1.2-1.2.54-1.2,1.2ZM42.53,46.52c0-1-.8-1.8-1.8-1.8s-1.8.8-1.8,1.8.81,1.8,1.8,1.8,1.8-.81,1.8-1.8Z"/>
          <path class="cls-3" d="M34.1,57.68c2.56,10.4,2.14,22.23.8,33.23-1.85-.31-3.26-1.83-3.26-3.66v-38.44c.83,2.78,1.67,5.67,2.46,8.87Z"/>
          <path class="cls-3" d="M40.73,48.32c-.99,0-1.8-.81-1.8-1.8s.81-1.8,1.8-1.8,1.8.8,1.8,1.8-.8,1.8-1.8,1.8Z"/>
          <path class="cls-3" d="M42.54,55.52c.66,0,1.19.54,1.19,1.2s-.53,1.19-1.19,1.19-1.2-.53-1.2-1.19.54-1.2,1.2-1.2Z"/>
          <path class="cls-3" d="M44.03,83.52c0,.55-.44,1-.99,1s-1-.45-1-1,.45-.99,1-.99.99.44.99.99Z"/>
          <path class="cls-3" d="M44.04,74.71c0,1.11-.9,2-2,2s-2.01-.89-2.01-2,.9-2,2.01-2,2,.9,2,2Z"/>
          <path class="cls-3" d="M44.35,68.42c-.64-.6-.27-1.36.42-1.71h.5c1.66.6.26,2.83-.92,1.71Z"/>
          <path class="cls-3" d="M48.04,79.02c0,.83-.68,1.5-1.51,1.5s-1.5-.67-1.5-1.5.68-1.5,1.5-1.5,1.51.67,1.51,1.5Z"/>
          <path class="cls-3" d="M44.93,51.32c0-1,.81-1.8,1.8-1.8s1.8.8,1.8,1.8-.8,1.8-1.8,1.8-1.8-.81-1.8-1.8Z"/>
          <path class="cls-3" d="M48.03,87.53c0,.55-.44.99-.99.99s-1-.44-1-.99.45-1,1-1,.99.45.99,1Z"/>
          <path class="cls-3" d="M47.34,60.32c.66,0,1.19.54,1.19,1.2s-.53,1.19-1.19,1.19-1.2-.53-1.2-1.19.54-1.2,1.2-1.2Z"/>
          <path class="cls-3" d="M48.54,73.71c-.83,0-1.51-.67-1.51-1.5s.68-1.5,1.51-1.5,1.5.67,1.5,1.5-.68,1.5-1.5,1.5Z"/>
          <path class="cls-3" d="M44.94,41.12c0-1.33,1.08-2.4,2.4-2.4s2.4,1.07,2.4,2.4-1.07,2.4-2.4,2.4-2.4-1.08-2.4-2.4Z"/>
          <circle class="cls-3" cx="50.04" cy="75.52" r="1"/>
          <path class="cls-3" d="M52.13,47.12c0,.66-.53,1.2-1.19,1.2s-1.2-.54-1.2-1.2.54-1.2,1.2-1.2,1.19.54,1.19,1.2Z"/>
          <g>
            <path class="cls-2" d="M45.22,7.5c1.98.73.31,3.39-1.11,2.06-.77-.73-.32-1.64.5-2.06h.6Z"/>
            <circle class="cls-2" cx="41.33" cy="17.11" r="2.4"/>
            <circle class="cls-2" cx="49.13" cy="14.1" r="1.8"/>
            <path class="cls-2" d="M49.74,41.12c0,1.32-1.07,2.4-2.4,2.4s-2.4-1.08-2.4-2.4,1.08-2.4,2.4-2.4,2.4,1.07,2.4,2.4Z"/>
            <path class="cls-2" d="M42.53,46.52c0,.99-.8,1.8-1.8,1.8s-1.8-.81-1.8-1.8.81-1.8,1.8-1.8,1.8.8,1.8,1.8Z"/>
            <path class="cls-2" d="M48.53,51.32c0,.99-.8,1.8-1.8,1.8s-1.8-.81-1.8-1.8.81-1.8,1.8-1.8,1.8.8,1.8,1.8Z"/>
            <path class="cls-2" d="M52.13,47.12c0,.66-.53,1.2-1.19,1.2s-1.2-.54-1.2-1.2.54-1.2,1.2-1.2,1.19.54,1.19,1.2Z"/>
            <path class="cls-2" d="M43.73,56.72c0,.66-.53,1.19-1.19,1.19s-1.2-.53-1.2-1.19.54-1.2,1.2-1.2,1.19.54,1.19,1.2Z"/>
            <path class="cls-2" d="M48.53,61.52c0,.66-.53,1.19-1.19,1.19s-1.2-.53-1.2-1.19.54-1.2,1.2-1.2,1.19.54,1.19,1.2Z"/>
          </g>
          <g>
            <path class="cls-2" d="M44.35,68.42c-.64-.6-.27-1.36.42-1.71h.5c1.66.6.26,2.83-.92,1.71Z"/>
            <path class="cls-2" d="M44.04,74.71c0,1.11-.9,2-2,2s-2.01-.89-2.01-2,.9-2,2.01-2,2,.9,2,2Z"/>
            <path class="cls-2" d="M50.04,72.21c0,.83-.68,1.5-1.5,1.5s-1.51-.67-1.51-1.5.68-1.5,1.51-1.5,1.5.67,1.5,1.5Z"/>
            <path class="cls-2" d="M48.04,79.02c0,.83-.68,1.5-1.51,1.5s-1.5-.67-1.5-1.5.68-1.5,1.5-1.5,1.51.67,1.51,1.5Z"/>
            <circle class="cls-2" cx="50.04" cy="75.52" r="1"/>
            <path class="cls-2" d="M44.03,83.52c0,.55-.44,1-.99,1s-1-.45-1-1,.45-.99,1-.99.99.44.99.99Z"/>
            <path class="cls-2" d="M48.03,87.53c0,.55-.44.99-.99.99s-1-.44-1-.99.45-1,1-1,.99.45.99,1Z"/>
          </g>
        </g>
        <path class="cls-2" d="M34.1,57.68c-.79-3.2-1.63-6.09-2.46-8.87-.64-2.16-1.27-4.25-1.86-6.36-1.4-4.99-2.53-10.09-2.94-16.45h.39c.13,0,.24-.09.26-.21h.17c.14,0,.26-.12.26-.26v-1.41c0-.06-.02-.11-.05-.15.03-.05.05-.1.05-.16v-1.4c0-.15-.12-.26-.26-.26h-.17v-.94c0-.55-.44-1-1-1h-6.53c-.55,0-.99.45-.99,1v.94h-.17c-.15,0-.26.11-.26.26v1.4c0,.06.02.11.05.16-.03.04-.05.09-.05.15v1.41c0,.14.11.26.26.26h.17c.02.12.13.21.26.21h.39c-.8,12.49-4.4,20.08-7.26,31.68-3,12.2-1.9,26.38-.05,38.86.24,1.62,1.63,2.82,3.28,2.82h15.28c1.2,0,2.28-.65,2.86-1.63.21-.36.36-.76.42-1.19.27-1.84.53-3.72.75-5.63,1.34-11,1.76-22.83-.8-33.23ZM19.11,36.68h5.2c.19,2.64.43,5.09.69,7.52-.6-.2-1.25-.32-1.92-.32-2.6,0-4.82,1.69-5.66,4.05-.25.7-.81,1.25-1.51,1.6,1.23-4.29,2.39-8.3,3.2-12.85ZM26.55,94.06c-.09,1.5-.59,2.61-1.17,2.61h-8.91c-1.45,0-2.68-1.11-2.89-2.61-1.59-11.18-2.54-23.81-.19-34.84h13.23c.96,11.03.57,23.66-.07,34.84Z"/>
      </g>
    </g>
  </g>
</svg>