<?xml version="1.0" encoding="UTF-8"?>
<svg id="Layer_2" data-name="Layer 2" xmlns="http://www.w3.org/2000/svg" viewBox="0 0 60 82.8">
  <defs>
    <style>
      .cls-1 {
        fill: none;
      }

      .cls-2 {
        fill: #573100;
      }

      .cls-3 {
        fill: #fff;
      }
    </style>
  </defs>
  <g id="Design">
    <g>
      <rect class="cls-1" width="60" height="82.8"/>
      <g>
        <g>
          <path class="cls-2" d="M50.83,21.04l-25.44-.02c-.32,0-.57.25-.57.57v57.28c0,1.42,1.16,2.58,2.58,2.58h21.28c1.42,0,2.58-1.16,2.58-2.58V21.58c0-.27-.18-.47-.43-.54ZM49.71,72.7c0,1.72-1.48,3.11-3.32,3.11h-16.72c-.2,0-.4-.02-.59-.06,1.12-9.17,1.47-19.03-.67-27.69-.66-2.67-1.36-5.07-2.05-7.39v-12.59c3.89,0,3.89.9,7.78.9s3.89-.9,7.78-.9,3.88.9,7.78.9v43.72ZM41.45,39.26c0,.55.45,1,1,1s.99-.45.99-1-.44-1-.99-1-1,.45-1,1ZM41.7,62.1c-.46,0-.83.38-.83.83s.37.83.83.83.83-.37.83-.83-.37-.83-.83-.83ZM39.45,36.26c1.11,0,2-.9,2-2s-.89-2-2-2-2,.89-2,2,.9,2,2,2ZM41.7,60.17c0-.69-.57-1.25-1.25-1.25s-1.26.56-1.26,1.25.57,1.25,1.26,1.25,1.25-.56,1.25-1.25ZM38.45,51.26c0,.55.45.99,1,.99s.99-.44.99-.99-.44-1-.99-1-1,.45-1,1ZM39.2,72.1c-.46,0-.83.37-.83.83s.37.82.83.82.82-.37.82-.82-.37-.83-.82-.83ZM38.94,44.26c.83,0,1.5-.68,1.5-1.5s-.67-1.5-1.5-1.5-1.5.67-1.5,1.5.67,1.5,1.5,1.5ZM38.77,64.6c-.68,0-1.25.56-1.25,1.25s.57,1.25,1.25,1.25,1.26-.56,1.26-1.25-.57-1.25-1.26-1.25ZM37.72,55.59h-.42c-.57.29-.88.93-.35,1.43.98.93,2.15-.93.77-1.43ZM35.03,60.59c-.92,0-1.68.75-1.68,1.67s.75,1.67,1.68,1.67,1.67-.74,1.67-1.67-.75-1.67-1.67-1.67ZM35.86,68.77c-.46,0-.83.37-.83.82s.37.83.83.83.82-.37.82-.83-.37-.82-.82-.82ZM34.45,47.26c0,.55.45.99,1,.99s.99-.44.99-.99-.44-1-.99-1-1,.45-1,1ZM35.44,38.76c0-.83-.67-1.5-1.5-1.5s-1.5.67-1.5,1.5.67,1.5,1.5,1.5,1.5-.68,1.5-1.5Z"/>
          <path class="cls-3" d="M28.41,48.06c2.13,8.67,1.78,18.52.67,27.69-1.54-.26-2.72-1.53-2.72-3.05v-32.03c.69,2.32,1.39,4.72,2.05,7.39Z"/>
          <path class="cls-3" d="M33.94,40.26c-.82,0-1.5-.68-1.5-1.5s.67-1.5,1.5-1.5,1.5.67,1.5,1.5-.67,1.5-1.5,1.5Z"/>
          <path class="cls-3" d="M35.45,46.26c.55,0,.99.45.99,1s-.44.99-.99.99-1-.44-1-.99.45-1,1-1Z"/>
          <path class="cls-3" d="M36.69,69.6c0,.46-.37.83-.82.83s-.83-.37-.83-.83.37-.82.83-.82.82.37.82.82Z"/>
          <path class="cls-3" d="M36.7,62.25c0,.93-.75,1.67-1.67,1.67s-1.68-.74-1.68-1.67.75-1.67,1.68-1.67,1.67.75,1.67,1.67Z"/>
          <path class="cls-3" d="M36.96,57.01c-.53-.5-.23-1.13.35-1.43h.42c1.38.5.22,2.36-.77,1.43Z"/>
          <path class="cls-3" d="M40.03,65.85c0,.69-.57,1.25-1.26,1.25s-1.25-.56-1.25-1.25.57-1.25,1.25-1.25,1.26.56,1.26,1.25Z"/>
          <path class="cls-3" d="M37.44,42.76c0-.83.67-1.5,1.5-1.5s1.5.67,1.5,1.5-.67,1.5-1.5,1.5-1.5-.68-1.5-1.5Z"/>
          <path class="cls-3" d="M40.02,72.94c0,.46-.37.82-.82.82s-.83-.37-.83-.82.37-.83.83-.83.82.37.82.83Z"/>
          <path class="cls-3" d="M39.45,50.26c.55,0,.99.45.99,1s-.44.99-.99.99-1-.44-1-.99.45-1,1-1Z"/>
          <path class="cls-3" d="M40.45,61.42c-.69,0-1.26-.56-1.26-1.25s.57-1.25,1.26-1.25,1.25.56,1.25,1.25-.57,1.25-1.25,1.25Z"/>
          <path class="cls-3" d="M37.45,34.26c0-1.11.9-2,2-2s2,.89,2,2-.89,2-2,2-2-.9-2-2Z"/>
          <circle class="cls-3" cx="41.7" cy="62.93" r=".83"/>
          <path class="cls-3" d="M43.44,39.26c0,.55-.44,1-.99,1s-1-.45-1-1,.45-1,1-1,.99.45.99,1Z"/>
          <g>
            <path class="cls-2" d="M37.68,6.25c1.65.6.26,2.83-.92,1.71-.64-.61-.27-1.37.42-1.71h.5Z"/>
            <circle class="cls-2" cx="34.45" cy="14.25" r="2"/>
            <circle class="cls-2" cx="40.94" cy="11.75" r="1.5"/>
            <path class="cls-2" d="M41.45,34.26c0,1.1-.89,2-2,2s-2-.9-2-2,.9-2,2-2,2,.89,2,2Z"/>
            <path class="cls-2" d="M35.44,38.76c0,.83-.67,1.5-1.5,1.5s-1.5-.68-1.5-1.5.67-1.5,1.5-1.5,1.5.67,1.5,1.5Z"/>
            <path class="cls-2" d="M40.44,42.76c0,.82-.67,1.5-1.5,1.5s-1.5-.68-1.5-1.5.67-1.5,1.5-1.5,1.5.67,1.5,1.5Z"/>
            <path class="cls-2" d="M43.44,39.26c0,.55-.44,1-.99,1s-1-.45-1-1,.45-1,1-1,.99.45.99,1Z"/>
            <path class="cls-2" d="M36.44,47.26c0,.55-.44.99-.99.99s-1-.44-1-.99.45-1,1-1,.99.45.99,1Z"/>
            <path class="cls-2" d="M40.44,51.26c0,.55-.44.99-.99.99s-1-.44-1-.99.45-1,1-1,.99.45.99,1Z"/>
          </g>
          <g>
            <path class="cls-2" d="M36.96,57.01c-.53-.5-.23-1.13.35-1.43h.42c1.38.5.22,2.36-.77,1.43Z"/>
            <path class="cls-2" d="M36.7,62.25c0,.93-.75,1.67-1.67,1.67s-1.68-.74-1.68-1.67.75-1.67,1.68-1.67,1.67.75,1.67,1.67Z"/>
            <path class="cls-2" d="M41.7,60.17c0,.69-.57,1.25-1.25,1.25s-1.26-.56-1.26-1.25.57-1.25,1.26-1.25,1.25.56,1.25,1.25Z"/>
            <path class="cls-2" d="M40.03,65.85c0,.69-.57,1.25-1.26,1.25s-1.25-.56-1.25-1.25.57-1.25,1.25-1.25,1.26.56,1.26,1.25Z"/>
            <circle class="cls-2" cx="41.7" cy="62.93" r=".83"/>
            <path class="cls-2" d="M36.69,69.6c0,.46-.37.83-.82.83s-.83-.37-.83-.83.37-.82.83-.82.82.37.82.82Z"/>
            <path class="cls-2" d="M40.02,72.94c0,.46-.37.82-.82.82s-.83-.37-.83-.82.37-.83.83-.83.82.37.82.83Z"/>
          </g>
        </g>
        <path class="cls-2" d="M28.41,48.06c-.66-2.67-1.36-5.07-2.05-7.39-.53-1.8-1.06-3.54-1.55-5.3-1.17-4.16-2.11-8.41-2.45-13.71h.32c.11,0,.2-.07.22-.17h.14c.12,0,.22-.1.22-.22v-1.18c0-.05-.02-.09-.04-.12.03-.04.04-.08.04-.13v-1.17c0-.12-.1-.22-.22-.22h-.14v-.78c0-.46-.37-.83-.83-.83h-5.44c-.46,0-.82.38-.82.83v.78h-.14c-.12,0-.22.09-.22.22v1.17c0,.05.02.09.04.13-.03.03-.04.07-.04.12v1.18c0,.12.09.22.22.22h.14c.02.1.11.17.22.17h.33c-.67,10.41-3.67,16.73-6.05,26.4-2.5,10.17-1.58,21.98-.04,32.38.2,1.35,1.36,2.35,2.73,2.35h12.73c1,0,1.9-.54,2.38-1.36.17-.3.3-.63.35-.99.22-1.53.44-3.1.62-4.69,1.12-9.17,1.47-19.03-.67-27.69ZM15.92,30.56h4.33c.16,2.2.36,4.24.57,6.27-.5-.17-1.04-.27-1.6-.27-2.17,0-4.02,1.41-4.72,3.37-.21.58-.67,1.04-1.26,1.33,1.02-3.58,1.99-6.92,2.67-10.71ZM22.12,78.38c-.08,1.25-.49,2.18-.97,2.18h-7.43c-1.21,0-2.23-.93-2.41-2.18-1.33-9.32-2.12-19.84-.16-29.03h11.02c.8,9.19.47,19.72-.06,29.03Z"/>
      </g>
    </g>
  </g>
</svg>