<?xml version="1.0" encoding="UTF-8"?>
<svg id="Layer_2" data-name="Layer 2" xmlns="http://www.w3.org/2000/svg" viewBox="0 0 50 69">
  <defs>
    <style>
      .cls-1 {
        fill: none;
      }

      .cls-2 {
        fill: #573100;
      }

      .cls-3 {
        fill: #fff;
      }
    </style>
  </defs>
  <g id="Design">
    <g>
      <rect class="cls-1" width="50" height="69"/>
      <g>
        <g>
          <path class="cls-2" d="M42.36,17.53l-21.2-.02c-.26,0-.48.21-.48.47v47.73c0,1.19.97,2.15,2.15,2.15h17.73c1.19,0,2.15-.97,2.15-2.15V17.98c0-.22-.15-.4-.35-.45ZM41.42,60.59c0,1.43-1.24,2.59-2.76,2.59h-13.93c-.17,0-.33-.01-.49-.05.93-7.64,1.22-15.85-.56-23.08-.55-2.22-1.13-4.23-1.71-6.16v-10.49c3.24,0,3.24.75,6.49.75s3.24-.75,6.49-.75,3.24.75,6.48.75v36.44ZM34.54,32.72c0,.46.38.83.83.83s.83-.38.83-.83-.37-.83-.83-.83-.83.37-.83.83ZM34.75,51.75c-.38,0-.69.31-.69.69s.31.69.69.69.69-.31.69-.69-.31-.69-.69-.69ZM32.87,30.22c.92,0,1.67-.75,1.67-1.67s-.74-1.67-1.67-1.67-1.67.74-1.67,1.67.75,1.67,1.67,1.67ZM34.75,50.14c0-.58-.47-1.04-1.04-1.04s-1.05.47-1.05,1.04.47,1.04,1.05,1.04,1.04-.47,1.04-1.04ZM32.04,42.72c0,.46.38.83.83.83s.83-.37.83-.83-.37-.83-.83-.83-.83.38-.83.83ZM32.66,60.09c-.38,0-.69.31-.69.69s.31.69.69.69.69-.31.69-.69-.31-.69-.69-.69ZM32.45,36.89c.69,0,1.25-.56,1.25-1.25s-.56-1.25-1.25-1.25-1.25.56-1.25,1.25.56,1.25,1.25,1.25ZM32.31,53.83c-.57,0-1.04.47-1.04,1.04s.47,1.04,1.04,1.04,1.05-.47,1.05-1.04-.47-1.04-1.05-1.04ZM31.44,46.32h-.35c-.48.24-.74.77-.29,1.19.82.78,1.79-.77.64-1.19ZM29.19,50.49c-.77,0-1.4.63-1.4,1.39s.63,1.39,1.4,1.39,1.39-.62,1.39-1.39-.62-1.39-1.39-1.39ZM29.89,57.31c-.38,0-.69.31-.69.69s.31.69.69.69.69-.31.69-.69-.31-.69-.69-.69ZM28.71,39.39c0,.46.38.83.83.83s.83-.37.83-.83-.37-.83-.83-.83-.83.38-.83.83ZM29.53,32.3c0-.69-.56-1.25-1.25-1.25s-1.25.56-1.25,1.25.56,1.25,1.25,1.25,1.25-.56,1.25-1.25Z"/>
          <path class="cls-3" d="M23.68,40.05c1.78,7.22,1.49,15.44.56,23.08-1.28-.22-2.26-1.27-2.26-2.54v-26.69c.58,1.93,1.16,3.94,1.71,6.16Z"/>
          <path class="cls-3" d="M28.28,33.55c-.69,0-1.25-.56-1.25-1.25s.56-1.25,1.25-1.25,1.25.56,1.25,1.25-.56,1.25-1.25,1.25Z"/>
          <path class="cls-3" d="M29.54,38.55c.46,0,.83.38.83.83s-.37.83-.83.83-.83-.37-.83-.83.38-.83.83-.83Z"/>
          <path class="cls-3" d="M30.57,58c0,.38-.31.69-.69.69s-.69-.31-.69-.69.31-.69.69-.69.69.31.69.69Z"/>
          <path class="cls-3" d="M30.58,51.88c0,.77-.62,1.39-1.39,1.39s-1.4-.62-1.4-1.39.63-1.39,1.4-1.39,1.39.63,1.39,1.39Z"/>
          <path class="cls-3" d="M30.8,47.51c-.44-.42-.19-.94.29-1.19h.35c1.15.42.18,1.97-.64,1.19Z"/>
          <path class="cls-3" d="M33.36,54.87c0,.58-.47,1.04-1.05,1.04s-1.04-.47-1.04-1.04.47-1.04,1.04-1.04,1.05.47,1.05,1.04Z"/>
          <path class="cls-3" d="M31.2,35.64c0-.69.56-1.25,1.25-1.25s1.25.56,1.25,1.25-.56,1.25-1.25,1.25-1.25-.56-1.25-1.25Z"/>
          <path class="cls-3" d="M33.35,60.78c0,.38-.31.69-.69.69s-.69-.31-.69-.69.31-.69.69-.69.69.31.69.69Z"/>
          <path class="cls-3" d="M32.87,41.89c.46,0,.83.38.83.83s-.37.83-.83.83-.83-.37-.83-.83.38-.83.83-.83Z"/>
          <path class="cls-3" d="M33.71,51.18c-.58,0-1.05-.47-1.05-1.04s.47-1.04,1.05-1.04,1.04.47,1.04,1.04-.47,1.04-1.04,1.04Z"/>
          <path class="cls-3" d="M31.21,28.55c0-.92.75-1.67,1.67-1.67s1.67.74,1.67,1.67-.74,1.67-1.67,1.67-1.67-.75-1.67-1.67Z"/>
          <circle class="cls-3" cx="34.75" cy="52.44" r=".69"/>
          <path class="cls-3" d="M36.2,32.72c0,.46-.37.83-.83.83s-.83-.38-.83-.83.38-.83.83-.83.83.37.83.83Z"/>
          <g>
            <path class="cls-2" d="M31.4,5.21c1.38.5.22,2.36-.77,1.43-.54-.51-.22-1.14.35-1.43h.42Z"/>
            <circle class="cls-2" cx="28.7" cy="11.88" r="1.67"/>
            <circle class="cls-2" cx="34.12" cy="9.79" r="1.25"/>
            <path class="cls-2" d="M34.54,28.55c0,.92-.74,1.67-1.67,1.67s-1.67-.75-1.67-1.67.75-1.67,1.67-1.67,1.67.74,1.67,1.67Z"/>
            <path class="cls-2" d="M29.53,32.3c0,.69-.56,1.25-1.25,1.25s-1.25-.56-1.25-1.25.56-1.25,1.25-1.25,1.25.56,1.25,1.25Z"/>
            <path class="cls-2" d="M33.7,35.64c0,.69-.56,1.25-1.25,1.25s-1.25-.56-1.25-1.25.56-1.25,1.25-1.25,1.25.56,1.25,1.25Z"/>
            <path class="cls-2" d="M36.2,32.72c0,.46-.37.83-.83.83s-.83-.38-.83-.83.38-.83.83-.83.83.37.83.83Z"/>
            <path class="cls-2" d="M30.37,39.39c0,.46-.37.83-.83.83s-.83-.37-.83-.83.38-.83.83-.83.83.38.83.83Z"/>
            <path class="cls-2" d="M33.7,42.72c0,.46-.37.83-.83.83s-.83-.37-.83-.83.38-.83.83-.83.83.38.83.83Z"/>
          </g>
          <g>
            <path class="cls-2" d="M30.8,47.51c-.44-.42-.19-.94.29-1.19h.35c1.15.42.18,1.97-.64,1.19Z"/>
            <path class="cls-2" d="M30.58,51.88c0,.77-.62,1.39-1.39,1.39s-1.4-.62-1.4-1.39.63-1.39,1.4-1.39,1.39.63,1.39,1.39Z"/>
            <path class="cls-2" d="M34.75,50.14c0,.58-.47,1.04-1.04,1.04s-1.05-.47-1.05-1.04.47-1.04,1.05-1.04,1.04.47,1.04,1.04Z"/>
            <path class="cls-2" d="M33.36,54.87c0,.58-.47,1.04-1.05,1.04s-1.04-.47-1.04-1.04.47-1.04,1.04-1.04,1.05.47,1.05,1.04Z"/>
            <circle class="cls-2" cx="34.75" cy="52.44" r=".69"/>
            <path class="cls-2" d="M30.57,58c0,.38-.31.69-.69.69s-.69-.31-.69-.69.31-.69.69-.69.69.31.69.69Z"/>
            <path class="cls-2" d="M33.35,60.78c0,.38-.31.69-.69.69s-.69-.31-.69-.69.31-.69.69-.69.69.31.69.69Z"/>
          </g>
        </g>
        <path class="cls-2" d="M23.68,40.05c-.55-2.22-1.13-4.23-1.71-6.16-.44-1.5-.88-2.95-1.29-4.42-.97-3.47-1.76-7.01-2.04-11.42h.27c.09,0,.17-.06.18-.15h.12c.1,0,.18-.08.18-.18v-.98s-.01-.08-.03-.1c.02-.03.03-.07.03-.11v-.97c0-.1-.08-.18-.18-.18h-.12v-.65c0-.38-.31-.69-.69-.69h-4.53c-.38,0-.69.31-.69.69v.65h-.12c-.1,0-.18.08-.18.18v.97s.01.08.03.11c-.02.03-.03.06-.03.1v.98c0,.1.08.18.18.18h.12c.01.08.09.15.18.15h.27c-.56,8.67-3.06,13.94-5.04,22-2.08,8.47-1.32,18.32-.03,26.99.17,1.13,1.13,1.96,2.28,1.96h10.61c.83,0,1.58-.45,1.99-1.13.15-.25.25-.53.29-.83.19-1.28.37-2.58.52-3.91.93-7.64,1.22-15.85-.56-23.08ZM13.27,25.47h3.61c.13,1.83.3,3.53.48,5.22-.42-.14-.87-.22-1.33-.22-1.81,0-3.35,1.17-3.93,2.81-.17.49-.56.87-1.05,1.11.85-2.98,1.66-5.76,2.22-8.92ZM18.44,65.32c-.06,1.04-.41,1.81-.81,1.81h-6.19c-1.01,0-1.86-.77-2.01-1.81-1.1-7.76-1.76-16.53-.13-24.19h9.19c.67,7.66.4,16.43-.05,24.19Z"/>
      </g>
    </g>
  </g>
</svg>