<?xml version="1.0" encoding="UTF-8"?>
<svg id="Layer_2" data-name="Layer 2" xmlns="http://www.w3.org/2000/svg" viewBox="0 0 60 73.92">
  <defs>
    <style>
      .cls-1 {
        fill: #ff5c8f;
      }
    </style>
  </defs>
  <g id="Design">
    <g>
      <path class="cls-1" d="M18.1,53.9h-2.9c-1.08-3.16-4.13-5.41-7.68-5.28C3.29,48.77,0,52.39,0,56.63v.14h8.05l1.59,13.97-.38.4.36.42-1.04,1.86c-.1.24.08.5.34.5h8.78c.26,0,.44-.26.34-.5l-1.05-1.88.32-.44-.34-.36,1.83-16.09c.05-.41-.27-.77-.69-.77ZM8.5,53.9c-.13,0-.25.04-.36.1l.05-3.65c.08-.29.35-.49.66-.44.45.07.87.18,1.28.34.28.11.43.39.39.67l-1.72,2.98h-.3ZM9.6,53.9l1.46-2.52c.2-.27.58-.33.85-.12.38.3.72.64,1.03,1.01.18.22.17.53,0,.74l-1.54.9h-1.8ZM12.76,53.9l.35-.2c.28-.16.64-.06.8.2h-1.15ZM1.34,55.44c.07-.47.2-.92.36-1.35.13-.34.52-.49.84-.33l3.96,2.32H1.71c-.25-.1-.41-.36-.37-.64ZM2.73,53.07c-.17-.21-.19-.52,0-.74.3-.38.64-.72,1.01-1.02.25-.2.61-.16.82.07l2.31,4.11-4.13-2.42ZM5.11,50.96c-.05-.27.08-.56.36-.67.43-.17.88-.29,1.35-.37.3-.05.58.15.66.43l-.07,4.71-2.3-4.1ZM15.92,67.5c-.08.7-.67,1.23-1.38,1.23h-2.48c-.71,0-1.3-.53-1.38-1.23l-1.17-10.25h.89l1.17,10.25-.48-10.25h5.99l-1.17,10.25Z"/>
      <path class="cls-1" d="M53.22,53.9h-9.6c-.41,0-.74.36-.69.77l1.83,16.07-.32.08.3.85-1.04,1.75c-.1.24.08.5.34.5h8.78c.26,0,.44-.26.34-.5l-1.05-1.76.24-.84-.26-.06,1.83-16.09c.05-.41-.27-.77-.69-.77ZM51.19,68.07c-.08.74-.71,1.3-1.45,1.3h-2.62c-.74,0-1.37-.56-1.45-1.3l-1.23-10.81h.94l1.23,10.81-.51-10.81h6.32l-1.23,10.81Z"/>
      <path class="cls-1" d="M48.66,40.13L60,6.24l-1.42.75c-9.36,4.96-17.31,4.95-24.11,3.81V1.17c0-.64-.52-1.17-1.17-1.17h-4.78c-.64,0-1.17.52-1.17,1.17v8.09c-3.56-.87-6.65-1.61-9.51-1.52-2.53.09-3.07,1.52-3.76,3.33-.07.18-.14.38-.22.58L1.34,38.83l1.43-.51c6.33-2.25,11.64-.13,17.25,2.12.17.07.33.13.5.2v30.6c0,1.48,1.2,2.68,2.68,2.68h15.42c1.48,0,2.68-1.2,2.68-2.68v-28.12c2.23-.6,4.59-1.52,7.12-2.86l.23-.12ZM28.6,1.62c0-.21.17-.39.39-.39h4c.21,0,.39.17.39.39v10.32h-4.77V1.62ZM20.52,31.18v8.08s-.02,0-.02,0c-1.45-.58-2.88-1.15-4.31-1.65l11.18-26.73v10.05c0,1.01-.61,1.91-1.53,2.3h0c-3.21,1.34-5.3,4.48-5.3,7.95ZM27.93,68.95h-4.97v-2.25h4.97v2.25ZM23.65,37.25c0-3.96,3.21-7.16,7.16-7.16s7.16,3.21,7.16,7.16-3.21,7.16-7.16,7.16-7.16-3.21-7.16-7.16ZM38.87,68.95h-5.29v-2.25h5.29v2.25ZM39.14,25.47c-.85-.95-1.91-1.73-3.13-2.24-.93-.39-1.53-1.29-1.53-2.3v-8.82c2.92.48,6.05.76,9.42.53l-4.75,12.83Z"/>
    </g>
  </g>
</svg>