<?xml version="1.0" encoding="UTF-8"?>
<svg id="Layer_2" data-name="Layer 2" xmlns="http://www.w3.org/2000/svg" viewBox="0 0 50 61.6">
  <defs>
    <style>
      .cls-1 {
        fill: #ff5c8f;
      }
    </style>
  </defs>
  <g id="Design">
    <g>
      <path class="cls-1" d="M15.08,44.91h-2.41c-.9-2.63-3.44-4.51-6.4-4.4C2.74,40.64,0,43.66,0,47.19v.11h6.71l1.32,11.64-.32.34.3.35-.87,1.55c-.08.2.06.42.28.42h7.32c.22,0,.36-.22.28-.42l-.87-1.56.26-.36-.28-.3,1.52-13.4c.04-.34-.23-.64-.57-.64ZM7.08,44.91c-.11,0-.21.03-.3.09l.04-3.04c.06-.24.29-.41.55-.37.37.06.72.15,1.07.28.23.09.36.33.32.56l-1.43,2.48h-.25ZM8,44.91l1.21-2.1c.16-.22.48-.28.71-.1.31.25.6.53.86.84.15.18.14.44,0,.62l-1.28.75h-1.5ZM10.63,44.91l.29-.17c.24-.13.53-.05.67.17h-.96ZM1.12,46.2c.06-.39.16-.77.3-1.12.11-.28.43-.41.7-.28l3.3,1.93H1.43c-.2-.09-.34-.3-.31-.53ZM2.27,44.22c-.14-.18-.16-.43,0-.62.25-.31.53-.6.84-.85.21-.17.51-.13.68.06l1.92,3.43-3.44-2.02ZM4.25,42.47c-.04-.23.07-.47.3-.56.36-.14.73-.24,1.13-.31.25-.04.48.12.55.36l-.05,3.92-1.92-3.41ZM13.27,56.25c-.07.58-.56,1.03-1.15,1.03h-2.07c-.59,0-1.08-.44-1.15-1.03l-.97-8.54h.74l.97,8.54-.4-8.54h4.99l-.97,8.54Z"/>
      <path class="cls-1" d="M44.35,44.91h-8c-.34,0-.61.3-.57.64l1.52,13.39-.27.07.25.71-.87,1.46c-.08.2.06.42.28.42h7.32c.22,0,.36-.22.28-.42l-.87-1.47.2-.7-.22-.05,1.52-13.4c.04-.34-.23-.64-.57-.64ZM42.65,56.72c-.07.62-.59,1.08-1.21,1.08h-2.18c-.62,0-1.14-.47-1.21-1.08l-1.02-9.01h.79l1.02,9.01-.42-9.01h5.27l-1.02,9.01Z"/>
      <path class="cls-1" d="M40.55,33.44l9.45-28.24-1.18.63c-7.8,4.13-14.43,4.12-20.09,3.17V.97c0-.54-.43-.97-.97-.97h-3.99c-.54,0-.97.43-.97.97v6.74c-2.97-.73-5.55-1.34-7.92-1.26-2.11.07-2.56,1.26-3.13,2.77-.06.15-.12.31-.19.48L1.11,32.36l1.2-.43c5.28-1.88,9.7-.11,14.38,1.76.14.06.28.11.42.17v25.5c0,1.24,1,2.24,2.24,2.24h12.85c1.24,0,2.24-1,2.24-2.24v-23.44c1.86-.5,3.83-1.27,5.93-2.39l.19-.1ZM23.83,1.35c0-.18.14-.32.32-.32h3.34c.18,0,.32.14.32.32v8.6h-3.98V1.35ZM17.1,25.98v6.73s-.01,0-.02,0c-1.21-.48-2.4-.96-3.59-1.37l9.31-22.27v8.38c0,.84-.5,1.6-1.28,1.92h0c-2.68,1.11-4.42,3.73-4.42,6.63ZM23.28,57.46h-4.14v-1.87h4.14v1.87ZM19.71,31.04c0-3.3,2.67-5.97,5.97-5.97s5.97,2.67,5.97,5.97-2.67,5.97-5.97,5.97-5.97-2.67-5.97-5.97ZM32.39,57.46h-4.41v-1.87h4.41v1.87ZM32.62,21.22c-.7-.8-1.59-1.44-2.61-1.87-.77-.32-1.28-1.08-1.28-1.92v-7.35c2.44.4,5.05.63,7.85.45l-3.96,10.69Z"/>
    </g>
  </g>
</svg>