<?xml version="1.0" encoding="UTF-8"?>
<svg id="Layer_2" data-name="Layer 2" xmlns="http://www.w3.org/2000/svg" viewBox="0 0 50.31 50.99">
  <defs>
    <style>
      .cls-1 {
        fill: #ff5c8f;
      }

      .cls-2 {
        fill: #fff;
      }
    </style>
  </defs>
  <g id="Design">
    <g>
      <path class="cls-1" d="M45.46,7.15l-.02-.02c-.75-1.08-2.3.36-1.61,1.53.74,1.18,2.44-.29,1.63-1.51Z"/>
      <path class="cls-1" d="M1.16,28.21h-.03c-.54-.17-.92.41-.8,1.01.08.64.68,1.27,1.17,1.23,1.07-.13.58-2.01-.35-2.24Z"/>
      <path class="cls-1" d="M47.9,13.03l-.02-.02c-.31-.33-.93-.24-1.28.11-.45.38-.77,1.21-.21,1.58.68.5,2.16-.74,1.5-1.67Z"/>
      <path class="cls-1" d="M47.81,27.2c-.54-.86-2.03.09-1.72,1.15.15.43.76.56,1.18.31.44-.22.85-.91.55-1.44v-.02Z"/>
      <path class="cls-1" d="M1.6,18.84h-.02c-.8.31-.41,1.89.6,1.98,1.15-.03.61-2.19-.57-1.98Z"/>
      <path class="cls-1" d="M41.85,20.65c.47-.3.84-1.23.54-1.78v-.02c-.16-.24-.44-.22-.65-.06-.44.29-.81,1.22-.51,1.76.14.25.41.24.62.09Z"/>
      <path class="cls-1" d="M24.16,2.13c.43-.41.58-1.42.27-1.93l-.02-.02c-.18-.27-.49-.21-.68.03-.36.39-.54,1.28-.27,1.81.15.32.47.35.7.11Z"/>
      <path class="cls-1" d="M34.5,2.82v-.02c-.69-.72-1.57,1.26-1,1.86.7.5,1.42-1.21,1-1.83Z"/>
      <path class="cls-1" d="M25.46,4.97c.47-.22.81-1.05.58-1.59v-.03c-.51-.87-1.49.37-1.28,1.19.07.39.4.58.7.42Z"/>
      <path class="cls-1" d="M3.93,11.66l-.02.03c-.25.37-.12,1.06.23,1.48.36.49,1.18.87,1.44.25.25-.54-.18-1.4-.76-1.78-.29-.21-.71-.25-.9.02Z"/>
      <path class="cls-1" d="M45.34,17.29c.38-.06.58-.68.34-1.03v-.02c-.25-.4-.7-.04-.75.38-.05.33.18.71.41.68Z"/>
      <path class="cls-1" d="M11.06.47h-.02c-1.14,0-1.02,1.95-.21,2.82.43.53,1.19.77,1.56.28.69-.87-.1-2.99-1.32-3.1ZM11.63,2.31c-.12.16-.36.08-.5-.09-.26-.28-.3-.91.07-.91h0c.39.04.65.72.43,1Z"/>
      <path class="cls-1" d="M39.43,17.06l-.02-.02c-.95-.68-2.16.66-2.22,1.9-.12,1.13.85,2.06,1.7,1.54,1.05-.54,1.61-2.62.53-3.42ZM38.81,19c-.33.2-.71-.16-.67-.6.02-.48.49-1.01.87-.74h0c.42.32.2,1.13-.21,1.34Z"/>
      <path class="cls-1" d="M46.12,30.65h-.03c-.7-.19-1.74.41-2.25,1.11-.43.52-.68,1.54.06,1.75.97.3,2.31-.73,2.66-1.7.21-.5.04-1.05-.44-1.16ZM45.59,31.67c-.13.36-.64.75-1,.64-.28-.08-.18-.46-.02-.65.19-.26.58-.49.84-.42h.01c.18.04.24.25.16.44Z"/>
      <path class="cls-1" d="M6.42,33.18c-.11-.83-.8-1.63-1.44-1.91l-.05-.02c-.99-.5-1.92.51-1.39,1.89.24.62.71,1.12,1.23,1.39.83.5,1.84-.06,1.65-1.34ZM4.95,33.12c-.22-.11-.41-.32-.52-.58-.22-.58.17-1,.58-.79h.02c.27.13.56.46.6.81.08.54-.34.77-.69.56Z"/>
      <path class="cls-1" d="M37.92,4.82c-.82.93-1.44,2.06-1.98,3.21-.9,1.97-.8,2.17-1.05,4.43-.14.7,1.2,3.25,1.09,4.57l.18,2.55c1.25-4.91,5.39-11.41,5.55-14.39-.04-3.69-2.15-2.38-3.79-.37ZM40.06,7.09c-1.06,2.48-1.78,2.71-1.25,1.59.53-1.12,1.24-2.94.47-1.94-.77,1-1.7,3.24-1.53,1.88.16-1.36-1.85,2.61-1.85,2.61.14-.46,1.08-3.22,1.37-3.78,1.08-2.05,2.03-3.51,2.79-3.53,1.01-.03,1.13.53,0,3.17Z"/>
      <path class="cls-1" d="M11.98,40.79c-1.14-1.4-1.98-3.03-2.55-4.73-.47-1.15-.57-2.4-.71-3.64-1.65-1.56-2.45-5.46-3.58-7.21-.75-1.29-1.86-2.71-3.21-2.77-.94.07-1.03,1.09-.66,2.16.64,1.71,1.9,3.01,3.01,4.27,3.56,4.04,4.71,8.54,5.33,11.13l2.36.79ZM2.52,23.76c1.22.1,1.92,1.44,2.86,3.45,0,0-4.08-3.55-2.86-3.45Z"/>
      <g>
        <path class="cls-1" d="M45.48,39.16c-1.28.53-2.39,1.75-3.76,2.08-.06-.03-.02-.13.08-.27.6-.78,1.04-1.76,1.11-2.75.02-.32-.07-.52-.07-.83-.01-.42.14-1.07.06-1.37-.04-.22-.11-.36-.1-.67.02-.37.14-.98.12-1.29-.01-.33-.11-.4-.07-.79.04-.51.28-1.23.21-1.69-.04-.2-.12-.33-.06-.71.05-.36.17-.91.19-1.17.02-.32-.11-.33-.09-.64.01-.3.18-.91.24-1.29.08-.5-.07-.72.08-1.21.19-.62.26-1.17.28-1.81.17-.71.48-1.45.87-2.1.24-.39.23-.7-.06-1.15-.16-.28-.32-.57-.45-.58-.09-.02-.17.05-.26.15-.29.37-.65.8-1.02,1.15-1.11,1.09-2.45,1.9-3.82,2.63-.39.19-.32.42.02.63,3.77,2.44,3.97,7.78,2.37,11.65-3.25,7.94-12.76,12.01-20.86,9.63-.95-.24-4.34-2.18-6.3-4.12-3.48-3.45-4.14-7.19-4.26-8.17-.28-1.09-.02-2.32-.48-3.33-2.14-2.19-3.91-6.5-4.05-7.03-1.81-4.62-1.07-10.12,1.96-14.08C14.41.65,29.95,2.44,34.31,13.08c.87,2.04,1.24,4.23,1.25,6.42-.01.44.15.8.48,1.08.77.72,1.42,1.58,1.81,2.57.11.31.34.51.66.36.96-.43,1.97-.91,2.78-1.61.63-.54,1.29-1.25,1.51-1.95.15-.6.25-1.68,1.1-1.53.56.19.84,1.09.71,1.53-.06.68.58,1.71,1.18,2.11,3.54,1.86,5.32,6.79,4.18,10.54-.05.42-.13,1.14-.33,1.45-.49.76-.66,1.79-1.4,2.37-.38.39-.7.96-1.11,1.34-.54.36-1.12.9-1.58,1.35l-.07.05ZM44.07,19.87l-.56-.85c-.1.32.18.56.39.76.05.04.11.17.17.09ZM48.57,26.86c-.37-.83-1.32-1.44-1.83-2.15-.38-.6-.61-1.53-1.08-2.03-.03-.02-.03.01,0,.09.06.14.18.4.16.6-.14.5-.58.9-.77,1.39-.13.27-.15.39-.02.2.24-.36.51-.83.74-1.17.11-.16.18-.24.24-.18.23.45.52,1.24.61,1.76-.06.43-.56.7-.84,1.11-.27.33-.63.74-.78,1.11.41-.28.99-1.24,1.45-1.62.33-.35.38,0,.43.3.04.52.39,1.18.14,1.64-.7.71-1.58,1.37-2.08,2.26.44-.39,1.34-1.42,1.9-1.85.08-.04.2-.14.28-.06.17.22.12.77.14,1.08,0,.52-.02,1.04-.43,1.39-.74.62-1.5,1.37-1.98,2.2,0,.02.01.01.05-.02.53-.66,1.29-1.45,1.94-1.99.09-.06.25-.21.28-.07-.11.69-.41,1.91-.58,2.46-.56.74-1.49,1.29-1.86,2.21-.05.13.05.03.21-.19.36-.49.76-.99,1.21-1.36.92-.62-1.35,3.91-1.56,4.18-.14.25-.38.6-.49.83.19-.19.43-.57.62-.86.6-.84.9-1.91,1.44-2.76.13-.06.16.48.22.76.03.12.05.17.07.12.03-.39-.12-.92-.1-1.33.03-.58.42-1.3.57-1.88.26-.83.4-2.37.81-.49.06.24.13.44.16.42.02,0,.02-.08.02-.19,0-.69-.41-1.45-.44-2.1.06-.68.21-1.41.15-2.08,0-.26.12-.26.32.07.4.6.58,1.33.86,1.99.07.1.02-.14,0-.25-.19-.99-.67-1.89-1.19-2.72-.21-.58-.22-1.35-.44-1.95-.16-.88,1.37,1.07,1.48,1.13v-.02ZM35.33,25.49c1.37-.49,2.81-1.11,4.13-1.77,1.37-.72,2.94-1.62,3.57-3.04-1.74,2.61-5.07,3.45-7.71,4.8h.02ZM34.14,18.22c.12-.04.23,1.06.39,1.08l.05-.02c.54-6.23-4.3-11.98-10.11-13.88-2.04-.64-4.47-1.05-6.46-.08-2.45,1.3-4.34,4.64-3.84,7.51.02.11.05.14.06.09.06-.31.05-.72.11-1.08.14-.88.45-1.84,1.07-2.49.05-.04.08-.02.09.03.07.17-1.14,3.14-.39,2.08.3-.44.34-.32.27.02-.39,2.01-.93,4.38-3.03,5.25-3.7,1.14-6.08,4.74-4.7,8.47.07.12.02-.26,0-.33-.26-1.28-.18-2.7.4-3.88.08-.17.16-.27.15-.02-.09.78-.19,1.68-.08,2.47.04.23.06-.53.23-.42.23.08.69,1.55.73,1.15-.01-.13-.04-.25-.06-.4-.07-.24-.02-.78.27-.34.19.31.36.98.39.84.02-.16-.07-.53-.03-.65.23-.49.81.57,1.1.82.34.4.54.2.26-.29-.15-.24-.23-.47-.14-.54.23-.13.6.71.67.35.16-.77.54-.25.72.11.31.38.33-.11.06-.41-.05-.08-.13-.25-.06-.31.19-.15.56.44.67.11.05-.14.13-.26.3-.24.2.01.41.03.62-.17.2-.18.26-.49.36-.61.13-.13.46,0,.51-.19.06-.11.11-.22.21-.25.15-.05.53-.05.72-.27.23-.21.37-.33.59-.41.57-.19,1.13-.62,1.67-.87,3.07-1.51,6.48-2.45,9.92-2.43.42.02.67,0,.97-.35.12-.1.25-.2.38-.27.25-.11.44.17.71-.02.88-.52.58.19.71.68.23,0,.31-.56.67-.74.07-.04.16-.08.24-.08.3,0,.18.91.38,1.06l.07.03c.19.03.22-.89.44-.85.1.02.15.32.16.64.02.54.05.51.24.14.1-.2.17-.03.29-.17.55-.81.56.41.77.82.18.31.12-.62.24-.69h.02ZM21.28,35.47c-.02-.11-1.03,1.07-.89.73.04-.11.1-.23.15-.34.39-.96-.65-.64-1.03-.16-.22.21-1.29,1.45-.73.54.41-.71,1.47-1.24.26-1.69-.58-.12-1.52.72-2.05.86-.05-.27,1.91-1.18.96-1.2-.42-.02-1,.2-1.36.26-.02-.15.68-.44.53-.53-.05-.07-.3-.08-.5-.03-.48.11-1.49.52-1.96.6.33-.29,1.04-.55,1.45-.77.1-.06.23-.15,0-.17-.18-.03-1.16.12-1.03,0,.05-.06.34-.15.56-.27.41-.23.85-.56,1.1-.97.14-.38-.83-.15-.83-.36.27-.14.86-.1,1.16-.27.65-.56-.85-.4-1.13-.44-1.3-.14.55-.2.9-.24.6,0,1.08-.43,1.18-1.03.14-.55-.57-.59-.82-.85.27-.07,1.09.25,1.23-.29,0-.04-.03-.08-.08-.12-.44-.2-2.23-.82-2.66-1-.12-.05-.03-.05.06-.05.83.05,1.75.38,2.57.57.35.07.75-.15.32-.48-.21-.16-.56-.34-.81-.49-.97-.53.09-.22.51.01.62.35,1.16.37,1.45-.23.16-.3-.06-.58-.28-.8-.11-.11-.17-.19-.12-.18.3.09,1.02.6,1.25.11-.02-.36-.47-.53-.86-.97-.36-.34-.74-.69-.9-.85-.1-.1-.05-.09.05-.04.65.32,1.34.86,1.9,1.34.1.06.23.13.35.09.2-.07.43-.42.6-.58.31-.34-.55-1.19-.68-1.58,0-.04.7.8.99,1.05.16.12.33.13.52.07,1.4-.25.45-1.43.19-2.24-.21-.68.4.3.51.55.45.96.5,1.17,1.57.79.25-.11.16-.51.08-.94-.09-.43-.12-.67.04-.35.49,1.07.27,1.25,1.53.89.32-.04.36-.51.38-.84.02-.15,0-.32.06-.42.07.06.09.3.11.45.05.7.19.92.89.86.44.02.8.1.96-.39.03-.07.08-.24.13-.26.06,0,0,.55.18.7.23.19.58.09.88.18.73.27,1.19.58,1.99.65.53.13,1.12.36,1.61.16.19-.07.38-.19.56-.29.09-.05.16-.09.22-.11.17-.06.06.12-.18.33-.21.17-.34.37-.24.5.38.29.74-.06,1.15-.4,2.41-2.06.12-3.76-1.96-4.63-7.5-3.21-19.98,1.12-22.46,9.22-.23.98-.21,1.99.17,2.91.37.97,1.19,1.57,1.69,2.4.61,1.27.67,2.76,1.68,3.81,5.12,5.77,16.09,4.68,21.75.28,3.02-2.25,5.43-5.57,4.7-9.39-.49-2.49-2.53-3.07-4.82-2.67-.31.07-.72.12-.93.39-.11.15-.08.3.06.34.06.02.14.03.23.02.59-.1,3.35-.28,2.59-.07-1.07.26-2.02.24-2.96.7-.5.5.07.69.56.67.29.02.32.08.05.14-.58.07-1.04.31-1.11.96-.05.23.04.4.26.48.25.1.71.19.93.3-.16.08-.82-.06-1.06-.03-.5-.02-.91.55-.39.69,1.28.25,2.7.53,3.85,1.15-.29-.01-1.99-.5-2.64-.58-.5-.07-1.36-.25-1.67-.26-.09,0-.17.04-.24.09-.26.23,0,.48.25.61.34.2.31.24-.08.17-.2-.05-.95-.1-.68.27.64.4,1.65.7,2.19,1.26-.44-.06-2.6-1.34-2.78-.72.11.38.58.55.83.84.11.11.16.19.14.21-.4-.07-.99-.66-1.46-.64-.27,0-.62.3-.44.55.52.52,1.4,1.06,1.77,1.69-.63-.37-1.72-1.25-2.18-1.46-.26-.07-.55.09-.78.22-.33.18-.35.34-.11.66.25.4.65.87.67,1.21-.49-.36-.93-1.44-1.7-1.34-.6.12-.21.69.02,1.02.31.5.62,1.07.82,1.6.03.09.11.35-.05.15-.57-.69-.97-1.89-1.79-2.31-.63-.05-.39.71-.26,1.09.22.73-.28-.3-.42-.44-.15-.28-.69-.6-.68-.1.08.75.5,1.82.42,2.6-.2-.35-.27-.91-.41-1.36-.2-.49-.22-1.47-.9-1.38-.46.17-.21.96-.28,1.36,0,.52-.09.14-.15-.15-.15-.54-.05-1.32-.87-1.22-.68-.06-.81.53-.98,1.03-.12.29-.17.19-.15-.11,0-.31.13-.67-.1-.89-.16-.14-.42-.11-.58.02-.48.57-.55,1.73-1.03,2.35-.01,0,0-.03,0-.09.11-.49.55-1.83.62-2.35-.02-.14-.13-.17-.26-.22-.22-.06-.57-.18-.77-.15l-.06.02ZM36.36,24.52c.15-.2.92-.31.98-.5.02-.17-.44-1.16-.51-1.17,0,.6-.27,1.03-.5,1.54-.03.07-.08.05.03.13ZM38.73,25.92c-.22-.14-.65-.45-.91-.46-.22-.01-.6.28-.83.36l1.74.1ZM13,11.12c.67-2.11,1.62-4.27,3.4-5.71.08-.07.15-.13.2-.18.08-.09.09-.14,0-.15-6.88,1.15-12.07,8.02-11.23,14.97.1.84.27,1.78.6,2.54.03.03.04,0,.04-.07-.02-.41-.14-1.02-.18-1.48-.1-.28-.05-2.19.22-1.42.06.23.11.62.16.88.05.3.08.43.12.34.05-.2.18-.91.34-1.05.19-.15.09.62.11.72.01.23.09.01.14-.1.68-1.75,2-3.16,3.74-3.91.08-.04.14-.07.16-.1.06-.07-.12-.11-.05-.18.21-.15.56-.23.13-.39-.09-.04-.31-.12-.3-.2-.02-.1.4-.16.4-.28.01-.14-.32-.38-.29-.45,0-.04.1-.03.19-.01.3.05.06-.21-.02-.4-.25-.66.37-.07.5-.07.02-.01.02-.06.01-.14-.09-.39-.33-1,.18-.33.07.08.1.08.11,0,0-.2.06-.68.24-.87.24-.26.04-.68.11-1.04.04-.15.15-.29.24-.14.09.09,0,.58.09.65.11,0,.27.13.34.2.13-.01.07-.39.09-.58,0-.32-.16-1.02.21-1.05l.03-.02ZM33.01,30.02c.63-.33.62-1.13.81-1.7.68-.91.99-2.45-.19-3.1-.67-.27-1.53-.31-2.25-.5-.54-.11-1.03-.49-1.58-.52-.71.02-1.39-.25-2.1-.2-.34.04-.68.02-.99,0-.54-.05-.97.27-1.51.35-.78.05-1.42.49-2.1.83-.33.13-.68.25-.95.44-.36.25-.57.67-.92.95-.34.29-.7.46-.95.82-.17.19-.38.91-.05.49.41-.68,1.32-.84,1.75-1.5,1.99-1.91,4.86-2.36,7.6-1.92,1.07.19,2.09.8,3.14,1.01.66.26-.28.6-.68.49-.56-.05-.97-.42-1.43-.67-.54-.13-1.06-.41-1.61-.47-.7.02-1.53.03-2.19.17-.52.17-1.12.24-1.69.24-.73.04-1.23.61-1.89.88-.21.1-.48.23-.65.38-.1.09,0,.07.13.04.35-.08-.13.41-.2.51-.33.45-1.03.66-1.45,1.01-.32.29-.2.61-.52.94-.05.06-.17.18-.16.25.07.09.57-.3.43.08-.06.17-.15.39-.09.35.41-.4.5-1.3.99-1.64.32-.27,2.06-1.35,1.24-.12-.26.36-.74.53-1,.86-.22.31-.18.6.07.34.47-.57,1.2-.96,1.69-1.51.33-.33.86-.58,1.37-.51.13.03.23.09.15.22-.1.14-.38.27-.5.44-.14.17-.23.39-.45.54-.26.17-.61.24-.84.42-.88.91,1.45-.27,1.56-.57.53-.58,1.43-.72,2.16-.66.12.04-.18.23-.16.3.12.1.42-.04.57-.14.19-.13.37-.3.57-.42.52-.38,1.19-.21,1.75,0,.18.05.33.26.38.37.17.16.42-.27.6-.34.38-.32,1.16-.21,1.12.39-.04.51.09.37.23.02.23-.69-.6-1.09-1.15-1.19-.3.04-.5.39-.88.35-.26-.01-.39-.14-.25-.26.6-.43,1.47-.41,2.15-.12.27.08.57-.2,1-.25.54-.05-.26.85-.16,1.27.32-.05.75-1.11.97-.85.11.13.07.48,0,.68-.4.79-.39,1.69-.83,2.43-.03.11-.15.24-.1.31h.03ZM29.9,45.88c5.62-1.3,10.35-5.98,11.53-11.64.07-.29.27-1.49-.05-.63-3.95,9.2-17.81,12.39-26.05,6.98-1.43-.94-2.49-2.13-3.06-3.77-.08-.09.04.5.16.85.29,1.01,1.01,1.77,1.73,2.49.41.57.78,1.22,1.43,1.59.77.63,1.74,1.06,2.61,1.57.55.18,1.12.4,1.67.59.64.1,1.33.13,1.95.34.89.27,1.86.03,2.79.1.62-.03,1.39.15,1.92.11.83-.14,1.57-.12,2.39-.36.39-.12.85-.08,1.22-.13.33-.05.6-.41.93-.49.36-.08.74-.01,1.12-.16.43-.11.75-.53,1.15-.68.37-.09.6.31.94-.1.22-.26.43-.38.7-.4.28-.05.45-.26.66-.5.18-.21.36-.46.63-.48.12,0,.15.12.07.26-.02.18-.97.7-.66.7.64-.14,1.22-.91,1.8-1.15.12.21-.36.61-.54.76-.41.26-.76.62-1.11.97-1.6,1.46-3.83,2.49-5.92,3.2h0ZM32.6,29.05c.27.07.41-.18.33-.41l-.33.41ZM31.83,29.24c.36-.12.73-.35.7-.78-.19.25-.48.37-.66.61-.03.04-.09.13-.04.17ZM30.39,29.5c.32-.37.82-.66.7-1.22-.3.29-.65.68-.73,1.09-.01.06-.07.06.04.13ZM31.98,29.98l-.64.65-.2.43c.34-.2.5-.35.7-.69.05-.09.17-.29.14-.39ZM27.61,29.03c.29-.15.62-.27.94-.34.47-.1,1.28.02,1.33-.65-.65.52-1.5.06-2.11.67-.05.05-.21.24-.16.32ZM29.16,27.55c-.13-.19-.64.08-.57.24.22-.02.38-.14.57-.24ZM29.62,30.87c.73.1,1.22-.47,1.55-1.04l-.72.56-.83.48ZM32.15,31.07c-.3.3-.59.59-.88.89-.07.07-.41.17-.5.28.74-.02,1.15-.6,1.47-1.19-.11-.15-.06-.02-.09.02ZM27.54,30.21c.56.3,1.36.21,1.77-.3l-.83.2-.94.1ZM12.2,14.04c.17-.23-.12-.5-.15-.74-.1.07,0,.29.02.39.02.07.08.35.13.35ZM12.94,14.55c-.3.22-.63.47-.76.83-.09.25-.02.63.3.52,0-.17.02-.36.08-.52.11-.29.37-.53.38-.83ZM27.13,28.63c-.06-.1-.27,0-.35.03-.19.07-.35.19-.52.24-.34.12-.72.14-1.05.33.76.28,1.39-.06,1.92-.6ZM28.51,32.58c.78.15,1.26-.23,1.62-.89l-.53.35-1.09.54ZM26.14,31.4c.64.21,1.3.36,1.85-.16-.09-.03-.19.05-.31.06-.26.01-.52-.07-.78-.04l-.76.13ZM28.22,33.76c.56.03,1.05-.14,1.4-.6l-.57.27c-.28.11-.64.07-.83.33ZM26.5,30.22c-.07-.12-.1-.03-.17-.03-.42.05-.79.24-1.09.55,0,.15.48-.03.54-.06.27-.12.47-.32.72-.46ZM26.37,32.59c.54.26,1.13.02,1.48-.45l-.5.22-.98.23ZM24.69,29.97c-.69-.36-1.54.04-1.92.67l.68-.31,1.24-.37ZM26.33,33.51c.54.07,1.12.01,1.48-.45l-.46.18c-.33.1-.72.02-1.02.27ZM23.29,31.75c.31.08.63.08.94.14.12.02.22.11.37.14.11.02.67.01.68-.13-.71-.14-1.27-.61-2-.14ZM20.22,31.06c.66-.51,1.57-.44,2.1-1.15-.2-.03-.39.15-.57.22-.49.18-.97.22-1.37.62-.05.05-.21.24-.16.32ZM25.12,34.37c.5.15,1.1.13,1.55-.15-.18.01-1.54-.01-1.55.15ZM25.33,32.96c-.05-.09-.13-.05-.2-.06-.13-.01-1.73-.05-1.72.06.6.3,1.32.26,1.92,0ZM34.25,43.13c.29-.12.54-.27.74-.52l-.53.26-.2.26ZM19.14,29.47c.23-.03.47-.99.4-1.22-.28.31-.57.81-.4,1.22ZM20.93,31.54l.91.13c.2-.03.41-.07.57-.21-.19,0-1.47-.16-1.48.08ZM19.33,30.91c.37-.43.64-.93.55-1.52-.26.42-.32.91-.54,1.35-.04.08-.14.07,0,.16ZM23.93,34.15c-.36-.33-.96-.33-1.41-.22l1.09.23h.31ZM32.18,43.59c.35.06.68-.09.85-.41l-.57.15-.28.26ZM22.56,32.86c0-.12-1.41-.27-1.59-.18.53.2,1.03.41,1.59.18ZM18.04,31.92c.08.05.15,0,.2-.05.31-.31.63-1.23.68-1.67.01-.1.05-.24-.04-.31-.45.62-.17,1.53-.84,2.04ZM20.3,31.94c-.12-.2-1.03,0-1.03.08.34.05.73.13,1.03-.08ZM30.67,44.22c.51.14.8-.42,1.22-.63l-.76.3-.46.34ZM11.98,24.88c.28-.28-.17-.46-.34-.63-.05.06.05.22.08.28.07.13.14.25.26.35ZM21.27,33.72c-.41-.23-.93-.44-1.41-.44.43.23.89.56,1.41.44ZM19.38,32.73c-.41-.4-1.33-.12-1.77.15l1.02-.21.76.05ZM10.62,24.92c.04-.1-.13-.62-.19-.63-.1.29-.07.44.19.63ZM29.19,44.67c.2-.16.5-.08.66-.3-.22-.06-.4,0-.57.13-.04.03-.16.11-.09.17ZM9.95,25.59c0-.25-.2-.56-.37-.74-.15.37.11.53.37.74ZM8.73,24.89c-.18-.23-.17-.52-.26-.78-.07,0-.07.45-.05.5.03.07.22.33.31.28ZM28.26,44.79l.09-.13-.54.13c0,.15.59.17.61.02l-.17-.02ZM25.71,44.83c.31.25.73.18,1.07.03-.07-.05-.42,0-.45-.01-.04-.02-.05-.1-.09-.11-.07-.02-.41.11-.53.1ZM24.05,44.73c.02.28,1.06.33,1.07.18-.11,0-1.08-.33-1.07-.18ZM22.6,44.77c.02.15.57.14.68.13.08,0,.15.03.2-.06-.34-.02-.56-.3-.89-.07ZM18.38,43.75c-.14-.16-.37-.32-.59-.29.14.14.38.32.59.29Z"/>
        <path class="cls-1" d="M33.9,38.83c-.53-.37-.87-1.08-1.3-1.59-.39-.62-.96-1.07-1.33-1.7,1.09.85,1.97,2.06,2.63,3.26v.03Z"/>
        <path class="cls-1" d="M34.92,29.47c1.27-.33,2.77-.25,4.05,0-.2,0-4.07.02-4.07.02l.02-.02Z"/>
        <path class="cls-1" d="M24.36,40.99c0-1.28.12-2.64.29-3.91.04.11.12.66.09.92-.05.98-.06,2.07-.37,3h-.01Z"/>
        <path class="cls-1" d="M17.11,30.03c-.9-.11-2.86-.26-3.72-.4,1.17-.21,2.56.04,3.7.4h.02Z"/>
        <path class="cls-1" d="M27.99,22.93s.02-3.17.02-3.37c.24.99.31,2.35-.01,3.34v.02Z"/>
        <path class="cls-1" d="M18.61,26.37c-.09.04-.26-.07-.35-.11-.69-.33-1.4-.78-2.06-1.18.9.1,1.73.71,2.41,1.29Z"/>
        <path class="cls-1" d="M15.94,37.79c.11-.38.53-.62,1.11-1.23.47-.45.96-.88,1.09-.87-.56.75-1.43,1.49-2.16,2.1h-.03Z"/>
        <path class="cls-1" d="M19.51,39.79c.26-.9.76-1.88,1.36-2.62-.08.17-.37.9-.51,1.17-.23.39-.84,1.42-.85,1.45h0Z"/>
        <path class="cls-1" d="M35.09,22.16c-.49.68-1.07,1.32-1.75,1.8-.02-.02.15-.25.19-.3.16-.19.35-.42.51-.59.24-.26.66-.72.92-.93.06-.04.14-.09.13.02Z"/>
        <path class="cls-1" d="M17.59,39.35l.16-.43c.37-.6.83-1.13,1.34-1.61l-1.51,2.04Z"/>
        <path class="cls-1" d="M30.99,22.8c.05-.71.26-1.54.7-2.11-.1.71-.38,1.46-.7,2.11Z"/>
        <path class="cls-1" d="M14.7,28.3c-.75-.19-1.55-.21-2.26-.55.78-.04,1.56.24,2.31.45l-.05.09Z"/>
        <path class="cls-1" d="M29.5,40.49c-.08.08-.16-.15-.19-.2-.25-.55-.47-1.31-.52-1.9.41.64.53,1.39.71,2.11Z"/>
        <path class="cls-1" d="M21.24,21.75c.27.33.42.76.67,1.11.01.11-.08,0-.11-.04-.45-.5-.86-1.05-1.24-1.61,0-.02.12-.03.13-.02.18.18.4.37.56.55Z"/>
        <path class="cls-1" d="M19.89,23.66c-.07.05-.23-.09-.28-.13-.5-.42-.96-.9-1.47-1.31.1-.05.23.02.31.07.57.3,1,.91,1.43,1.37Z"/>
        <path class="cls-1" d="M22.52,41c-.05-.74.2-1.5.47-2.18,0,.74-.21,1.5-.47,2.18Z"/>
        <path class="cls-1" d="M39.68,31.5c-.72-.04-1.44-.28-2.11-.55.72-.04,1.47.22,2.11.55Z"/>
        <path class="cls-1" d="M12.57,32.75c.68-.29,1.48-.5,2.22-.45-.36.13-.75.24-1.13.32-.35.08-.73.17-1.09.13Z"/>
        <path class="cls-1" d="M35.82,36.95c-.09.05-.25-.11-.31-.16-.46-.39-.84-.87-1.23-1.33.63.35,1.15.89,1.54,1.49Z"/>
        <path class="cls-1" d="M25.92,22.12c-.14-.39-.24-.8-.31-1.2-.04-.25-.1-.54-.07-.79.34.58.41,1.34.38,2Z"/>
        <path class="cls-1" d="M32.02,39.67l-.56-1.01-.26-.76c.39.49.8,1.13.82,1.77Z"/>
        <path class="cls-1" d="M15.91,26.56l-1.05-.3-.94-.44c.7.02,1.4.39,2,.73Z"/>
        <path class="cls-1" d="M17.64,24.67l-.46-.19-1.13-.73c.61,0,1.18.51,1.59.92Z"/>
        <path class="cls-1" d="M31.99,23.5l1.03-1.7c.03.09-.03.27-.06.35-.19.51-.58.98-.97,1.35Z"/>
        <path class="cls-1" d="M29.77,22.33c-.11,0-.03-.7-.02-.79.01-.12.11-1.02.2-1.02.09.05.05.13.06.2.05.51-.1,1.12-.23,1.61Z"/>
        <path class="cls-1" d="M14.14,36.37c-.07-.06.09-.17.13-.2.13-.11.3-.2.44-.29l1.05-.47c-.48.41-1.04.73-1.62.97Z"/>
        <path class="cls-1" d="M12.08,31.09c.61-.15,1.26-.23,1.89-.12,0,.07-.76.16-.87.17-.23.02-.59.02-.81,0-.08,0-.15.03-.2-.06Z"/>
        <path class="cls-1" d="M36.87,33.43c-.58-.09-1.17-.35-1.7-.59.59-.03,1.24.22,1.7.59Z"/>
        <path class="cls-1" d="M26.77,41.24c-.19-.54-.19-1.13-.15-1.7.18.45.25,1.02.21,1.5,0,.08.03.15-.06.2Z"/>
        <path class="cls-1" d="M39.7,27.99c-.51.15-1.06.15-1.59.12.14-.19,1.58-.3,1.59-.12Z"/>
        <path class="cls-1" d="M23.81,21.72l-.09.06-.69-1.27c.42.26.64.76.78,1.22Z"/>
        <path class="cls-1" d="M37.48,35.8c-.04.06-.12-.01-.17-.04-.25-.15-.6-.44-.82-.64-.06-.06-.28-.23-.24-.32.09.09.4.17.46.24l.76.76Z"/>
        <path class="cls-1" d="M20.63,40.6c-.06-.38.13-.82.37-1.11.02.11-.02.28-.05.39-.07.25-.18.5-.31.72Z"/>
        <path class="cls-1" d="M12.48,29.77c-.06,0-.59-.08-.59-.12.3-.21.68-.02,1,.03,0,.05-.35.09-.41.09Z"/>
        <path class="cls-1" d="M38.76,34.35c-.29-.02-.62-.23-.85-.4.31-.06.65.19.85.4Z"/>
        <path class="cls-1" d="M11.28,23.44c-.18.02-.65-.78-.41-1,.39.21.65.57.41,1Z"/>
        <path class="cls-1" d="M10.57,23.48c-.35-.17-.45-.72-.34-1.07.38.23.51.66.34,1.07Z"/>
        <path class="cls-1" d="M9.37,22.19c0-.07.11-.34.16-.33.31.24.24.64.21.98-.25.05-.38-.47-.37-.64Z"/>
        <path class="cls-1" d="M12.01,22.77c-.28-.15-.62-.45-.47-.79.33.06.57.47.47.79Z"/>
        <path class="cls-1" d="M28.19,17.53c-.08.2-.76.36-.87.24-.2-.22.71-.5.87-.24Z"/>
        <path class="cls-1" d="M12.66,22.24c.42.22.52.87.07.62-.22-.12-.19-.42-.18-.63.04,0,.08,0,.11,0Z"/>
        <path class="cls-1" d="M31.96,17.07c-.1,0-.18-.83.07-.89.3.21.18.68-.07.89Z"/>
        <path class="cls-1" d="M10.53,22.11c-.14-.06-.37-.62-.25-.71.39-.09.51.51.25.71Z"/>
        <path class="cls-1" d="M8.57,22.08c.26.22.3.58.28.9-.08.09-.29-.28-.31-.33-.02-.06-.05-.58.03-.57Z"/>
        <path class="cls-1" d="M32.87,16.99c.01-.25.21-.11.3.05.12.22-.02.78-.19.48-.02-.04-.11-.48-.1-.54Z"/>
        <path class="cls-1" d="M13.78,22.54c-.26.35-.43-.13-.55-.33.24-.19.46.14.55.33Z"/>
        <path class="cls-1" d="M32.61,15.72c.12.07.16.57.07.62-.26.17-.39-.8-.07-.62Z"/>
        <path class="cls-1" d="M15.37,10.99c0-.32.3-.6.52-.81.06.33-.25.66-.52.81Z"/>
        <path class="cls-1" d="M16.25,9.51c-.16-.31.24-.64.52-.74l-.25.46-.27.28Z"/>
        <path class="cls-1" d="M33.3,14.8c0,.08-.01.25-.14.2-.01-.16-.36-.58-.15-.7.16-.09.29.39.29.5Z"/>
        <path class="cls-1" d="M9.6,21.26c-.14-.2-.26-.51-.04-.7.2.08.26.72.04.7Z"/>
        <path class="cls-1" d="M33.52,16.32c-.14,0-.38-.63-.15-.74.13,0,.31.62.15.74Z"/>
        <path class="cls-1" d="M28.19,17.08l.31-.36c.51.28.06.5-.31.36Z"/>
        <path class="cls-1" d="M12.53,21.73c-.18-.16-.35-.31-.32-.57.31-.14.53.57.32.57Z"/>
        <path class="cls-1" d="M26.42,17.09c.11-.31.87-.18.61.04-.1.08-.62.06-.61-.04Z"/>
        <path class="cls-1" d="M8.82,20.41c-.2-.19-.18-.53.03-.7.1,0,.18.65-.03.7Z"/>
        <path class="cls-1" d="M13.1,20.24c.19.1.2.32.18.5-.25,0-.4-.29-.37-.51.06,0,.13-.02.19.01Z"/>
        <path class="cls-1" d="M16.66,18.53c.11-.22.68-.04.57.17s-.49-.04-.57-.17Z"/>
        <path class="cls-1" d="M17.61,7.84c0,.15-.35.36-.46.46-.22-.07-.1-.21.03-.32.04-.04.42-.3.43-.14Z"/>
        <path class="cls-1" d="M26.46,17.64c-.21.11-.46.29-.66.08.16-.21.48-.31.66-.08Z"/>
        <path class="cls-1" d="M25.23,17.17c-.13.17-.36.14-.53.06v-.15c.16-.21.39-.1.53.09Z"/>
        <path class="cls-1" d="M8.87,21.85c-.06,0-.19-.27-.2-.34-.01-.12.12-.45.23-.23.07.15.12.45-.03.57Z"/>
        <path class="cls-1" d="M33.89,17.65c-.23-.02-.28-.7-.11-.7.13.07.26.68.11.7Z"/>
        <path class="cls-1" d="M18.31,16.79l-.09.13c-.68.04-.43-.73.09-.13Z"/>
        <path class="cls-1" d="M31.08,16.77c-.21-.15-.17-.5,0-.67.24.18.13.45,0,.67Z"/>
        <path class="cls-1" d="M15.22,21.39c-.05.07-.09.06-.17.05-.52-.1-.12-.91.17-.05Z"/>
        <path class="cls-1" d="M17.97,13.07s.12.03.13.07c.03.25-.23.36-.44.34-.04-.17.16-.39.31-.41Z"/>
        <path class="cls-1" d="M13.63,21.21c.12.07.27.12.28.28l-.08.18c-.25,0-.42-.3-.21-.46Z"/>
        <path class="cls-1" d="M31.55,15.7c-.12,0-.22-.56-.04-.63.23.15.22.44.04.63Z"/>
        <path class="cls-1" d="M20.08,5.94c0,.06-.66.27-.66.08.19-.17.46-.31.66-.08Z"/>
        <path class="cls-1" d="M32.29,14.81c-.19-.14-.31-.44-.11-.63.18.03.23.64.11.63Z"/>
        <path class="cls-1" d="M32.51,13.55c-.15-.22-.33-.39-.28-.68.28,0,.34.47.28.68Z"/>
        <path class="cls-1" d="M17.91,6.73c-.2-.26.26-.55.48-.41l-.48.41Z"/>
        <path class="cls-1" d="M30.47,14.41c-.14.29-.36.27-.48-.03.12-.17.36-.1.48.03Z"/>
        <path class="cls-1" d="M11.27,20.85s.38.38.24.5c-.14.09-.5-.37-.24-.5Z"/>
        <path class="cls-1" d="M30.02,11.67c-.14-.05-.37-.48-.15-.52.13-.02.37.41.15.52Z"/>
        <path class="cls-1" d="M31.39,13.11l-.09.06c-.14-.14-.43-.4-.21-.57l.3.52Z"/>
        <path class="cls-1" d="M10.61,19.89c.07-.26.43.08.34.31-.18.08-.37-.19-.34-.31Z"/>
        <path class="cls-1" d="M27.9,8.02c-.16.18-.39.11-.52-.07.16-.18.39-.11.52.07Z"/>
        <path class="cls-1" d="M19.16,15.05c-.1.32-.63.14-.35-.09.12-.1.27-.03.35.09Z"/>
        <path class="cls-1" d="M19.17,17.49c.14-.2.44-.23.46.05-.14.14-.35.1-.46-.05Z"/>
        <path class="cls-1" d="M12.11,20.36c-.1-.05-.34-.37-.21-.46s.44.36.21.46Z"/>
        <path class="cls-1" d="M19.14,18.86c-.14.19-.38.18-.48-.04l.29-.14.19.17Z"/>
        <path class="cls-1" d="M20.91,17.98c.26,0,.37.36.02.29-.27-.05-.23-.29-.02-.29Z"/>
        <path class="cls-1" d="M30.38,10.04l-.13.1-.07-.02c-.48-.39-.09-.5.2-.08Z"/>
        <path class="cls-1" d="M21.9,6.48l-.15-.13c.3-.39.71,0,.15.13Z"/>
        <path class="cls-1" d="M31.68,12l-.11.11c-.16-.13-.27-.28-.24-.5.08-.09.32.33.35.39Z"/>
        <path class="cls-1" d="M23.38,6.11c.14-.19.3-.22.5-.1.13.17-.51.2-.5.1Z"/>
        <path class="cls-1" d="M11.3,19.11c-.43-.23-.07-.7.04-.32.02.06.03.32-.04.32Z"/>
        <path class="cls-1" d="M9.94,19.56s-.05.26-.09.26c-.15-.12-.26-.37-.08-.52.08.07.15.15.16.26Z"/>
        <path class="cls-1" d="M16.2,11.45c.21.11-.06.4-.18.33-.21-.11.06-.4.18-.33Z"/>
        <path class="cls-1" d="M15.52,15.04c.06.04.1.49-.11.41-.13-.08-.12-.46.11-.41Z"/>
        <path class="cls-1" d="M21.9,17.38c-.41-.03-.23-.57.12-.15.05.09-.05.15-.12.15Z"/>
        <path class="cls-1" d="M17.48,19.86c.1-.14.26-.2.39-.06.02.27-.27.23-.39.06Z"/>
        <path class="cls-1" d="M30.5,15.85c0,.08-.07.17-.13.22-.39-.32.12-.63.13-.22Z"/>
        <path class="cls-1" d="M15.53,19.41c.1.05.16.21.15.32l-.28-.11v-.19s.1-.05.14-.03Z"/>
        <path class="cls-1" d="M16.63,20.57c-.11.22-.48.02-.39-.13.08-.12.33.02.39.13Z"/>
        <path class="cls-1" d="M14.29,18.84c.11.02.19.27.09.34-.31.04-.31-.39-.09-.34Z"/>
        <path class="cls-1" d="M23.49,17.14l-.2.14c-.3-.05-.09-.55.2-.14Z"/>
        <path class="cls-1" d="M30.95,14.07c.28.13.15.57-.05.32-.08-.1-.05-.24.05-.32Z"/>
        <polygon class="cls-1" points="14.48 20.43 14.18 20.47 14.14 20.26 14.3 20.17 14.48 20.43"/>
        <path class="cls-1" d="M20.79,5.68c.14-.21.29-.1.48-.04-.12.13-.35.21-.48.04Z"/>
        <path class="cls-1" d="M16.58,16.98c-.24.41-.53-.08-.2-.13l.2.13Z"/>
        <circle class="cls-1" cx="13.53" cy="17.53" r=".15"/>
        <path class="cls-1" d="M28.56,16.27c-.2-.09-.23-.26-.04-.41.19.13.13.23.04.41Z"/>
        <path class="cls-1" d="M29.95,16.48l-.1.26-.15-.09c-.06-.13.01-.23.12-.31l.14.15Z"/>
        <circle class="cls-1" cx="20.84" cy="16.17" r=".15"/>
        <path class="cls-1" d="M12.7,18.81l-.17-.18.14-.22c.15.11.2.28.04.41Z"/>
        <path class="cls-1" d="M16.12,13.95l.06.31c-.1.16-.48-.16-.06-.31Z"/>
        <path class="cls-1" d="M11.31,13c-.16-.16-.29-.52-.15-.72.34-.52.37.72.15.72Z"/>
        <path class="cls-1" d="M5.93,19.02c-.08,0-.29-.83-.04-.92.19.25.23.67.04.92Z"/>
        <path class="cls-1" d="M6.51,18.39c-.01-.15.15-.42.27-.52.11,0,.17.81-.17.71-.06-.05-.1-.12-.11-.2Z"/>
        <path class="cls-1" d="M6.78,17.13c-.13,0-.24-.79.09-.72.12.22.12.55-.09.72Z"/>
        <path class="cls-1" d="M6.11,16.83c-.2-.1-.25-.63-.02-.69.25-.06.16.69.02.69Z"/>
        <path class="cls-1" d="M6.35,15.35c0-.1.16-.55.23-.55.08.1.13.47.08.57-.1.19-.3.22-.31-.02Z"/>
        <path class="cls-1" d="M13.5,7.08l-.48.41-.11-.11c.09-.23.34-.47.59-.3Z"/>
        <path class="cls-1" d="M8.23,12.02c-.23-.24.03-.54.31-.5-.05.19-.16.37-.31.5Z"/>
        <path class="cls-1" d="M12.99,10.04c.03.13-.33.35-.41.17-.09-.28.36-.41.41-.17Z"/>
        <path class="cls-1" d="M11.62,8.6l-.09-.28c.51-.42.51-.03.09.28Z"/>
        <path class="cls-1" d="M12.21,10.73c.14.1.08.61-.11.48-.15-.1-.04-.59.11-.48Z"/>
        <path class="cls-1" d="M9.52,10.42c-.18-.22.08-.44.31-.43,0,.21-.13.35-.31.43Z"/>
        <path class="cls-1" d="M6.15,17.24c.1,0,.26.53-.05.46-.1-.16-.12-.34.05-.46Z"/>
        <path class="cls-1" d="M7.08,18.98l-.14-.15.25-.41c.15.1,0,.56-.11.55Z"/>
        <path class="cls-1" d="M6.49,19.35c-.3-.12-.31-.39-.08-.59l.08.59Z"/>
        <path class="cls-1" d="M7.45,13.91c0,.14-.24.33-.29.2-.12-.32.3-.54.29-.2Z"/>
        <path class="cls-1" d="M11.26,9.71l-.11-.11c.1-.14.19-.29.39-.28.04.22-.1.3-.28.38Z"/>
        <path class="cls-1" d="M7.29,15.65c-.19-.17-.14-.32.04-.48.17.12.1.36-.04.48Z"/>
        <path class="cls-1" d="M7.59,17.2c.45.31-.18.58-.12.2.01-.08.06-.15.12-.2Z"/>
        <path class="cls-1" d="M10.53,13.27c-.16-.05-.11-.56.05-.46.14.12.07.35-.05.46Z"/>
        <path class="cls-1" d="M11.16,11.75c-.08-.11-.18-.23-.08-.35.23-.28.29.22.08.35Z"/>
        <path class="cls-1" d="M10.52,8.9c-.06.06-.29.35-.39.21-.02-.2.23-.36.39-.21Z"/>
        <path class="cls-1" d="M39,38.71c.14-.43.36-.84.66-1.19l-.06.61c-.06.26-.29.64-.6.58Z"/>
        <path class="cls-1" d="M37.75,40.42c.22-.42.43-.92.94-1.06-.22.37-.42,1.06-.94,1.06Z"/>
        <path class="cls-1" d="M36.57,40.94l.68-.69s.2-.02.24-.09c.22.03-.57,1.15-.92.78Z"/>
        <path class="cls-1" d="M37.34,39.79c-.05-.05.03-.19.06-.24.13-.26.38-.62.7-.63,0,.45-.38.71-.75.87Z"/>
        <path class="cls-1" d="M30.59,43.19c-.2.2-.44.34-.72.36-.61.04-.15-.27.15-.39.17-.06.43-.11.57.03Z"/>
        <path class="cls-1" d="M20.23,43.37c-.26.22-.74.08-.89-.22.29-.14.69-.04.89.22Z"/>
        <path class="cls-1" d="M34.69,41.58l-.05-.1c.12-.27.33-.41.59-.5.06-.02.15-.11.18-.01-.07.33-.42.53-.72.61Z"/>
        <path class="cls-1" d="M23.01,43.84c0,.16-.85.21-.92-.03,0-.14.85-.22.92.03Z"/>
        <path class="cls-1" d="M27.85,43.79c.29-.15.61-.24.94-.24.07.38-.92.46-.94.24Z"/>
        <path class="cls-1" d="M14.75,40.58c.08-.14.24.02.31.09.15.13.35.3.33.52-.13.21-.62-.46-.65-.61Z"/>
        <path class="cls-1" d="M40.14,36.6c-.07-.37.18-.71.44-.96.05.35-.17.74-.44.96Z"/>
        <path class="cls-1" d="M31.99,42.59l.1.12c-.48.74-1.14.22-.1-.12Z"/>
        <path class="cls-1" d="M25.56,43.8c-.28.11-.63.35-.89.08,0-.17.78-.29.89-.08Z"/>
        <path class="cls-1" d="M36.27,40.57c-.08-.35.24-.54.52-.67.03.32-.21.59-.52.67Z"/>
        <path class="cls-1" d="M21.6,43.55c-.27.11-.55.16-.8-.03-.05-.04-.1,0-.07-.13.3-.09.62-.04.87.16Z"/>
        <path class="cls-1" d="M26.3,43.94c.3-.13.6-.32.92-.11-.02.15-.79.31-.92.11Z"/>
        <path class="cls-1" d="M24.12,43.84c-.2.2-.52.32-.7.04,0-.08.63-.24.7-.04Z"/>
        <path class="cls-1" d="M16.75,41.98c-.31.1-.55-.16-.74-.37.07-.11.09-.04.16-.03.26.06.4.2.58.39Z"/>
        <path class="cls-1" d="M18.9,43.16c-.27.16-.57.02-.74-.22.26-.06.56.02.74.22Z"/>
        <path class="cls-1" d="M17.93,42.5c-.25.09-.47-.1-.67-.22.25-.17.51.02.67.22Z"/>
        <path class="cls-1" d="M39.88,36.94c0,.11-.35.42-.44.52-.05-.12.06-.34.13-.43.05-.06.3-.25.31-.09Z"/>
        <path class="cls-1" d="M39.96,37.23c-.04-.23.12-.47.33-.56.07.24-.19.4-.33.56Z"/>
        <path class="cls-1" d="M39.07,37.97c-.13.11-.25.28-.39.39-.06.04-.13.09-.13-.02.12-.14.29-.56.52-.37Z"/>
        <path class="cls-1" d="M33.58,41.88c-.14.18-.32.31-.55.26.13-.12.36-.42.55-.26Z"/>
        <path class="cls-1" d="M26.99,25.79c-.6.41-1.33.69-2.06.76-.48.13-1.19.33-1.64.46.42-.72,1.37-1.4,2.26-1.37.44.03,1.08-.11,1.44.11v.04Z"/>
        <path class="cls-1" d="M28.85,26.45c-.31.3-.85.15-1.19.55-.35.3-.83.23-1.28.19-.19-.04-.53-.08-.61-.22.27-.44,1.48-.79,1.89-.91.31,0,1.11-.03,1.2.35v.04Z"/>
        <path class="cls-1" d="M30.67,25.8c-.32.2-.85.44-1.25.38-.54-.09-1.11-.48-1.61-.59-.2-.06-.45-.08-.61-.23.65-.11,1.56-.24,2.18.05.43.19.96.05,1.29.36v.03Z"/>
      </g>
      <g>
        <path class="cls-2" d="M25.49,50.49c-2.39,0-4.96-.37-7.24-1.04-3.22-1.01-5.05-2.32-6.35-4.54-3.21-5.53-7.45-6.36-9.26-6.72-.32-.06-.57-.11-.72-.17-.94-.32-1.53-1.12-1.4-1.89.09-.57.6-1.17,1.76-1.17.63,0,1.38.18,2.24.53,1.07.44,8.58,4.46,9.43,4.95.49.3.97.51,1.48.73.31.13.62.27.94.42.21.1.44.22.67.34.6.31,1.22.64,1.8.77.12.03.22.04.32.04.51,0,.78-.38.82-.75.01-.68-2.11-4.8-2.8-6.15-.28-.55-.5-.97-.58-1.15l-.19-.4c-.3-.61-.58-1.19-.62-1.71-.05-.33.05-.68.26-.93.19-.22.46-.34.77-.34.13,0,.26.02.39.06,1.17.29,1.98,1.82,2.27,2.68.38,1.02,3.61,7.09,4.41,7.9.59.66,1.6,1.11,2.49,1.11.35,0,.65-.07.89-.2.4-.2.68-.51,1.01-.9.17-.21.34-.42.51-.6.35-.98.7-2.11,1.07-3.31,1.35-4.37,2.62-8.49,4.66-8.49.82.02,1.19.38,1.37.67.68,1.14-.42,3.29-1.68,5.79-.52,1.03-1.06,2.08-1.39,2.95-.46,1.2-.53,2.18-.22,2.77.15.28.4.47.73.54l.31.07c.64.16,2.13.53,2.79.53.02,0,.03,0,.04,0,.19-.28.53-.5.94-.77.48-.32,1.08-.72,1.49-1.26.23-.36.66-.37,1.08-.39.21,0,.46-.02.7-.07,1.13-.21,2.36-1.37,3.54-2.5,1.02-.97,1.98-1.88,2.96-2.31.33-.16.73-.25,1.06-.25.53,0,.81.23.94.43.22.32.23.75.04,1.28-1.06,2.56-3.53,3.31-5.71,3.97-.57.17-1.14.34-1.66.54-.87.35-1.66.88-2.39,1.39-.39.27-.88.8-1.35,1.3-.39.42-.8.85-1.18,1.19-1.08,1.28-2.92,2.8-3.75,3.3-1.93,1.15-4.59,1.76-7.68,1.76h0Z"/>
        <path class="cls-2" d="M34.51,30.03s.02,0,.03,0c2.88.09-.97,5.48-2.2,8.73-.88,2.31-.36,3.7.87,3.98.36.08,2.34.62,3.21.62.22,0,.36-.03.4-.12.21-.52,1.64-1,2.47-2.12.18-.28.78-.11,1.49-.27,2.26-.42,4.55-3.95,6.59-4.83.25-.11.58-.21.87-.21.46,0,.8.24.51,1.03-1.22,2.97-4.61,3.28-7.07,4.22-.89.36-1.7.88-2.5,1.45-.77.54-1.73,1.79-2.57,2.52-1.13,1.33-2.93,2.79-3.68,3.25-2.02,1.2-4.69,1.69-7.42,1.69-2.47,0-4.99-.4-7.1-1.02-2.83-.89-4.73-2.04-6.05-4.32-3.86-6.63-9.22-6.76-10.25-7.11-1.4-.48-1.54-2.09.2-2.09.51,0,1.19.14,2.04.49,1.04.43,8.47,4.41,9.37,4.92h.02c.78.49,1.59.76,2.43,1.17.79.38,1.71.96,2.58,1.15.15.04.29.06.42.06.74,0,1.24-.54,1.32-1.19.13-.88-3.03-6.71-3.43-7.57-.34-.72-.73-1.42-.76-1.94-.05-.36.12-.74.53-.74.07,0,.16.01.25.04.9.22,1.65,1.49,1.94,2.36.41,1.09,3.65,7.2,4.53,8.1.66.74,1.81,1.26,2.84,1.26.41,0,.8-.08,1.13-.26.49-.24.82-.63,1.16-1.02.2-.25.38-.47.56-.67,1.53-4.27,3.11-11.57,5.29-11.57M34.51,29.03h0c-2.4,0-3.67,4.1-5.13,8.85-.36,1.15-.69,2.25-1.03,3.2-.15.17-.31.36-.47.56-.29.34-.52.6-.83.75-.2.11-.42.16-.68.16-.74,0-1.62-.39-2.1-.92l-.02-.02-.02-.02c-.7-.71-3.88-6.6-4.31-7.74-.31-.92-1.22-2.62-2.61-2.97-.17-.05-.34-.08-.51-.08-.45,0-.86.18-1.14.51-.3.35-.44.83-.38,1.33.05.6.35,1.22.66,1.86.06.13.13.26.19.4.09.19.3.61.59,1.17.65,1.26,2.59,5.03,2.74,5.9-.03.12-.1.27-.32.27-.05,0-.11,0-.18-.02-.54-.12-1.13-.43-1.7-.73-.24-.13-.47-.25-.7-.35-.32-.15-.64-.29-.95-.43-.49-.21-.96-.41-1.39-.68h-.01s-.03-.03-.03-.03c-.79-.46-8.34-4.51-9.49-4.98-.92-.38-1.73-.57-2.43-.57-1.47,0-2.13.85-2.25,1.59-.17,1.02.56,2.05,1.73,2.45.21.07.45.12.79.18,1.74.34,5.83,1.15,8.93,6.48,1.36,2.34,3.28,3.72,6.62,4.77,2.34.69,4.96,1.06,7.4,1.06,3.19,0,5.93-.63,7.94-1.83.83-.5,2.67-2,3.88-3.41.39-.34.78-.76,1.16-1.17.45-.49.92-.99,1.27-1.23.7-.5,1.47-1.01,2.3-1.35.48-.18,1.03-.35,1.6-.52,2.17-.66,4.88-1.48,6.02-4.24.27-.73.24-1.31-.08-1.77-.17-.24-.57-.64-1.35-.64-.58,0-1.09.21-1.29.3-1.04.45-2.03,1.39-3.08,2.39-1.08,1.02-2.3,2.18-3.27,2.37-.23.05-.44.06-.64.06-.43.02-1.08.04-1.48.6-.35.47-.88.82-1.35,1.13-.34.22-.65.43-.89.68-.73-.06-1.98-.38-2.49-.51-.14-.04-.25-.06-.32-.08-.19-.04-.32-.13-.4-.29-.09-.17-.34-.83.24-2.36.32-.84.85-1.89,1.37-2.9,1.33-2.62,2.49-4.89,1.67-6.27-.24-.4-.73-.88-1.74-.92h-.02s-.05,0-.05,0h0Z"/>
      </g>
      <path class="cls-1" d="M47.28,35.91c-2,.88-4.16,3.38-6.37,3.81-.69.15-.75.24-.96-.6-.14.29-1.07.9-1.25,1.18-.81,1.12-2.43,2.56-2.86,2.46-1.2-.28-2.7-.46-3.29-.86-.47-.31-.55-1.88-.12-2.59,1.81-2.95,4.98-8.65,2.17-8.73-2.14-.06-3.71,7.28-5.22,11.57-.18.2-.36.42-.55.67-.33.39-.66.78-1.13,1.02-1.14.64-2.99.04-3.88-.98-.86-.89-4.02-7-4.41-8.08-.28-.87-1.01-2.14-1.89-2.36-.57-.18-.82.28-.76.7.03.52.41,1.22.74,1.93.39.86,3.46,6.68,3.33,7.56-.09.77-.76,1.39-1.7,1.14-.85-.19-1.75-.77-2.52-1.14-.82-.41-1.62-.67-2.38-1.15h-.02c-.87-.53-8.13-4.49-9.14-4.91-3.66-1.53-3.97.99-2.19,1.6,1.01.35,6.25.46,10,7.09,1.29,2.28,3.14,3.42,5.9,4.3,4.33,1.29,10.43,1.6,14.19-.7.74-.46,2.49-1.93,3.6-3.26.82-.73,1.76-1.98,2.52-2.52.78-.57,1.57-1.09,2.44-1.46,2.41-.95,5.88-1.89,7.08-4.86.47-1.29-.72-1.12-1.34-.82ZM18.07,34.61c-.95-1.68-.44-1.74-.03-1.08.41.66,2.68,5.48,2.68,5.48l-2.65-4.4ZM2.54,36.77c.62-.55,2.16.12,3.08.61,0,0-3.7-.07-3.08-.61ZM18.43,45.56c-6.4-4.21-8.54-5.51-8.54-5.51.99.42,4.37,1.93,5.22,2.44h.02c.74.49,1.52.75,2.32,1.16.75.37,1.62.95,2.46,1.13.93.24,1.54-.62,1.51-1.34-.09-2.43,3,6.06-2.99,2.12ZM34.48,31.57c1.02.03-2.41,5.22-2.41,5.22.24-.91,1.39-5.25,2.41-5.22ZM34.94,43.88c-2.42-.3-4.34-2.23-3.29-1.68.82.44,2.06.98,4.18,1.04,2.12.05.33.79-.89.64ZM47.83,36.99c-1.04,1.38-5.7,2.89-5.7,2.89,1.47-.86,4.37-3.06,4.74-3.29.37-.23,2-.98.96.4Z"/>
    </g>
  </g>
</svg>