<?xml version="1.0" encoding="UTF-8"?>
<svg id="Layer_2" data-name="Layer 2" xmlns="http://www.w3.org/2000/svg" viewBox="0 0 44.39 44.99">
  <defs>
    <style>
      .cls-1 {
        fill: #ff5c8f;
      }

      .cls-2 {
        fill: #fff;
      }
    </style>
  </defs>
  <g id="Design">
    <g>
      <path class="cls-1" d="M40.12,6.29v-.02c-.68-.95-2.04.31-1.43,1.35.65,1.04,2.14-.25,1.43-1.33Z"/>
      <path class="cls-1" d="M1.14,24.83h-.02c-.47-.15-.81.36-.7.89.07.56.6,1.12,1.03,1.08.94-.12.51-1.77-.3-1.97Z"/>
      <path class="cls-1" d="M42.27,11.47v-.02c-.29-.29-.83-.21-1.14.1-.4.33-.68,1.06-.19,1.39.6.44,1.9-.65,1.32-1.47Z"/>
      <path class="cls-1" d="M42.19,23.94c-.47-.76-1.79.08-1.51,1.01.13.38.67.5,1.04.28.39-.19.75-.8.48-1.27v-.02Z"/>
      <path class="cls-1" d="M1.53,16.58h-.02c-.7.27-.36,1.66.53,1.74,1.01-.03.53-1.93-.51-1.74Z"/>
      <path class="cls-1" d="M36.95,18.17c.41-.26.74-1.08.48-1.56v-.02c-.14-.21-.39-.19-.57-.05-.39.26-.72,1.07-.45,1.55.12.22.36.21.55.08Z"/>
      <path class="cls-1" d="M21.38,1.87c.38-.36.51-1.25.23-1.7v-.02c-.17-.24-.44-.18-.61.02-.32.34-.47,1.12-.24,1.59.13.28.41.31.62.1Z"/>
      <path class="cls-1" d="M30.48,2.48v-.02c-.61-.63-1.38,1.11-.88,1.63.61.44,1.25-1.07.88-1.61Z"/>
      <path class="cls-1" d="M22.53,4.37c.41-.19.71-.92.51-1.4v-.02c-.45-.76-1.31.32-1.13,1.05.06.35.35.51.62.37Z"/>
      <path class="cls-1" d="M3.58,10.26l-.02.03c-.22.33-.1.93.21,1.3.32.43,1.04.77,1.26.22.22-.48-.16-1.24-.66-1.56-.26-.19-.63-.22-.79.02Z"/>
      <path class="cls-1" d="M40.02,15.22c.33-.05.51-.6.3-.91v-.02c-.22-.36-.62-.03-.66.33-.04.29.16.62.36.59Z"/>
      <path class="cls-1" d="M9.85.41h-.02c-1,0-.9,1.71-.19,2.48.38.46,1.05.68,1.37.25.61-.77-.09-2.63-1.17-2.73ZM10.35,2.03c-.11.14-.32.07-.44-.08-.23-.25-.26-.8.06-.8h0c.35.03.57.63.38.88Z"/>
      <path class="cls-1" d="M34.82,15.01h-.02c-.84-.61-1.91.57-1.95,1.66-.11.99.75,1.81,1.5,1.36.92-.47,1.42-2.31.47-3.01ZM34.27,16.72c-.29.18-.63-.14-.59-.53.02-.43.43-.89.76-.65h0c.37.28.18,1-.18,1.18Z"/>
      <path class="cls-1" d="M40.71,26.97h-.03c-.62-.16-1.53.36-1.98.98-.38.46-.6,1.35.05,1.54.85.26,2.03-.65,2.34-1.5.18-.44.03-.92-.38-1.02ZM40.24,27.87c-.12.32-.56.66-.88.56-.24-.07-.16-.4-.02-.58.17-.23.51-.43.74-.37h0c.16.04.21.22.14.38Z"/>
      <path class="cls-1" d="M5.77,29.2c-.1-.73-.7-1.43-1.27-1.68l-.04-.02c-.87-.44-1.69.45-1.22,1.66.22.55.63.99,1.08,1.22.73.44,1.62-.05,1.45-1.18ZM4.47,29.14c-.19-.1-.36-.28-.45-.51-.2-.51.15-.88.51-.7h.02c.24.11.49.41.53.72.07.47-.3.68-.61.49Z"/>
      <path class="cls-1" d="M33.49,4.24c-.72.82-1.27,1.81-1.74,2.82-.79,1.73-.7,1.91-.92,3.9-.12.61,1.06,2.86.96,4.02l.15,2.24c1.1-4.32,4.75-10.04,4.89-12.66-.03-3.25-1.89-2.09-3.34-.32ZM35.38,6.24c-.94,2.18-1.57,2.38-1.1,1.4.46-.99,1.09-2.59.42-1.71-.68.88-1.49,2.85-1.35,1.65.14-1.2-1.63,2.3-1.63,2.3.12-.41.95-2.83,1.21-3.32.95-1.81,1.78-3.09,2.46-3.1.89-.03.99.47,0,2.79Z"/>
      <path class="cls-1" d="M10.66,35.89c-1-1.23-1.74-2.67-2.24-4.16-.41-1.01-.51-2.11-.62-3.2-1.46-1.37-2.16-4.81-3.15-6.34-.66-1.13-1.64-2.38-2.82-2.44-.83.06-.91.96-.58,1.9.56,1.51,1.67,2.65,2.65,3.76,3.13,3.56,4.15,7.51,4.69,9.79l2.08.69ZM2.33,20.91c1.07.08,1.69,1.26,2.52,3.04,0,0-3.59-3.12-2.52-3.04Z"/>
      <g>
        <path class="cls-1" d="M40.15,34.46c-1.13.47-2.11,1.54-3.31,1.83-.05-.02-.02-.11.07-.24.52-.69.91-1.55.98-2.42.02-.28-.06-.46-.06-.73,0-.37.12-.94.06-1.21-.03-.2-.1-.32-.09-.59.02-.32.12-.86.11-1.14-.01-.29-.1-.36-.06-.7.04-.45.24-1.08.19-1.49-.03-.18-.1-.29-.05-.63.05-.32.15-.8.17-1.03.02-.28-.1-.29-.08-.56.01-.26.16-.8.21-1.14.07-.44-.06-.63.07-1.06.17-.54.23-1.03.24-1.59.15-.63.42-1.28.76-1.84.21-.34.2-.62-.05-1.01-.14-.25-.28-.5-.4-.51-.08-.02-.15.04-.23.14-.26.33-.57.71-.89,1.01-.98.96-2.16,1.67-3.36,2.31-.35.17-.28.37.02.55,3.32,2.14,3.49,6.84,2.08,10.26-2.86,6.98-11.23,10.57-18.36,8.47-.83-.21-3.82-1.92-5.54-3.63-3.06-3.04-3.64-6.32-3.75-7.19-.25-.96-.02-2.04-.42-2.93-1.88-1.93-3.44-5.72-3.56-6.18-1.59-4.06-.94-8.91,1.72-12.39C12.8.57,26.48,2.15,30.31,11.51c.76,1.8,1.09,3.72,1.1,5.65-.01.39.13.71.42.95.68.63,1.25,1.39,1.59,2.26.09.27.3.45.58.31.84-.38,1.74-.8,2.44-1.41.56-.48,1.14-1.1,1.33-1.72.13-.53.22-1.48.96-1.35.49.17.74.96.63,1.35-.05.6.51,1.51,1.04,1.86,3.11,1.63,4.68,5.98,3.68,9.28-.04.37-.11,1.01-.29,1.27-.43.66-.58,1.57-1.23,2.08-.33.34-.62.85-.97,1.18-.48.31-.99.79-1.39,1.19l-.06.04ZM38.9,17.48l-.49-.75c-.09.28.16.49.35.67.04.04.1.15.15.08ZM42.86,23.64c-.32-.73-1.16-1.27-1.61-1.89-.33-.53-.54-1.34-.95-1.79-.03-.02-.03,0,0,.08.05.13.16.35.14.53-.12.44-.51.79-.68,1.22-.12.24-.13.34-.02.18.21-.32.44-.73.65-1.03.1-.14.16-.21.21-.16.2.4.46,1.09.54,1.55-.06.38-.49.62-.74.98-.24.29-.56.65-.69.98.36-.25.87-1.1,1.28-1.42.29-.31.34,0,.38.26.03.46.34,1.04.12,1.44-.61.62-1.39,1.21-1.83,1.99.39-.34,1.17-1.25,1.67-1.63.07-.04.17-.12.24-.05.15.19.11.68.12.95,0,.46-.02.91-.38,1.22-.65.54-1.32,1.21-1.74,1.94,0,.02.01.01.04-.02.47-.58,1.13-1.27,1.71-1.75.08-.05.22-.19.25-.06-.1.61-.36,1.68-.51,2.16-.49.65-1.31,1.13-1.63,1.94-.05.12.04.03.19-.17.31-.43.67-.87,1.06-1.2.81-.54-1.19,3.44-1.37,3.68-.13.22-.33.53-.43.73.16-.17.38-.5.55-.76.53-.74.8-1.68,1.27-2.43.11-.05.14.42.19.67.02.11.05.15.06.11.03-.35-.11-.81-.09-1.17.03-.51.37-1.14.5-1.65.23-.73.35-2.08.71-.43.05.22.11.39.14.37.02,0,.02-.07.02-.17,0-.6-.36-1.27-.38-1.84.05-.6.18-1.24.13-1.83,0-.23.1-.23.29.06.35.53.51,1.17.75,1.75.07.09.02-.12,0-.22-.16-.87-.59-1.67-1.05-2.4-.19-.51-.19-1.19-.39-1.72-.14-.77,1.21.95,1.3,1h0ZM31.21,22.43c1.21-.43,2.48-.98,3.63-1.56,1.2-.63,2.59-1.43,3.14-2.67-1.53,2.3-4.46,3.04-6.79,4.22h.01ZM30.16,16.03c.11-.03.2.93.35.95l.05-.02c.48-5.48-3.79-10.55-8.9-12.21-1.8-.56-3.93-.92-5.68-.07-2.15,1.15-3.82,4.09-3.38,6.61.02.1.04.13.06.08.06-.28.04-.63.1-.95.12-.78.4-1.62.94-2.19.04-.03.07-.02.08.03.06.15-1,2.77-.34,1.83.26-.39.3-.28.24.02-.35,1.77-.81,3.86-2.67,4.62-3.26,1-5.35,4.17-4.14,7.45.06.1.02-.23,0-.29-.23-1.13-.16-2.38.35-3.41.07-.15.14-.24.13-.02-.08.68-.17,1.48-.07,2.18.03.2.06-.47.2-.37.21.07.6,1.37.64,1.01-.01-.12-.03-.22-.05-.35-.06-.21-.02-.69.24-.3.16.27.32.86.35.74.02-.14-.06-.47-.03-.57.21-.43.71.5.97.72.3.35.48.17.22-.25-.13-.21-.2-.41-.12-.48.21-.11.52.63.59.31.14-.68.48-.22.64.1.27.33.29-.09.05-.36-.04-.07-.12-.22-.05-.27.17-.13.49.38.59.09.05-.12.11-.23.26-.21.18.01.36.03.54-.15.17-.16.23-.43.32-.53.11-.12.4,0,.45-.17.05-.09.1-.19.19-.22.13-.05.47-.05.63-.23.2-.18.33-.29.52-.36.5-.17.99-.55,1.47-.76,2.7-1.33,5.71-2.15,8.73-2.14.37.01.59,0,.86-.31.1-.08.22-.18.34-.24.22-.09.39.15.62-.02.78-.45.51.17.62.6.2,0,.27-.49.59-.65.06-.04.14-.07.21-.07.26,0,.16.8.34.93l.06.02c.17.03.19-.79.38-.75.09.01.14.28.15.56.02.48.05.45.21.13.09-.17.15-.03.26-.15.49-.71.5.36.68.72.15.27.11-.55.21-.61h.02ZM18.85,31.21c-.02-.09-.9.94-.78.64.04-.09.09-.21.13-.3.34-.85-.58-.56-.91-.14-.19.19-1.14,1.27-.64.48.36-.62,1.29-1.09.23-1.49-.51-.1-1.34.63-1.81.76-.05-.24,1.68-1.04.84-1.05-.37-.01-.88.18-1.2.23-.02-.13.6-.38.46-.47-.05-.07-.26-.07-.44-.03-.42.09-1.31.46-1.73.53.29-.26.92-.49,1.27-.68.09-.05.2-.14,0-.15-.15-.03-1.02.1-.91,0,.05-.05.3-.14.49-.24.36-.2.75-.5.97-.85.12-.34-.73-.13-.73-.31.24-.13.76-.09,1.02-.24.57-.49-.75-.35-1-.39-1.15-.12.49-.18.79-.21.53,0,.95-.38,1.04-.9.13-.49-.5-.52-.72-.75.24-.06.96.22,1.09-.25,0-.04-.03-.07-.07-.1-.39-.18-1.96-.72-2.34-.88-.11-.05-.03-.05.06-.04.73.04,1.54.33,2.26.5.31.06.66-.13.28-.42-.19-.14-.49-.3-.71-.43-.86-.47.08-.19.45.01.55.31,1.02.33,1.28-.21.14-.27-.06-.51-.25-.71-.1-.1-.15-.17-.11-.16.26.08.89.53,1.1.1-.01-.31-.41-.46-.76-.86-.31-.3-.65-.61-.79-.74-.08-.09-.05-.08.05-.04.58.28,1.18.76,1.67,1.18.09.05.2.12.31.08.17-.06.38-.37.53-.51.28-.3-.48-1.04-.6-1.39,0-.04.61.7.87.93.14.1.29.11.46.06,1.24-.22.4-1.26.16-1.97-.19-.6.35.27.45.49.4.85.44,1.03,1.38.69.22-.09.14-.45.07-.82-.08-.38-.1-.59.03-.31.43.94.24,1.1,1.34.78.28-.04.32-.44.33-.74.02-.14,0-.28.05-.37.06.05.08.27.1.4.04.61.17.81.78.76.39.02.71.09.85-.34.03-.06.07-.21.11-.23.05,0,0,.48.16.62.2.17.51.08.77.16.64.24,1.05.51,1.75.57.47.12.99.32,1.42.14.17-.07.34-.16.49-.26.08-.04.14-.08.19-.09.15-.05.05.11-.16.29-.19.15-.3.33-.21.44.34.25.65-.05,1.02-.35,2.12-1.81.11-3.31-1.72-4.07-6.6-2.82-17.58.99-19.76,8.11-.2.86-.19,1.75.15,2.56.32.86,1.05,1.38,1.49,2.11.54,1.11.59,2.43,1.48,3.35,4.51,5.07,14.16,4.12,19.14.25,2.66-1.98,4.78-4.9,4.14-8.26-.43-2.19-2.23-2.7-4.24-2.35-.27.06-.64.11-.82.34-.1.13-.07.26.05.3.05.02.12.02.2.02.52-.09,2.95-.25,2.28-.06-.94.23-1.78.21-2.6.62-.44.44.06.61.49.59.25.02.28.07.04.13-.51.06-.91.27-.97.85-.04.21.03.35.23.42.22.09.63.17.81.26-.14.07-.72-.05-.93-.02-.44-.02-.8.48-.34.61,1.13.22,2.38.47,3.39,1.01-.26-.01-1.75-.44-2.32-.51-.44-.07-1.2-.22-1.47-.23-.08,0-.15.04-.21.08-.23.2,0,.42.22.54.3.18.27.21-.07.15-.17-.04-.84-.08-.6.24.57.35,1.45.62,1.93,1.11-.39-.05-2.29-1.18-2.45-.64.09.34.51.49.73.74.09.09.14.16.12.18-.36-.06-.87-.58-1.29-.56-.24,0-.54.26-.39.48.46.46,1.24.93,1.56,1.49-.55-.32-1.52-1.1-1.92-1.29-.22-.06-.48.08-.68.19-.29.16-.3.3-.1.58.22.35.58.76.59,1.06-.43-.32-.82-1.27-1.5-1.18-.53.1-.18.61.02.89.27.44.55.94.73,1.41.03.08.1.31-.04.13-.5-.61-.85-1.67-1.57-2.03-.56-.04-.34.63-.23.96.19.64-.25-.27-.37-.39-.13-.25-.61-.52-.6-.09.07.66.44,1.6.37,2.29-.17-.31-.24-.8-.36-1.2-.17-.43-.19-1.29-.79-1.22-.4.15-.18.85-.24,1.19,0,.45-.08.12-.13-.13-.13-.48-.04-1.16-.76-1.08-.6-.05-.71.47-.86.9-.1.25-.15.17-.13-.1,0-.27.12-.59-.09-.79-.14-.12-.37-.1-.51.02-.42.5-.48,1.53-.91,2.07,0,0,0-.03,0-.08.1-.43.49-1.61.55-2.07-.01-.12-.11-.15-.23-.2-.19-.05-.5-.16-.68-.13l-.05.02ZM32.12,21.58c.13-.18.81-.27.86-.44.02-.15-.39-1.02-.45-1.03,0,.52-.24.91-.44,1.35-.03.06-.07.04.02.11ZM34.2,22.81c-.19-.12-.58-.4-.8-.41-.19,0-.53.25-.73.31l1.53.09ZM11.56,9.79c.59-1.86,1.43-3.76,2.99-5.03.07-.06.14-.12.18-.16.07-.08.08-.12,0-.14-6.05,1.02-10.62,7.06-9.88,13.17.09.74.23,1.57.53,2.23.02.03.03,0,.03-.06-.01-.36-.12-.9-.16-1.3-.09-.25-.04-1.93.19-1.25.05.2.1.55.14.78.04.26.07.38.1.3.04-.18.16-.8.3-.92.17-.13.08.55.1.64,0,.2.08.01.12-.08.6-1.54,1.76-2.78,3.29-3.44.07-.03.12-.06.14-.09.05-.06-.1-.1-.04-.15.19-.13.49-.2.12-.35-.08-.03-.27-.1-.27-.17-.01-.09.35-.14.35-.25,0-.12-.28-.34-.26-.4,0-.04.09-.02.17-.01.27.05.05-.19-.01-.35-.22-.58.32-.06.44-.06.02-.01.02-.05,0-.12-.08-.34-.29-.88.16-.29.06.07.09.07.1,0,0-.18.05-.6.21-.76.21-.23.03-.6.1-.91.03-.13.13-.26.21-.12.08.08,0,.51.08.57.09,0,.24.11.3.18.12,0,.06-.34.08-.51,0-.28-.14-.9.18-.92l.02-.02ZM29.17,26.41c.56-.29.55-.99.71-1.5.6-.8.87-2.15-.16-2.73-.59-.24-1.35-.27-1.98-.44-.48-.1-.9-.43-1.39-.46-.63.02-1.22-.22-1.85-.17-.3.03-.6.02-.87,0-.47-.04-.85.24-1.33.31-.69.04-1.25.43-1.85.73-.29.12-.6.22-.84.39-.31.22-.5.59-.81.84-.3.26-.62.4-.83.72-.15.17-.34.8-.04.43.36-.59,1.16-.74,1.54-1.32,1.75-1.68,4.28-2.07,6.69-1.69.94.17,1.84.71,2.77.89.58.23-.25.53-.6.43-.5-.05-.86-.37-1.26-.59-.47-.11-.93-.36-1.41-.41-.62.01-1.35.02-1.93.15-.46.15-.99.21-1.49.21-.64.03-1.08.54-1.66.78-.19.09-.43.21-.57.33-.09.08,0,.06.12.03.31-.07-.11.36-.18.45-.29.39-.91.58-1.27.89-.28.25-.18.54-.46.83-.04.05-.15.16-.14.22.06.08.5-.26.38.07-.05.15-.13.34-.08.31.36-.35.44-1.14.87-1.44.28-.24,1.81-1.19,1.09-.1-.23.32-.65.46-.88.76-.19.28-.16.52.06.3.41-.5,1.06-.85,1.49-1.33.29-.29.76-.51,1.21-.45.12.02.2.08.13.19-.09.12-.34.23-.44.38-.12.15-.2.34-.4.47-.22.15-.53.21-.73.37-.78.8,1.28-.24,1.37-.5.46-.51,1.26-.63,1.9-.58.1.04-.16.2-.14.27.11.09.37-.04.5-.12.17-.11.33-.26.5-.37.46-.34,1.05-.18,1.54,0,.15.04.29.23.33.33.15.14.37-.23.53-.3.34-.29,1.02-.18.98.34-.04.45.08.33.2.02.2-.61-.53-.96-1.01-1.05-.27.04-.44.34-.77.31-.23-.01-.34-.13-.22-.23.53-.38,1.3-.36,1.89-.11.23.07.5-.17.88-.22.48-.05-.23.75-.14,1.12.28-.05.66-.97.85-.75.1.12.06.43,0,.6-.35.69-.34,1.49-.73,2.14-.03.1-.13.21-.09.28h.02ZM26.43,40.38c4.94-1.14,9.11-5.27,10.14-10.25.06-.25.24-1.31-.05-.56-3.48,8.09-15.68,10.9-22.93,6.14-1.26-.83-2.19-1.87-2.69-3.32-.07-.08.03.44.14.75.25.89.89,1.56,1.52,2.19.36.51.69,1.07,1.26,1.4.68.56,1.53.94,2.3,1.38.48.16.98.35,1.47.51.57.08,1.17.11,1.71.3.78.24,1.64.02,2.45.09.55-.02,1.23.13,1.69.1.73-.13,1.39-.11,2.1-.31.34-.1.75-.07,1.07-.12.29-.05.52-.36.81-.43.31-.07.65,0,.99-.14.38-.1.66-.46,1.01-.6.32-.08.53.27.83-.08.19-.23.37-.33.61-.35.24-.04.4-.23.58-.44.16-.19.32-.4.56-.42.1,0,.13.11.06.23-.02.15-.85.62-.58.61.56-.13,1.08-.8,1.58-1.01.11.19-.31.54-.47.67-.36.23-.67.55-.98.85-1.41,1.28-3.37,2.19-5.21,2.82h0ZM28.81,25.56c.24.06.36-.16.29-.36l-.29.36ZM28.13,25.73c.32-.11.64-.3.62-.68-.16.22-.43.32-.58.54-.02.03-.08.11-.03.15ZM26.86,25.96c.28-.33.72-.58.61-1.08-.26.25-.57.59-.65.96-.01.05-.06.06.03.11ZM28.26,26.38l-.57.57-.18.37c.3-.18.44-.3.62-.6.05-.08.15-.25.13-.34ZM24.42,25.55c.25-.13.55-.24.83-.3.42-.09,1.13.02,1.17-.57-.57.46-1.32.05-1.86.59-.04.04-.19.21-.14.28ZM25.78,24.24c-.11-.16-.56.07-.5.21.2-.02.34-.12.5-.21ZM26.18,27.17c.64.09,1.07-.41,1.36-.92l-.63.49-.73.43ZM28.41,27.34c-.26.26-.52.52-.78.78-.07.07-.36.15-.44.25.65-.02,1.01-.53,1.3-1.05-.1-.14-.05-.02-.08.02ZM24.36,26.59c.49.26,1.2.19,1.56-.27l-.73.18-.83.09ZM10.86,12.35c.15-.2-.11-.44-.13-.65-.09.06,0,.26.02.34.02.06.07.31.12.31ZM11.51,12.81c-.26.2-.56.41-.67.73-.08.22-.02.55.26.46,0-.15.02-.31.07-.46.09-.26.32-.47.33-.73ZM23.99,25.19c-.05-.09-.24,0-.31.03-.16.06-.31.16-.45.21-.3.1-.64.12-.93.29.67.25,1.22-.05,1.69-.53ZM25.21,28.67c.69.14,1.1-.2,1.43-.79l-.47.31-.96.48ZM23.12,27.64c.56.19,1.14.31,1.63-.14-.08-.03-.17.05-.28.05-.23.01-.45-.06-.68-.03l-.67.12ZM24.95,29.71c.49.02.92-.13,1.23-.53l-.5.24c-.24.1-.56.06-.73.29ZM23.44,26.59c-.06-.11-.08-.03-.15-.02-.37.04-.7.21-.96.48,0,.13.42-.03.47-.05.24-.11.41-.28.63-.41ZM23.32,28.68c.47.23,1,.01,1.3-.4l-.44.19-.86.2ZM21.85,26.37c-.6-.32-1.35.03-1.69.59l.6-.27,1.09-.32ZM23.29,29.49c.48.06.98.01,1.3-.4l-.41.16c-.29.09-.64.02-.89.24ZM20.62,27.94c.27.07.56.07.83.12.1.02.19.1.33.12.1.02.59.01.6-.12-.63-.12-1.12-.53-1.76-.12ZM17.91,27.33c.58-.45,1.38-.39,1.85-1.02-.17-.02-.34.13-.5.19-.43.16-.85.19-1.2.54-.04.04-.18.21-.14.28ZM22.22,30.24c.44.13.97.11,1.37-.14-.16,0-1.36,0-1.37.14ZM22.41,29.01c-.05-.08-.11-.04-.18-.05-.12,0-1.52-.04-1.51.05.53.26,1.16.23,1.69,0ZM30.26,37.96c.25-.11.47-.24.65-.46l-.47.23-.18.23ZM16.96,25.93c.2-.03.41-.87.35-1.07-.24.27-.5.71-.35,1.07ZM18.53,27.75l.8.11c.18-.03.36-.07.5-.18-.16,0-1.29-.14-1.3.07ZM17.13,27.2c.33-.38.56-.82.48-1.34-.23.37-.28.8-.48,1.19-.03.07-.12.07,0,.14ZM21.18,30.05c-.32-.29-.84-.29-1.24-.19l.96.2h.28ZM28.44,38.36c.31.06.6-.08.75-.36l-.5.13-.24.23ZM19.97,28.92c0-.1-1.24-.24-1.4-.16.46.17.91.36,1.4.16ZM16,28.09c.07.04.13,0,.18-.05.28-.27.55-1.08.6-1.47.01-.09.05-.21-.04-.28-.4.55-.15,1.34-.74,1.79ZM17.98,28.11c-.11-.17-.91,0-.91.07.3.04.64.12.91-.07ZM27.11,38.92c.45.13.71-.37,1.07-.56l-.67.26-.41.3ZM10.67,21.89c.25-.24-.15-.41-.3-.55-.04.05.04.19.07.24.06.11.13.22.23.31ZM18.83,29.67c-.36-.21-.82-.39-1.24-.39.38.21.78.49,1.24.39ZM17.17,28.8c-.36-.35-1.17-.1-1.56.14l.89-.18.67.04ZM9.46,21.93c.04-.09-.11-.55-.17-.55-.08.26-.07.39.17.55ZM25.81,39.31c.18-.14.44-.07.58-.26-.2-.05-.35,0-.5.12-.04.03-.14.1-.08.15ZM8.88,22.52c0-.22-.18-.49-.33-.65-.14.33.1.47.33.65ZM7.8,21.9c-.16-.2-.15-.45-.23-.68-.06,0-.06.4-.05.44.02.06.19.29.28.24ZM24.99,39.41l.08-.12-.47.12c0,.13.52.15.54.01l-.15-.02ZM22.75,39.45c.27.22.65.16.94.03-.06-.05-.37,0-.39-.01-.04-.02-.04-.09-.08-.1-.06-.02-.37.1-.47.08ZM21.28,39.36c.01.24.93.29.94.16-.09,0-.95-.29-.94-.16ZM20.01,39.4c.02.14.5.12.6.11.07,0,.13.03.18-.05-.3-.02-.49-.26-.78-.06ZM16.3,38.5c-.12-.14-.32-.28-.52-.26.12.12.33.28.52.26Z"/>
        <path class="cls-1" d="M29.95,34.17c-.47-.32-.77-.95-1.14-1.4-.34-.55-.84-.94-1.17-1.5.96.75,1.74,1.81,2.31,2.87v.03Z"/>
        <path class="cls-1" d="M30.85,25.93c1.12-.29,2.44-.22,3.56,0-.17,0-3.58.01-3.58.01h.02Z"/>
        <path class="cls-1" d="M21.55,36.07c0-1.13.1-2.33.26-3.44.03.09.11.58.08.81-.05.86-.05,1.82-.32,2.64h-.01Z"/>
        <path class="cls-1" d="M15.18,26.43c-.79-.1-2.52-.23-3.28-.36,1.03-.18,2.25.03,3.26.35h.02Z"/>
        <path class="cls-1" d="M24.75,20.18s.02-2.79.02-2.96c.21.87.27,2.07-.01,2.94v.02Z"/>
        <path class="cls-1" d="M16.5,23.2c-.08.03-.23-.06-.31-.09-.61-.29-1.23-.69-1.81-1.04.79.09,1.52.63,2.12,1.13Z"/>
        <path class="cls-1" d="M14.15,33.26c.1-.34.46-.55.97-1.08.42-.4.84-.77.96-.77-.5.66-1.25,1.31-1.9,1.85h-.03Z"/>
        <path class="cls-1" d="M17.29,35.02c.23-.79.67-1.65,1.2-2.3-.07.15-.33.79-.45,1.03-.2.34-.74,1.25-.75,1.28h0Z"/>
        <path class="cls-1" d="M31,19.5c-.43.6-.94,1.16-1.54,1.59-.02-.02.13-.22.16-.26.14-.16.31-.37.45-.52.21-.23.58-.63.81-.82.05-.04.12-.08.11.02Z"/>
        <path class="cls-1" d="M15.6,34.63l.14-.37c.33-.53.73-1,1.18-1.42l-1.33,1.79Z"/>
        <path class="cls-1" d="M27.39,20.07c.05-.63.23-1.35.61-1.86-.09.63-.34,1.28-.61,1.86Z"/>
        <path class="cls-1" d="M13.05,24.91c-.66-.17-1.37-.18-1.99-.48.69-.04,1.38.21,2.04.4l-.05.08Z"/>
        <path class="cls-1" d="M26.08,35.63c-.07.07-.14-.14-.16-.18-.22-.48-.41-1.16-.46-1.67.36.56.47,1.22.63,1.85Z"/>
        <path class="cls-1" d="M18.81,19.14c.24.29.37.67.59.97.01.1-.07,0-.1-.03-.4-.44-.76-.92-1.09-1.41,0-.02.11-.02.11-.02.16.15.35.32.49.49Z"/>
        <path class="cls-1" d="M17.63,20.82c-.06.05-.2-.08-.24-.11-.44-.37-.84-.79-1.29-1.15.09-.04.2.02.28.06.5.27.88.8,1.26,1.2Z"/>
        <path class="cls-1" d="M19.93,36.08c-.04-.65.17-1.32.42-1.92,0,.65-.18,1.32-.42,1.92Z"/>
        <path class="cls-1" d="M35.04,27.72c-.63-.03-1.27-.25-1.86-.48.63-.04,1.3.19,1.86.48Z"/>
        <path class="cls-1" d="M11.18,28.82c.6-.26,1.3-.44,1.95-.4-.32.12-.66.21-.99.28-.31.07-.64.15-.96.12Z"/>
        <path class="cls-1" d="M31.64,32.52c-.08.04-.22-.1-.28-.14-.4-.35-.74-.77-1.08-1.17.55.31,1.01.79,1.36,1.31Z"/>
        <path class="cls-1" d="M22.93,19.47c-.12-.34-.21-.7-.27-1.06-.04-.22-.09-.48-.06-.7.3.51.36,1.18.33,1.76Z"/>
        <path class="cls-1" d="M28.29,34.91l-.49-.89-.23-.67c.35.44.71,1,.72,1.56Z"/>
        <path class="cls-1" d="M14.12,23.37l-.93-.26-.83-.38c.61.02,1.24.34,1.76.64Z"/>
        <path class="cls-1" d="M15.65,21.71l-.41-.16-.99-.65c.53,0,1.04.45,1.4.81Z"/>
        <path class="cls-1" d="M28.27,20.68l.91-1.5c.03.08-.03.24-.06.31-.16.45-.51.87-.85,1.19Z"/>
        <path class="cls-1" d="M26.31,19.65c-.09,0-.03-.62-.02-.7,0-.1.1-.89.17-.9.08.05.04.11.05.18.04.44-.09.99-.21,1.42Z"/>
        <path class="cls-1" d="M12.56,32.01c-.06-.05.08-.15.11-.18.12-.1.27-.17.39-.26l.93-.42c-.42.36-.92.64-1.43.85Z"/>
        <path class="cls-1" d="M10.75,27.36c.54-.14,1.11-.2,1.66-.1,0,.06-.67.14-.76.15-.2.02-.52.02-.72,0-.07,0-.13.03-.18-.05Z"/>
        <path class="cls-1" d="M32.57,29.42c-.51-.08-1.03-.3-1.5-.52.52-.03,1.09.19,1.5.52Z"/>
        <path class="cls-1" d="M23.68,36.29c-.17-.48-.17-1-.14-1.5.16.4.22.89.18,1.32,0,.07.03.13-.05.18Z"/>
        <path class="cls-1" d="M35.06,24.63c-.45.13-.93.14-1.4.1.13-.16,1.39-.26,1.4-.1Z"/>
        <path class="cls-1" d="M21.07,19.12l-.08.05-.61-1.12c.37.23.56.67.69,1.07Z"/>
        <path class="cls-1" d="M33.1,31.5c-.04.05-.1,0-.15-.03-.22-.13-.53-.39-.72-.56-.06-.05-.25-.2-.21-.28.08.08.35.15.41.21l.67.66Z"/>
        <path class="cls-1" d="M18.27,35.73c-.06-.34.12-.72.32-.98.02.09-.02.25-.05.34-.06.22-.16.44-.28.64Z"/>
        <path class="cls-1" d="M11.11,26.2c-.05,0-.52-.07-.52-.11.26-.19.6-.02.88.03,0,.04-.31.08-.36.08Z"/>
        <path class="cls-1" d="M34.23,30.23c-.25-.02-.55-.2-.75-.36.27-.05.57.17.75.36Z"/>
        <path class="cls-1" d="M10.04,20.62c-.16.02-.57-.69-.36-.88.34.18.57.51.36.88Z"/>
        <path class="cls-1" d="M9.42,20.66c-.31-.15-.39-.63-.3-.94.34.2.45.58.3.94Z"/>
        <path class="cls-1" d="M8.37,19.52c0-.06.09-.29.14-.29.27.22.21.56.18.86-.22.04-.33-.41-.32-.57Z"/>
        <path class="cls-1" d="M10.69,20.03c-.25-.13-.54-.4-.41-.7.29.05.5.41.41.7Z"/>
        <path class="cls-1" d="M24.93,15.42c-.07.17-.67.31-.76.21-.18-.19.63-.44.76-.21Z"/>
        <path class="cls-1" d="M11.26,19.57c.37.2.46.77.06.55-.19-.11-.16-.37-.16-.56.03,0,.07,0,.1,0Z"/>
        <path class="cls-1" d="M28.25,15.02c-.09,0-.16-.73.06-.78.27.19.16.6-.06.78Z"/>
        <path class="cls-1" d="M9.39,19.45c-.13-.06-.33-.55-.22-.63.34-.08.44.45.22.63Z"/>
        <path class="cls-1" d="M7.66,19.43c.23.19.26.51.25.8-.07.08-.26-.24-.28-.29-.02-.06-.05-.51.03-.5Z"/>
        <path class="cls-1" d="M29.05,14.95c0-.22.19-.1.26.05.1.2-.02.68-.17.42-.02-.03-.09-.42-.09-.47Z"/>
        <path class="cls-1" d="M12.25,19.83c-.23.31-.38-.11-.48-.29.21-.17.4.12.48.29Z"/>
        <path class="cls-1" d="M28.82,13.83c.11.06.14.5.07.55-.23.15-.34-.71-.07-.55Z"/>
        <path class="cls-1" d="M13.64,9.67c0-.28.27-.53.45-.72.05.29-.22.58-.45.72Z"/>
        <path class="cls-1" d="M14.42,8.37c-.14-.27.21-.56.45-.65l-.22.41-.24.24Z"/>
        <path class="cls-1" d="M29.42,13.03c0,.07-.01.22-.12.18-.01-.14-.32-.51-.13-.62.14-.08.25.34.26.44Z"/>
        <path class="cls-1" d="M8.57,18.71c-.12-.18-.23-.45-.03-.62.17.07.23.63.03.62Z"/>
        <path class="cls-1" d="M29.61,14.36c-.12,0-.33-.55-.13-.65.11,0,.27.54.13.65Z"/>
        <path class="cls-1" d="M24.93,15.03l.28-.31c.45.25.05.44-.28.31Z"/>
        <path class="cls-1" d="M11.14,19.12c-.16-.14-.31-.27-.28-.5.27-.13.47.5.28.5Z"/>
        <path class="cls-1" d="M23.37,15.04c.09-.27.77-.16.54.04-.09.07-.54.05-.54-.04Z"/>
        <path class="cls-1" d="M7.88,17.96c-.17-.17-.16-.47.03-.62.09,0,.15.57-.03.62Z"/>
        <path class="cls-1" d="M11.64,17.81c.16.09.17.28.16.44-.22,0-.35-.25-.33-.45.05,0,.11-.02.16.01Z"/>
        <path class="cls-1" d="M14.78,16.31c.1-.19.6-.04.5.15s-.43-.03-.5-.15Z"/>
        <path class="cls-1" d="M15.62,6.9c0,.13-.31.31-.4.41-.19-.06-.09-.19.03-.28.04-.03.37-.26.37-.12Z"/>
        <path class="cls-1" d="M23.4,15.53c-.18.09-.41.26-.58.07.14-.19.42-.28.58-.07Z"/>
        <path class="cls-1" d="M22.32,15.11c-.12.15-.31.13-.46.05v-.13c.14-.19.34-.09.46.08Z"/>
        <path class="cls-1" d="M7.92,19.23s-.17-.24-.17-.3c-.01-.11.11-.4.2-.21.07.13.11.4-.03.51Z"/>
        <path class="cls-1" d="M29.94,15.53c-.2-.02-.24-.61-.1-.62.11.06.23.6.1.62Z"/>
        <path class="cls-1" d="M16.23,14.77l-.08.12c-.6.04-.38-.64.08-.12Z"/>
        <path class="cls-1" d="M27.47,14.76c-.18-.13-.15-.44,0-.59.21.16.12.4,0,.59Z"/>
        <path class="cls-1" d="M13.52,18.82c-.04.06-.08.05-.15.04-.46-.09-.1-.8.15-.04Z"/>
        <path class="cls-1" d="M15.93,11.5s.1.03.12.06c.03.22-.2.32-.39.29-.03-.15.14-.34.27-.36Z"/>
        <path class="cls-1" d="M12.12,18.66c.11.06.23.1.25.24l-.07.16c-.22,0-.37-.26-.18-.4Z"/>
        <path class="cls-1" d="M27.89,13.82c-.1,0-.19-.49-.03-.55.2.14.2.39.03.55Z"/>
        <path class="cls-1" d="M17.79,5.23c0,.05-.58.24-.58.07.17-.15.41-.27.58-.07Z"/>
        <path class="cls-1" d="M28.53,13.03c-.17-.12-.27-.39-.1-.55.16.03.2.56.1.55Z"/>
        <path class="cls-1" d="M28.73,11.92c-.13-.2-.29-.34-.25-.6.24,0,.3.41.25.6Z"/>
        <path class="cls-1" d="M15.88,5.92c-.18-.23.23-.48.42-.36l-.42.36Z"/>
        <path class="cls-1" d="M26.94,12.68c-.12.26-.32.24-.42-.03.11-.15.32-.09.42.03Z"/>
        <path class="cls-1" d="M10.03,18.35s.33.34.21.44c-.12.08-.44-.33-.21-.44Z"/>
        <path class="cls-1" d="M26.54,10.27c-.12-.04-.33-.42-.13-.45.11-.02.32.36.13.45Z"/>
        <path class="cls-1" d="M27.75,11.54l-.08.05c-.13-.12-.38-.35-.18-.5l.26.45Z"/>
        <path class="cls-1" d="M9.46,17.5c.06-.23.38.07.3.27-.16.07-.33-.17-.3-.27Z"/>
        <path class="cls-1" d="M24.67,7.06c-.14.16-.34.1-.46-.06.14-.16.34-.1.46.06Z"/>
        <path class="cls-1" d="M16.98,13.24c-.09.28-.55.12-.31-.08.1-.09.24-.02.31.08Z"/>
        <path class="cls-1" d="M16.99,15.39c.12-.18.38-.2.41.05-.12.12-.31.08-.41-.05Z"/>
        <path class="cls-1" d="M10.78,17.92c-.08-.05-.3-.33-.18-.41s.39.31.18.41Z"/>
        <path class="cls-1" d="M16.96,16.59c-.12.17-.34.16-.42-.03l.26-.12.16.15Z"/>
        <path class="cls-1" d="M18.52,15.82c.23,0,.32.31.02.25-.24-.05-.2-.26-.02-.25Z"/>
        <path class="cls-1" d="M26.86,8.84l-.11.09h-.06c-.42-.36-.08-.46.18-.09Z"/>
        <path class="cls-1" d="M19.39,5.7l-.13-.12c.26-.34.62,0,.13.12Z"/>
        <path class="cls-1" d="M28,10.56l-.09.1c-.14-.12-.24-.25-.21-.44.07-.08.28.29.31.34Z"/>
        <path class="cls-1" d="M20.69,5.38c.12-.17.27-.19.44-.08.12.15-.45.17-.44.08Z"/>
        <path class="cls-1" d="M10.06,16.81c-.37-.2-.06-.62.04-.28.02.05.03.29-.04.28Z"/>
        <path class="cls-1" d="M8.87,17.21s-.04.23-.08.23c-.13-.1-.23-.33-.07-.45.07.06.13.13.14.23Z"/>
        <path class="cls-1" d="M14.38,10.08c.18.1-.05.35-.16.29-.18-.1.05-.35.16-.29Z"/>
        <path class="cls-1" d="M13.77,13.24c.05.04.09.43-.1.36-.12-.07-.11-.41.1-.36Z"/>
        <path class="cls-1" d="M19.4,15.3c-.36-.02-.2-.5.11-.13.04.08-.04.14-.11.13Z"/>
        <path class="cls-1" d="M15.5,17.48c.09-.12.23-.18.34-.05.02.24-.24.2-.34.05Z"/>
        <path class="cls-1" d="M26.96,13.95c0,.07-.06.15-.11.2-.34-.29.11-.56.11-.2Z"/>
        <path class="cls-1" d="M13.79,17.08c.09.05.14.19.13.29l-.25-.09v-.17s.08-.04.12-.03Z"/>
        <path class="cls-1" d="M14.75,18.1c-.1.19-.43.02-.34-.11.07-.11.29.02.34.11Z"/>
        <path class="cls-1" d="M12.7,16.58c.09.02.17.24.08.3-.28.03-.27-.35-.08-.3Z"/>
        <path class="cls-1" d="M20.79,15.08l-.18.12c-.27-.04-.08-.49.18-.12Z"/>
        <path class="cls-1" d="M27.36,12.39c.24.12.13.5-.05.28-.07-.09-.05-.21.05-.28Z"/>
        <polygon class="cls-1" points="12.86 17.98 12.6 18.02 12.56 17.83 12.7 17.75 12.86 17.98"/>
        <path class="cls-1" d="M18.41,5c.12-.19.26-.09.42-.03-.11.12-.31.18-.42.03Z"/>
        <path class="cls-1" d="M14.71,14.94c-.21.36-.46-.07-.18-.12l.18.12Z"/>
        <circle class="cls-1" cx="12.02" cy="15.42" r=".13"/>
        <path class="cls-1" d="M25.25,14.31c-.18-.08-.2-.23-.03-.36.17.12.11.2.03.36Z"/>
        <path class="cls-1" d="M26.48,14.5l-.09.23-.14-.08c-.05-.11.01-.2.1-.28l.12.13Z"/>
        <circle class="cls-1" cx="18.46" cy="14.23" r=".13"/>
        <path class="cls-1" d="M11.3,16.55l-.15-.16.12-.2c.13.09.18.25.03.36Z"/>
        <path class="cls-1" d="M14.31,12.27l.05.28c-.09.14-.42-.14-.05-.28Z"/>
        <path class="cls-1" d="M10.07,11.44c-.14-.14-.25-.45-.14-.64.3-.46.33.63.14.64Z"/>
        <path class="cls-1" d="M5.34,16.74c-.07,0-.25-.73-.04-.81.17.22.2.59.04.81Z"/>
        <path class="cls-1" d="M5.85,16.18c-.01-.13.13-.37.24-.46.1,0,.15.71-.15.63-.05-.04-.09-.11-.09-.17Z"/>
        <path class="cls-1" d="M6.08,15.07c-.11,0-.21-.69.08-.63.11.19.11.48-.08.63Z"/>
        <path class="cls-1" d="M5.5,14.81c-.18-.08-.22-.56-.02-.6.22-.05.14.61.02.6Z"/>
        <path class="cls-1" d="M5.71,13.51c0-.08.14-.48.21-.49.07.09.12.42.07.5-.09.17-.26.19-.28-.02Z"/>
        <path class="cls-1" d="M12,6.23l-.42.36-.09-.1c.08-.2.3-.41.52-.26Z"/>
        <path class="cls-1" d="M7.37,10.58c-.2-.21.03-.47.27-.44-.04.17-.14.33-.27.44Z"/>
        <path class="cls-1" d="M11.55,8.83c.03.11-.29.31-.36.15-.08-.25.31-.36.36-.15Z"/>
        <path class="cls-1" d="M10.35,7.57l-.08-.25c.45-.37.45-.02.08.25Z"/>
        <path class="cls-1" d="M10.86,9.44c.13.09.07.54-.1.42-.14-.09-.03-.52.1-.42Z"/>
        <path class="cls-1" d="M8.5,9.17c-.16-.19.07-.39.27-.37,0,.18-.12.3-.27.37Z"/>
        <path class="cls-1" d="M5.53,15.17c.09,0,.23.46-.05.41-.09-.14-.1-.3.05-.41Z"/>
        <path class="cls-1" d="M6.35,16.7l-.12-.13.22-.36c.13.09,0,.49-.1.49Z"/>
        <path class="cls-1" d="M5.83,17.03c-.26-.1-.27-.34-.07-.52l.07.52Z"/>
        <path class="cls-1" d="M6.67,12.24c0,.12-.21.29-.26.18-.11-.28.26-.47.26-.18Z"/>
        <path class="cls-1" d="M10.03,8.54l-.1-.09c.08-.13.16-.25.34-.25.04.19-.09.27-.24.34Z"/>
        <path class="cls-1" d="M6.53,13.77c-.17-.15-.13-.29.03-.42.15.11.08.32-.03.42Z"/>
        <path class="cls-1" d="M6.8,15.14c.4.28-.16.51-.11.18.01-.07.05-.13.11-.18Z"/>
        <path class="cls-1" d="M9.39,11.67c-.14-.04-.09-.5.05-.41.13.11.06.31-.05.41Z"/>
        <path class="cls-1" d="M9.94,10.34c-.07-.1-.16-.2-.07-.31.2-.24.25.19.07.31Z"/>
        <path class="cls-1" d="M9.37,7.83c-.05.06-.26.31-.34.18-.02-.18.2-.31.34-.18Z"/>
        <path class="cls-1" d="M34.44,34.07c.12-.38.32-.74.58-1.04l-.05.54c-.06.23-.26.56-.53.51Z"/>
        <path class="cls-1" d="M33.34,35.57c.2-.37.38-.81.83-.93-.2.33-.37.93-.83.93Z"/>
        <path class="cls-1" d="M32.3,36.03l.6-.6s.18-.02.21-.08c.2.03-.5,1.01-.81.69Z"/>
        <path class="cls-1" d="M32.98,35.02s.03-.16.05-.21c.12-.23.33-.55.61-.56,0,.4-.33.62-.66.77Z"/>
        <path class="cls-1" d="M27.04,38c-.17.18-.38.3-.63.31-.53.03-.13-.24.13-.34.15-.06.38-.09.5.03Z"/>
        <path class="cls-1" d="M17.92,38.17c-.23.19-.65.07-.78-.19.25-.13.61-.04.78.19Z"/>
        <path class="cls-1" d="M30.64,36.59l-.05-.08c.11-.23.29-.36.52-.44.05-.02.13-.09.16-.01-.06.29-.37.47-.63.54Z"/>
        <path class="cls-1" d="M20.37,38.58c0,.14-.75.19-.81-.03,0-.12.75-.2.81.03Z"/>
        <path class="cls-1" d="M24.63,38.53c.26-.13.54-.21.83-.21.06.33-.81.41-.83.21Z"/>
        <path class="cls-1" d="M13.1,35.71c.07-.12.21.02.28.08.14.12.31.27.29.46-.11.19-.54-.41-.57-.54Z"/>
        <path class="cls-1" d="M35.44,32.21c-.06-.33.16-.63.39-.85.04.31-.15.65-.39.85Z"/>
        <path class="cls-1" d="M28.27,37.48l.08.11c-.43.65-1,.2-.08-.11Z"/>
        <path class="cls-1" d="M22.61,38.54c-.24.09-.55.31-.78.07,0-.15.68-.26.78-.07Z"/>
        <path class="cls-1" d="M32.04,35.71c-.07-.31.21-.47.45-.59.03.28-.19.52-.45.59Z"/>
        <path class="cls-1" d="M19.13,38.33c-.24.1-.48.14-.7-.03-.05-.04-.09,0-.06-.12.26-.08.55-.03.76.14Z"/>
        <path class="cls-1" d="M23.26,38.67c.27-.11.53-.28.81-.1-.02.13-.7.28-.81.1Z"/>
        <path class="cls-1" d="M21.34,38.58c-.17.18-.46.28-.62.03,0-.07.56-.21.62-.03Z"/>
        <path class="cls-1" d="M14.86,36.95c-.27.09-.48-.14-.65-.32.06-.1.08-.04.15-.02.23.05.35.18.51.35Z"/>
        <path class="cls-1" d="M16.75,37.98c-.24.14-.5.01-.65-.19.23-.05.49.02.65.19Z"/>
        <path class="cls-1" d="M15.9,37.4c-.22.08-.41-.09-.59-.19.22-.15.45.02.59.19Z"/>
        <path class="cls-1" d="M35.22,32.5c0,.1-.31.37-.39.46-.04-.1.05-.3.12-.38.04-.05.27-.22.27-.08Z"/>
        <path class="cls-1" d="M35.28,32.76c-.04-.2.11-.41.29-.49.06.22-.17.35-.29.49Z"/>
        <path class="cls-1" d="M34.51,33.42c-.12.1-.22.25-.34.34-.05.04-.12.08-.11-.02.11-.12.25-.49.45-.33Z"/>
        <path class="cls-1" d="M29.67,36.85c-.12.16-.28.27-.49.23.11-.11.32-.37.49-.23Z"/>
        <path class="cls-1" d="M23.87,22.7c-.53.36-1.17.61-1.82.67-.42.12-1.04.29-1.44.4.37-.63,1.2-1.23,1.99-1.21.39.02.95-.1,1.27.1v.03Z"/>
        <path class="cls-1" d="M25.51,23.28c-.27.27-.75.13-1.04.48-.31.27-.73.21-1.12.16-.16-.03-.46-.07-.54-.19.24-.39,1.3-.7,1.66-.8.27,0,.97-.03,1.06.31v.04Z"/>
        <path class="cls-1" d="M27.11,22.71c-.28.18-.75.38-1.1.33-.48-.08-.97-.43-1.42-.52-.18-.06-.4-.07-.54-.2.57-.09,1.38-.21,1.92.04.37.17.85.04,1.14.32v.03Z"/>
      </g>
      <g>
        <path class="cls-2" d="M22.55,44.49c-2.11,0-4.38-.33-6.39-.92-2.85-.89-4.47-2.06-5.62-4.03-2.81-4.84-6.53-5.57-8.11-5.89-.28-.06-.5-.1-.64-.15-.86-.29-1.39-1.02-1.27-1.73.09-.52.55-1.08,1.61-1.08.56,0,1.23.16,1.99.47.94.39,7.44,3.86,8.3,4.36.43.27.85.45,1.3.64.27.12.55.24.83.37.19.09.39.19.59.3.53.28,1.07.56,1.57.67.1.03.19.04.26.04.41,0,.63-.31.66-.61,0-.61-1.85-4.19-2.45-5.36-.25-.49-.45-.87-.52-1.03l-.17-.35c-.27-.55-.52-1.06-.55-1.53-.04-.3.04-.63.25-.86.18-.21.44-.32.72-.32.12,0,.24.02.36.06,1.05.26,1.78,1.63,2.03,2.4.33.9,3.16,6.22,3.87,6.93.51.57,1.38.96,2.15.96.29,0,.55-.06.75-.17.35-.17.59-.44.88-.78.15-.19.3-.36.44-.53.31-.86.61-1.85.94-2.9,1.19-3.87,2.32-7.52,4.15-7.52.75.02,1.09.35,1.25.62.61,1.03-.36,2.94-1.48,5.15-.46.9-.93,1.83-1.22,2.59-.4,1.04-.46,1.89-.19,2.39.13.24.32.38.6.45l.27.06c.51.13,1.87.47,2.45.47h0c.18-.24.47-.44.83-.67.44-.29.95-.62,1.29-1.1.22-.34.63-.35,1-.36.18,0,.38-.01.61-.06.98-.18,2.05-1.2,3.09-2.18.9-.86,1.75-1.67,2.63-2.04.3-.14.66-.23.96-.23.5,0,.75.22.88.4.21.3.22.69.04,1.18-.94,2.28-3.13,2.95-5.06,3.53-.5.15-1,.3-1.46.48-.76.31-1.45.77-2.09,1.22-.34.24-.77.69-1.18,1.14-.35.37-.7.75-1.05,1.05-.95,1.13-2.58,2.47-3.31,2.91-1.71,1.02-4.06,1.56-6.79,1.56h0Z"/>
        <path class="cls-2" d="M30.48,26.43s.02,0,.03,0c2.53.08-.85,4.82-1.94,7.68-.77,2.03-.32,3.25.77,3.5.31.07,2.06.55,2.82.55.19,0,.32-.03.35-.1.18-.46,1.45-.88,2.18-1.87.16-.24.69-.1,1.31-.23,1.99-.37,4-3.48,5.8-4.25.22-.1.51-.19.76-.19.4,0,.71.21.45.91-1.08,2.61-4.06,2.89-6.23,3.72-.78.32-1.49.78-2.2,1.28-.68.47-1.52,1.58-2.26,2.22-1,1.17-2.58,2.46-3.24,2.86-1.78,1.06-4.13,1.49-6.53,1.49-2.18,0-4.39-.35-6.25-.9-2.49-.78-4.16-1.79-5.33-3.8-3.39-5.84-8.11-5.95-9.02-6.26-1.24-.42-1.36-1.84.17-1.84.45,0,1.05.12,1.8.43.91.38,7.46,3.88,8.24,4.33h.02c.68.43,1.4.67,2.14,1.03.69.33,1.5.84,2.27,1.01.13.03.25.05.37.05.65,0,1.1-.48,1.16-1.05.12-.77-2.67-5.91-3.02-6.66-.3-.63-.64-1.25-.67-1.7-.04-.32.11-.65.47-.65.07,0,.14.01.22.04.79.19,1.45,1.31,1.71,2.08.36.96,3.21,6.34,3.99,7.12.58.65,1.59,1.1,2.5,1.1.36,0,.7-.07.99-.23.43-.22.73-.55,1.02-.9.17-.22.34-.41.5-.59,1.35-3.76,2.73-10.18,4.65-10.18M30.48,25.43h0c-2.2,0-3.33,3.65-4.63,7.87-.31,1-.6,1.96-.9,2.79-.13.15-.26.31-.4.48-.24.28-.44.51-.69.63-.16.09-.34.12-.54.12-.61,0-1.37-.33-1.76-.77l-.02-.02-.02-.02c-.61-.62-3.39-5.77-3.76-6.77-.07-.21-.81-2.29-2.38-2.69-.16-.05-.32-.07-.48-.07-.43,0-.82.17-1.1.49-.29.33-.42.79-.37,1.26.04.55.31,1.1.59,1.68.06.12.11.23.17.35.08.16.27.54.52,1.04.56,1.08,2.23,4.32,2.39,5.13-.04.12-.12.12-.16.12-.04,0-.08,0-.13-.02-.46-.1-.98-.37-1.47-.63-.21-.11-.42-.22-.62-.31-.28-.14-.56-.26-.84-.38-.43-.18-.83-.36-1.2-.59-.73-.43-7.39-4-8.41-4.42-.82-.34-1.55-.51-2.18-.51-1.37,0-1.99.81-2.1,1.5-.16.96.52,1.92,1.61,2.29.19.06.41.11.71.17,1.52.3,5.07,1,7.77,5.65,1.21,2.09,2.92,3.32,5.89,4.25,2.07.61,4.39.94,6.55.94,2.83,0,5.26-.56,7.05-1.63.74-.45,2.36-1.77,3.44-3.02.34-.3.69-.68,1.02-1.03.4-.42.8-.86,1.1-1.07.61-.44,1.28-.88,2-1.17.42-.16.89-.3,1.4-.46,1.94-.59,4.35-1.32,5.37-3.8.31-.84.13-1.37-.08-1.67-.16-.23-.54-.62-1.29-.62-.53,0-1.01.19-1.19.28-.93.4-1.81,1.24-2.74,2.13-.94.89-2,1.9-2.82,2.05-.19.04-.37.05-.54.05-.41.01-1.01.04-1.39.58-.3.39-.76.7-1.16.96-.29.19-.55.36-.76.57-.63-.07-1.72-.34-2.11-.44-.13-.03-.23-.06-.29-.07-.17-.04-.23-.12-.27-.19-.15-.28-.17-.95.22-1.97.28-.73.75-1.65,1.2-2.54,1.37-2.7,2.18-4.42,1.46-5.63-.18-.31-.64-.83-1.63-.86h-.02s-.04,0-.04,0h0Z"/>
      </g>
      <path class="cls-1" d="M41.73,31.6c-1.76.78-3.66,2.97-5.61,3.35-.61.13-.66.21-.84-.52-.13.26-.94.8-1.1,1.04-.72.99-2.13,2.25-2.52,2.16-1.06-.24-2.38-.41-2.9-.76-.42-.28-.49-1.66-.1-2.28,1.59-2.6,4.38-7.61,1.91-7.69-1.89-.05-3.26,6.41-4.59,10.18-.16.17-.32.37-.49.59-.29.34-.58.68-1,.9-1.01.56-2.63.04-3.41-.87-.76-.78-3.53-6.16-3.88-7.11-.25-.77-.89-1.88-1.66-2.07-.5-.16-.72.25-.67.62.03.46.36,1.07.65,1.7.34.75,3.05,5.88,2.93,6.65-.08.68-.66,1.22-1.5,1.01-.75-.17-1.54-.67-2.22-1-.72-.36-1.42-.59-2.09-1.01h-.02c-.77-.46-7.15-3.95-8.04-4.32-3.22-1.35-3.49.87-1.93,1.41.89.31,5.5.41,8.8,6.24,1.13,2,2.76,3.01,5.2,3.79,3.81,1.14,9.17,1.41,12.49-.62.65-.4,2.2-1.69,3.17-2.87.72-.64,1.55-1.75,2.21-2.22.69-.5,1.38-.96,2.15-1.28,2.12-.83,5.17-1.67,6.23-4.28.41-1.14-.64-.98-1.18-.72ZM16.02,30.45c-.83-1.48-.39-1.53-.03-.95.36.58,2.36,4.82,2.36,4.82l-2.33-3.87ZM2.35,32.36c.54-.48,1.9.11,2.71.54,0,0-3.25-.06-2.71-.54ZM16.33,40.09c-5.63-3.71-7.51-4.85-7.51-4.85.87.37,3.85,1.7,4.59,2.15h.02c.65.43,1.33.66,2.04,1.02.66.33,1.43.83,2.16,1,.81.21,1.35-.55,1.33-1.18-.08-2.14,2.64,5.33-2.63,1.87ZM30.47,27.78c.9.03-2.12,4.59-2.12,4.59.21-.8,1.22-4.62,2.12-4.59ZM30.87,38.61c-2.13-.26-3.82-1.97-2.89-1.47.72.38,1.81.87,3.68.91,1.86.05.29.69-.78.56ZM42.21,32.55c-.92,1.21-5.02,2.55-5.02,2.55,1.29-.76,3.85-2.69,4.17-2.89.32-.2,1.76-.87.85.35Z"/>
    </g>
  </g>
</svg>