<?xml version="1.0" encoding="UTF-8"?>
<svg id="Layer_2" data-name="Layer 2" xmlns="http://www.w3.org/2000/svg" viewBox="0 0 60.17 60.98">
  <defs>
    <style>
      .cls-1 {
        fill: #ff5c8f;
      }

      .cls-2 {
        fill: #fff;
      }
    </style>
  </defs>
  <g id="Design">
    <g>
      <path class="cls-1" d="M54.35,8.58l-.02-.03c-.9-1.29-2.76.43-1.94,1.84.88,1.41,2.92-.34,1.96-1.81Z"/>
      <path class="cls-1" d="M1.19,33.86h-.03c-.64-.2-1.1.49-.96,1.21.1.77.82,1.52,1.4,1.47,1.29-.16.69-2.41-.42-2.68Z"/>
      <path class="cls-1" d="M57.28,15.64l-.02-.02c-.37-.4-1.11-.28-1.53.13-.54.45-.92,1.45-.25,1.9.82.6,2.59-.88,1.81-2.01Z"/>
      <path class="cls-1" d="M57.17,32.64c-.64-1.03-2.43.11-2.06,1.38.18.51.92.68,1.42.38.53-.26,1.02-1.1.66-1.73l-.02-.03Z"/>
      <path class="cls-1" d="M1.72,22.61h-.03c-.96.37-.49,2.27.72,2.38,1.38-.04.73-2.63-.69-2.38Z"/>
      <path class="cls-1" d="M50.02,24.78c.56-.35,1.01-1.48.65-2.13l-.02-.03c-.18-.29-.51-.26-.76-.07-.53.35-.98,1.47-.62,2.12.17.3.49.29.75.11Z"/>
      <path class="cls-1" d="M28.79,2.55c.52-.49.7-1.71.32-2.31l-.02-.03c-.21-.32-.59-.25-.82.03-.43.47-.64,1.53-.32,2.17.18.38.56.43.84.14Z"/>
      <path class="cls-1" d="M41.2,3.39l-.02-.03c-.81-.86-1.87,1.52-1.18,2.23.83.6,1.71-1.45,1.2-2.2Z"/>
      <path class="cls-1" d="M30.35,5.96c.56-.26.97-1.26.7-1.91v-.03c-.61-1.04-1.79.44-1.54,1.43.09.47.48.69.84.51Z"/>
      <path class="cls-1" d="M4.51,14l-.02.04c-.3.45-.14,1.27.28,1.77.43.59,1.42,1.05,1.72.3.3-.65-.22-1.68-.91-2.13-.35-.25-.86-.3-1.07.03Z"/>
      <path class="cls-1" d="M54.21,20.75c.45-.07.7-.81.41-1.24l-.02-.03c-.28-.49-.83-.05-.88.45-.06.4.21.85.49.81Z"/>
      <path class="cls-1" d="M13.07.57h-.03c-1.36,0-1.22,2.34-.25,3.38.52.63,1.43.93,1.87.34.83-1.05-.12-3.58-1.59-3.72ZM13.75,2.77c-.14.19-.43.09-.6-.11-.31-.34-.36-1.09.08-1.09h0c.47.04.78.86.51,1.2Z"/>
      <path class="cls-1" d="M47.11,20.47l-.02-.02c-1.14-.82-2.6.79-2.66,2.28-.14,1.35,1.02,2.47,2.05,1.85,1.26-.65,1.93-3.15.64-4.11ZM46.37,22.81c-.4.24-.86-.19-.8-.72.02-.58.59-1.21,1.04-.89h0c.51.38.24,1.36-.25,1.61Z"/>
      <path class="cls-1" d="M55.15,36.78h-.04c-.84-.22-2.09.49-2.7,1.33-.52.63-.82,1.84.07,2.1,1.16.36,2.77-.88,3.2-2.04.25-.6.04-1.26-.52-1.39ZM54.51,38.01c-.16.44-.76.9-1.2.76-.33-.09-.22-.55-.03-.79.23-.32.7-.58,1.01-.5h.01c.21.05.29.3.2.52Z"/>
      <path class="cls-1" d="M7.51,39.82c-.14-1-.96-1.95-1.73-2.3l-.06-.03c-1.18-.6-2.3.61-1.66,2.26.29.75.86,1.34,1.48,1.67.99.6,2.2-.07,1.98-1.6ZM5.74,39.74c-.26-.13-.5-.39-.62-.7-.27-.69.2-1.2.7-.95h.03c.32.16.67.56.73.98.1.65-.41.92-.83.67Z"/>
      <path class="cls-1" d="M45.31,5.79c-.98,1.12-1.73,2.47-2.37,3.85-1.08,2.36-.96,2.61-1.26,5.32-.16.84,1.44,3.9,1.31,5.48l.21,3.06c1.5-5.89,6.47-13.69,6.66-17.26-.04-4.43-2.58-2.85-4.55-.44ZM47.88,8.51c-1.28,2.98-2.14,3.25-1.5,1.91.63-1.34,1.49-3.53.57-2.33-.92,1.19-2.04,3.89-1.84,2.25.19-1.63-2.22,3.14-2.22,3.14.17-.55,1.29-3.86,1.65-4.53,1.29-2.46,2.43-4.21,3.35-4.23,1.22-.03,1.35.64,0,3.8Z"/>
      <path class="cls-1" d="M14.18,48.95c-1.37-1.68-2.38-3.64-3.06-5.68-.56-1.38-.69-2.88-.85-4.36-1.99-1.87-2.94-6.56-4.29-8.65-.9-1.54-2.23-3.25-3.85-3.33-1.13.08-1.24,1.31-.79,2.59.77,2.06,2.28,3.61,3.61,5.12,4.27,4.85,5.66,10.24,6.4,13.35l2.83.95ZM2.82,28.51c1.46.11,2.3,1.72,3.44,4.14,0,0-4.9-4.25-3.44-4.14Z"/>
      <g>
        <path class="cls-1" d="M54.38,46.99c-1.54.64-2.87,2.1-4.51,2.5-.07-.03-.03-.15.09-.33.71-.93,1.24-2.11,1.34-3.29.02-.39-.08-.63-.09-.99-.01-.5.17-1.29.08-1.64-.05-.27-.14-.43-.12-.8.03-.44.17-1.18.15-1.55-.01-.39-.13-.49-.08-.95.05-.61.33-1.47.25-2.03-.05-.24-.14-.39-.07-.86.07-.43.21-1.09.23-1.41.02-.38-.13-.39-.11-.77.02-.36.22-1.09.29-1.55.09-.59-.09-.86.1-1.45.23-.74.31-1.4.33-2.17.2-.85.57-1.75,1.04-2.52.29-.47.27-.84-.07-1.37-.19-.34-.38-.68-.54-.7-.1-.02-.2.05-.32.19-.35.45-.78.96-1.22,1.38-1.33,1.3-2.94,2.28-4.58,3.15-.47.23-.38.51.02.75,4.52,2.92,4.76,9.33,2.84,13.99-3.9,9.52-15.31,14.41-25.04,11.55-1.14-.29-5.21-2.62-7.56-4.95-4.18-4.14-4.96-8.62-5.11-9.8-.34-1.3-.02-2.78-.57-4-2.56-2.63-4.69-7.8-4.86-8.43-2.17-5.54-1.28-12.15,2.35-16.89C17.09.78,35.74,2.93,40.97,15.7c1.04,2.45,1.49,5.08,1.51,7.71-.01.53.18.96.57,1.3.93.86,1.71,1.9,2.17,3.08.13.37.41.61.8.43,1.15-.52,2.37-1.09,3.33-1.93.76-.65,1.55-1.5,1.81-2.34.18-.72.3-2.02,1.31-1.84.67.23,1.01,1.3.86,1.83-.07.82.69,2.05,1.42,2.54,4.24,2.23,6.38,8.15,5.01,12.65-.06.51-.15,1.37-.4,1.73-.59.91-.79,2.15-1.68,2.84-.45.47-.84,1.15-1.33,1.61-.65.43-1.35,1.08-1.89,1.62l-.08.06ZM52.68,23.84l-.67-1.02c-.12.38.22.67.47.91.06.05.13.2.2.11ZM58.09,32.24c-.44-1-1.59-1.73-2.2-2.58-.45-.72-.74-1.83-1.3-2.44-.04-.03-.04.01,0,.11.07.17.22.48.19.72-.16.6-.69,1.08-.92,1.67-.16.32-.18.47-.02.24.29-.43.61-.99.89-1.4.13-.19.22-.29.29-.22.27.55.62,1.49.73,2.11-.08.52-.67.84-1.01,1.33-.32.4-.76.89-.94,1.33.49-.34,1.19-1.49,1.74-1.94.39-.42.46,0,.52.36.04.62.46,1.42.16,1.96-.84.85-1.89,1.65-2.5,2.71.53-.47,1.6-1.71,2.28-2.22.09-.05.24-.16.33-.07.2.26.15.93.17,1.3-.01.63-.03,1.24-.52,1.66-.89.74-1.8,1.65-2.38,2.64,0,.02.02.01.06-.02.63-.79,1.54-1.74,2.33-2.39.11-.07.29-.25.34-.08-.13.83-.49,2.3-.7,2.95-.67.89-1.78,1.55-2.23,2.65-.06.16.06.04.25-.23.43-.59.91-1.19,1.45-1.63,1.1-.74-1.62,4.69-1.87,5.02-.17.3-.45.72-.59,1,.22-.23.51-.69.74-1.04.72-1.01,1.08-2.29,1.73-3.31.15-.07.19.57.26.91.03.15.06.21.08.15.04-.47-.15-1.1-.12-1.59.04-.69.51-1.56.68-2.25.32-.99.48-2.84.97-.59.07.29.15.53.19.5.02,0,.03-.09.02-.23.01-.82-.49-1.74-.52-2.52.07-.82.25-1.69.18-2.49,0-.32.14-.31.39.09.48.72.7,1.6,1.03,2.39.09.12.02-.17,0-.3-.22-1.18-.8-2.27-1.43-3.27-.25-.69-.27-1.62-.53-2.35-.2-1.05,1.65,1.29,1.78,1.36v-.02ZM42.2,30.59c1.65-.59,3.38-1.33,4.95-2.13,1.64-.86,3.53-1.95,4.28-3.64-2.09,3.13-6.08,4.14-9.26,5.76h.02ZM40.77,21.86c.15-.04.28,1.27.47,1.3l.07-.02c.65-7.47-5.16-14.38-12.13-16.65-2.45-.76-5.36-1.26-7.75-.09-2.94,1.56-5.21,5.57-4.61,9.01.03.14.06.17.08.1.08-.38.05-.86.13-1.29.16-1.06.54-2.21,1.28-2.99.06-.04.1-.03.1.04.08.21-1.37,3.77-.47,2.5.36-.53.41-.38.33.03-.47,2.41-1.11,5.26-3.64,6.3-4.44,1.37-7.3,5.69-5.64,10.16.09.14.03-.31,0-.39-.31-1.54-.22-3.25.48-4.65.1-.2.19-.32.18-.03-.11.93-.23,2.02-.1,2.97.04.27.08-.64.27-.5.28.09.82,1.86.88,1.37-.01-.16-.04-.3-.07-.48-.09-.29-.02-.94.33-.41.22.37.43,1.17.47,1,.02-.2-.09-.64-.04-.78.28-.59.97.69,1.32.98.41.48.65.24.31-.35-.18-.29-.28-.56-.17-.65.28-.15.72.86.8.42.19-.93.65-.29.87.13.37.45.4-.13.07-.5-.05-.09-.16-.31-.07-.37.23-.18.67.52.8.13.07-.17.15-.31.35-.28.24.01.49.04.74-.2.24-.22.31-.59.44-.73.15-.16.55,0,.61-.23.07-.13.13-.26.25-.3.18-.06.64-.06.86-.32.27-.25.44-.39.71-.49.69-.23,1.35-.74,2.01-1.04,3.68-1.82,7.78-2.93,11.9-2.91.5.02.8,0,1.17-.42.14-.12.3-.24.46-.33.3-.13.53.2.85-.02,1.06-.62.69.23.85.81.28,0,.37-.67.8-.89.08-.05.2-.09.29-.1.36,0,.22,1.1.46,1.27l.08.03c.23.04.26-1.07.52-1.02.12.02.19.39.2.76.03.65.06.61.29.17.12-.23.2-.04.35-.2.66-.97.68.49.92.99.21.37.15-.75.29-.83h.03ZM25.34,42.56c-.02-.13-1.23,1.29-1.07.88.05-.13.13-.28.18-.41.47-1.15-.78-.76-1.24-.19-.26.25-1.55,1.74-.88.65.49-.85,1.76-1.49.31-2.03-.7-.14-1.83.86-2.46,1.04-.07-.32,2.29-1.42,1.15-1.43-.5-.02-1.2.24-1.63.31-.03-.18.81-.52.63-.64-.06-.09-.36-.1-.6-.04-.57.13-1.79.63-2.36.72.39-.35,1.25-.66,1.74-.92.12-.07.28-.19,0-.21-.21-.04-1.39.14-1.24,0,.06-.07.41-.19.67-.33.49-.27,1.02-.68,1.32-1.16.17-.46-1-.18-1-.43.33-.17,1.04-.12,1.39-.33.78-.67-1.02-.48-1.36-.53-1.56-.16.66-.24,1.08-.28.72,0,1.3-.52,1.42-1.23.17-.66-.69-.7-.99-1.03.32-.09,1.3.29,1.48-.34,0-.05-.04-.1-.1-.14-.53-.24-2.67-.99-3.2-1.2-.15-.07-.04-.06.08-.06,1,.06,2.11.45,3.08.69.42.08.9-.18.39-.57-.25-.19-.67-.41-.97-.58-1.17-.64.11-.26.61.02.74.42,1.4.45,1.74-.28.19-.37-.08-.7-.34-.96-.13-.13-.21-.23-.15-.22.36.11,1.22.72,1.5.13-.02-.43-.56-.63-1.04-1.17-.43-.4-.89-.83-1.08-1.01-.11-.12-.06-.11.07-.05.78.38,1.61,1.04,2.28,1.6.12.07.28.16.42.11.24-.08.52-.5.72-.7.38-.41-.66-1.42-.81-1.89,0-.05.84.96,1.19,1.26.19.14.4.15.63.09,1.68-.3.54-1.72.22-2.69-.26-.82.47.36.61.67.54,1.16.6,1.41,1.88.94.3-.13.19-.61.1-1.12-.11-.52-.14-.8.04-.42.59,1.28.33,1.5,1.83,1.06.38-.05.43-.61.46-1.01.02-.18.01-.39.07-.5.09.07.11.36.14.54.06.84.23,1.1,1.07,1.04.53.02.96.12,1.15-.47.04-.08.09-.29.15-.31.07.01,0,.66.21.84.28.23.7.11,1.06.22.87.33,1.43.69,2.39.78.64.16,1.35.44,1.93.2.23-.09.46-.22.67-.35.1-.06.2-.11.26-.13.21-.07.07.15-.22.39-.25.2-.41.44-.29.6.46.34.89-.07,1.39-.48,2.89-2.47.14-4.51-2.35-5.55-9-3.85-23.97,1.35-26.95,11.06-.27,1.18-.25,2.39.21,3.49.44,1.17,1.43,1.88,2.03,2.88.73,1.52.81,3.32,2.01,4.57,6.14,6.92,19.31,5.62,26.1.34,3.63-2.7,6.52-6.68,5.65-11.27-.59-2.99-3.04-3.68-5.78-3.21-.37.08-.87.15-1.11.46-.13.18-.1.35.07.41.07.03.16.03.27.02.71-.13,4.02-.34,3.11-.09-1.28.31-2.43.29-3.55.84-.6.6.09.83.67.81.34.03.38.1.06.17-.7.09-1.25.37-1.33,1.16-.06.28.05.48.31.58.3.12.86.23,1.11.36-.19.09-.98-.07-1.27-.03-.6-.02-1.1.66-.46.83,1.53.3,3.24.64,4.62,1.38-.35-.02-2.38-.6-3.17-.7-.6-.09-1.63-.3-2-.32-.1.01-.21.05-.29.11-.32.27-.01.58.3.74.41.24.37.28-.09.21-.24-.05-1.14-.12-.81.32.77.48,1.98.84,2.63,1.51-.53-.07-3.12-1.61-3.34-.87.13.46.7.67.99,1,.13.13.19.22.16.25-.48-.08-1.19-.8-1.76-.76-.33,0-.74.36-.53.65.62.63,1.68,1.27,2.12,2.03-.76-.44-2.07-1.5-2.62-1.76-.31-.08-.66.11-.93.26-.39.22-.42.4-.14.79.3.48.79,1.04.81,1.45-.59-.43-1.11-1.73-2.04-1.61-.73.14-.25.83.02,1.22.37.6.75,1.29.99,1.92.04.1.13.42-.06.18-.68-.83-1.16-2.27-2.15-2.77-.76-.06-.47.85-.32,1.3.26.88-.34-.36-.5-.53-.18-.34-.83-.72-.82-.12.09.9.6,2.18.51,3.12-.23-.42-.33-1.09-.49-1.63-.24-.59-.26-1.76-1.08-1.66-.55.2-.25,1.15-.33,1.63,0,.62-.11.16-.18-.17-.18-.65-.06-1.58-1.04-1.47-.82-.07-.97.64-1.18,1.23-.14.34-.2.23-.18-.13,0-.37.16-.81-.12-1.07-.19-.17-.51-.14-.69.03-.58.68-.66,2.08-1.24,2.82-.01,0-.01-.04,0-.11.13-.59.66-2.2.74-2.82-.02-.17-.15-.21-.31-.27-.26-.07-.69-.22-.93-.18l-.07.02ZM43.43,29.42c.18-.24,1.1-.37,1.18-.6.03-.2-.53-1.39-.61-1.4.01.71-.32,1.24-.6,1.84-.04.08-.09.06.03.15ZM46.28,31.1c-.26-.17-.78-.54-1.09-.55-.26-.01-.72.34-1,.43l2.09.12ZM15.4,13.35c.81-2.53,1.94-5.12,4.08-6.86.1-.08.18-.16.24-.22.1-.11.1-.17,0-.18-8.25,1.38-14.48,9.62-13.48,17.96.12,1.01.32,2.14.72,3.04.03.04.05.01.05-.08-.02-.49-.17-1.23-.22-1.78-.12-.33-.05-2.63.26-1.7.07.28.13.75.19,1.06.06.36.1.51.14.4.06-.24.21-1.09.41-1.25.23-.18.1.75.13.87.01.27.11.01.16-.11.82-2.1,2.4-3.79,4.48-4.69.1-.05.16-.09.19-.12.07-.09-.14-.13-.06-.21.26-.17.67-.28.16-.47-.1-.05-.37-.14-.37-.24-.02-.12.48-.2.47-.34.01-.17-.38-.46-.35-.54,0-.05.12-.03.23-.02.36.06.07-.26-.02-.48-.29-.79.44-.08.59-.08.03-.01.03-.07.01-.16-.11-.46-.39-1.2.22-.39.08.09.12.1.13.01-.01-.24.07-.82.28-1.04.28-.31.05-.82.13-1.24.04-.18.18-.35.29-.17.1.11,0,.69.11.78.13,0,.32.15.41.24.16-.01.09-.46.1-.69,0-.38-.19-1.23.25-1.25l.03-.02ZM39.42,36.02c.76-.39.74-1.35.97-2.04.82-1.09,1.18-2.94-.22-3.72-.81-.32-1.84-.37-2.7-.6-.65-.14-1.23-.59-1.9-.63-.85.03-1.67-.3-2.52-.24-.41.05-.82.03-1.19-.01-.64-.06-1.16.32-1.81.42-.94.06-1.7.59-2.52.99-.39.16-.81.3-1.14.53-.43.3-.68.8-1.1,1.14-.41.35-.84.55-1.14.98-.2.23-.46,1.09-.06.59.49-.81,1.59-1.01,2.09-1.8,2.39-2.3,5.83-2.83,9.12-2.3,1.28.23,2.5.96,3.77,1.21.79.31-.34.72-.81.59-.68-.07-1.17-.51-1.72-.8-.64-.16-1.27-.49-1.93-.56-.84.02-1.84.03-2.63.21-.62.21-1.35.29-2.03.29-.87.05-1.47.74-2.27,1.06-.25.12-.58.28-.78.46-.12.11,0,.08.16.04.43-.1-.16.49-.24.61-.39.53-1.24.79-1.74,1.22-.39.34-.24.73-.62,1.13-.06.07-.2.22-.19.29.08.1.69-.36.52.09-.07.21-.18.47-.11.42.5-.48.6-1.56,1.18-1.97.38-.32,2.47-1.62,1.49-.14-.32.44-.88.63-1.2,1.04-.26.38-.21.71.08.41.56-.68,1.45-1.15,2.03-1.81.39-.39,1.03-.7,1.65-.61.16.03.28.11.18.26-.12.16-.46.32-.6.52-.17.2-.28.47-.54.64-.31.2-.73.29-1,.5-1.06,1.09,1.74-.33,1.87-.68.63-.7,1.72-.86,2.59-.79.14.05-.21.27-.19.36.15.12.5-.05.69-.17.23-.15.45-.36.68-.51.62-.46,1.43-.25,2.1,0,.21.06.39.31.45.44.21.19.51-.32.72-.41.46-.39,1.4-.25,1.34.47-.05.61.11.44.27.03.27-.83-.72-1.31-1.38-1.43-.36.05-.6.47-1.05.42-.31-.02-.47-.17-.3-.31.72-.52,1.77-.49,2.58-.15.32.1.68-.24,1.2-.3.65-.06-.32,1.02-.2,1.52.39-.06.9-1.33,1.17-1.02.14.16.09.58,0,.81-.48.95-.47,2.03-1,2.91-.04.13-.18.28-.12.38h.03ZM35.68,55.06c6.74-1.56,12.42-7.18,13.83-13.97.09-.35.33-1.78-.06-.76-4.74,11.04-21.38,14.87-31.26,8.37-1.71-1.13-2.99-2.55-3.67-4.53-.1-.11.04.6.19,1.02.35,1.22,1.21,2.12,2.08,2.99.49.69.94,1.46,1.71,1.91.92.76,2.09,1.28,3.13,1.88.66.22,1.34.48,2.01.7.77.11,1.59.15,2.33.4,1.06.33,2.24.03,3.35.12.74-.03,1.67.18,2.3.13.99-.17,1.89-.14,2.86-.43.46-.14,1.02-.1,1.46-.16.4-.06.72-.49,1.11-.59.43-.09.89-.01,1.35-.19.52-.13.9-.63,1.38-.82.44-.11.72.37,1.13-.12.27-.31.51-.45.84-.48.33-.06.54-.31.8-.6.22-.26.44-.55.76-.58.14,0,.18.15.08.31-.03.21-1.16.84-.79.84.77-.17,1.47-1.1,2.16-1.38.15.26-.43.74-.65.91-.49.31-.92.75-1.33,1.17-1.92,1.75-4.59,2.99-7.1,3.84h0ZM38.92,34.86c.32.09.49-.21.4-.49l-.4.49ZM37.99,35.08c.43-.15.88-.41.84-.93-.22.3-.58.44-.8.74-.03.04-.11.15-.04.2ZM36.26,35.4c.38-.44.98-.79.84-1.47-.36.35-.78.81-.88,1.31-.01.07-.08.08.04.16ZM38.17,35.97l-.77.78-.24.51c.41-.24.6-.42.84-.82.06-.11.21-.35.17-.47ZM32.93,34.84c.35-.18.75-.32,1.13-.41.57-.13,1.54.02,1.59-.78-.78.62-1.8.07-2.53.81-.06.06-.25.28-.2.38ZM34.79,33.05c-.15-.22-.77.1-.69.29.27-.02.46-.16.69-.29ZM35.34,37.05c.87.12,1.46-.56,1.86-1.25l-.86.67-1,.58ZM38.38,37.28c-.35.36-.71.71-1.06,1.07-.09.09-.49.2-.6.34.89-.02,1.38-.72,1.77-1.43-.13-.18-.07-.02-.11.02ZM32.85,36.26c.67.35,1.64.25,2.13-.36l-1,.24-1.13.12ZM14.44,16.84c.2-.27-.15-.6-.18-.89-.12.09,0,.35.02.47.02.08.09.42.16.42ZM15.33,17.46c-.36.27-.76.56-.91,1-.1.3-.03.75.36.62,0-.21.03-.43.1-.62.13-.35.44-.64.45-1ZM32.35,34.35c-.07-.12-.32,0-.42.04-.22.08-.42.22-.62.29-.4.14-.87.16-1.26.39.91.34,1.66-.07,2.3-.72ZM34.01,39.09c.94.19,1.51-.27,1.95-1.07l-.64.42-1.31.65ZM31.17,37.69c.77.26,1.56.43,2.22-.19-.11-.04-.23.06-.38.07-.31.02-.62-.08-.93-.04l-.91.16ZM33.67,40.52c.67.03,1.25-.17,1.68-.72l-.69.32c-.33.13-.76.08-1,.39ZM31.61,36.26c-.09-.14-.12-.04-.2-.03-.51.06-.95.29-1.31.66-.01.18.58-.04.64-.07.33-.15.56-.38.86-.56ZM31.44,39.1c.64.31,1.36.02,1.77-.54l-.6.26-1.17.28ZM29.43,35.96c-.82-.43-1.85.04-2.3.81l.82-.37,1.48-.44ZM31.4,40.21c.65.08,1.34.01,1.77-.54l-.55.22c-.4.12-.87.03-1.22.32ZM27.75,38.1c.37.1.76.1,1.13.16.14.02.26.13.44.16.14.02.8.01.82-.16-.86-.16-1.53-.73-2.4-.17ZM24.06,37.27c.8-.62,1.89-.53,2.52-1.39-.24-.03-.46.18-.69.26-.59.22-1.16.26-1.64.74-.06.06-.25.29-.2.38ZM29.94,41.24c.6.18,1.32.15,1.86-.19-.21.01-1.85-.01-1.86.19ZM30.2,39.55c-.06-.1-.15-.06-.24-.07-.16-.01-2.08-.06-2.06.07.72.36,1.58.31,2.31,0ZM40.9,51.76c.34-.15.64-.32.88-.62l-.64.31-.24.31ZM22.77,35.36c.27-.04.56-1.19.48-1.47-.33.37-.69.97-.48,1.47ZM24.91,37.84l1.09.15c.24-.04.49-.09.69-.25-.22-.01-1.76-.19-1.77.1ZM23,37.1c.45-.52.77-1.12.66-1.82-.32.51-.39,1.09-.65,1.62-.05.09-.17.09,0,.2ZM28.52,40.98c-.43-.39-1.15-.39-1.69-.26l1.31.28.38-.02ZM38.42,52.3c.43.08.81-.11,1.02-.49l-.69.18-.33.31ZM26.87,39.43c0-.14-1.7-.32-1.91-.22.63.24,1.24.49,1.91.22ZM21.45,38.3c.09.06.17,0,.24-.06.38-.37.76-1.47.82-2,.01-.12.06-.28-.05-.38-.55.75-.21,1.83-1.01,2.45ZM24.16,38.33c-.15-.24-1.24,0-1.24.09.41.06.87.16,1.24-.09ZM36.6,53.07c.61.17.96-.5,1.46-.76l-.91.36-.55.4ZM14.18,29.85c.34-.33-.2-.55-.4-.75-.06.07.06.26.09.33.08.15.17.3.31.42ZM25.32,40.46c-.5-.28-1.12-.53-1.69-.53.52.28,1.07.67,1.69.53ZM23.05,39.27c-.5-.48-1.6-.14-2.13.19l1.22-.25.91.06ZM12.54,29.9c.05-.12-.15-.74-.23-.75-.11.35-.09.53.23.75ZM34.83,53.6c.24-.19.6-.1.8-.36-.27-.07-.47-.01-.69.16-.05.04-.2.14-.11.2ZM11.74,30.7c0-.3-.24-.67-.45-.89-.19.45.13.64.45.89ZM10.27,29.87c-.21-.27-.21-.62-.31-.93-.09,0-.08.54-.06.6.03.08.26.39.38.33ZM33.72,53.74l.11-.16-.64.16c0,.18.7.21.73.02l-.2-.02ZM30.65,53.8c.37.3.88.21,1.29.04-.08-.06-.51,0-.53-.02-.05-.02-.06-.12-.11-.14-.08-.02-.5.13-.64.11ZM28.66,53.67c.02.33,1.27.4,1.29.22-.13,0-1.3-.39-1.29-.22ZM26.93,53.72c.02.19.68.17.82.15.09,0,.18.03.24-.07-.41-.02-.67-.36-1.06-.08ZM21.86,52.5c-.17-.2-.44-.39-.71-.35.17.17.46.38.71.35Z"/>
        <path class="cls-1" d="M40.48,46.6c-.64-.44-1.05-1.3-1.56-1.91-.47-.75-1.15-1.28-1.59-2.04,1.3,1.02,2.37,2.47,3.16,3.92v.04Z"/>
        <path class="cls-1" d="M41.7,35.36c1.53-.4,3.32-.3,4.86,0-.24,0-4.88.02-4.88.02l.03-.02Z"/>
        <path class="cls-1" d="M29.03,49.19c-.01-1.54.14-3.17.35-4.69.04.13.14.8.11,1.11-.07,1.18-.07,2.48-.44,3.6h-.02Z"/>
        <path class="cls-1" d="M20.33,36.04c-1.08-.13-3.44-.32-4.47-.49,1.41-.25,3.07.04,4.44.47h.03Z"/>
        <path class="cls-1" d="M33.39,27.52s.03-3.81.03-4.04c.28,1.18.37,2.83-.02,4.01v.03Z"/>
        <path class="cls-1" d="M22.13,31.64c-.11.04-.32-.08-.42-.13-.83-.4-1.68-.94-2.47-1.41,1.08.12,2.07.85,2.89,1.54Z"/>
        <path class="cls-1" d="M18.93,45.35c.14-.46.63-.74,1.33-1.48.57-.54,1.15-1.05,1.3-1.04-.68.89-1.71,1.79-2.6,2.52h-.03Z"/>
        <path class="cls-1" d="M23.21,47.75c.31-1.08.91-2.25,1.64-3.14-.09.2-.44,1.08-.61,1.41-.28.47-1,1.71-1.02,1.74h0Z"/>
        <path class="cls-1" d="M41.91,26.59c-.59.81-1.28,1.58-2.1,2.16-.02-.02.18-.3.22-.36.19-.22.42-.5.61-.71.29-.32.79-.86,1.11-1.11.07-.05.17-.11.15.02Z"/>
        <path class="cls-1" d="M20.91,47.22l.2-.51c.45-.72.99-1.36,1.61-1.94l-1.81,2.45Z"/>
        <path class="cls-1" d="M36.99,27.36c.06-.85.31-1.85.83-2.53-.12.86-.46,1.75-.83,2.53Z"/>
        <path class="cls-1" d="M17.44,33.96c-.9-.23-1.86-.25-2.71-.65.94-.05,1.88.29,2.78.55l-.07.11Z"/>
        <path class="cls-1" d="M35.2,48.59c-.1.1-.2-.18-.22-.24-.3-.65-.56-1.58-.63-2.28.49.76.63,1.66.85,2.53Z"/>
        <path class="cls-1" d="M25.29,26.1c.33.39.51.91.8,1.33.01.13-.1,0-.14-.04-.54-.6-1.03-1.26-1.49-1.93,0-.03.14-.03.15-.02.21.21.48.44.67.66Z"/>
        <path class="cls-1" d="M23.67,28.39c-.08.06-.27-.11-.33-.16-.61-.5-1.15-1.08-1.76-1.57.12-.06.27.03.38.08.68.37,1.19,1.09,1.71,1.64Z"/>
        <path class="cls-1" d="M26.82,49.2c-.06-.89.23-1.8.57-2.62,0,.88-.25,1.8-.57,2.62Z"/>
        <path class="cls-1" d="M47.41,37.8c-.86-.05-1.73-.34-2.53-.66.86-.05,1.77.27,2.53.66Z"/>
        <path class="cls-1" d="M14.88,39.3c.81-.35,1.77-.6,2.66-.54-.44.16-.9.29-1.35.38-.42.09-.88.21-1.31.16Z"/>
        <path class="cls-1" d="M42.78,44.34c-.1.06-.3-.13-.38-.2-.55-.47-1.01-1.05-1.47-1.6.75.42,1.38,1.07,1.85,1.79Z"/>
        <path class="cls-1" d="M30.9,26.54c-.17-.46-.28-.96-.37-1.44-.05-.3-.12-.65-.09-.95.41.69.5,1.6.45,2.39Z"/>
        <path class="cls-1" d="M38.22,47.6l-.67-1.22-.31-.91c.47.59.96,1.36.99,2.13Z"/>
        <path class="cls-1" d="M18.89,31.87l-1.27-.36-1.13-.52c.84.02,1.68.46,2.4.88Z"/>
        <path class="cls-1" d="M20.97,29.6l-.56-.22-1.36-.88c.73-.01,1.42.61,1.91,1.1Z"/>
        <path class="cls-1" d="M38.19,28.2l1.24-2.05c.03.1-.04.32-.08.42-.22.61-.69,1.18-1.16,1.62Z"/>
        <path class="cls-1" d="M35.52,26.79c-.13,0-.03-.84-.02-.95.01-.14.14-1.22.24-1.22.1.06.06.15.07.24.06.61-.12,1.35-.28,1.93Z"/>
        <path class="cls-1" d="M16.77,43.64c-.09-.07.1-.2.15-.24.16-.13.36-.23.53-.35l1.26-.57c-.58.5-1.25.87-1.95,1.16Z"/>
        <path class="cls-1" d="M14.3,37.31c.73-.18,1.51-.27,2.26-.14,0,.09-.91.2-1.04.21-.27.02-.71.03-.98,0-.09,0-.18.04-.24-.07Z"/>
        <path class="cls-1" d="M44.05,40.12c-.69-.1-1.4-.42-2.04-.7.71-.04,1.49.26,2.04.7Z"/>
        <path class="cls-1" d="M31.92,49.49c-.23-.65-.23-1.36-.19-2.04.21.54.3,1.22.25,1.8,0,.09.04.18-.07.24Z"/>
        <path class="cls-1" d="M47.44,33.58c-.62.18-1.27.19-1.91.14.17-.22,1.89-.36,1.91-.14Z"/>
        <path class="cls-1" d="M28.37,26.07l-.11.07-.83-1.53c.5.32.77.91.94,1.46Z"/>
        <path class="cls-1" d="M44.77,42.96c-.05.07-.14-.01-.2-.05-.29-.17-.72-.53-.98-.77-.08-.07-.34-.27-.29-.38.11.11.48.21.56.29l.91.91Z"/>
        <path class="cls-1" d="M24.55,48.72c-.08-.46.16-.98.44-1.33.02.13-.03.34-.06.47-.08.3-.21.6-.38.87Z"/>
        <path class="cls-1" d="M14.78,35.72c-.07,0-.71-.09-.71-.14.36-.26.81-.02,1.2.04,0,.06-.42.11-.49.1Z"/>
        <path class="cls-1" d="M46.32,41.22c-.34-.02-.75-.28-1.02-.49.37-.07.78.23,1.02.49Z"/>
        <path class="cls-1" d="M13.33,28.12c-.21.03-.78-.93-.49-1.2.46.25.78.69.49,1.2Z"/>
        <path class="cls-1" d="M12.49,28.17c-.42-.21-.53-.86-.41-1.28.46.27.62.79.41,1.28Z"/>
        <path class="cls-1" d="M11.05,26.62c0-.08.13-.4.19-.4.37.29.28.76.25,1.17-.3.06-.46-.56-.44-.77Z"/>
        <path class="cls-1" d="M14.22,27.32c-.33-.17-.74-.54-.56-.95.4.07.68.57.56.95Z"/>
        <path class="cls-1" d="M33.63,21.03c-.09.24-.91.43-1.04.29-.24-.26.85-.6,1.04-.29Z"/>
        <path class="cls-1" d="M14.99,26.69c.51.27.63,1.05.09.75-.27-.15-.22-.5-.22-.76.04,0,.09-.01.13.01Z"/>
        <path class="cls-1" d="M38.16,20.48c-.12,0-.21-1,.08-1.06.36.25.21.81-.08,1.06Z"/>
        <path class="cls-1" d="M12.44,26.53c-.17-.08-.44-.75-.29-.86.46-.1.61.61.29.86Z"/>
        <path class="cls-1" d="M10.08,26.49c.31.26.36.7.34,1.08-.1.11-.35-.33-.38-.4-.03-.08-.07-.69.04-.69Z"/>
        <path class="cls-1" d="M39.25,20.39c.01-.3.25-.13.36.06.14.27-.03.93-.23.58-.03-.05-.13-.58-.12-.64Z"/>
        <path class="cls-1" d="M16.34,27.05c-.31.43-.52-.15-.66-.4.28-.23.55.16.66.4Z"/>
        <path class="cls-1" d="M38.93,18.86c.15.08.19.68.09.75-.31.2-.47-.96-.09-.75Z"/>
        <path class="cls-1" d="M18.24,13.19c0-.39.36-.72.62-.98.07.39-.29.79-.62.98Z"/>
        <path class="cls-1" d="M19.3,11.41c-.19-.37.29-.76.62-.89l-.3.56-.32.33Z"/>
        <path class="cls-1" d="M39.76,17.77c0,.1-.02.3-.17.24-.01-.2-.43-.7-.18-.84.19-.11.35.47.35.6Z"/>
        <path class="cls-1" d="M11.32,25.51c-.17-.24-.31-.61-.05-.84.24.09.31.86.05.84Z"/>
        <path class="cls-1" d="M40.02,19.58c-.17-.01-.46-.75-.18-.89.15,0,.37.74.18.89Z"/>
        <path class="cls-1" d="M33.63,20.5l.38-.43c.61.34.07.6-.38.43Z"/>
        <path class="cls-1" d="M14.83,26.07c-.21-.19-.42-.37-.38-.69.37-.17.64.69.38.69Z"/>
        <path class="cls-1" d="M31.5,20.51c.13-.37,1.05-.22.73.05-.12.1-.74.07-.73-.05Z"/>
        <path class="cls-1" d="M10.39,24.49c-.24-.23-.21-.64.04-.84.12,0,.21.78-.04.84Z"/>
        <path class="cls-1" d="M15.52,24.29c.22.12.24.38.22.6-.3,0-.48-.35-.44-.62.07,0,.15-.02.22.02Z"/>
        <path class="cls-1" d="M19.79,22.24c.13-.26.82-.05.69.2s-.58-.04-.69-.2Z"/>
        <path class="cls-1" d="M20.94,9.41c0,.18-.42.43-.55.55-.26-.08-.12-.25.04-.39.05-.04.5-.36.51-.17Z"/>
        <path class="cls-1" d="M31.55,21.17c-.25.13-.56.35-.8.09.2-.26.58-.38.8-.09Z"/>
        <path class="cls-1" d="M30.08,20.6c-.16.2-.43.17-.63.07v-.18c.19-.25.47-.12.63.11Z"/>
        <path class="cls-1" d="M10.44,26.23c-.07,0-.23-.32-.24-.41-.02-.15.14-.54.27-.28.09.18.15.55-.04.69Z"/>
        <path class="cls-1" d="M40.47,21.18c-.28-.03-.33-.83-.14-.84.15.08.31.82.14.84Z"/>
        <path class="cls-1" d="M21.77,20.14l-.1.16c-.82.05-.51-.87.1-.16Z"/>
        <path class="cls-1" d="M37.09,20.13c-.25-.18-.2-.6,0-.8.28.22.16.54,0,.8Z"/>
        <path class="cls-1" d="M18.07,25.66c-.06.09-.11.07-.2.06-.63-.12-.14-1.1.2-.06Z"/>
        <path class="cls-1" d="M21.36,15.68s.14.04.16.09c.04.3-.28.43-.53.4-.04-.21.19-.47.37-.49Z"/>
        <path class="cls-1" d="M16.16,25.45c.14.09.32.14.34.33l-.09.22c-.3,0-.5-.36-.25-.55Z"/>
        <path class="cls-1" d="M37.66,18.84c-.14,0-.26-.67-.05-.75.28.18.27.53.05.75Z"/>
        <path class="cls-1" d="M23.9,7.13c0,.07-.79.32-.8.09.23-.2.55-.37.8-.09Z"/>
        <path class="cls-1" d="M38.55,17.77c-.23-.17-.37-.53-.14-.75.21.04.27.76.14.75Z"/>
        <path class="cls-1" d="M38.81,16.26c-.18-.27-.4-.47-.34-.82.33,0,.41.56.34.82Z"/>
        <path class="cls-1" d="M21.29,8.07c-.24-.31.31-.66.57-.49l-.57.49Z"/>
        <path class="cls-1" d="M36.37,17.29c-.16.35-.43.32-.57-.04.15-.2.43-.12.57.04Z"/>
        <path class="cls-1" d="M13.32,25.02c.05,0,.45.46.29.6-.16.11-.6-.45-.29-.6Z"/>
        <path class="cls-1" d="M35.82,14.01c-.16-.06-.45-.57-.18-.62.16-.03.44.5.18.62Z"/>
        <path class="cls-1" d="M37.47,15.73l-.11.07c-.17-.17-.52-.48-.25-.69l.36.62Z"/>
        <path class="cls-1" d="M12.53,23.87c.08-.32.51.09.41.37-.22.1-.45-.23-.41-.37Z"/>
        <path class="cls-1" d="M33.28,9.62c-.19.21-.47.13-.62-.09.19-.21.47-.13.62.09Z"/>
        <path class="cls-1" d="M22.79,18.05c-.12.38-.75.16-.42-.11.14-.12.33-.03.42.11Z"/>
        <path class="cls-1" d="M22.8,20.98c.16-.25.52-.27.55.07-.17.17-.43.12-.55-.07Z"/>
        <path class="cls-1" d="M14.34,24.43c-.12-.06-.41-.45-.25-.55s.53.43.25.55Z"/>
        <path class="cls-1" d="M22.76,22.63c-.17.23-.46.22-.58-.04l.35-.16.22.21Z"/>
        <path class="cls-1" d="M24.89,21.58c.31,0,.44.43.02.34-.32-.06-.28-.35-.02-.34Z"/>
        <path class="cls-1" d="M36.26,12.05l-.15.12-.09-.02c-.57-.47-.11-.61.24-.1Z"/>
        <path class="cls-1" d="M26.08,7.77l-.18-.16c.36-.47.85,0,.18.16Z"/>
        <path class="cls-1" d="M37.82,14.4l-.13.13c-.2-.16-.32-.34-.29-.6.1-.11.38.4.42.46Z"/>
        <path class="cls-1" d="M27.85,7.34c.16-.23.36-.26.6-.11.16.21-.61.24-.6.11Z"/>
        <path class="cls-1" d="M13.36,22.93c-.51-.28-.09-.84.05-.38.02.07.04.39-.05.38Z"/>
        <path class="cls-1" d="M11.73,23.47s-.06.31-.11.31c-.18-.14-.31-.44-.09-.62.09.08.18.18.2.31Z"/>
        <path class="cls-1" d="M19.24,13.74c.25.13-.07.48-.22.4-.25-.13.07-.48.22-.4Z"/>
        <path class="cls-1" d="M18.42,18.05c.07.05.12.59-.13.49-.16-.09-.14-.56.13-.49Z"/>
        <path class="cls-1" d="M26.09,20.86c-.49-.03-.28-.68.15-.18.06.11-.05.19-.15.18Z"/>
        <path class="cls-1" d="M20.77,23.83c.12-.16.31-.24.46-.07.02.32-.33.28-.46.07Z"/>
        <path class="cls-1" d="M36.4,19.02c0,.09-.09.2-.15.27-.47-.39.15-.76.15-.27Z"/>
        <path class="cls-1" d="M18.44,23.3c.12.07.19.25.18.39l-.34-.13-.02-.23c.03-.06.13-.06.18-.04Z"/>
        <path class="cls-1" d="M19.75,24.68c-.13.27-.58.03-.47-.15.1-.15.4.03.47.15Z"/>
        <path class="cls-1" d="M16.95,22.61c.13.03.23.33.11.41-.38.05-.37-.47-.11-.41Z"/>
        <path class="cls-1" d="M27.99,20.56l-.24.16c-.37-.06-.11-.66.24-.16Z"/>
        <path class="cls-1" d="M36.95,16.89c.33.16.18.68-.06.38-.1-.12-.06-.29.06-.38Z"/>
        <polygon class="cls-1" points="17.18 24.51 16.81 24.57 16.77 24.31 16.96 24.21 17.18 24.51"/>
        <path class="cls-1" d="M24.74,6.82c.17-.26.35-.12.58-.05-.14.16-.43.25-.58.05Z"/>
        <path class="cls-1" d="M19.69,20.37c-.29.49-.63-.09-.24-.16l.24.16Z"/>
        <circle class="cls-1" cx="16.03" cy="21.03" r=".18"/>
        <path class="cls-1" d="M34.07,19.52c-.24-.11-.28-.31-.05-.49.23.16.15.28.05.49Z"/>
        <path class="cls-1" d="M35.74,19.78l-.12.31-.19-.11c-.07-.15.02-.28.14-.38l.16.18Z"/>
        <circle class="cls-1" cx="24.81" cy="19.4" r=".18"/>
        <path class="cls-1" d="M15.04,22.57l-.21-.22.16-.27c.18.13.24.34.05.49Z"/>
        <path class="cls-1" d="M19.15,16.74l.07.38c-.12.19-.57-.19-.07-.38Z"/>
        <path class="cls-1" d="M13.37,15.61c-.19-.19-.35-.62-.19-.87.41-.62.44.86.19.87Z"/>
        <path class="cls-1" d="M6.92,22.82c-.1,0-.35-1-.05-1.11.23.3.28.8.05,1.11Z"/>
        <path class="cls-1" d="M7.61,22.06c-.02-.18.18-.51.33-.62.13,0,.21.97-.2.86-.07-.06-.12-.15-.13-.24Z"/>
        <path class="cls-1" d="M7.93,20.55c-.16,0-.29-.94.11-.86.15.26.15.66-.11.86Z"/>
        <path class="cls-1" d="M7.13,20.2c-.24-.11-.29-.76-.03-.82.31-.07.19.83.03.82Z"/>
        <path class="cls-1" d="M7.42,18.42c0-.11.19-.66.28-.67.1.12.16.57.1.69-.12.23-.36.26-.38-.02Z"/>
        <path class="cls-1" d="M16.01,8.49l-.58.49-.13-.13c.11-.28.41-.56.7-.36Z"/>
        <path class="cls-1" d="M9.68,14.42c-.27-.29.04-.64.37-.6-.06.23-.19.44-.37.6Z"/>
        <path class="cls-1" d="M15.39,12.05c.03.15-.4.42-.49.2-.11-.34.43-.49.49-.2Z"/>
        <path class="cls-1" d="M13.75,10.32l-.1-.33c.61-.5.61-.03.1.33Z"/>
        <path class="cls-1" d="M14.45,12.87c.17.12.1.73-.13.58-.19-.12-.04-.7.13-.58Z"/>
        <path class="cls-1" d="M11.23,12.51c-.22-.26.09-.53.37-.51,0,.25-.16.41-.37.51Z"/>
        <path class="cls-1" d="M7.18,20.69c.12,0,.31.63-.07.55-.13-.2-.14-.41.07-.55Z"/>
        <path class="cls-1" d="M8.29,22.77l-.17-.18.3-.49c.18.12,0,.67-.13.67Z"/>
        <path class="cls-1" d="M7.59,23.22c-.36-.14-.37-.47-.09-.71l.09.71Z"/>
        <path class="cls-1" d="M8.74,16.69c0,.17-.29.39-.35.25-.15-.38.36-.65.35-.25Z"/>
        <path class="cls-1" d="M13.31,11.65l-.13-.13c.11-.17.22-.35.46-.33.05.26-.12.36-.33.46Z"/>
        <path class="cls-1" d="M8.54,18.78c-.23-.2-.17-.39.04-.58.2.15.12.43-.04.58Z"/>
        <path class="cls-1" d="M8.91,20.64c.54.38-.22.69-.15.24.02-.09.07-.18.15-.24Z"/>
        <path class="cls-1" d="M12.44,15.92c-.2-.06-.13-.68.07-.55.17.15.08.42-.07.55Z"/>
        <path class="cls-1" d="M13.19,14.1c-.1-.13-.22-.27-.09-.42.28-.33.34.27.09.42Z"/>
        <path class="cls-1" d="M12.42,10.68c-.07.08-.35.42-.46.25-.03-.24.27-.43.46-.25Z"/>
        <path class="cls-1" d="M46.61,46.46c.17-.51.43-1.01.79-1.42l-.07.73c-.08.32-.35.77-.72.69Z"/>
        <path class="cls-1" d="M45.1,48.51c.27-.5.51-1.11,1.13-1.27-.27.45-.5,1.27-1.13,1.27Z"/>
        <path class="cls-1" d="M43.69,49.13l.82-.82s.24-.03.29-.11c.27.03-.68,1.38-1.11.94Z"/>
        <path class="cls-1" d="M44.61,47.75c-.06-.06.04-.22.07-.29.16-.32.45-.75.84-.76,0,.54-.45.85-.91,1.04Z"/>
        <path class="cls-1" d="M36.51,51.82c-.24.24-.52.41-.86.43-.73.05-.18-.33.18-.46.2-.08.52-.13.69.03Z"/>
        <path class="cls-1" d="M24.08,52.05c-.31.26-.89.1-1.07-.26.35-.17.83-.05,1.07.26Z"/>
        <path class="cls-1" d="M41.42,49.89l-.07-.12c.14-.32.39-.49.71-.6.07-.02.18-.13.22-.02-.09.4-.5.64-.86.73Z"/>
        <path class="cls-1" d="M27.41,52.61c0,.2-1.02.25-1.11-.04,0-.17,1.02-.27,1.11.04Z"/>
        <path class="cls-1" d="M33.22,52.55c.35-.18.73-.29,1.13-.29.09.45-1.1.55-1.13.29Z"/>
        <path class="cls-1" d="M17.5,48.7c.09-.16.28.02.38.11.18.16.42.36.4.62-.15.26-.74-.56-.78-.73Z"/>
        <path class="cls-1" d="M47.97,43.92c-.08-.45.22-.86.53-1.16.05.43-.2.88-.53,1.16Z"/>
        <path class="cls-1" d="M38.19,51.11l.12.15c-.58.89-1.37.27-.12-.15Z"/>
        <path class="cls-1" d="M30.47,52.56c-.33.13-.75.42-1.06.09,0-.2.93-.35,1.06-.09Z"/>
        <path class="cls-1" d="M43.33,48.69c-.1-.42.29-.64.62-.8.04.39-.26.71-.62.8Z"/>
        <path class="cls-1" d="M25.72,52.27c-.33.14-.66.19-.96-.04-.06-.05-.12,0-.09-.16.36-.11.74-.05,1.04.19Z"/>
        <path class="cls-1" d="M31.36,52.73c.36-.15.73-.38,1.11-.14-.02.18-.95.38-1.11.14Z"/>
        <path class="cls-1" d="M28.74,52.61c-.24.24-.62.38-.84.05,0-.09.76-.29.84-.05Z"/>
        <path class="cls-1" d="M19.9,50.38c-.37.12-.66-.19-.89-.44.09-.13.1-.05.2-.03.32.07.48.24.69.47Z"/>
        <path class="cls-1" d="M22.48,51.79c-.32.19-.68.02-.89-.26.31-.07.67.03.89.26Z"/>
        <path class="cls-1" d="M21.32,51c-.3.11-.56-.12-.8-.26.29-.2.61.02.8.26Z"/>
        <path class="cls-1" d="M47.66,44.32c0,.13-.42.51-.53.62-.05-.14.07-.41.16-.51.06-.07.36-.29.37-.11Z"/>
        <path class="cls-1" d="M47.75,44.68c-.05-.28.15-.56.4-.67.08.29-.23.48-.4.67Z"/>
        <path class="cls-1" d="M46.69,45.57c-.16.14-.3.34-.46.47-.07.05-.16.11-.15-.02.14-.17.34-.67.62-.45Z"/>
        <path class="cls-1" d="M40.09,50.26c-.17.21-.38.37-.66.31.15-.15.43-.5.66-.31Z"/>
        <path class="cls-1" d="M32.19,30.95c-.72.49-1.59.83-2.48.92-.58.16-1.42.4-1.96.55.51-.86,1.64-1.68,2.71-1.65.53.03,1.29-.13,1.73.14v.04Z"/>
        <path class="cls-1" d="M34.42,31.74c-.37.36-1.02.18-1.42.66-.42.36-1,.28-1.53.22-.22-.05-.63-.1-.74-.26.33-.53,1.77-.95,2.26-1.09.37,0,1.33-.03,1.44.42v.05Z"/>
        <path class="cls-1" d="M36.61,30.96c-.39.24-1.02.52-1.5.46-.65-.11-1.33-.58-1.94-.71-.25-.08-.54-.09-.73-.28.78-.13,1.88-.29,2.61.06.51.23,1.16.06,1.55.44v.04Z"/>
      </g>
      <g>
        <path class="cls-2" d="M30.39,60.48c-2.86,0-5.94-.44-8.66-1.24-3.83-1.2-6.02-2.77-7.56-5.41-3.88-6.67-9-7.68-11.18-8.11-.38-.07-.67-.13-.85-.2-1.08-.37-1.76-1.28-1.62-2.16.11-.64.69-1.32,2.01-1.32.74,0,1.63.21,2.64.63,1.27.52,10.28,5.35,11.3,5.94.59.37,1.18.62,1.79.88.37.16.74.32,1.12.5.25.12.52.26.8.41.73.38,1.48.77,2.18.93.15.04.28.05.4.05.67,0,1.03-.5,1.08-.99.05-.79-2.44-5.62-3.37-7.43-.34-.66-.6-1.16-.7-1.38l-.24-.49c-.36-.73-.69-1.42-.73-2.02-.05-.37.05-.77.29-1.05.21-.24.51-.38.84-.38.14,0,.29.02.44.07,1.37.33,2.34,2.21,2.66,3.15.46,1.24,4.35,8.54,5.32,9.52.72.81,1.97,1.36,3.06,1.36.43,0,.81-.08,1.12-.25.5-.25.84-.63,1.25-1.11.21-.26.42-.51.62-.74.42-1.19.84-2.55,1.29-3.99,1.61-5.21,3.13-10.12,5.49-10.12.76.02,1.27.28,1.55.76.79,1.32-.52,3.88-2.02,6.85-.63,1.23-1.28,2.51-1.67,3.55-.56,1.46-.65,2.67-.25,3.41.2.37.51.6.94.7l.36.09c.77.19,2.57.64,3.38.64.04,0,.08,0,.1,0,.21-.34.63-.61,1.13-.94.59-.39,1.32-.87,1.81-1.54.25-.39.75-.41,1.22-.42.26,0,.56-.02.86-.08,1.39-.26,2.86-1.66,4.29-3.02,1.22-1.16,2.37-2.25,3.53-2.75.39-.18.86-.29,1.24-.29.6,0,.9.26,1.05.47.25.35.25.84.03,1.44-1.25,3.03-4.19,3.92-6.78,4.71-.71.21-1.38.42-2,.66-1.05.43-2.01,1.06-2.89,1.68-.48.33-1.07.97-1.63,1.58-.47.5-.95,1.02-1.41,1.42-1.3,1.54-3.5,3.36-4.49,3.95-2.3,1.38-5.47,2.1-9.17,2.1h0Z"/>
        <path class="cls-2" d="M41.21,36.04s.02,0,.04,0c3.45.11-1.16,6.58-2.65,10.48-1.05,2.77-.44,4.44,1.04,4.77.43.1,2.81.74,3.85.74.26,0,.44-.04.48-.14.25-.62,1.97-1.2,2.97-2.54.22-.33.94-.14,1.78-.32,2.71-.5,5.46-4.74,7.91-5.8.29-.14.69-.25,1.04-.25.55,0,.96.29.61,1.24-1.47,3.56-5.54,3.94-8.49,5.07-1.07.43-2.04,1.06-3,1.74-.92.65-2.08,2.15-3.08,3.02-1.36,1.6-3.52,3.35-4.42,3.9-2.42,1.45-5.63,2.03-8.91,2.03-2.97,0-5.99-.48-8.52-1.22-3.4-1.06-5.67-2.44-7.27-5.18-4.63-7.96-11.06-8.11-12.31-8.53-1.69-.57-1.85-2.51.24-2.51.62,0,1.43.17,2.45.59,1.24.51,10.17,5.29,11.24,5.91h.02c.93.59,1.91.91,2.92,1.4.94.45,2.05,1.15,3.1,1.38.18.05.35.07.51.07.89,0,1.49-.65,1.58-1.43.16-1.05-3.64-8.05-4.12-9.08-.4-.86-.88-1.7-.92-2.32-.06-.43.15-.89.64-.89.09,0,.19.02.3.05,1.08.26,1.98,1.79,2.33,2.83.49,1.3,4.38,8.64,5.44,9.71.79.88,2.17,1.51,3.41,1.51.49,0,.96-.1,1.35-.31.58-.29.99-.75,1.39-1.22.24-.3.46-.56.68-.8,1.84-5.12,3.73-13.88,6.34-13.88M41.21,35.04c-2.73,0-4.23,4.85-5.97,10.47-.43,1.4-.84,2.73-1.25,3.88-.21.24-.42.49-.58.7-.36.43-.66.76-1.06.96-.26.14-.56.21-.91.21-.94,0-2.06-.49-2.67-1.17l-.02-.02-.02-.02c-.85-.86-4.7-7.98-5.21-9.36-.36-1.07-1.41-3.04-3-3.45-.19-.06-.38-.08-.56-.08-.48,0-.92.19-1.22.55-.33.38-.48.9-.41,1.44.05.69.4,1.41.77,2.17.08.16.16.32.23.48.1.22.36.73.71,1.4.79,1.54,3.19,6.2,3.31,7.17-.03.17-.15.52-.58.52-.08,0-.17-.01-.26-.04-.67-.15-1.39-.52-2.09-.89-.29-.15-.56-.29-.83-.42-.38-.18-.76-.35-1.14-.51-.6-.26-1.16-.5-1.69-.83h-.01s-.04-.03-.04-.03c-.94-.55-9.98-5.4-11.36-5.97-1.07-.44-2.03-.67-2.83-.67h0c-1.64,0-2.37.9-2.51,1.74-.19,1.13.63,2.27,1.95,2.72.23.08.52.14.92.21,2.12.42,7.08,1.4,10.85,7.87,1.61,2.76,3.87,4.39,7.83,5.63,2.79.82,5.91,1.27,8.82,1.27,3.79,0,7.05-.75,9.42-2.17.99-.6,3.18-2.38,4.62-4.06.46-.41.93-.91,1.39-1.4.55-.59,1.12-1.2,1.55-1.51.85-.61,1.78-1.22,2.8-1.64.58-.22,1.24-.42,1.94-.64,2.7-.82,5.76-1.75,7.09-4.98.3-.8.27-1.44-.08-1.94-.18-.26-.6-.69-1.46-.69-.65,0-1.24.24-1.46.35-1.22.52-2.4,1.64-3.65,2.83-1.38,1.31-2.8,2.66-4.03,2.89-.29.06-.55.07-.8.08-.51.02-1.2.04-1.62.64-.44.59-1.1,1.02-1.68,1.41-.43.28-.82.54-1.1.86-.81-.05-2.46-.46-3.1-.62-.18-.04-.31-.08-.38-.09-.29-.07-.48-.21-.61-.45-.15-.28-.43-1.14.28-2.99.39-1.02,1.03-2.28,1.65-3.5,1.57-3.09,2.93-5.77,2.01-7.33-.26-.44-.8-.97-1.92-1h-.02s-.05,0-.05,0h0Z"/>
      </g>
      <path class="cls-1" d="M56.54,43.09c-2.4,1.06-5,4.06-7.64,4.57-.83.18-.9.29-1.15-.72-.17.35-1.29,1.09-1.5,1.42-.98,1.34-2.91,3.07-3.43,2.95-1.45-.33-3.25-.56-3.95-1.04-.57-.38-.66-2.26-.14-3.11,2.17-3.54,5.98-10.38,2.61-10.48-2.57-.07-4.45,8.74-6.26,13.89-.21.24-.43.51-.66.8-.39.47-.79.93-1.36,1.23-1.37.77-3.59.05-4.66-1.18-1.03-1.07-4.82-8.4-5.29-9.7-.34-1.05-1.22-2.57-2.27-2.83-.69-.21-.98.34-.91.85.04.62.5,1.46.89,2.32.46,1.03,4.16,8.02,4,9.07-.11.92-.91,1.67-2.05,1.37-1.02-.23-2.1-.92-3.02-1.37-.98-.49-1.94-.81-2.85-1.38h-.02c-1.05-.63-9.75-5.39-10.96-5.9-4.39-1.84-4.76,1.18-2.63,1.92,1.22.42,7.5.56,12,8.5,1.55,2.73,3.77,4.1,7.08,5.16,5.2,1.55,12.51,1.92,17.03-.84.88-.55,2.99-2.31,4.33-3.91.98-.87,2.12-2.38,3.02-3.03.94-.68,1.89-1.31,2.93-1.75,2.89-1.14,7.06-2.27,8.5-5.83.57-1.55-.87-1.34-1.61-.98ZM21.48,41.53c-1.14-2.02-.53-2.09-.04-1.29.49.79,3.22,6.57,3.22,6.57l-3.18-5.28ZM2.85,44.13c.74-.65,2.59.15,3.7.74,0,0-4.44-.08-3.7-.74ZM21.91,54.67c-7.68-5.05-10.24-6.62-10.24-6.62,1.18.51,5.25,2.31,6.27,2.93h.02c.88.59,1.82.9,2.78,1.39.9.45,1.95,1.14,2.95,1.36,1.11.29,1.85-.75,1.81-1.61-.11-2.92,3.6,7.27-3.58,2.55ZM41.18,37.88c1.22.04-2.89,6.26-2.89,6.26.28-1.1,1.66-6.3,2.89-6.26ZM41.73,52.66c-2.9-.36-5.21-2.68-3.95-2.01.98.52,2.47,1.18,5.01,1.24,2.54.06.4.95-1.07.77ZM57.2,44.38c-1.25,1.65-6.84,3.47-6.84,3.47,1.77-1.03,5.25-3.67,5.69-3.95.44-.27,2.41-1.18,1.15.47Z"/>
    </g>
  </g>
</svg>