<?xml version="1.0" encoding="UTF-8"?>
<svg id="Layer_2" data-name="Layer 2" xmlns="http://www.w3.org/2000/svg" viewBox="0 0 44 54.21">
  <defs>
    <style>
      .cls-1 {
        fill: #ff5c8f;
      }
    </style>
  </defs>
  <g id="Design">
    <g>
      <path class="cls-1" d="M13.27,39.52h-2.12c-.79-2.31-3.03-3.97-5.63-3.87C2.41,35.76,0,38.42,0,41.53v.1h5.9l1.16,10.24-.28.3.26.31-.76,1.37c-.07.18.06.37.25.37h6.44c.19,0,.32-.19.25-.37l-.77-1.38.23-.32-.25-.26,1.34-11.8c.03-.3-.2-.57-.5-.57ZM6.23,39.52c-.1,0-.19.03-.26.08l.04-2.68c.06-.21.26-.36.48-.32.33.05.64.13.94.25.21.08.32.29.28.49l-1.26,2.18h-.22ZM7.04,39.52l1.07-1.85c.15-.19.43-.25.62-.09.28.22.53.47.75.74.13.16.12.39,0,.54l-1.13.66h-1.32ZM9.35,39.52l.26-.15c.21-.11.47-.05.59.15h-.84ZM.99,40.66c.05-.34.14-.67.27-.99.1-.25.38-.36.61-.25l2.9,1.7H1.25c-.18-.08-.3-.26-.27-.47ZM2,38.92c-.12-.15-.14-.38,0-.54.22-.28.47-.53.74-.75.18-.15.45-.12.6.05l1.69,3.02-3.03-1.78ZM3.74,37.37c-.04-.2.06-.41.26-.49.32-.12.65-.21.99-.27.22-.04.42.11.48.31l-.05,3.45-1.69-3.01ZM11.67,49.5c-.06.51-.49.9-1.01.9h-1.82c-.52,0-.95-.39-1.01-.9l-.85-7.52h.66l.85,7.52-.35-7.52h4.39l-.85,7.52Z"/>
      <path class="cls-1" d="M39.03,39.52h-7.04c-.3,0-.54.26-.5.57l1.34,11.78-.24.06.22.63-.76,1.28c-.07.18.06.37.25.37h6.44c.19,0,.32-.19.25-.37l-.77-1.29.18-.62-.19-.05,1.34-11.8c.03-.3-.2-.57-.5-.57ZM37.54,49.92c-.06.54-.52.95-1.07.95h-1.92c-.55,0-1.01-.41-1.07-.95l-.9-7.93h.69l.9,7.93-.37-7.93h4.64l-.9,7.93Z"/>
      <path class="cls-1" d="M35.68,29.43l8.32-24.85-1.04.55c-6.86,3.64-12.69,3.63-17.68,2.79V.85c0-.47-.38-.85-.85-.85h-3.51c-.47,0-.85.38-.85.85v5.93c-2.61-.64-4.88-1.18-6.97-1.11-1.85.06-2.25,1.11-2.76,2.44-.05.14-.11.28-.16.42L.98,28.48l1.05-.37c4.64-1.65,8.53-.1,12.65,1.55.12.05.24.1.37.15v22.44c0,1.09.88,1.97,1.97,1.97h11.31c1.09,0,1.97-.88,1.97-1.97v-20.62c1.63-.44,3.37-1.12,5.22-2.1l.17-.09ZM20.97,1.19c0-.16.13-.28.28-.28h2.93c.16,0,.28.13.28.28v7.57h-3.5V1.19ZM15.05,22.87v5.92s-.01,0-.02,0c-1.06-.43-2.11-.84-3.16-1.21L20.07,7.97v7.37c0,.74-.44,1.4-1.13,1.69h0c-2.36.98-3.89,3.28-3.89,5.83ZM20.49,50.56h-3.64v-1.65h3.64v1.65ZM17.35,27.31c0-2.9,2.35-5.25,5.25-5.25s5.25,2.35,5.25,5.25-2.35,5.25-5.25,5.25-5.25-2.35-5.25-5.25ZM28.51,50.56h-3.88v-1.65h3.88v1.65ZM28.71,18.67c-.62-.7-1.4-1.27-2.3-1.64-.68-.28-1.13-.95-1.13-1.69v-6.47c2.14.35,4.44.56,6.91.39l-3.49,9.41Z"/>
    </g>
  </g>
</svg>