<?xml version="1.0" encoding="UTF-8"?>
<svg id="Layer_2" data-name="Layer 2" xmlns="http://www.w3.org/2000/svg" viewBox="0 0 44 60.72">
  <defs>
    <style>
      .cls-1 {
        fill: none;
      }

      .cls-2 {
        fill: #573100;
      }
    </style>
  </defs>
  <g id="Design">
    <g>
      <rect class="cls-1" width="44" height="60.72"/>
      <g>
        <g>
          <path class="cls-2" d="M20.49,18.77c-.12,0-.19-.1-.29-.17-.18-.17-.35-.36-.53-.57-.73-.77-1.03-1.66-1.49-2.56-.5-.89-1.04-1.77-1.72-2.57-.38-.5-.74-.97-1.24-1.39-.72-.71.06-.42.53-.18.6.3,1.13.65,1.64,1.05.75.63,1.58,1.27,2.24,1.97.61.6.58-.02.47-.45-.11-.56-.17-1.16-.42-1.69-.24-.65-.52-1.29-.8-1.94-.13-.35-.27-.69-.47-1-.26-.4-.46-.9-.67-1.29-.13-.29-.53-.62-.49-.93.17-.14.61.26.78.36.55.32.94.75,1.36,1.18.27.25.57.5.8.77.23.27.49.55.71.83.12.15.5.66.62.26.08-.35.11-.73.2-1.08.09-.37.06-.77.14-1.15.09-.41.17-.83.25-1.25.02-.19.54-1.44.63-.82.09.71.2,1.42.47,2.09.2.79.5,1.54.79,2.31.34,1.28.9.04,1.33-.42.47-.71,1.17-1.29,1.87-1.84.16-.14,1.15-.93,1.09-.48-.14.35-.44.65-.64.98-.43.83-.86,1.68-1.2,2.55-.3.84-.59,1.72-.79,2.58-.11.72.35.46.69.07.6-.51,1.02-1.15,1.69-1.6.54-.34,1.03-.72,1.58-1.03.22-.16,2.33-1.22,1.54-.39-1.29,1.19-2.36,2.54-3.23,3.97-.37.53-.59,1.12-.92,1.66-.4.76-.94,1.47-1.5,2.16-.21.25-.4.51-.55.79-.24.45-.44,1.57-1.27,1.2-.22-.17-.26-.45-.33-.69-.06-.26-.18-.51-.32-.73-.5-.78-1.15-1.53-1.98-2.09-.53-.34-.5,0-.47.36-.02.32.1.99-.11,1.18h0Z"/>
          <path class="cls-2" d="M21.32,18.88c.23-.03.64.46.76.61.54.67.94,1.43,1.17,2.21.1.38-.1.68-.37.98-.21.26-.38.52-.55.79-.15.25-.24.55-.34.82-.05.13-.11.26-.25.32-.32.1-.64-.27-.84-.44-.38-.34-.61-.67-.81-1.08-.34-.67-.77-1.28-1.23-1.9-.24-.37-.52-.68-.8-1.03-.3-.35-.65-.67-.98-1.01-.67-.65-1.4-1.29-2.24-1.78-.48-.32-.97-.62-1.54-.85-.23-.14-.59-.24-.68-.46-.08-.2.57-.09.71-.08.56.05,1.2.21,1.69.41.56.2,1.06.47,1.58.78.32.18.64.35.94.55.49.29.94.61,1.38.96.59.46,1.11,1.04,1.74,1.45.49.27.5-.37.53-.65.02-.17-.05-.51.12-.6h0Z"/>
          <path class="cls-2" d="M32.54,16.63c.03.17-.59.39-.76.52-.53.33-1,.69-1.43,1.11-.35.31-.68.56-.95.91-.09.12-.18.24-.29.36-.83.89-1.52,1.85-2.36,2.73-.28.29-.53.61-.85.87-.48.39-1.14.71-1.54,1.18-.2.21-.27.47-.41.7-.1.17-.19.35-.25.54-.18.41-.12.92-.45,1.27-.19.19-.51.13-.64-.08-.42-.56-.38-1.46-.24-2.1.1-.28.27-.63.46-.9.4-.54,1.01-.97,1.61-1.36.49-.44.75-1.01.97-1.58.54-1.31,2.19-2.55,3.57-3.25.78-.37,1.59-.63,2.46-.81.3-.04.54-.09.82-.12.16-.02.27-.02.29.02h0Z"/>
          <path class="cls-2" d="M26.36,27.73c-.51-.25.28-1.08-.29-.77-.3.17-.58.44-.89.57-.36.15-.85.2-1.19,0-.26-.21.05-.49.2-.72.11-.17.16-.35.19-.54.04-.28.07-.57.17-.85.25-.57.69-1.08,1.24-1.48.36-.27.7-.54,1.08-.79.29-.17.6-.35.88-.51.72-.41,1.46-.8,2.33-.92.51-.11,1.01-.24,1.53-.08.18.04.34.09.5.14.06.02.12.04.11.09-.02.04-.06.06-.11.07-.08.02-.2.05-.29.07-.59.15-1.2.3-1.74.57-.52.24-.99.59-1.39.97-.56.48-1.09.92-1.4,1.55-.04.13-.21.34-.08.44.25.1.67-.18.95-.22.35-.08.7-.06,1.09-.06.32,0,.9.06,1,.33.04.22-.46.26-.65.31-.22.04-.42.12-.65.21-.42.13-.81.3-1.14.53-.17.12-.36.28-.44.45-.06.18.2.26.38.33.13.04.63.2.36.33-.3.07-.71.05-1.1.06-.21,0-.44,0-.62-.08h0Z"/>
          <path class="cls-2" d="M23.41,27.72c.26.05.52.13.78.19.45.09.84.14,1.26.22.44.11,1.22.05,1.62.24.35.22-.02.5-.38.57-.22.05-.51.05-.76.05-1.97-.07-4.1.29-6.02,0-.24-.04-.48-.13-.68-.21-.09-.04-.22-.11-.24-.16-.06-.14.39-.2.54-.24.66-.14,1.23-.36,1.89-.53.61-.16,1.34-.25,1.96-.14h.01Z"/>
          <path class="cls-2" d="M19.17,24.41c1.44.09,2.81.82,3.09,2.08.05.24.1.52-.07.71-.37.38-.9.05-1.13-.29-.29-.37-.63-.76-1.05-1.02-.31-.19-.63-.37-.95-.53-.71-.28-1.52-.36-2.3-.32-.25,0-.6.1-.79.03-.07-.04-.05-.09,0-.16.16-.2.44-.33.71-.42.2-.08.49-.11.77-.12.55-.01,1.17,0,1.73.05h.01Z"/>
          <path class="cls-2" d="M15.78,20.93c.78.14,1.48.42,2.13.83.4.25.71.58,1.07.85.45.31.76.69.92,1.16.19.44-.34.26-.64.17-.23-.07-.5-.14-.72-.26-.31-.16-.57-.36-.83-.56-.85-.6-1.72-1.18-2.76-1.5-.32-.11-.65-.22-.96-.34-.37-.17-.21-.32.09-.37.48-.07,1.16-.05,1.69.03h.01Z"/>
          <path class="cls-2" d="M18.71,26.08c.57.13,1.09.38,1.49.75.2.2.43.43.41.69,0,.29-.4.37-.67.27-.48-.16-.87-.6-1.34-.85-.38-.25-.82-.34-1.28-.43-.13-.03-.27-.06-.39-.12-.37-.2.44-.32.61-.33.37-.04.81-.05,1.15.01h.01Z"/>
        </g>
        <path class="cls-2" d="M37.38,22.85l-.02-.02c-.71-.84-1.89.48-1.23,1.41.71.92,2.01-.43,1.24-1.39Z"/>
        <path class="cls-2" d="M4.61,35.41h-.02c-.46-.09-.73.42-.58.91.12.53.67,1.01,1.07.93.88-.2.32-1.72-.47-1.84Z"/>
        <path class="cls-2" d="M39.89,27.57h-.01c-.29-.26-.79-.14-1.06.18-.35.35-.55,1.07-.05,1.34.61.36,1.74-.79,1.12-1.52Z"/>
        <path class="cls-2" d="M40.93,39.41c-.51-.67-1.69.23-1.34,1.1.16.35.68.41,1.01.17.35-.22.64-.83.35-1.25v-.02Z"/>
        <path class="cls-2" d="M1.91,40.04h-.02c-.64.32-.19,1.61.66,1.61.96-.12.33-1.88-.64-1.61Z"/>
        <path class="cls-2" d="M35.44,34.4c.37-.28.6-1.09.31-1.53v-.02c-.16-.19-.39-.15-.55,0-.35.28-.58,1.08-.29,1.51.14.2.36.17.53.03Z"/>
        <path class="cls-2" d="M16.8,28.1c.33-.38.38-1.23.07-1.63v-.02c-.18-.21-.44-.13-.58.08-.27.35-.35,1.11-.08,1.53.15.26.42.26.6.04Z"/>
        <path class="cls-2" d="M10.78,35.04v-.02c-.64-.55-1.21,1.18-.69,1.63.62.36,1.09-1.12.69-1.61Z"/>
        <path class="cls-2" d="M14,26.18c.38-.22.59-.94.36-1.37v-.02c-.49-.69-1.22.42-.98,1.1.09.32.38.45.62.3Z"/>
        <path class="cls-2" d="M3.08,29.9v.03c-.2.33-.03.89.3,1.21.34.38,1.05.63,1.22.09.17-.47-.26-1.16-.77-1.42-.26-.15-.62-.16-.75.09Z"/>
        <path class="cls-2" d="M38.09,31.33c.31-.08.43-.61.2-.89v-.02c-.24-.32-.59.02-.6.37-.02.28.2.58.39.53Z"/>
        <path class="cls-2" d="M7.32,29.61h-.02c-.95.09-.7,1.71.05,2.37.4.41,1.05.55,1.32.11.51-.78-.32-2.48-1.35-2.48ZM7.94,31.1c-.09.14-.3.09-.43-.04-.24-.21-.32-.74-.02-.76h0c.33,0,.6.55.43.8Z"/>
        <path class="cls-2" d="M41.18,46.71c-1.6.9-3.21,3.15-5.02,3.68-.56.18-1.56.23-1.8-.45-.1.26-.21.51-.33.75-.59,1-.89,1.66-1.02,2.11-.1.36-.47.58-.84.53-1.03-.14-2.29-.17-2.82-.46-.42-.22-.61-1.53-.3-2.16,1.28-2.61,3.48-7.61,1.12-7.46-1.8.12-2.52,6.37-3.44,10.07-.13.18-.27.38-.41.6-.24.35-.49.7-.86.94-.91.62-2.49.27-3.32-.52-.79-.67-3.9-5.52-4.32-6.4-.31-.7-1.02-1.7-1.76-1.82-.49-.1-.66.3-.58.65.07.43.44.98.77,1.56.39.68,3.42,5.3,3.38,6.05-.01.65-.52,1.22-1.33,1.09-.73-.09-1.52-.5-2.19-.75-.72-.28-1.4-.43-2.07-.77h-.02c-.77-.37-7.14-3.11-8.01-3.38-3.18-.99-3.24,1.14-1.7,1.51.87.21,5.25-.11,8.91,5.13,1.26,1.8,2.89,2.61,5.27,3.12,3.72.74,8.83.51,11.79-1.71.58-.44,1.93-1.8,2.75-3.01.63-.67,1.32-1.8,1.9-2.31.61-.54,1.23-1.04,1.92-1.41,1.93-.98,4.76-2.04,5.53-4.62.29-1.12-.69-.88-1.19-.58ZM16.69,47.93c-.92-1.33-.51-1.42-.11-.9.39.52,2.67,4.36,2.67,4.36l-2.56-3.46ZM3.9,50.97c.47-.5,1.81-.07,2.62.27,0,0-3.09.24-2.62-.27ZM17.85,57.05c-5.68-3.01-7.56-3.93-7.56-3.93.86.27,3.8,1.26,4.55,1.63h.02c.65.35,1.32.51,2.02.78.65.25,1.43.66,2.14.75.79.13,1.24-.64,1.16-1.24-.27-2.02,2.98,4.82-2.32,2.01ZM30.15,44.1c.85-.06-1.6,4.55-1.6,4.55.12-.78.74-4.49,1.6-4.55ZM31.51,54.34c-2.04-.06-3.8-1.52-2.88-1.14.72.3,1.8.66,3.57.54s.34.63-.69.6ZM41.72,47.57c-.76,1.23-4.53,2.86-4.53,2.86,1.16-.83,3.41-2.9,3.7-3.12.29-.22,1.6-.98.83.25Z"/>
        <path class="cls-2" d="M33.09,27.03h-.02c-.85-.51-1.75.71-1.7,1.75-.01.95.87,1.65,1.54,1.15.83-.53,1.14-2.32.17-2.9ZM32.72,28.71c-.26.2-.61-.08-.6-.45-.02-.4.33-.88.66-.69h0c.38.23.26.93-.07,1.14Z"/>
        <path class="cls-2" d="M39.8,42.41h-.03c-.6-.1-1.42.48-1.79,1.11-.32.47-.45,1.34.18,1.45.83.17,1.87-.79,2.09-1.63.13-.44-.05-.88-.46-.93ZM39.43,43.31c-.08.31-.47.68-.78.61-.24-.04-.19-.37-.07-.54.14-.23.45-.45.67-.42h0c.15.02.22.19.17.35Z"/>
        <path class="cls-2" d="M6.86,47.67c-.16-.69-.8-1.3-1.35-1.48l-.04-.02c-.86-.34-1.56.58-1.01,1.68.25.5.69.88,1.14,1.06.73.35,1.53-.19,1.27-1.25ZM5.62,47.73c-.19-.08-.37-.24-.48-.45-.23-.46.06-.85.42-.71h.02c.23.09.5.34.57.63.11.44-.23.67-.53.52Z"/>
        <path class="cls-2" d="M38.04,33.07c-.75.72-1.35,1.62-1.88,2.54-.89,1.58-.82,1.76-1.19,3.63-.16.57.78,2.8.59,3.89l-.03,2.14c1.39-4.02,5.31-9.15,5.65-11.63.23-3.08-1.63-2.14-3.14-.57ZM39.67,35.12c-1.06,2-1.68,2.14-1.16,1.24.52-.9,1.25-2.37.53-1.59-.71.78-1.64,2.59-1.41,1.46.23-1.13-1.73,2.06-1.73,2.06.15-.38,1.13-2.61,1.41-3.06,1.04-1.64,1.94-2.79,2.58-2.75.85.05.91.52-.22,2.64Z"/>
        <path class="cls-2" d="M11.52,47.36c.09.37.16.74.23,1.12.17.91.35,1.85.78,2.72.45,1.06,1.01,2,1.64,2.82.62.29,1.26.45,1.93.71.67.25,1.47.66,2.19.75.67.11,1.13-.26,1.28-.76-.04.06-.09.11-.13.16-.18.25-.45.51-.76.56-.43.08-.8-.23-1.06-.56-.31-.39-.43-.78-.46-1.32,0-.45-.03-.95.12-1.37.12-.31.4-.53.69-.4h.01c.28.13.49.37.71.6-.46-.81-1.02-1.72-1.49-2.48-.07-.05-.13-.11-.2-.18-.21-.21-.41-.46-.61-.68-.39-.51-1.08-.84-.95-1.51.03-.13.08-.24.15-.35-.06-.14-.11-.28-.13-.4-.08-.35.09-.75.58-.65.11.02.23.06.34.12.08-.07.15-.15.24-.21.35-.26.6-.5,1.03-.53h.01c.47.03.82.63,1.18.96.2.2.4.39.61.57.58.49.81.9.21,1.51-.31.31-.66.58-1,.86.1.17.21.34.33.52.21-.17.44-.33.65-.48.53-.37,1.03-.78,1.71-.65h.01c.69.12,1.96,1.18,2.19,1.84.16.53-.39.84-.72,1.16-.44.39-.89.77-1.37,1.12-.12.08-.24.13-.35.16.22.3.42.57.59.78.06-.27.27-.49.49-.69.46-.41.95-.79,1.47-1.14.38-.25.74-.56,1.15-.37h.01c.3.14.52.48.79.69.29.24.65.41.76.7.16.53-.41.92-.75,1.24-.33.28-.69.59-1.02.86.31-.04.6-.13.84-.3.38-.24.62-.59.86-.94.14-.22.28-.42.41-.6.07-.28.14-.58.21-.89-.08-.01-.16-.03-.25-.07-.42-.26-.76-.68-1.1-1.03-.46-.49.12-1.03.49-1.38.38-.36.83-.72,1.19-1.08.17-.17.34-.37.53-.53.14-.62.28-1.23.43-1.79-.14-.01-.28-.07-.43-.19-.48-.31-.89-.65-1.33-1.04-.29-.25-.78-.54-.59-.97.14-.35.42-.65.69-.93.25-.27.65-.39,1-.32h.01c.51.1.91.49,1.32.77.09.07.19.13.28.19.1-.17.21-.31.32-.44-.22-.16-.43-.33-.65-.47-.61-.4-1-.83-.48-1.52.16-.2.34-.4.51-.59.2-.2.44-.47.74-.34h.01c.22.1.46.3.66.47.24.21.48.37.69.6.21.23.44.46.42.78,0,.37-.24.65-.44.94.37.4.33,1.24.09,2.24.29.23.52.56.73.84.52.78-.02,1.44-.58,2.01-.43.41-.78.51-1.19.09-.1.23-.2.46-.3.69.29.63-.26,1.07-.73,1.55-.26.54-.61,1.54-.59,1.55.09-.09.17-.18.25-.27.31-.32,1.21-1.68,1.69-1.32h0c.14.11.21.38.23.58.03.24.07.48.03.72-.05.36-.26.63-.49.88.76.14,1.83.18,2.6.33.11-.16.22-.33.31-.5.11-.45.41-1.14,1.05-2.23.06-.11.1-.23.15-.35.23-.66.38-1.34.53-2.03.38-1.31.34-2.84.31-4.19,0-.21,0-.41-.01-.61-.03-.48-.12-.9-.2-1.31-.04-.18-.08-.36-.11-.55-.15-.89-.32-1.76-.66-2.55l-.03-.09c-.21-.65-.45-1.38-.8-2.02-.45-1.1-1.01-2.13-1.66-3.06-.73-1.13-1.74-2.14-2.89-2.9-.39-.28-.83-.51-1.26-.74l-.12-.06c-.5-.28-1.07-.56-1.68-.61-.09,0-.16-.01-.24-.01-.35,0-.67.07-.97.2-.1.04-.21.1-.32.16-.11.06-.27.14-.34.15h-.03s-.15-.07-.22-.13c-.08-.06-.17-.12-.28-.18h-.02s-.03-.02-.03-.02c-.38-.14-.82-.16-1.15-.16-.15,0-.3,0-.44,0-.13,0-.26,0-.39,0-.06,0-.12,0-.18,0-.86.01-1.65.23-2.51.67h-.02s-.02.03-.02.03c-.13.09-.27.18-.4.26-.28.18-.58.37-.88.63-.44.36-.83.81-1.2,1.24-.12.13-.23.27-.34.39-.91,1.06-1.69,2.29-2.41,3.78-.12.24-.22.5-.31.75-.07.19-.14.37-.22.55-.17.36-.35.74-.49,1.25-.2.82-.38,1.62-.49,2.47-.03.22-.08.44-.14.67l-.04.17c-.13.5-.13,1.11-.14,1.69,0,.11,0,.22,0,.33,0,.28,0,.54,0,.8,0,.68-.01,1.37.14,2.05ZM12.7,47.79c-.02-.49-.03-1,.16-1.4.11-.21.25-.46.48-.35h0c.22.13.32.4.48.64.05.08.09.16.13.24.2.44.21.96.08,1.43-.08.25-.21.44-.33.66-.19.33-.39.43-.59.03-.12-.25-.26-.48-.34-.75-.04-.16-.06-.34-.08-.52ZM12.92,51.01s-.01-.03-.02-.05c0,.02.01.03.02.05.2.46.42.91.67,1.34-.25-.43-.47-.88-.67-1.34ZM16.11,54.36c-.21-.13-.4-.31-.56-.5-.1-.15-1.19-1.37-.9-1.4h0c.29.04.66.39.92.6.28.26.49.59.65.91.08.16.21.59-.12.39ZM15.75,49.25c.21.22.47.44.69.64.31.31.58.59.54.99-.01.21-.06.4-.14.6-.15.39-.29.77-.5,1.12-.35.52-.7-.14-.99-.41-.29-.31-.62-.71-.89-.99-.18-.19-.33-.37-.39-.63-.11-.5-.1-1.12.17-1.57.18-.3.51-.5.84-.35h.01c.22.11.45.38.65.59ZM16.59,45.34c-.25.28-.57.48-.83.74-.14.15-.28.3-.44.43-.37.37-.78.33-1.12-.05-.71-.87-.66-1.83.09-2.66.34-.4,1-1.09,1.54-.84h.01c.61.29,1.1,1.11,1.11,1.77-.02.24-.2.44-.37.61ZM18.11,32.75c.4-.25.91-.74,1.38-.65h.01c.36.12.63.55.86.85.36.48.09.89-.34,1.18-.26.22-.55.4-.83.59-.31.25-.7.14-.94-.18-.2-.26-.37-.53-.5-.83-.22-.39,0-.72.35-.97ZM25.21,37.24c.48.37.32.74-.13,1.06-.35.27-.66.68-1.06.87-.48.23-.96-.13-1.37-.38-.58-.41-1.55-1.19-.61-1.78.69-.42,1.27-.71,2.1-.46h.01c.38.16.72.44,1.05.69ZM24.42,35.38c.2-.32.54-.57.82-.81.25-.21.52-.34.82-.25h.01c.35.12.7.42.99.71.53.57.07,1.08-.36,1.52-.4.41-.67.53-1.19.17-.35-.26-1.37-.79-1.09-1.32ZM22.54,40.76c-.47.31-1.08.52-1.61.22-.26-.14-.45-.33-.69-.52-.38-.37-1.19-.84-.83-1.46.12-.2.36-.35.59-.48.25-.14.52-.21.79-.18h.01c.45.07.78.36,1.15.61.24.17.52.35.76.55.59.46.46.92-.17,1.25ZM22.38,36.17c-.39.29-.77.55-1.22.72-.65.21-1.49-.46-1.81-1-.25-.47.3-.85.65-1.11.41-.28.87-.58,1.38-.46h.01c.45.12.85.52,1.17.86.34.34.16.72-.2.98ZM18.57,36.25h.01c.4.18.75.59,1.1.89.52.45.32.83-.2,1.16-.34.27-.82.48-1.2.17-.21-.14-.4-.35-.57-.55-.22-.25-.38-.52-.36-.84,0-.57.68-1.06,1.21-.84ZM17.68,38.77c.17.43,0,.73-.31,1-.35.34-.85.78-1.21,1.12-.3.29-.6.46-.88.07-.17-.25-.33-.55-.46-.83-.19-.38-.26-.84.02-1.2.13-.19.33-.35.5-.49.43-.35.94-.7,1.52-.56h.01c.41.12.67.51.81.89ZM17.17,43.65c-.73-.86-1.65-1.67-.34-2.53.26-.2.52-.42.78-.63.31-.29.72-.62,1.12-.47h.01c.25.11.45.33.64.52.19.2.41.37.6.57.27.3.69.58.57,1.01-.18.39-.59.6-.93.85-.35.24-.73.5-1.06.76-.5.4-.93.42-1.39-.07ZM21.38,47.12c-.4.3-.85,0-1.16-.3-.28-.24-.62-.49-.9-.72-.34-.25-.63-.66-.7-1.05-.09-.6.61-1.03,1.02-1.36.74-.47,1.45-1.33,2.41-.91h.01c.24.09.44.24.63.41.2.18.42.33.62.5.38.31,1.11.67.77,1.25-.13.22-.4.39-.62.56-.25.21-.52.36-.76.58-.24.22-.52.4-.77.62-.17.15-.37.29-.56.41ZM26.01,45.75c.49.33.96.69,1.34,1.15.5.54,0,.81-.35,1.21-.23.26-.47.53-.73.78-.3.28-.65.51-.93.76-.6.58-.91.62-1.6.13-.44-.27-.91-.47-1.3-.83-.26-.25-.56-.61-.57-.95,0-.7.86-1.1,1.34-1.47.15-.1.3-.19.44-.3.47-.34.92-.86,1.54-.86h.01c.32,0,.57.22.83.38ZM25.9,43.36c-.14.15-.29.33-.45.45-.47.38-.87.1-1.29-.22-.36-.29-.71-.57-1.08-.85-.73-.47-.98-.96-.29-1.65.32-.28.69-.67,1.15-.57h.01c.44.12.76.49,1.17.73.2.13.39.29.59.41.29.19.63.42.71.77.05.36-.28.66-.51.92ZM27.65,41.45c-.3.35-.57.45-.94.18-.62-.45-1.56-.89-1.86-1.63-.16-.44-.03-.96.32-1.26.32-.26.74-.55,1.16-.46h.01c.26.06.48.25.7.39.34.25.71.49,1.04.75,1.05.77.16,1.35-.43,2.02ZM29.13,39.31c-.47-.03-.86-.43-1.2-.73-.36-.35-.87-.74-.89-1.26.02-.63.69-1.3,1.34-1.09h.01c.22.07.42.19.59.34.35.27.72.56,1,.9.16.2.25.47.23.72-.03.22-.18.42-.36.63-.18.22-.43.48-.73.48ZM31.33,41.26c-.52-.43-1.48-1.03-1.23-1.8.16-.41.39-1.02.92-1h.01c.32.04.55.29.81.53.44.37.61.91.51,1.48-.04.58-.46,1.19-1.02.78ZM31.51,45.34c-.32-.5-.41-1.21-.06-1.72.19-.32.57-.6.95-.46h.01c.55.21.78.84.97,1.35.15.36.15.73,0,1.1-.55,1.18-1.37.52-1.86-.27ZM33.66,46.41h0c.24.17.22.73.17,1.03-.04.21-.11,1.04-.43.86-.19-.14-.23-.38-.26-.63-.05-.33.03-.68.17-.97.07-.13.17-.32.34-.29ZM31.13,50.88c-.13-.68-.09-1.49.43-2.01.21-.24.58-.78.94-.58h0c.26.2.27.62.29.93,0,.26-.02.53-.09.78-.09.33-.3.61-.5.91-.43.69-.9,1.01-1.08-.03ZM34.61,45.67c.01-.75-.02-1.49-.03-2.16.01.67.04,1.41.03,2.16ZM34.08,49.15c-.16.68-.37,1.35-.69,1.97-.33.77-.7,1.54-1.19,2.22.49-.68.87-1.45,1.19-2.22.32-.62.52-1.29.69-1.97ZM33.11,40.88c.15.11.24.31.31.48.2.41.32.8.32,1.26,0,.21,0,.46-.02.66-.02.1-.05.16-.09.18h0s-.08,0-.14-.02c-.15-.1-.29-.24-.42-.38-.36-.44-.66-.97-.54-1.54.05-.3.25-.84.58-.64ZM31.23,37.22c.07-.2.23-.71.5-.65h0c.26.11.37.39.51.65.17.3.25.63.33.97.4,1.51-1.06-.05-1.3-.45-.08-.16-.1-.34-.05-.51ZM29.76,33.82h.01c.36.11.54.47.78.73.35.42.69.89.6,1.47-.1.78-.56,1.24-1.24.64-.4-.35-1.16-.87-1.23-1.42-.02-.22.04-.39.14-.6.15-.36.47-.95.94-.82ZM27.72,31.83h.01c.26.05.47.25.71.38.88.53.4,1.56-.06,2.21-.18.28-.44.52-.77.36-.26-.14-.52-.33-.77-.53-.47-.38-.46-.75-.12-1.18.18-.24.33-.54.46-.81.11-.24.3-.49.55-.44ZM25.35,30.05c.06,0,.13,0,.19,0-.07,0-.14,0-.21,0,0,0,.01,0,.02,0ZM25.82,30.7h.01c.37.09.83.46.92.84.03.2-.04.34-.17.57-.35.69-.88,1.13-1.57.53-.31-.28-.75-.59-.74-1.03.08-.67.91-1.09,1.54-.91ZM23.61,32.26h.01c.35.07.69.43.98.66.74.7.43,1.22-.3,1.76-.52.41-.84.51-1.4.1-.48-.35-1.13-.93-.63-1.54.17-.22.37-.43.58-.6.25-.21.45-.43.76-.37ZM21.06,30.87c.4-.16.93-.31,1.34-.15h.01c.37.17.6.58.44.95-.14.3-.45.61-.69.84-.58.58-1.16.48-1.64-.15-.49-.67-.18-1.23.54-1.5ZM20.36,30.13c-.59.09-1.14.29-1.68.57.54-.28,1.09-.48,1.68-.57ZM15.86,34.86c.05-.42.68-1.18,1.15-1.08h.01c.39.11.55.55.72.88.09.19.19.39.2.61,0,.34-.41.73-.66.94-.48.38-1.01.15-1.24-.37-.13-.32-.23-.64-.19-.98ZM14.09,37.86c.02-.33.13-.63.23-.93.08-.24.22-.45.35-.72.11-.23.31-.64.62-.52h0c.19.11.35.42.45.63.22.4.11.88-.23,1.19-.21.23-.51.43-.8.57-.19.09-.38.29-.57.19-.1-.09-.06-.27-.06-.41ZM13.01,41.08c.2-.39.49-1.19,1.04-1.09h.01c.69.26.7,1.48.59,2.09-.12.48-.4.85-.7,1.22-.13.17-.24.35-.39.5-.15.18-.33.28-.48.06-.14-.23-.22-.6-.29-.89-.1-.63.02-1.29.23-1.89ZM12.82,38.69c-.08.19-.15.39-.21.61.06-.23.13-.42.21-.61ZM11.95,47.26c.19.78.3,1.59.49,2.38-.2-.79-.3-1.6-.49-2.38ZM11.95,42.59c.03-.14.07-.29.1-.44-.03.15-.07.29-.1.44-.04.14-.06.29-.08.44.02-.16.04-.31.08-.44Z"/>
        <path class="cls-2" d="M13.68,53.9c-.99-1.14-1.74-2.49-2.26-3.9-.42-.95-.54-2-.69-3.03-1.43-1.27-2.19-4.52-3.18-5.95-.66-1.06-1.63-2.22-2.76-2.24-.79.08-.84.94-.5,1.82.58,1.42,1.66,2.47,2.63,3.5,3.08,3.3,4.16,7.04,4.75,9.19l2,.6ZM5.32,39.86c1.02.05,1.64,1.16,2.49,2.82,0,0-3.51-2.87-2.49-2.82Z"/>
      </g>
    </g>
  </g>
</svg>