<?xml version="1.0" encoding="UTF-8"?>
<svg id="Layer_2" data-name="Layer 2" xmlns="http://www.w3.org/2000/svg" viewBox="0 0 44 60.72">
  <defs>
    <style>
      .cls-1 {
        fill: none;
      }

      .cls-2 {
        fill: #573100;
      }

      .cls-3 {
        fill: #fff;
      }
    </style>
  </defs>
  <g id="Design">
    <g>
      <rect class="cls-1" width="44" height="60.72"/>
      <g>
        <g>
          <path class="cls-2" d="M37.28,15.43l-18.66-.02c-.23,0-.42.18-.42.42v42c0,1.04.85,1.89,1.89,1.89h15.6c1.04,0,1.89-.85,1.89-1.89V15.82c0-.2-.13-.35-.31-.4ZM36.45,53.32c0,1.26-1.09,2.28-2.43,2.28h-12.26c-.15,0-.29-.01-.43-.04.82-6.72,1.08-13.95-.49-20.31-.48-1.96-1-3.72-1.5-5.42v-9.23c2.85,0,2.85.66,5.71.66s2.85-.66,5.71-.66,2.85.66,5.7.66v32.06ZM30.39,28.79c0,.4.33.73.73.73s.73-.33.73-.73-.32-.73-.73-.73-.73.33-.73.73ZM30.58,45.54c-.34,0-.61.28-.61.61s.27.61.61.61.61-.27.61-.61-.27-.61-.61-.61ZM28.93,26.59c.81,0,1.47-.66,1.47-1.47s-.65-1.47-1.47-1.47-1.47.65-1.47,1.47.66,1.47,1.47,1.47ZM30.58,44.13c0-.51-.42-.92-.92-.92s-.92.41-.92.92.42.92.92.92.92-.41.92-.92ZM28.2,37.59c0,.4.33.73.73.73s.73-.32.73-.73-.32-.73-.73-.73-.73.33-.73.73ZM28.75,52.88c-.34,0-.61.27-.61.61s.27.6.61.6.6-.27.6-.6-.27-.61-.6-.61ZM28.56,32.46c.61,0,1.1-.5,1.1-1.1s-.49-1.1-1.1-1.1-1.1.49-1.1,1.1.49,1.1,1.1,1.1ZM28.43,47.37c-.5,0-.92.41-.92.92s.42.92.92.92.92-.41.92-.92-.42-.92-.92-.92ZM27.66,40.76h-.31c-.42.21-.65.68-.26,1.05.72.68,1.58-.68.56-1.05ZM25.69,44.43c-.68,0-1.23.55-1.23,1.22s.55,1.22,1.23,1.22,1.22-.54,1.22-1.22-.55-1.22-1.22-1.22ZM26.3,50.43c-.34,0-.61.27-.61.6s.27.61.61.61.6-.27.6-.61-.27-.6-.6-.6ZM25.26,34.66c0,.4.33.73.73.73s.73-.32.73-.73-.32-.73-.73-.73-.73.33-.73.73ZM25.99,28.43c0-.61-.49-1.1-1.1-1.1s-1.1.49-1.1,1.1.49,1.1,1.1,1.1,1.1-.5,1.1-1.1Z"/>
          <path class="cls-3" d="M20.84,35.25c1.56,6.36,1.31,13.58.49,20.31-1.13-.19-1.99-1.12-1.99-2.24v-23.49c.51,1.7,1.02,3.46,1.5,5.42Z"/>
          <path class="cls-3" d="M24.89,29.53c-.6,0-1.1-.5-1.1-1.1s.49-1.1,1.1-1.1,1.1.49,1.1,1.1-.49,1.1-1.1,1.1Z"/>
          <path class="cls-3" d="M26,33.93c.4,0,.73.33.73.73s-.32.73-.73.73-.73-.32-.73-.73.33-.73.73-.73Z"/>
          <path class="cls-3" d="M26.91,51.04c0,.34-.27.61-.6.61s-.61-.27-.61-.61.27-.6.61-.6.6.27.6.6Z"/>
          <path class="cls-3" d="M26.91,45.65c0,.68-.55,1.22-1.22,1.22s-1.23-.54-1.23-1.22.55-1.22,1.23-1.22,1.22.55,1.22,1.22Z"/>
          <path class="cls-3" d="M27.1,41.81c-.39-.37-.17-.83.26-1.05h.31c1.01.37.16,1.73-.56,1.05Z"/>
          <path class="cls-3" d="M29.36,48.29c0,.51-.42.92-.92.92s-.92-.41-.92-.92.42-.92.92-.92.92.41.92.92Z"/>
          <path class="cls-3" d="M27.46,31.36c0-.61.49-1.1,1.1-1.1s1.1.49,1.1,1.1-.49,1.1-1.1,1.1-1.1-.5-1.1-1.1Z"/>
          <path class="cls-3" d="M29.35,53.49c0,.34-.27.6-.6.6s-.61-.27-.61-.6.27-.61.61-.61.6.27.6.61Z"/>
          <path class="cls-3" d="M28.93,36.86c.4,0,.73.33.73.73s-.32.73-.73.73-.73-.32-.73-.73.33-.73.73-.73Z"/>
          <path class="cls-3" d="M29.66,45.04c-.51,0-.92-.41-.92-.92s.42-.92.92-.92.92.41.92.92-.42.92-.92.92Z"/>
          <path class="cls-3" d="M27.46,25.13c0-.81.66-1.47,1.47-1.47s1.47.65,1.47,1.47-.65,1.47-1.47,1.47-1.47-.66-1.47-1.47Z"/>
          <circle class="cls-3" cx="30.58" cy="46.15" r=".61"/>
          <path class="cls-3" d="M31.86,28.79c0,.4-.32.73-.73.73s-.73-.33-.73-.73.33-.73.73-.73.73.33.73.73Z"/>
          <g>
            <path class="cls-2" d="M27.63,4.59c1.21.44.19,2.07-.68,1.26-.47-.44-.2-1,.31-1.26h.37Z"/>
            <circle class="cls-2" cx="25.26" cy="10.45" r="1.47"/>
            <circle class="cls-2" cx="30.02" cy="8.62" r="1.1"/>
            <path class="cls-2" d="M30.39,25.13c0,.81-.65,1.47-1.47,1.47s-1.47-.66-1.47-1.47.66-1.47,1.47-1.47,1.47.65,1.47,1.47Z"/>
            <path class="cls-2" d="M25.99,28.43c0,.61-.49,1.1-1.1,1.1s-1.1-.5-1.1-1.1.49-1.1,1.1-1.1,1.1.49,1.1,1.1Z"/>
            <path class="cls-2" d="M29.66,31.36c0,.6-.49,1.1-1.1,1.1s-1.1-.5-1.1-1.1.49-1.1,1.1-1.1,1.1.49,1.1,1.1Z"/>
            <path class="cls-2" d="M31.86,28.79c0,.4-.32.73-.73.73s-.73-.33-.73-.73.33-.73.73-.73.73.33.73.73Z"/>
            <path class="cls-2" d="M26.72,34.66c0,.4-.32.73-.73.73s-.73-.32-.73-.73.33-.73.73-.73.73.33.73.73Z"/>
            <path class="cls-2" d="M29.66,37.59c0,.4-.32.73-.73.73s-.73-.32-.73-.73.33-.73.73-.73.73.33.73.73Z"/>
          </g>
          <g>
            <path class="cls-2" d="M27.1,41.81c-.39-.37-.17-.83.26-1.05h.31c1.01.37.16,1.73-.56,1.05Z"/>
            <path class="cls-2" d="M26.91,45.65c0,.68-.55,1.22-1.22,1.22s-1.23-.54-1.23-1.22.55-1.22,1.23-1.22,1.22.55,1.22,1.22Z"/>
            <path class="cls-2" d="M30.58,44.13c0,.51-.42.92-.92.92s-.92-.41-.92-.92.42-.92.92-.92.92.41.92.92Z"/>
            <path class="cls-2" d="M29.36,48.29c0,.51-.42.92-.92.92s-.92-.41-.92-.92.42-.92.92-.92.92.41.92.92Z"/>
            <circle class="cls-2" cx="30.58" cy="46.15" r=".61"/>
            <path class="cls-2" d="M26.91,51.04c0,.34-.27.61-.6.61s-.61-.27-.61-.61.27-.6.61-.6.6.27.6.6Z"/>
            <path class="cls-2" d="M29.35,53.49c0,.34-.27.6-.6.6s-.61-.27-.61-.6.27-.61.61-.61.6.27.6.61Z"/>
          </g>
        </g>
        <path class="cls-2" d="M20.84,35.25c-.48-1.96-1-3.72-1.5-5.42-.39-1.32-.78-2.6-1.14-3.89-.86-3.05-1.55-6.17-1.8-10.05h.24c.08,0,.15-.05.16-.13h.1c.09,0,.16-.07.16-.16v-.86s-.01-.07-.03-.09c.02-.03.03-.06.03-.1v-.86c0-.09-.07-.16-.16-.16h-.1v-.57c0-.34-.27-.61-.61-.61h-3.99c-.34,0-.6.28-.6.61v.57h-.1c-.09,0-.16.07-.16.16v.86s.01.07.03.1c-.02.02-.03.05-.03.09v.86c0,.09.07.16.16.16h.1c.01.07.08.13.16.13h.24c-.49,7.63-2.69,12.27-4.44,19.36-1.83,7.46-1.16,16.12-.03,23.75.15.99,1,1.72,2,1.72h9.34c.73,0,1.39-.4,1.75-1,.13-.22.22-.46.26-.73.16-1.12.32-2.27.46-3.44.82-6.72,1.08-13.95-.49-20.31ZM11.68,22.41h3.18c.12,1.61.26,3.11.42,4.6-.37-.12-.76-.2-1.17-.2-1.59,0-2.95,1.03-3.46,2.47-.15.43-.49.76-.92.98.75-2.62,1.46-5.07,1.96-7.85ZM16.22,57.48c-.06.92-.36,1.6-.71,1.6h-5.45c-.89,0-1.64-.68-1.77-1.6-.97-6.83-1.55-14.55-.12-21.29h8.08c.59,6.74.35,14.46-.04,21.29Z"/>
      </g>
    </g>
  </g>
</svg>