<?xml version="1.0" encoding="UTF-8"?>
<svg id="Layer_2" data-name="Layer 2" xmlns="http://www.w3.org/2000/svg" viewBox="0 0 39.66 48.87">
  <defs>
    <style>
      .cls-1 {
        fill: #573100;
      }
    </style>
  </defs>
  <g id="Design">
    <g>
      <path class="cls-1" d="M11.96,35.63h-1.91c-.72-2.09-2.73-3.57-5.08-3.49C2.17,32.24,0,34.63,0,37.44v.09h5.32l1.05,9.23-.25.27.24.28-.69,1.23c-.07.16.05.33.22.33h5.8c.17,0,.29-.17.22-.33l-.69-1.24.21-.29-.22-.24,1.21-10.63c.03-.27-.18-.51-.46-.51ZM5.62,35.63c-.09,0-.17.03-.24.07l.03-2.41c.05-.19.23-.32.44-.29.3.04.57.12.85.22.19.07.29.26.26.44l-1.14,1.97h-.2ZM6.34,35.63l.96-1.67c.13-.18.38-.22.56-.08.25.2.48.42.68.67.12.15.11.35,0,.49l-1.02.6h-1.19ZM8.43,35.63l.23-.14c.19-.1.42-.04.53.14h-.76ZM.89,36.65c.05-.31.13-.61.24-.89.09-.22.34-.32.55-.22l2.61,1.53H1.13c-.16-.07-.27-.24-.24-.42ZM1.8,35.08c-.11-.14-.12-.34,0-.49.2-.25.42-.48.67-.68.17-.14.41-.1.54.05l1.53,2.72-2.73-1.6ZM3.37,33.69c-.04-.18.05-.37.24-.44.28-.11.58-.19.89-.24.2-.03.38.1.44.28l-.04,3.11-1.52-2.71ZM10.52,44.63c-.05.46-.45.81-.91.81h-1.64c-.47,0-.86-.35-.91-.81l-.77-6.78h.59l.77,6.78-.32-6.78h3.96l-.77,6.78Z"/>
      <path class="cls-1" d="M35.18,35.63h-6.34c-.27,0-.49.24-.46.51l1.21,10.62-.21.05.2.56-.69,1.16c-.07.16.05.33.22.33h5.8c.17,0,.29-.17.22-.33l-.69-1.17.16-.55-.17-.04,1.21-10.63c.03-.27-.18-.51-.46-.51ZM33.84,45c-.06.49-.47.86-.96.86h-1.73c-.49,0-.91-.37-.96-.86l-.81-7.15h.62l.81,7.15-.34-7.15h4.18l-.81,7.15Z"/>
      <path class="cls-1" d="M32.17,26.53l7.5-22.4-.94.5c-6.19,3.28-11.44,3.27-15.94,2.52V.77c0-.43-.34-.77-.77-.77h-3.16c-.43,0-.77.34-.77.77v5.35c-2.36-.58-4.4-1.07-6.29-1-1.67.06-2.03,1-2.49,2.2-.05.12-.1.25-.15.38L.88,25.67l.95-.34c4.19-1.49,7.69-.09,11.4,1.4.11.04.22.09.33.13v20.23c0,.98.79,1.77,1.77,1.77h10.19c.98,0,1.77-.79,1.77-1.77v-18.59c1.47-.4,3.03-1.01,4.71-1.89l.15-.08ZM18.91,1.07c0-.14.11-.25.25-.25h2.65c.14,0,.25.11.25.25v6.82h-3.15V1.07ZM13.57,20.61v5.34s-.01,0-.02,0c-.96-.38-1.9-.76-2.85-1.09l7.39-17.67v6.65c0,.67-.4,1.27-1.01,1.52h0c-2.12.88-3.51,2.96-3.51,5.26ZM18.47,45.58h-3.29v-1.49h3.29v1.49ZM15.64,24.62c0-2.61,2.12-4.73,4.73-4.73s4.73,2.12,4.73,4.73-2.12,4.73-4.73,4.73-4.73-2.12-4.73-4.73ZM25.7,45.58h-3.5v-1.49h3.5v1.49ZM25.88,16.83c-.56-.63-1.26-1.14-2.07-1.48-.61-.26-1.01-.86-1.01-1.52v-5.83c1.93.32,4,.5,6.23.35l-3.14,8.48Z"/>
    </g>
  </g>
</svg>