<?xml version="1.0" encoding="UTF-8"?>
<svg id="Layer_2" data-name="Layer 2" xmlns="http://www.w3.org/2000/svg" viewBox="0 0 47.16 54.79">
  <defs>
    <style>
      .cls-1 {
        fill: none;
      }

      .cls-2 {
        fill: #573100;
      }

      .cls-3 {
        fill: #fff;
      }
    </style>
  </defs>
  <g id="Design">
    <g>
      <rect class="cls-1" width="47.16" height="54.79"/>
      <g>
        <g>
          <path class="cls-2" d="M37.37,13.92l-16.84-.02c-.21,0-.38.17-.38.37v37.9c0,.94.77,1.71,1.71,1.71h14.08c.94,0,1.71-.77,1.71-1.71V14.28c0-.18-.12-.31-.28-.36ZM36.62,48.11c0,1.14-.98,2.06-2.19,2.06h-11.06c-.13,0-.26-.01-.39-.04.74-6.07.97-12.59-.44-18.33-.44-1.76-.9-3.36-1.36-4.89v-8.33c2.58,0,2.58.6,5.15.6s2.58-.6,5.15-.6,2.57.6,5.15.6v28.94ZM31.16,25.98c0,.36.3.66.66.66s.66-.3.66-.66-.29-.66-.66-.66-.66.3-.66.66ZM31.32,41.09c-.3,0-.55.25-.55.55s.25.55.55.55.55-.25.55-.55-.25-.55-.55-.55ZM29.83,24c.73,0,1.32-.6,1.32-1.32s-.59-1.32-1.32-1.32-1.32.59-1.32,1.32.6,1.32,1.32,1.32ZM31.32,39.82c0-.46-.37-.83-.83-.83s-.83.37-.83.83.37.83.83.83.83-.37.83-.83ZM29.17,33.92c0,.36.3.66.66.66s.66-.29.66-.66-.29-.66-.66-.66-.66.3-.66.66ZM29.67,47.72c-.3,0-.55.25-.55.55s.25.55.55.55.55-.24.55-.55-.24-.55-.55-.55ZM29.5,29.29c.55,0,.99-.45.99-.99s-.44-.99-.99-.99-.99.44-.99.99.45.99.99.99ZM29.39,42.75c-.45,0-.83.37-.83.83s.37.83.83.83.83-.37.83-.83-.37-.83-.83-.83ZM28.69,36.79h-.28c-.38.19-.58.61-.23.94.65.62,1.42-.61.51-.94ZM26.91,40.1c-.61,0-1.11.5-1.11,1.1s.5,1.1,1.11,1.1,1.1-.49,1.1-1.1-.5-1.1-1.1-1.1ZM27.46,45.51c-.3,0-.55.24-.55.55s.25.55.55.55.55-.25.55-.55-.24-.55-.55-.55ZM26.52,31.28c0,.36.3.66.66.66s.66-.29.66-.66-.29-.66-.66-.66-.66.3-.66.66ZM27.18,25.65c0-.55-.44-.99-.99-.99s-.99.44-.99.99.45.99.99.99.99-.45.99-.99Z"/>
          <path class="cls-3" d="M22.53,31.81c1.41,5.74,1.18,12.26.44,18.33-1.02-.17-1.8-1.01-1.8-2.02v-21.2c.46,1.53.92,3.13,1.36,4.89Z"/>
          <path class="cls-3" d="M26.19,26.64c-.55,0-.99-.45-.99-.99s.45-.99.99-.99.99.44.99.99-.44.99-.99.99Z"/>
          <path class="cls-3" d="M27.19,30.62c.36,0,.66.3.66.66s-.29.66-.66.66-.66-.29-.66-.66.3-.66.66-.66Z"/>
          <path class="cls-3" d="M28.01,46.06c0,.3-.24.55-.55.55s-.55-.25-.55-.55.25-.55.55-.55.55.24.55.55Z"/>
          <path class="cls-3" d="M28.01,41.2c0,.61-.5,1.1-1.1,1.1s-1.11-.49-1.11-1.1.5-1.1,1.11-1.1,1.1.5,1.1,1.1Z"/>
          <path class="cls-3" d="M28.18,37.73c-.35-.33-.15-.75.23-.94h.28c.92.33.14,1.56-.51.94Z"/>
          <path class="cls-3" d="M30.22,43.57c0,.46-.37.83-.83.83s-.83-.37-.83-.83.37-.83.83-.83.83.37.83.83Z"/>
          <path class="cls-3" d="M28.5,28.3c0-.55.45-.99.99-.99s.99.44.99.99-.44.99-.99.99-.99-.45-.99-.99Z"/>
          <path class="cls-3" d="M30.21,48.27c0,.3-.24.55-.55.55s-.55-.24-.55-.55.25-.55.55-.55.55.25.55.55Z"/>
          <path class="cls-3" d="M29.83,33.26c.36,0,.66.3.66.66s-.29.66-.66.66-.66-.29-.66-.66.3-.66.66-.66Z"/>
          <path class="cls-3" d="M30.5,40.65c-.46,0-.83-.37-.83-.83s.37-.83.83-.83.83.37.83.83-.37.83-.83.83Z"/>
          <path class="cls-3" d="M28.51,22.67c0-.73.6-1.32,1.32-1.32s1.32.59,1.32,1.32-.59,1.32-1.32,1.32-1.32-.6-1.32-1.32Z"/>
          <circle class="cls-3" cx="31.32" cy="41.64" r=".55"/>
          <path class="cls-3" d="M32.48,25.98c0,.36-.29.66-.66.66s-.66-.3-.66-.66.3-.66.66-.66.66.3.66.66Z"/>
          <g>
            <path class="cls-2" d="M28.66,4.14c1.09.4.17,1.87-.61,1.13-.43-.4-.18-.9.28-1.13h.33Z"/>
            <circle class="cls-2" cx="26.52" cy="9.43" r="1.32"/>
            <circle class="cls-2" cx="30.82" cy="7.78" r=".99"/>
            <path class="cls-2" d="M31.16,22.67c0,.73-.59,1.32-1.32,1.32s-1.32-.6-1.32-1.32.6-1.32,1.32-1.32,1.32.59,1.32,1.32Z"/>
            <path class="cls-2" d="M27.18,25.65c0,.55-.44.99-.99.99s-.99-.45-.99-.99.45-.99.99-.99.99.44.99.99Z"/>
            <path class="cls-2" d="M30.49,28.3c0,.55-.44.99-.99.99s-.99-.45-.99-.99.45-.99.99-.99.99.44.99.99Z"/>
            <path class="cls-2" d="M32.48,25.98c0,.36-.29.66-.66.66s-.66-.3-.66-.66.3-.66.66-.66.66.3.66.66Z"/>
            <path class="cls-2" d="M27.84,31.28c0,.36-.29.66-.66.66s-.66-.29-.66-.66.3-.66.66-.66.66.3.66.66Z"/>
            <path class="cls-2" d="M30.49,33.92c0,.36-.29.66-.66.66s-.66-.29-.66-.66.3-.66.66-.66.66.3.66.66Z"/>
          </g>
          <g>
            <path class="cls-2" d="M28.18,37.73c-.35-.33-.15-.75.23-.94h.28c.92.33.14,1.56-.51.94Z"/>
            <path class="cls-2" d="M28.01,41.2c0,.61-.5,1.1-1.1,1.1s-1.11-.49-1.11-1.1.5-1.1,1.11-1.1,1.1.5,1.1,1.1Z"/>
            <path class="cls-2" d="M31.32,39.82c0,.46-.37.83-.83.83s-.83-.37-.83-.83.37-.83.83-.83.83.37.83.83Z"/>
            <path class="cls-2" d="M30.22,43.57c0,.46-.37.83-.83.83s-.83-.37-.83-.83.37-.83.83-.83.83.37.83.83Z"/>
            <circle class="cls-2" cx="31.32" cy="41.64" r=".55"/>
            <path class="cls-2" d="M28.01,46.06c0,.3-.24.55-.55.55s-.55-.25-.55-.55.25-.55.55-.55.55.24.55.55Z"/>
            <path class="cls-2" d="M30.21,48.27c0,.3-.24.55-.55.55s-.55-.24-.55-.55.25-.55.55-.55.55.25.55.55Z"/>
          </g>
        </g>
        <path class="cls-2" d="M22.53,31.81c-.44-1.76-.9-3.36-1.36-4.89-.35-1.19-.7-2.34-1.03-3.51-.77-2.75-1.4-5.56-1.62-9.07h.22c.07,0,.13-.05.14-.12h.09c.08,0,.14-.07.14-.14v-.78s-.01-.06-.03-.08c.02-.03.03-.06.03-.09v-.77c0-.08-.07-.14-.14-.14h-.09v-.52c0-.3-.24-.55-.55-.55h-3.6c-.3,0-.55.25-.55.55v.52h-.09c-.08,0-.14.06-.14.14v.77s.01.06.03.09c-.02.02-.03.05-.03.08v.78c0,.08.06.14.14.14h.09c.01.07.07.12.14.12h.22c-.44,6.89-2.43,11.07-4,17.47-1.65,6.73-1.05,14.55-.03,21.43.13.89.9,1.56,1.81,1.56h8.43c.66,0,1.26-.36,1.58-.9.12-.2.2-.42.23-.66.15-1.01.29-2.05.41-3.1.74-6.07.97-12.59-.44-18.33ZM14.27,20.23h2.87c.1,1.46.24,2.81.38,4.15-.33-.11-.69-.18-1.06-.18-1.43,0-2.66.93-3.12,2.23-.14.39-.45.69-.83.88.68-2.37,1.32-4.58,1.76-7.09ZM18.37,51.87c-.05.83-.33,1.44-.65,1.44h-4.91c-.8,0-1.48-.61-1.59-1.44-.88-6.17-1.4-13.13-.1-19.21h7.3c.53,6.08.31,13.05-.04,19.21Z"/>
      </g>
    </g>
  </g>
</svg>